%TF.GenerationSoftware,KiCad,Pcbnew,8.0.1*%
%TF.CreationDate,2024-09-29T19:32:40+02:00*%
%TF.ProjectId,CANPCB_TESTBENCH,43414e50-4342-45f5-9445-535442454e43,rev?*%
%TF.SameCoordinates,Original*%
%TF.FileFunction,Copper,L1,Top*%
%TF.FilePolarity,Positive*%
%FSLAX46Y46*%
G04 Gerber Fmt 4.6, Leading zero omitted, Abs format (unit mm)*
G04 Created by KiCad (PCBNEW 8.0.1) date 2024-09-29 19:32:40*
%MOMM*%
%LPD*%
G01*
G04 APERTURE LIST*
G04 Aperture macros list*
%AMRoundRect*
0 Rectangle with rounded corners*
0 $1 Rounding radius*
0 $2 $3 $4 $5 $6 $7 $8 $9 X,Y pos of 4 corners*
0 Add a 4 corners polygon primitive as box body*
4,1,4,$2,$3,$4,$5,$6,$7,$8,$9,$2,$3,0*
0 Add four circle primitives for the rounded corners*
1,1,$1+$1,$2,$3*
1,1,$1+$1,$4,$5*
1,1,$1+$1,$6,$7*
1,1,$1+$1,$8,$9*
0 Add four rect primitives between the rounded corners*
20,1,$1+$1,$2,$3,$4,$5,0*
20,1,$1+$1,$4,$5,$6,$7,0*
20,1,$1+$1,$6,$7,$8,$9,0*
20,1,$1+$1,$8,$9,$2,$3,0*%
G04 Aperture macros list end*
%TA.AperFunction,SMDPad,CuDef*%
%ADD10R,1.250000X0.600000*%
%TD*%
%TA.AperFunction,SMDPad,CuDef*%
%ADD11R,1.969999X0.558000*%
%TD*%
%TA.AperFunction,SMDPad,CuDef*%
%ADD12RoundRect,0.200000X-0.200000X-0.275000X0.200000X-0.275000X0.200000X0.275000X-0.200000X0.275000X0*%
%TD*%
%TA.AperFunction,SMDPad,CuDef*%
%ADD13RoundRect,0.200000X0.200000X0.275000X-0.200000X0.275000X-0.200000X-0.275000X0.200000X-0.275000X0*%
%TD*%
%TA.AperFunction,SMDPad,CuDef*%
%ADD14RoundRect,0.200000X0.275000X-0.200000X0.275000X0.200000X-0.275000X0.200000X-0.275000X-0.200000X0*%
%TD*%
%TA.AperFunction,SMDPad,CuDef*%
%ADD15RoundRect,0.200000X-0.275000X0.200000X-0.275000X-0.200000X0.275000X-0.200000X0.275000X0.200000X0*%
%TD*%
%TA.AperFunction,ComponentPad*%
%ADD16C,1.650000*%
%TD*%
%TA.AperFunction,ComponentPad*%
%ADD17R,2.200000X2.200000*%
%TD*%
%TA.AperFunction,ComponentPad*%
%ADD18C,2.200000*%
%TD*%
%TA.AperFunction,SMDPad,CuDef*%
%ADD19RoundRect,0.225000X0.250000X-0.225000X0.250000X0.225000X-0.250000X0.225000X-0.250000X-0.225000X0*%
%TD*%
%TA.AperFunction,SMDPad,CuDef*%
%ADD20RoundRect,0.225000X-0.225000X-0.250000X0.225000X-0.250000X0.225000X0.250000X-0.225000X0.250000X0*%
%TD*%
%TA.AperFunction,SMDPad,CuDef*%
%ADD21RoundRect,0.225000X0.225000X0.250000X-0.225000X0.250000X-0.225000X-0.250000X0.225000X-0.250000X0*%
%TD*%
%TA.AperFunction,SMDPad,CuDef*%
%ADD22RoundRect,0.225000X-0.250000X0.225000X-0.250000X-0.225000X0.250000X-0.225000X0.250000X0.225000X0*%
%TD*%
%TA.AperFunction,ViaPad*%
%ADD23C,0.600000*%
%TD*%
%TA.AperFunction,Conductor*%
%ADD24C,0.200000*%
%TD*%
G04 APERTURE END LIST*
D10*
%TO.P,IC2,1,IO_1*%
%TO.N,Net-(IC2-IO_1)*%
X154950000Y-104550000D03*
%TO.P,IC2,2,IO_2*%
%TO.N,Net-(IC2-IO_2)*%
X154950000Y-106450000D03*
%TO.P,IC2,3,GND*%
%TO.N,GND*%
X157050000Y-105500000D03*
%TD*%
D11*
%TO.P,U3,1,TXD*%
%TO.N,Net-(J8-Pin_2)*%
X168137800Y-102345000D03*
%TO.P,U3,2,VSS*%
%TO.N,GND*%
X168137800Y-103615000D03*
%TO.P,U3,3,VDD*%
%TO.N,+5V*%
X168137800Y-104885000D03*
%TO.P,U3,4,RXD*%
%TO.N,Net-(J8-Pin_1)*%
X168137800Y-106155000D03*
%TO.P,U3,5,SPLIT*%
%TO.N,Net-(U3-SPLIT)*%
X172862200Y-106155000D03*
%TO.P,U3,6,CANL*%
%TO.N,Net-(IC3-IO_2)*%
X172862200Y-104885000D03*
%TO.P,U3,7,CANH*%
%TO.N,Net-(IC3-IO_1)*%
X172862200Y-103615000D03*
%TO.P,U3,8,STBY*%
%TO.N,Net-(J8-Pin_3)*%
X172862200Y-102345000D03*
%TD*%
%TO.P,U2,1,TXD*%
%TO.N,Net-(J6-Pin_2)*%
X169137800Y-85095000D03*
%TO.P,U2,2,VSS*%
%TO.N,GND*%
X169137800Y-86365000D03*
%TO.P,U2,3,VDD*%
%TO.N,+5V*%
X169137800Y-87635000D03*
%TO.P,U2,4,RXD*%
%TO.N,Net-(J6-Pin_1)*%
X169137800Y-88905000D03*
%TO.P,U2,5,SPLIT*%
%TO.N,Net-(U2-SPLIT)*%
X173862200Y-88905000D03*
%TO.P,U2,6,CANL*%
%TO.N,Net-(IC2-IO_2)*%
X173862200Y-87635000D03*
%TO.P,U2,7,CANH*%
%TO.N,Net-(IC2-IO_1)*%
X173862200Y-86365000D03*
%TO.P,U2,8,STBY*%
%TO.N,Net-(J6-Pin_3)*%
X173862200Y-85095000D03*
%TD*%
%TO.P,U1,1,TXD*%
%TO.N,Net-(J1-Pin_2)*%
X169137800Y-61095000D03*
%TO.P,U1,2,VSS*%
%TO.N,GND*%
X169137800Y-62365000D03*
%TO.P,U1,3,VDD*%
%TO.N,+5V*%
X169137800Y-63635000D03*
%TO.P,U1,4,RXD*%
%TO.N,Net-(J1-Pin_1)*%
X169137800Y-64905000D03*
%TO.P,U1,5,SPLIT*%
%TO.N,Net-(U1-SPLIT)*%
X173862200Y-64905000D03*
%TO.P,U1,6,CANL*%
%TO.N,Net-(IC1-IO_2)*%
X173862200Y-63635000D03*
%TO.P,U1,7,CANH*%
%TO.N,Net-(IC1-IO_1)*%
X173862200Y-62365000D03*
%TO.P,U1,8,STBY*%
%TO.N,Net-(J1-Pin_3)*%
X173862200Y-61095000D03*
%TD*%
D12*
%TO.P,R11,1*%
%TO.N,Net-(C6-Pad1)*%
X162000000Y-109750000D03*
%TO.P,R11,2*%
%TO.N,Net-(IC3-IO_2)*%
X163650000Y-109750000D03*
%TD*%
D13*
%TO.P,R10,1*%
%TO.N,Net-(IC3-IO_1)*%
X171650000Y-109750000D03*
%TO.P,R10,2*%
%TO.N,Net-(C6-Pad1)*%
X170000000Y-109750000D03*
%TD*%
D12*
%TO.P,R9,1*%
%TO.N,Net-(C6-Pad1)*%
X166175000Y-109750000D03*
%TO.P,R9,2*%
%TO.N,Net-(U3-SPLIT)*%
X167825000Y-109750000D03*
%TD*%
D14*
%TO.P,R8,1*%
%TO.N,Net-(C4-Pad1)*%
X160000000Y-85000000D03*
%TO.P,R8,2*%
%TO.N,Net-(IC2-IO_2)*%
X160000000Y-83350000D03*
%TD*%
D12*
%TO.P,R7,1*%
%TO.N,Net-(IC2-IO_1)*%
X155175000Y-88000000D03*
%TO.P,R7,2*%
%TO.N,Net-(C4-Pad1)*%
X156825000Y-88000000D03*
%TD*%
%TO.P,R6,1*%
%TO.N,Net-(C4-Pad1)*%
X164000000Y-89500000D03*
%TO.P,R6,2*%
%TO.N,Net-(U2-SPLIT)*%
X165650000Y-89500000D03*
%TD*%
D15*
%TO.P,R5,1*%
%TO.N,Net-(J5-Pin_1)*%
X155500000Y-91175000D03*
%TO.P,R5,2*%
%TO.N,Net-(J5-Pin_2)*%
X155500000Y-92825000D03*
%TD*%
%TO.P,R4,1*%
%TO.N,Net-(J4-Pin_1)*%
X154500000Y-71175000D03*
%TO.P,R4,2*%
%TO.N,Net-(J4-Pin_2)*%
X154500000Y-72825000D03*
%TD*%
D12*
%TO.P,R3,1*%
%TO.N,Net-(C2-Pad1)*%
X164175000Y-67500000D03*
%TO.P,R3,2*%
%TO.N,Net-(U1-SPLIT)*%
X165825000Y-67500000D03*
%TD*%
D15*
%TO.P,R2,1*%
%TO.N,Net-(C2-Pad1)*%
X159500000Y-62000000D03*
%TO.P,R2,2*%
%TO.N,Net-(IC1-IO_2)*%
X159500000Y-63650000D03*
%TD*%
D12*
%TO.P,R1,1*%
%TO.N,Net-(IC1-IO_1)*%
X154675000Y-66500000D03*
%TO.P,R1,2*%
%TO.N,Net-(C2-Pad1)*%
X156325000Y-66500000D03*
%TD*%
D16*
%TO.P,JP10,1,A*%
%TO.N,Net-(IC1-IO_2)*%
X149000000Y-55000000D03*
%TO.P,JP10,2,B*%
%TO.N,Net-(J4-Pin_1)*%
X151540000Y-55000000D03*
%TD*%
%TO.P,JP9,1,A*%
%TO.N,CAN_L_MIDDLE1*%
X160540000Y-55000000D03*
%TO.P,JP9,2,C*%
%TO.N,Net-(IC1-IO_2)*%
X158000000Y-55000000D03*
%TO.P,JP9,3,B*%
%TO.N,CAN_L_NO_MIDDLE*%
X155460000Y-55000000D03*
%TD*%
%TO.P,JP8,1,A*%
%TO.N,Net-(IC2-IO_2)*%
X158230000Y-98000000D03*
%TO.P,JP8,2,B*%
%TO.N,CAN_L_MIDDLE1*%
X160770000Y-98000000D03*
%TD*%
%TO.P,JP7,1,A*%
%TO.N,Net-(IC2-IO_1)*%
X168230000Y-98000000D03*
%TO.P,JP7,2,B*%
%TO.N,CAN_H_MIDDLE1*%
X170770000Y-98000000D03*
%TD*%
%TO.P,JP6,1,A*%
%TO.N,Net-(IC1-IO_1)*%
X162270000Y-71000000D03*
%TO.P,JP6,2,B*%
%TO.N,Net-(J4-Pin_2)*%
X159730000Y-71000000D03*
%TD*%
%TO.P,JP5,1,A*%
%TO.N,CAN_H_MIDDLE1*%
X170960000Y-55000000D03*
%TO.P,JP5,2,C*%
%TO.N,Net-(IC1-IO_1)*%
X173500000Y-55000000D03*
%TO.P,JP5,3,B*%
%TO.N,CAN_H_NO_MIDDLE*%
X176040000Y-55000000D03*
%TD*%
%TO.P,JP4,1,A*%
%TO.N,Net-(IC3-IO_2)*%
X151270000Y-78000000D03*
%TO.P,JP4,2,B*%
%TO.N,Net-(J5-Pin_1)*%
X148730000Y-78000000D03*
%TD*%
%TO.P,JP3,1,A*%
%TO.N,Net-(IC3-IO_1)*%
X166770000Y-78000000D03*
%TO.P,JP3,2,B*%
%TO.N,Net-(J5-Pin_2)*%
X164230000Y-78000000D03*
%TD*%
%TO.P,JP2,1,A*%
%TO.N,CAN_H_MIDDLE1*%
X170960000Y-78000000D03*
%TO.P,JP2,2,C*%
%TO.N,Net-(IC3-IO_1)*%
X173500000Y-78000000D03*
%TO.P,JP2,3,B*%
%TO.N,CAN_H_NO_MIDDLE*%
X176040000Y-78000000D03*
%TD*%
%TO.P,JP1,1,A*%
%TO.N,CAN_L_MIDDLE1*%
X160540000Y-78000000D03*
%TO.P,JP1,2,C*%
%TO.N,Net-(IC3-IO_2)*%
X158000000Y-78000000D03*
%TO.P,JP1,3,B*%
%TO.N,CAN_L_NO_MIDDLE*%
X155460000Y-78000000D03*
%TD*%
D17*
%TO.P,J9,1,Pin_1*%
%TO.N,Net-(IC3-IO_1)*%
X149500000Y-82960000D03*
D18*
%TO.P,J9,2,Pin_2*%
%TO.N,Net-(IC3-IO_2)*%
X149500000Y-85500000D03*
%TD*%
D17*
%TO.P,J8,1,Pin_1*%
%TO.N,Net-(J8-Pin_1)*%
X180500000Y-101790000D03*
D18*
%TO.P,J8,2,Pin_2*%
%TO.N,Net-(J8-Pin_2)*%
X180500000Y-99250000D03*
%TO.P,J8,3,Pin_3*%
%TO.N,Net-(J8-Pin_3)*%
X180500000Y-96710000D03*
%TD*%
D17*
%TO.P,J7,1,Pin_1*%
%TO.N,Net-(IC2-IO_1)*%
X149500000Y-102500000D03*
D18*
%TO.P,J7,2,Pin_2*%
%TO.N,Net-(IC2-IO_2)*%
X149500000Y-105040000D03*
%TD*%
D17*
%TO.P,J6,1,Pin_1*%
%TO.N,Net-(J6-Pin_1)*%
X180500000Y-90040000D03*
D18*
%TO.P,J6,2,Pin_2*%
%TO.N,Net-(J6-Pin_2)*%
X180500000Y-87500000D03*
%TO.P,J6,3,Pin_3*%
%TO.N,Net-(J6-Pin_3)*%
X180500000Y-84960000D03*
%TD*%
D17*
%TO.P,J5,1,Pin_1*%
%TO.N,Net-(J5-Pin_1)*%
X149500000Y-89960000D03*
D18*
%TO.P,J5,2,Pin_2*%
%TO.N,Net-(J5-Pin_2)*%
X149500000Y-92500000D03*
%TD*%
D17*
%TO.P,J4,1,Pin_1*%
%TO.N,Net-(J4-Pin_1)*%
X149540000Y-70460000D03*
D18*
%TO.P,J4,2,Pin_2*%
%TO.N,Net-(J4-Pin_2)*%
X149540000Y-73000000D03*
%TD*%
D17*
%TO.P,J3,1,Pin_1*%
%TO.N,GND*%
X180750000Y-109540000D03*
D18*
%TO.P,J3,2,Pin_2*%
%TO.N,+5V*%
X180750000Y-107000000D03*
%TD*%
D17*
%TO.P,J2,1,Pin_1*%
%TO.N,Net-(IC1-IO_1)*%
X149500000Y-61730000D03*
D18*
%TO.P,J2,2,Pin_2*%
%TO.N,Net-(IC1-IO_2)*%
X149500000Y-64270000D03*
%TD*%
D17*
%TO.P,J1,1,Pin_1*%
%TO.N,Net-(J1-Pin_1)*%
X179960000Y-66580000D03*
D18*
%TO.P,J1,2,Pin_2*%
%TO.N,Net-(J1-Pin_2)*%
X179960000Y-64040000D03*
%TO.P,J1,3,Pin_3*%
%TO.N,Net-(J1-Pin_3)*%
X179960000Y-61500000D03*
%TD*%
D10*
%TO.P,IC3,1,IO_1*%
%TO.N,Net-(IC3-IO_1)*%
X154450000Y-83300000D03*
%TO.P,IC3,2,IO_2*%
%TO.N,Net-(IC3-IO_2)*%
X154450000Y-85200000D03*
%TO.P,IC3,3,GND*%
%TO.N,GND*%
X156550000Y-84250000D03*
%TD*%
%TO.P,IC1,1,IO_1*%
%TO.N,Net-(IC1-IO_1)*%
X154900000Y-62050000D03*
%TO.P,IC1,2,IO_2*%
%TO.N,Net-(IC1-IO_2)*%
X154900000Y-63950000D03*
%TO.P,IC1,3,GND*%
%TO.N,GND*%
X157000000Y-63000000D03*
%TD*%
D19*
%TO.P,C6,1*%
%TO.N,Net-(C6-Pad1)*%
X161750000Y-107275000D03*
%TO.P,C6,2*%
%TO.N,GND*%
X161750000Y-105725000D03*
%TD*%
D20*
%TO.P,C5,1*%
%TO.N,GND*%
X161975000Y-103000000D03*
%TO.P,C5,2*%
%TO.N,+5V*%
X163525000Y-103000000D03*
%TD*%
D21*
%TO.P,C4,1*%
%TO.N,Net-(C4-Pad1)*%
X161775000Y-88500000D03*
%TO.P,C4,2*%
%TO.N,GND*%
X160225000Y-88500000D03*
%TD*%
D22*
%TO.P,C3,1*%
%TO.N,GND*%
X164000000Y-84000000D03*
%TO.P,C3,2*%
%TO.N,+5V*%
X164000000Y-85550000D03*
%TD*%
D21*
%TO.P,C2,1*%
%TO.N,Net-(C2-Pad1)*%
X162275000Y-66500000D03*
%TO.P,C2,2*%
%TO.N,GND*%
X160725000Y-66500000D03*
%TD*%
D22*
%TO.P,C1,1*%
%TO.N,GND*%
X165000000Y-61225000D03*
%TO.P,C1,2*%
%TO.N,+5V*%
X165000000Y-62775000D03*
%TD*%
D23*
%TO.N,Net-(IC2-IO_2)*%
X176500000Y-87750000D03*
%TO.N,Net-(IC3-IO_1)*%
X175750000Y-103750000D03*
%TO.N,Net-(J8-Pin_3)*%
X173000000Y-101000000D03*
X173000000Y-96500000D03*
%TO.N,Net-(IC3-IO_2)*%
X175000000Y-109500000D03*
X154500000Y-86500000D03*
%TO.N,+5V*%
X164750000Y-106750000D03*
X176500000Y-107000000D03*
%TO.N,Net-(J5-Pin_2)*%
X155500000Y-94750000D03*
%TO.N,Net-(IC3-IO_1)*%
X162500000Y-80500000D03*
%TO.N,Net-(IC2-IO_1)*%
X162000000Y-83250000D03*
X173750000Y-83750000D03*
%TO.N,Net-(IC3-IO_1)*%
X173500000Y-81000000D03*
%TO.N,+5V*%
X164000000Y-87500000D03*
%TO.N,Net-(IC3-IO_1)*%
X149500000Y-80500000D03*
%TO.N,Net-(IC1-IO_2)*%
X158000000Y-60500000D03*
%TO.N,Net-(IC1-IO_1)*%
X174000000Y-71000000D03*
X174000000Y-58500000D03*
%TO.N,Net-(IC1-IO_2)*%
X158000000Y-58500000D03*
%TO.N,Net-(J1-Pin_2)*%
X180000000Y-59000000D03*
X169000000Y-59000000D03*
%TO.N,Net-(IC1-IO_1)*%
X154000000Y-60500000D03*
X154000000Y-68500000D03*
%TO.N,+5V*%
X165000000Y-64500000D03*
%TO.N,Net-(J4-Pin_1)*%
X151500000Y-67000000D03*
X151500000Y-58500000D03*
%TO.N,CAN_L_MIDDLE1*%
X160540000Y-80350000D03*
%TO.N,CAN_H_MIDDLE1*%
X171000000Y-81000000D03*
X171000000Y-95000000D03*
%TO.N,CAN_L_MIDDLE1*%
X160500000Y-95000000D03*
%TO.N,CAN_H_MIDDLE1*%
X171000000Y-58500000D03*
%TO.N,CAN_H_NO_MIDDLE*%
X176000000Y-58500000D03*
X176000000Y-75000000D03*
%TO.N,CAN_H_MIDDLE1*%
X171000000Y-75000000D03*
%TO.N,CAN_L_MIDDLE1*%
X160500000Y-75000000D03*
%TO.N,CAN_L_NO_MIDDLE*%
X155500000Y-75000000D03*
%TO.N,CAN_L_MIDDLE1*%
X160500000Y-58500000D03*
%TO.N,CAN_L_NO_MIDDLE*%
X155500000Y-58500000D03*
%TD*%
D24*
%TO.N,Net-(IC3-IO_1)*%
X161000000Y-82000000D02*
X162250000Y-82000000D01*
X162500000Y-81750000D02*
X162500000Y-80500000D01*
X155500000Y-82250000D02*
X160750000Y-82250000D01*
X160750000Y-82250000D02*
X161000000Y-82000000D01*
X154450000Y-83300000D02*
X155500000Y-82250000D01*
X162250000Y-82000000D02*
X162500000Y-81750000D01*
%TO.N,CAN_L_MIDDLE1*%
X160540000Y-80350000D02*
X160540000Y-78000000D01*
%TO.N,Net-(IC2-IO_1)*%
X159125000Y-84050000D02*
X155175000Y-88000000D01*
X162000000Y-83250000D02*
X161200000Y-84050000D01*
X161200000Y-84050000D02*
X159125000Y-84050000D01*
%TO.N,Net-(IC2-IO_2)*%
X172883200Y-87056000D02*
X173462200Y-87635000D01*
X166729696Y-87056000D02*
X172883200Y-87056000D01*
%TO.N,Net-(IC2-IO_1)*%
X159355000Y-93145000D02*
X159355000Y-92180000D01*
X156250000Y-96250000D02*
X159355000Y-93145000D01*
X149500000Y-102500000D02*
X154250000Y-102500000D01*
X154250000Y-102500000D02*
X156250000Y-100500000D01*
X156250000Y-100500000D02*
X156250000Y-96250000D01*
X159355000Y-92180000D02*
X155175000Y-88000000D01*
X159355000Y-99125000D02*
X159355000Y-92180000D01*
X168230000Y-98000000D02*
X167105000Y-99125000D01*
X167105000Y-99125000D02*
X159355000Y-99125000D01*
%TO.N,Net-(IC2-IO_2)*%
X158230000Y-99745000D02*
X158230000Y-98000000D01*
%TO.N,Net-(IC2-IO_1)*%
X148100000Y-106350000D02*
X148100000Y-103900000D01*
X155875000Y-107050000D02*
X148800000Y-107050000D01*
X155875000Y-105475000D02*
X155875000Y-107050000D01*
X148100000Y-103900000D02*
X149500000Y-102500000D01*
X154950000Y-104550000D02*
X155875000Y-105475000D01*
X148800000Y-107050000D02*
X148100000Y-106350000D01*
%TO.N,Net-(IC2-IO_2)*%
X163500000Y-84750000D02*
X164423696Y-84750000D01*
X162600000Y-83850000D02*
X163500000Y-84750000D01*
X164423696Y-84750000D02*
X166729696Y-87056000D01*
X162600000Y-83001471D02*
X162600000Y-83850000D01*
X162098529Y-82500000D02*
X162600000Y-83001471D01*
X161325000Y-82500000D02*
X162098529Y-82500000D01*
X160475000Y-83350000D02*
X161325000Y-82500000D01*
X160000000Y-83350000D02*
X160475000Y-83350000D01*
%TO.N,Net-(J6-Pin_2)*%
X181900000Y-86100000D02*
X180500000Y-87500000D01*
X181900000Y-84380101D02*
X181900000Y-86100000D01*
X180519899Y-83000000D02*
X181900000Y-84380101D01*
X171232800Y-83000000D02*
X180519899Y-83000000D01*
X169137800Y-85095000D02*
X171232800Y-83000000D01*
%TO.N,Net-(IC2-IO_1)*%
X173156201Y-86365000D02*
X173862200Y-86365000D01*
X172577201Y-84516000D02*
X172577201Y-85786000D01*
X172577201Y-85786000D02*
X173156201Y-86365000D01*
X173343201Y-83750000D02*
X172577201Y-84516000D01*
X173750000Y-83750000D02*
X173343201Y-83750000D01*
%TO.N,Net-(IC2-IO_2)*%
X176500000Y-87750000D02*
X174312885Y-87750000D01*
%TO.N,Net-(IC3-IO_2)*%
X162250000Y-106525000D02*
X163650000Y-107925000D01*
X163650000Y-107925000D02*
X163650000Y-109750000D01*
X160975000Y-106826304D02*
X161276304Y-106525000D01*
X161276304Y-106525000D02*
X162250000Y-106525000D01*
X161987352Y-110925000D02*
X160975000Y-109912648D01*
X173575000Y-110925000D02*
X161987352Y-110925000D01*
X160975000Y-109912648D02*
X160975000Y-106826304D01*
X175000000Y-109500000D02*
X173575000Y-110925000D01*
%TO.N,Net-(IC3-IO_1)*%
X175615000Y-103615000D02*
X175750000Y-103750000D01*
X172862200Y-103615000D02*
X175615000Y-103615000D01*
%TO.N,Net-(J8-Pin_3)*%
X173000000Y-96500000D02*
X173210000Y-96710000D01*
X173210000Y-96710000D02*
X180500000Y-96710000D01*
X172862200Y-101137800D02*
X173000000Y-101000000D01*
X172862200Y-102345000D02*
X172862200Y-101137800D01*
%TO.N,Net-(J8-Pin_2)*%
X171232800Y-99250000D02*
X180500000Y-99250000D01*
X168137800Y-102345000D02*
X171232800Y-99250000D01*
%TO.N,Net-(J8-Pin_1)*%
X171577201Y-103036000D02*
X179254000Y-103036000D01*
X171577201Y-103740314D02*
X171577201Y-103036000D01*
X169162515Y-106155000D02*
X171577201Y-103740314D01*
X168137800Y-106155000D02*
X169162515Y-106155000D01*
X179254000Y-103036000D02*
X180500000Y-101790000D01*
%TO.N,Net-(U3-SPLIT)*%
X172862200Y-109725448D02*
X172862200Y-106155000D01*
X171237352Y-110525000D02*
X172062648Y-110525000D01*
X170950000Y-110237648D02*
X171237352Y-110525000D01*
X172062648Y-110525000D02*
X172862200Y-109725448D01*
X171177201Y-106397799D02*
X171177201Y-109035151D01*
X171177201Y-109035151D02*
X170950000Y-109262352D01*
X170950000Y-109262352D02*
X170950000Y-110237648D01*
X167825000Y-109750000D02*
X171177201Y-106397799D01*
%TO.N,Net-(IC3-IO_2)*%
X173568199Y-104885000D02*
X172862200Y-104885000D01*
X175000000Y-106316801D02*
X173568199Y-104885000D01*
X175000000Y-109500000D02*
X175000000Y-106316801D01*
X154500000Y-86500000D02*
X154500000Y-85250000D01*
X154500000Y-85250000D02*
X154450000Y-85200000D01*
%TO.N,+5V*%
X165000000Y-106750000D02*
X166865000Y-104885000D01*
X166865000Y-104885000D02*
X168137800Y-104885000D01*
X164750000Y-106750000D02*
X165000000Y-106750000D01*
X163525000Y-105525000D02*
X164750000Y-106750000D01*
X163525000Y-103000000D02*
X163525000Y-105525000D01*
X180750000Y-107000000D02*
X176500000Y-107000000D01*
%TO.N,Net-(IC3-IO_1)*%
X172268201Y-103615000D02*
X172862200Y-103615000D01*
X171577201Y-104306000D02*
X172268201Y-103615000D01*
X171577201Y-109677201D02*
X171577201Y-104306000D01*
X171650000Y-109750000D02*
X171577201Y-109677201D01*
%TO.N,Net-(C6-Pad1)*%
X162000000Y-107525000D02*
X161750000Y-107275000D01*
X162000000Y-109750000D02*
X162000000Y-107525000D01*
X162775000Y-110525000D02*
X162000000Y-109750000D01*
X165400000Y-110525000D02*
X162775000Y-110525000D01*
X166175000Y-109750000D02*
X165400000Y-110525000D01*
X166950000Y-110525000D02*
X166175000Y-109750000D01*
X169225000Y-110525000D02*
X166950000Y-110525000D01*
X170000000Y-109750000D02*
X169225000Y-110525000D01*
%TO.N,Net-(IC2-IO_2)*%
X153540000Y-105040000D02*
X153540000Y-104435000D01*
X153540000Y-104435000D02*
X158230000Y-99745000D01*
X153540000Y-105040000D02*
X154950000Y-106450000D01*
X149500000Y-105040000D02*
X153540000Y-105040000D01*
%TO.N,Net-(IC3-IO_2)*%
X149800000Y-85200000D02*
X149500000Y-85500000D01*
X154450000Y-85200000D02*
X149800000Y-85200000D01*
%TO.N,Net-(J5-Pin_2)*%
X155500000Y-94750000D02*
X155500000Y-92825000D01*
%TO.N,Net-(IC3-IO_1)*%
X164270000Y-80500000D02*
X166770000Y-78000000D01*
X162500000Y-80500000D02*
X164270000Y-80500000D01*
X149500000Y-82960000D02*
X149500000Y-80500000D01*
X170370000Y-74400000D02*
X166770000Y-78000000D01*
X173500000Y-76651471D02*
X171248529Y-74400000D01*
X173500000Y-78000000D02*
X173500000Y-76651471D01*
X171248529Y-74400000D02*
X170370000Y-74400000D01*
X173500000Y-81000000D02*
X173500000Y-78000000D01*
%TO.N,+5V*%
X164000000Y-87500000D02*
X164000000Y-85550000D01*
%TO.N,Net-(J6-Pin_1)*%
X170272800Y-90040000D02*
X180500000Y-90040000D01*
X169137800Y-88905000D02*
X170272800Y-90040000D01*
%TO.N,+5V*%
X169137800Y-87635000D02*
X166085000Y-87635000D01*
X166085000Y-87635000D02*
X164000000Y-85550000D01*
%TO.N,Net-(IC3-IO_2)*%
X152395000Y-79125000D02*
X156875000Y-79125000D01*
X156875000Y-79125000D02*
X158000000Y-78000000D01*
X151270000Y-78000000D02*
X152395000Y-79125000D01*
X151270000Y-83990000D02*
X151270000Y-78000000D01*
X149760000Y-85500000D02*
X151270000Y-83990000D01*
X149500000Y-85500000D02*
X149760000Y-85500000D01*
%TO.N,Net-(J5-Pin_1)*%
X148100000Y-78630000D02*
X148730000Y-78000000D01*
X148100000Y-88560000D02*
X148100000Y-78630000D01*
X149500000Y-89960000D02*
X148100000Y-88560000D01*
X155500000Y-91175000D02*
X150715000Y-91175000D01*
X150715000Y-91175000D02*
X149500000Y-89960000D01*
%TO.N,Net-(J5-Pin_2)*%
X149825000Y-92825000D02*
X149500000Y-92500000D01*
X155500000Y-92825000D02*
X149825000Y-92825000D01*
%TO.N,Net-(C4-Pad1)*%
X157000000Y-88000000D02*
X156825000Y-88000000D01*
X160000000Y-85000000D02*
X157000000Y-88000000D01*
X160000000Y-86500000D02*
X160000000Y-85000000D01*
X161775000Y-88275000D02*
X160000000Y-86500000D01*
X161775000Y-88500000D02*
X161775000Y-88275000D01*
X162775000Y-89500000D02*
X161775000Y-88500000D01*
X164000000Y-89500000D02*
X162775000Y-89500000D01*
%TO.N,Net-(U2-SPLIT)*%
X173171200Y-88214000D02*
X173862200Y-88905000D01*
X165650000Y-89025000D02*
X166461000Y-88214000D01*
X166461000Y-88214000D02*
X173171200Y-88214000D01*
X165650000Y-89500000D02*
X165650000Y-89025000D01*
%TO.N,Net-(J6-Pin_3)*%
X180365000Y-85095000D02*
X180500000Y-84960000D01*
X173862200Y-85095000D02*
X180365000Y-85095000D01*
%TO.N,Net-(IC1-IO_2)*%
X159500000Y-63650000D02*
X158000000Y-62150000D01*
X158000000Y-62150000D02*
X158000000Y-60500000D01*
X159125000Y-53875000D02*
X158000000Y-55000000D01*
X171775000Y-53875000D02*
X159125000Y-53875000D01*
X172085000Y-62563799D02*
X172085000Y-54185000D01*
X173862200Y-63635000D02*
X173156201Y-63635000D01*
X173156201Y-63635000D02*
X172085000Y-62563799D01*
X172085000Y-54185000D02*
X171775000Y-53875000D01*
%TO.N,Net-(IC1-IO_1)*%
X174000000Y-71000000D02*
X162270000Y-71000000D01*
X172577201Y-57077201D02*
X174000000Y-58500000D01*
X172577201Y-56500000D02*
X172577201Y-55922799D01*
X172577201Y-61674000D02*
X172577201Y-56500000D01*
X172577201Y-56500000D02*
X172577201Y-57077201D01*
%TO.N,Net-(IC1-IO_2)*%
X158000000Y-58500000D02*
X158000000Y-55000000D01*
%TO.N,Net-(U1-SPLIT)*%
X165825000Y-66012648D02*
X167623648Y-64214000D01*
X165825000Y-67500000D02*
X165825000Y-66012648D01*
%TO.N,+5V*%
X165860000Y-63635000D02*
X169137800Y-63635000D01*
X165000000Y-62775000D02*
X165860000Y-63635000D01*
%TO.N,Net-(C2-Pad1)*%
X163175000Y-66500000D02*
X164175000Y-67500000D01*
X162275000Y-66500000D02*
X163175000Y-66500000D01*
X162275000Y-66500000D02*
X162275000Y-65612648D01*
X162275000Y-65612648D02*
X160500000Y-63837648D01*
X160500000Y-63000000D02*
X159500000Y-62000000D01*
X160500000Y-63837648D02*
X160500000Y-63000000D01*
X157837648Y-66500000D02*
X160500000Y-63837648D01*
X156325000Y-66500000D02*
X157837648Y-66500000D01*
%TO.N,Net-(IC1-IO_2)*%
X156425000Y-63650000D02*
X159500000Y-63650000D01*
X156125000Y-63950000D02*
X156425000Y-63650000D01*
%TO.N,Net-(IC1-IO_1)*%
X158945000Y-67675000D02*
X154825000Y-67675000D01*
X154825000Y-67675000D02*
X154500000Y-68000000D01*
X162270000Y-71000000D02*
X158945000Y-67675000D01*
X154500000Y-68000000D02*
X154675000Y-67825000D01*
X154000000Y-68500000D02*
X154500000Y-68000000D01*
%TO.N,Net-(J4-Pin_2)*%
X157905000Y-72825000D02*
X159730000Y-71000000D01*
X154500000Y-72825000D02*
X157905000Y-72825000D01*
%TO.N,Net-(J1-Pin_2)*%
X169137800Y-59137800D02*
X169137800Y-61095000D01*
X169000000Y-59000000D02*
X169137800Y-59137800D01*
X181360000Y-62640000D02*
X179960000Y-64040000D01*
X181360000Y-60360000D02*
X181360000Y-62640000D01*
X180000000Y-59000000D02*
X181360000Y-60360000D01*
%TO.N,Net-(IC1-IO_1)*%
X154900000Y-61400000D02*
X154000000Y-60500000D01*
X154900000Y-62050000D02*
X154900000Y-61400000D01*
X154675000Y-67825000D02*
X154675000Y-66500000D01*
%TO.N,+5V*%
X165000000Y-64500000D02*
X165000000Y-62775000D01*
%TO.N,Net-(U1-SPLIT)*%
X173862200Y-64905000D02*
X173171200Y-64214000D01*
X173171200Y-64214000D02*
X167623648Y-64214000D01*
%TO.N,Net-(J1-Pin_1)*%
X179960000Y-66580000D02*
X170812800Y-66580000D01*
X170812800Y-66580000D02*
X169137800Y-64905000D01*
%TO.N,Net-(IC1-IO_1)*%
X172577201Y-55922799D02*
X173500000Y-55000000D01*
X173862200Y-62365000D02*
X173268201Y-62365000D01*
X173268201Y-62365000D02*
X172577201Y-61674000D01*
%TO.N,Net-(J1-Pin_3)*%
X179555000Y-61095000D02*
X179960000Y-61500000D01*
X173862200Y-61095000D02*
X179555000Y-61095000D01*
%TO.N,Net-(J4-Pin_2)*%
X154325000Y-73000000D02*
X154500000Y-72825000D01*
X149540000Y-73000000D02*
X154325000Y-73000000D01*
%TO.N,Net-(J4-Pin_1)*%
X153785000Y-70460000D02*
X154500000Y-71175000D01*
X149540000Y-70460000D02*
X153785000Y-70460000D01*
X151540000Y-58460000D02*
X151540000Y-55000000D01*
X151500000Y-58500000D02*
X151540000Y-58460000D01*
X149540000Y-68960000D02*
X151500000Y-67000000D01*
X149540000Y-70460000D02*
X149540000Y-68960000D01*
%TO.N,Net-(IC1-IO_2)*%
X156875000Y-53875000D02*
X150125000Y-53875000D01*
X150125000Y-53875000D02*
X149000000Y-55000000D01*
X158000000Y-55000000D02*
X156875000Y-53875000D01*
%TO.N,Net-(IC1-IO_1)*%
X149820000Y-62050000D02*
X149500000Y-61730000D01*
X154900000Y-62050000D02*
X149820000Y-62050000D01*
%TO.N,Net-(IC1-IO_2)*%
X154900000Y-63950000D02*
X156125000Y-63950000D01*
X154580000Y-64270000D02*
X154900000Y-63950000D01*
X149500000Y-64270000D02*
X154580000Y-64270000D01*
%TO.N,CAN_H_MIDDLE1*%
X170960000Y-80960000D02*
X170960000Y-78000000D01*
X171000000Y-81000000D02*
X170960000Y-80960000D01*
%TO.N,CAN_L_MIDDLE1*%
X160770000Y-95270000D02*
X160770000Y-98000000D01*
X160500000Y-95000000D02*
X160770000Y-95270000D01*
%TO.N,CAN_H_MIDDLE1*%
X170770000Y-98000000D02*
X170770000Y-95230000D01*
X170770000Y-95230000D02*
X171000000Y-95000000D01*
%TO.N,CAN_L_MIDDLE1*%
X160540000Y-75040000D02*
X160540000Y-78000000D01*
X160500000Y-75000000D02*
X160540000Y-75040000D01*
%TO.N,CAN_L_NO_MIDDLE*%
X155460000Y-75040000D02*
X155460000Y-78000000D01*
X155500000Y-75000000D02*
X155460000Y-75040000D01*
X155460000Y-58460000D02*
X155460000Y-55000000D01*
X155500000Y-58500000D02*
X155460000Y-58460000D01*
%TO.N,CAN_L_MIDDLE1*%
X160500000Y-58500000D02*
X160500000Y-58000000D01*
X160500000Y-58000000D02*
X160540000Y-57960000D01*
X160540000Y-57960000D02*
X160540000Y-55000000D01*
%TO.N,CAN_H_MIDDLE1*%
X170960000Y-75040000D02*
X171000000Y-75000000D01*
X170960000Y-78000000D02*
X170960000Y-75040000D01*
X170960000Y-58460000D02*
X171000000Y-58500000D01*
X170960000Y-55000000D02*
X170960000Y-58460000D01*
%TO.N,CAN_H_NO_MIDDLE*%
X176040000Y-58460000D02*
X176000000Y-58500000D01*
X176040000Y-55000000D02*
X176040000Y-58460000D01*
X176040000Y-78000000D02*
X176040000Y-75040000D01*
X176040000Y-75040000D02*
X176000000Y-75000000D01*
%TD*%
%TA.AperFunction,Conductor*%
%TO.N,GND*%
G36*
X184692539Y-52520185D02*
G01*
X184738294Y-52572989D01*
X184749500Y-52624500D01*
X184749500Y-112125500D01*
X184729815Y-112192539D01*
X184677011Y-112238294D01*
X184625500Y-112249500D01*
X145624500Y-112249500D01*
X145557461Y-112229815D01*
X145511706Y-112177011D01*
X145500500Y-112125500D01*
X145500500Y-105118846D01*
X146159500Y-105118846D01*
X146190261Y-105273489D01*
X146190264Y-105273501D01*
X146250602Y-105419172D01*
X146250609Y-105419185D01*
X146338210Y-105550288D01*
X146338213Y-105550292D01*
X146449707Y-105661786D01*
X146449711Y-105661789D01*
X146580814Y-105749390D01*
X146580827Y-105749397D01*
X146726498Y-105809735D01*
X146726503Y-105809737D01*
X146838175Y-105831950D01*
X146881153Y-105840499D01*
X146881156Y-105840500D01*
X146881158Y-105840500D01*
X147038844Y-105840500D01*
X147038845Y-105840499D01*
X147193497Y-105809737D01*
X147270574Y-105777811D01*
X147328048Y-105754005D01*
X147397517Y-105746536D01*
X147459996Y-105777811D01*
X147495648Y-105837900D01*
X147499500Y-105868566D01*
X147499500Y-106263330D01*
X147499499Y-106263348D01*
X147499499Y-106429054D01*
X147499498Y-106429054D01*
X147533204Y-106554842D01*
X147540423Y-106581785D01*
X147562961Y-106620821D01*
X147595008Y-106676328D01*
X147619479Y-106718715D01*
X147738349Y-106837585D01*
X147738355Y-106837590D01*
X148315139Y-107414374D01*
X148315149Y-107414385D01*
X148319479Y-107418715D01*
X148319480Y-107418716D01*
X148431284Y-107530520D01*
X148431286Y-107530521D01*
X148431290Y-107530524D01*
X148552494Y-107600500D01*
X148568216Y-107609577D01*
X148680019Y-107639534D01*
X148720942Y-107650500D01*
X148720943Y-107650500D01*
X148720944Y-107650500D01*
X155954055Y-107650500D01*
X155954057Y-107650500D01*
X156106784Y-107609577D01*
X156243716Y-107530520D01*
X156355520Y-107418716D01*
X156434577Y-107281784D01*
X156475500Y-107129057D01*
X156475500Y-106424000D01*
X156495185Y-106356961D01*
X156547989Y-106311206D01*
X156599500Y-106300000D01*
X156800000Y-106300000D01*
X156800000Y-105750000D01*
X157300000Y-105750000D01*
X157300000Y-106300000D01*
X157722828Y-106300000D01*
X157722844Y-106299999D01*
X157782372Y-106293598D01*
X157782379Y-106293596D01*
X157917086Y-106243354D01*
X157917093Y-106243350D01*
X158032187Y-106157190D01*
X158032190Y-106157187D01*
X158118350Y-106042093D01*
X158118354Y-106042086D01*
X158168596Y-105907379D01*
X158168598Y-105907372D01*
X158174999Y-105847844D01*
X158175000Y-105847827D01*
X158175000Y-105750000D01*
X157300000Y-105750000D01*
X156800000Y-105750000D01*
X156800000Y-105475000D01*
X160775000Y-105475000D01*
X161500000Y-105475000D01*
X161500000Y-104775000D01*
X161499999Y-104774999D01*
X161451693Y-104775000D01*
X161451675Y-104775001D01*
X161352392Y-104785144D01*
X161191518Y-104838452D01*
X161191507Y-104838457D01*
X161047271Y-104927424D01*
X161047267Y-104927427D01*
X160927427Y-105047267D01*
X160927424Y-105047271D01*
X160838457Y-105191507D01*
X160838452Y-105191518D01*
X160785144Y-105352393D01*
X160775000Y-105451677D01*
X160775000Y-105475000D01*
X156800000Y-105475000D01*
X156800000Y-104700000D01*
X157300000Y-104700000D01*
X157300000Y-105250000D01*
X158175000Y-105250000D01*
X158175000Y-105152172D01*
X158174999Y-105152155D01*
X158168598Y-105092627D01*
X158168596Y-105092620D01*
X158118354Y-104957913D01*
X158118350Y-104957906D01*
X158032190Y-104842812D01*
X158032187Y-104842809D01*
X157917093Y-104756649D01*
X157917086Y-104756645D01*
X157782379Y-104706403D01*
X157782372Y-104706401D01*
X157722844Y-104700000D01*
X157300000Y-104700000D01*
X156800000Y-104700000D01*
X156377155Y-104700000D01*
X156317627Y-104706401D01*
X156317619Y-104706403D01*
X156242832Y-104734297D01*
X156173140Y-104739281D01*
X156111817Y-104705795D01*
X156078333Y-104644472D01*
X156075499Y-104618115D01*
X156075499Y-104202129D01*
X156075498Y-104202123D01*
X156074797Y-104195604D01*
X156069091Y-104142517D01*
X156066783Y-104136330D01*
X156018797Y-104007671D01*
X156018793Y-104007664D01*
X155932547Y-103892455D01*
X155932544Y-103892452D01*
X155817335Y-103806206D01*
X155817328Y-103806202D01*
X155682482Y-103755908D01*
X155682483Y-103755908D01*
X155622883Y-103749501D01*
X155622881Y-103749500D01*
X155622873Y-103749500D01*
X155622865Y-103749500D01*
X155374096Y-103749500D01*
X155307057Y-103729815D01*
X155261302Y-103677011D01*
X155251358Y-103607853D01*
X155280383Y-103544297D01*
X155286415Y-103537819D01*
X155574234Y-103250000D01*
X161025001Y-103250000D01*
X161025001Y-103298322D01*
X161035144Y-103397607D01*
X161088452Y-103558481D01*
X161088457Y-103558492D01*
X161177424Y-103702728D01*
X161177427Y-103702732D01*
X161297267Y-103822572D01*
X161297271Y-103822575D01*
X161441507Y-103911542D01*
X161441518Y-103911547D01*
X161602393Y-103964855D01*
X161701683Y-103974999D01*
X161725000Y-103974998D01*
X161725000Y-103250000D01*
X161025001Y-103250000D01*
X155574234Y-103250000D01*
X155972908Y-102851326D01*
X156074234Y-102750000D01*
X161025000Y-102750000D01*
X161725000Y-102750000D01*
X161725000Y-102024999D01*
X161701693Y-102025000D01*
X161701674Y-102025001D01*
X161602392Y-102035144D01*
X161441518Y-102088452D01*
X161441507Y-102088457D01*
X161297271Y-102177424D01*
X161297267Y-102177427D01*
X161177427Y-102297267D01*
X161177424Y-102297271D01*
X161088457Y-102441507D01*
X161088452Y-102441518D01*
X161035144Y-102602393D01*
X161025000Y-102701677D01*
X161025000Y-102750000D01*
X156074234Y-102750000D01*
X158710520Y-100113716D01*
X158789577Y-99976784D01*
X158830501Y-99824057D01*
X158830501Y-99730352D01*
X158850186Y-99663313D01*
X158902990Y-99617558D01*
X158972148Y-99607614D01*
X159016498Y-99622964D01*
X159123216Y-99684577D01*
X159275943Y-99725500D01*
X167018331Y-99725500D01*
X167018347Y-99725501D01*
X167025943Y-99725501D01*
X167184054Y-99725501D01*
X167184057Y-99725501D01*
X167336785Y-99684577D01*
X167386904Y-99655639D01*
X167473716Y-99605520D01*
X167585520Y-99493716D01*
X167585520Y-99493714D01*
X167595728Y-99483507D01*
X167595730Y-99483504D01*
X167766882Y-99312351D01*
X167828203Y-99278868D01*
X167886654Y-99280258D01*
X167998950Y-99310349D01*
X168163985Y-99324787D01*
X168229998Y-99330563D01*
X168230000Y-99330563D01*
X168230002Y-99330563D01*
X168287762Y-99325509D01*
X168461050Y-99310349D01*
X168685079Y-99250320D01*
X168895282Y-99152301D01*
X169085269Y-99019270D01*
X169249270Y-98855269D01*
X169382301Y-98665282D01*
X169387618Y-98653878D01*
X169433790Y-98601440D01*
X169500984Y-98582288D01*
X169567865Y-98602504D01*
X169612381Y-98653878D01*
X169617699Y-98665282D01*
X169750730Y-98855269D01*
X169914731Y-99019270D01*
X170104718Y-99152301D01*
X170201018Y-99197206D01*
X170253457Y-99243378D01*
X170272609Y-99310572D01*
X170252393Y-99377453D01*
X170236294Y-99397269D01*
X168104382Y-101529181D01*
X168043059Y-101562666D01*
X168016701Y-101565500D01*
X167104929Y-101565500D01*
X167104923Y-101565501D01*
X167045316Y-101571908D01*
X166910471Y-101622202D01*
X166910464Y-101622206D01*
X166795255Y-101708452D01*
X166795252Y-101708455D01*
X166709006Y-101823664D01*
X166709002Y-101823671D01*
X166658710Y-101958513D01*
X166658709Y-101958517D01*
X166652300Y-102018127D01*
X166652300Y-102018134D01*
X166652300Y-102018135D01*
X166652300Y-102671870D01*
X166652301Y-102671876D01*
X166658708Y-102731483D01*
X166709002Y-102866328D01*
X166709003Y-102866330D01*
X166738779Y-102906105D01*
X166763196Y-102971569D01*
X166748345Y-103039842D01*
X166738780Y-103054725D01*
X166709448Y-103093907D01*
X166709445Y-103093913D01*
X166659203Y-103228620D01*
X166659201Y-103228627D01*
X166652800Y-103288155D01*
X166652800Y-103365000D01*
X169622800Y-103365000D01*
X169622800Y-103288172D01*
X169622799Y-103288155D01*
X169616398Y-103228627D01*
X169616396Y-103228620D01*
X169566154Y-103093913D01*
X169566152Y-103093910D01*
X169536820Y-103054727D01*
X169512403Y-102989262D01*
X169527255Y-102920989D01*
X169536815Y-102906112D01*
X169566596Y-102866331D01*
X169572193Y-102851326D01*
X169589766Y-102804209D01*
X169616891Y-102731483D01*
X169623300Y-102671873D01*
X169623299Y-102018128D01*
X169616891Y-101958517D01*
X169578624Y-101855920D01*
X169573641Y-101786230D01*
X169607124Y-101724909D01*
X171445216Y-99886819D01*
X171506539Y-99853334D01*
X171532897Y-99850500D01*
X178933512Y-99850500D01*
X179000551Y-99870185D01*
X179046306Y-99922989D01*
X179048073Y-99927048D01*
X179069532Y-99978856D01*
X179069533Y-99978858D01*
X179150520Y-100111016D01*
X179168765Y-100178462D01*
X179147649Y-100245064D01*
X179119105Y-100275072D01*
X179042452Y-100332455D01*
X178956206Y-100447664D01*
X178956202Y-100447671D01*
X178905908Y-100582517D01*
X178899501Y-100642116D01*
X178899500Y-100642127D01*
X178899500Y-101529181D01*
X178899501Y-102311500D01*
X178879816Y-102378539D01*
X178827013Y-102424294D01*
X178775501Y-102435500D01*
X174471700Y-102435500D01*
X174404661Y-102415815D01*
X174358906Y-102363011D01*
X174347700Y-102311500D01*
X174347699Y-102018130D01*
X174347698Y-102018123D01*
X174347697Y-102018116D01*
X174341291Y-101958517D01*
X174311338Y-101878210D01*
X174290997Y-101823671D01*
X174290993Y-101823664D01*
X174204747Y-101708455D01*
X174204744Y-101708452D01*
X174089535Y-101622206D01*
X174089528Y-101622202D01*
X173954682Y-101571908D01*
X173954683Y-101571908D01*
X173895083Y-101565501D01*
X173895081Y-101565500D01*
X173895073Y-101565500D01*
X173895065Y-101565500D01*
X173814443Y-101565500D01*
X173747404Y-101545815D01*
X173701649Y-101493011D01*
X173691705Y-101423853D01*
X173709449Y-101375529D01*
X173725787Y-101349525D01*
X173725786Y-101349525D01*
X173725789Y-101349522D01*
X173785368Y-101179255D01*
X173786612Y-101168213D01*
X173805565Y-101000003D01*
X173805565Y-100999996D01*
X173785369Y-100820750D01*
X173785368Y-100820745D01*
X173725788Y-100650476D01*
X173629815Y-100497737D01*
X173502262Y-100370184D01*
X173349523Y-100274211D01*
X173179254Y-100214631D01*
X173179249Y-100214630D01*
X173000004Y-100194435D01*
X172999996Y-100194435D01*
X172820750Y-100214630D01*
X172820745Y-100214631D01*
X172650476Y-100274211D01*
X172497737Y-100370184D01*
X172370184Y-100497737D01*
X172274211Y-100650476D01*
X172214631Y-100820745D01*
X172214630Y-100820750D01*
X172194435Y-100999996D01*
X172194435Y-101000003D01*
X172214630Y-101179246D01*
X172214632Y-101179257D01*
X172254741Y-101293879D01*
X172261700Y-101334834D01*
X172261700Y-101441500D01*
X172242015Y-101508539D01*
X172189211Y-101554294D01*
X172137700Y-101565500D01*
X171829330Y-101565500D01*
X171829323Y-101565501D01*
X171769716Y-101571908D01*
X171634871Y-101622202D01*
X171634864Y-101622206D01*
X171519655Y-101708452D01*
X171519652Y-101708455D01*
X171433406Y-101823664D01*
X171433402Y-101823671D01*
X171383108Y-101958517D01*
X171379755Y-101989711D01*
X171376701Y-102018123D01*
X171376700Y-102018135D01*
X171376700Y-102386769D01*
X171357015Y-102453808D01*
X171314700Y-102494156D01*
X171208488Y-102555477D01*
X171208483Y-102555481D01*
X171096682Y-102667282D01*
X171096676Y-102667290D01*
X171017627Y-102804209D01*
X171017624Y-102804216D01*
X170976701Y-102956943D01*
X170976701Y-103440216D01*
X170957016Y-103507255D01*
X170940382Y-103527897D01*
X169834411Y-104633867D01*
X169773088Y-104667352D01*
X169703396Y-104662368D01*
X169647463Y-104620496D01*
X169623440Y-104559439D01*
X169616891Y-104498516D01*
X169566597Y-104363671D01*
X169566595Y-104363668D01*
X169556737Y-104350500D01*
X169536820Y-104323894D01*
X169512403Y-104258430D01*
X169527254Y-104190157D01*
X169536821Y-104175271D01*
X169566151Y-104136091D01*
X169616397Y-104001376D01*
X169616398Y-104001372D01*
X169622799Y-103941844D01*
X169622800Y-103941827D01*
X169622800Y-103865000D01*
X166652800Y-103865000D01*
X166652800Y-103941844D01*
X166659201Y-104001372D01*
X166659203Y-104001379D01*
X166709445Y-104136086D01*
X166713697Y-104143872D01*
X166710715Y-104145500D01*
X166729389Y-104195604D01*
X166714521Y-104263873D01*
X166665104Y-104313267D01*
X166637804Y-104324193D01*
X166633214Y-104325422D01*
X166633209Y-104325425D01*
X166589780Y-104350500D01*
X166589778Y-104350501D01*
X166496290Y-104404475D01*
X166496282Y-104404481D01*
X166384478Y-104516286D01*
X164977660Y-105923103D01*
X164916337Y-105956588D01*
X164876093Y-105958642D01*
X164842329Y-105954837D01*
X164777915Y-105927769D01*
X164768534Y-105919298D01*
X164161819Y-105312583D01*
X164128334Y-105251260D01*
X164125500Y-105224902D01*
X164125500Y-103940004D01*
X164145185Y-103872965D01*
X164184403Y-103834465D01*
X164203044Y-103822968D01*
X164322968Y-103703044D01*
X164412003Y-103558697D01*
X164465349Y-103397708D01*
X164475500Y-103298345D01*
X164475499Y-102701656D01*
X164472456Y-102671870D01*
X164465349Y-102602292D01*
X164465348Y-102602289D01*
X164412003Y-102441303D01*
X164411999Y-102441297D01*
X164411998Y-102441294D01*
X164322970Y-102296959D01*
X164322967Y-102296955D01*
X164203044Y-102177032D01*
X164203040Y-102177029D01*
X164058705Y-102088001D01*
X164058699Y-102087998D01*
X164058697Y-102087997D01*
X164058694Y-102087996D01*
X163897709Y-102034651D01*
X163798346Y-102024500D01*
X163251662Y-102024500D01*
X163251644Y-102024501D01*
X163152292Y-102034650D01*
X163152289Y-102034651D01*
X162991305Y-102087996D01*
X162991294Y-102088001D01*
X162846959Y-102177029D01*
X162846953Y-102177033D01*
X162837324Y-102186663D01*
X162776000Y-102220146D01*
X162706308Y-102215159D01*
X162661965Y-102186660D01*
X162652732Y-102177427D01*
X162652728Y-102177424D01*
X162508492Y-102088457D01*
X162508481Y-102088452D01*
X162347606Y-102035144D01*
X162248322Y-102025000D01*
X162225000Y-102025000D01*
X162225000Y-103974999D01*
X162248308Y-103974999D01*
X162248322Y-103974998D01*
X162347607Y-103964855D01*
X162508481Y-103911547D01*
X162508492Y-103911542D01*
X162652731Y-103822573D01*
X162661959Y-103813345D01*
X162723279Y-103779856D01*
X162792971Y-103784835D01*
X162837327Y-103813339D01*
X162846956Y-103822968D01*
X162865596Y-103834465D01*
X162912321Y-103886412D01*
X162924500Y-103940004D01*
X162924500Y-105216632D01*
X162904815Y-105283671D01*
X162852011Y-105329426D01*
X162782853Y-105339370D01*
X162719297Y-105310345D01*
X162682794Y-105255636D01*
X162661547Y-105191518D01*
X162661542Y-105191507D01*
X162572575Y-105047271D01*
X162572572Y-105047267D01*
X162452732Y-104927427D01*
X162452728Y-104927424D01*
X162308492Y-104838457D01*
X162308481Y-104838452D01*
X162147606Y-104785144D01*
X162048322Y-104775000D01*
X162000000Y-104775000D01*
X162000000Y-105475000D01*
X162735126Y-105475000D01*
X162774141Y-105453696D01*
X162843833Y-105458680D01*
X162899766Y-105500552D01*
X162924183Y-105566016D01*
X162924499Y-105574862D01*
X162924499Y-105604054D01*
X162924498Y-105604054D01*
X162965424Y-105756789D01*
X162965425Y-105756790D01*
X162984843Y-105790422D01*
X162984844Y-105790423D01*
X163044477Y-105893712D01*
X163044481Y-105893717D01*
X163163349Y-106012585D01*
X163163355Y-106012590D01*
X163919298Y-106768533D01*
X163952783Y-106829856D01*
X163954837Y-106842330D01*
X163964630Y-106929249D01*
X164024210Y-107099520D01*
X164031186Y-107110623D01*
X164050185Y-107177860D01*
X164029816Y-107244695D01*
X163976548Y-107289909D01*
X163907291Y-107299145D01*
X163844035Y-107269473D01*
X163838510Y-107264275D01*
X162752534Y-106178299D01*
X162719049Y-106116976D01*
X162716857Y-106078014D01*
X162724999Y-105998319D01*
X162725000Y-105998309D01*
X162725000Y-105975000D01*
X162529571Y-105975000D01*
X162489755Y-105967079D01*
X162489636Y-105967527D01*
X162482811Y-105965698D01*
X162482116Y-105965560D01*
X162481787Y-105965424D01*
X162481786Y-105965423D01*
X162481785Y-105965423D01*
X162329057Y-105924499D01*
X162170943Y-105924499D01*
X162163347Y-105924499D01*
X162163331Y-105924500D01*
X161197246Y-105924500D01*
X161044517Y-105965423D01*
X161044188Y-105965560D01*
X161043489Y-105965698D01*
X161036667Y-105967527D01*
X161036547Y-105967079D01*
X160996733Y-105975000D01*
X160775001Y-105975000D01*
X160775001Y-105998325D01*
X160785580Y-106101882D01*
X160772810Y-106170575D01*
X160749904Y-106202164D01*
X160606286Y-106345782D01*
X160494481Y-106457586D01*
X160494477Y-106457591D01*
X160453218Y-106529056D01*
X160453218Y-106529057D01*
X160415423Y-106594518D01*
X160408375Y-106620821D01*
X160374499Y-106747247D01*
X160374499Y-106747249D01*
X160374499Y-106915350D01*
X160374500Y-106915363D01*
X160374500Y-109825978D01*
X160374499Y-109825996D01*
X160374499Y-109991702D01*
X160374498Y-109991702D01*
X160415423Y-110144433D01*
X160425444Y-110161789D01*
X160425445Y-110161792D01*
X160494475Y-110281357D01*
X160494481Y-110281365D01*
X160613349Y-110400233D01*
X160613355Y-110400238D01*
X161502491Y-111289374D01*
X161502501Y-111289385D01*
X161506831Y-111293715D01*
X161506832Y-111293716D01*
X161618636Y-111405520D01*
X161705447Y-111455639D01*
X161705449Y-111455641D01*
X161743503Y-111477611D01*
X161755567Y-111484577D01*
X161908295Y-111525501D01*
X161908298Y-111525501D01*
X162074005Y-111525501D01*
X162074021Y-111525500D01*
X173488331Y-111525500D01*
X173488347Y-111525501D01*
X173495943Y-111525501D01*
X173654054Y-111525501D01*
X173654057Y-111525501D01*
X173806785Y-111484577D01*
X173856904Y-111455639D01*
X173943716Y-111405520D01*
X174055520Y-111293716D01*
X174055520Y-111293714D01*
X174065728Y-111283507D01*
X174065730Y-111283504D01*
X175018535Y-110330698D01*
X175079856Y-110297215D01*
X175092311Y-110295163D01*
X175179255Y-110285368D01*
X175349522Y-110225789D01*
X175502262Y-110129816D01*
X175629816Y-110002262D01*
X175725789Y-109849522D01*
X175785368Y-109679255D01*
X175789071Y-109646391D01*
X175805565Y-109500003D01*
X175805565Y-109499996D01*
X175785369Y-109320750D01*
X175785368Y-109320745D01*
X175780387Y-109306510D01*
X175725789Y-109150478D01*
X175629816Y-108997738D01*
X175629814Y-108997736D01*
X175629813Y-108997734D01*
X175627550Y-108994896D01*
X175626659Y-108992715D01*
X175626111Y-108991842D01*
X175626264Y-108991745D01*
X175601144Y-108930209D01*
X175600500Y-108917587D01*
X175600500Y-107503476D01*
X175620185Y-107436437D01*
X175672989Y-107390682D01*
X175742147Y-107380738D01*
X175805703Y-107409763D01*
X175829493Y-107437503D01*
X175870184Y-107502262D01*
X175997738Y-107629816D01*
X176072907Y-107677048D01*
X176124385Y-107709394D01*
X176150478Y-107725789D01*
X176276074Y-107769737D01*
X176320745Y-107785368D01*
X176320750Y-107785369D01*
X176499996Y-107805565D01*
X176500000Y-107805565D01*
X176500004Y-107805565D01*
X176679249Y-107785369D01*
X176679252Y-107785368D01*
X176679255Y-107785368D01*
X176849522Y-107725789D01*
X177002262Y-107629816D01*
X177002267Y-107629810D01*
X177005097Y-107627555D01*
X177007275Y-107626665D01*
X177008158Y-107626111D01*
X177008255Y-107626265D01*
X177069783Y-107601145D01*
X177082412Y-107600500D01*
X179183512Y-107600500D01*
X179250551Y-107620185D01*
X179296306Y-107672989D01*
X179298073Y-107677048D01*
X179319530Y-107728852D01*
X179319533Y-107728857D01*
X179319534Y-107728859D01*
X179358121Y-107791827D01*
X179400783Y-107861445D01*
X179419027Y-107928891D01*
X179397910Y-107995494D01*
X179369366Y-108025501D01*
X179292812Y-108082809D01*
X179292809Y-108082812D01*
X179206649Y-108197906D01*
X179206645Y-108197913D01*
X179156403Y-108332620D01*
X179156401Y-108332627D01*
X179150000Y-108392155D01*
X179150000Y-109290000D01*
X180259252Y-109290000D01*
X180237482Y-109327708D01*
X180200000Y-109467591D01*
X180200000Y-109612409D01*
X180237482Y-109752292D01*
X180259252Y-109790000D01*
X179150000Y-109790000D01*
X179150000Y-110687844D01*
X179156401Y-110747372D01*
X179156403Y-110747379D01*
X179206645Y-110882086D01*
X179206649Y-110882093D01*
X179292809Y-110997187D01*
X179292812Y-110997190D01*
X179407906Y-111083350D01*
X179407913Y-111083354D01*
X179542620Y-111133596D01*
X179542627Y-111133598D01*
X179602155Y-111139999D01*
X179602172Y-111140000D01*
X180500000Y-111140000D01*
X180500000Y-110030747D01*
X180537708Y-110052518D01*
X180677591Y-110090000D01*
X180822409Y-110090000D01*
X180962292Y-110052518D01*
X181000000Y-110030747D01*
X181000000Y-111140000D01*
X181897828Y-111140000D01*
X181897844Y-111139999D01*
X181957372Y-111133598D01*
X181957379Y-111133596D01*
X182092086Y-111083354D01*
X182092093Y-111083350D01*
X182207187Y-110997190D01*
X182207190Y-110997187D01*
X182293350Y-110882093D01*
X182293354Y-110882086D01*
X182343596Y-110747379D01*
X182343598Y-110747372D01*
X182349999Y-110687844D01*
X182350000Y-110687827D01*
X182350000Y-109982782D01*
X182369685Y-109915743D01*
X182422489Y-109869988D01*
X182491647Y-109860044D01*
X182555203Y-109889069D01*
X182575894Y-109915000D01*
X182577221Y-109914114D01*
X182668210Y-110050288D01*
X182668213Y-110050292D01*
X182779707Y-110161786D01*
X182779711Y-110161789D01*
X182910814Y-110249390D01*
X182910827Y-110249397D01*
X183026272Y-110297215D01*
X183056503Y-110309737D01*
X183211153Y-110340499D01*
X183211156Y-110340500D01*
X183211158Y-110340500D01*
X183368844Y-110340500D01*
X183368845Y-110340499D01*
X183523497Y-110309737D01*
X183669179Y-110249394D01*
X183800289Y-110161789D01*
X183911789Y-110050289D01*
X183999394Y-109919179D01*
X184059737Y-109773497D01*
X184090500Y-109618842D01*
X184090500Y-109461158D01*
X184090500Y-109461155D01*
X184090499Y-109461153D01*
X184059738Y-109306510D01*
X184059737Y-109306503D01*
X184024307Y-109220966D01*
X183999397Y-109160827D01*
X183999390Y-109160814D01*
X183911789Y-109029711D01*
X183911786Y-109029707D01*
X183800292Y-108918213D01*
X183800288Y-108918210D01*
X183669185Y-108830609D01*
X183669172Y-108830602D01*
X183523501Y-108770264D01*
X183523489Y-108770261D01*
X183368845Y-108739500D01*
X183368842Y-108739500D01*
X183211158Y-108739500D01*
X183211155Y-108739500D01*
X183056510Y-108770261D01*
X183056498Y-108770264D01*
X182910827Y-108830602D01*
X182910814Y-108830609D01*
X182779711Y-108918210D01*
X182779707Y-108918213D01*
X182668213Y-109029707D01*
X182668210Y-109029711D01*
X182577221Y-109165886D01*
X182574890Y-109164329D01*
X182534267Y-109205586D01*
X182466111Y-109220966D01*
X182400460Y-109197056D01*
X182358157Y-109141448D01*
X182350000Y-109097217D01*
X182350000Y-108392172D01*
X182349999Y-108392155D01*
X182343598Y-108332627D01*
X182343596Y-108332620D01*
X182293354Y-108197913D01*
X182293350Y-108197906D01*
X182207190Y-108082813D01*
X182130633Y-108025502D01*
X182088762Y-107969568D01*
X182083778Y-107899876D01*
X182099217Y-107861445D01*
X182180466Y-107728859D01*
X182195230Y-107693215D01*
X182276873Y-107496111D01*
X182317003Y-107328954D01*
X182351792Y-107268365D01*
X182413818Y-107236200D01*
X182483387Y-107242676D01*
X182538411Y-107285735D01*
X182552137Y-107310450D01*
X182580604Y-107379175D01*
X182580609Y-107379185D01*
X182668210Y-107510288D01*
X182668213Y-107510292D01*
X182779707Y-107621786D01*
X182779711Y-107621789D01*
X182910814Y-107709390D01*
X182910827Y-107709397D01*
X183056498Y-107769735D01*
X183056503Y-107769737D01*
X183211153Y-107800499D01*
X183211156Y-107800500D01*
X183211158Y-107800500D01*
X183368844Y-107800500D01*
X183368845Y-107800499D01*
X183523497Y-107769737D01*
X183669179Y-107709394D01*
X183800289Y-107621789D01*
X183911789Y-107510289D01*
X183999394Y-107379179D01*
X184059737Y-107233497D01*
X184090500Y-107078842D01*
X184090500Y-106921158D01*
X184090500Y-106921155D01*
X184090499Y-106921153D01*
X184065248Y-106794209D01*
X184059737Y-106766503D01*
X184027862Y-106689550D01*
X183999395Y-106620823D01*
X183999390Y-106620814D01*
X183911789Y-106489711D01*
X183911786Y-106489707D01*
X183800292Y-106378213D01*
X183800288Y-106378210D01*
X183669185Y-106290609D01*
X183669172Y-106290602D01*
X183523501Y-106230264D01*
X183523489Y-106230261D01*
X183368845Y-106199500D01*
X183368842Y-106199500D01*
X183211158Y-106199500D01*
X183211155Y-106199500D01*
X183056510Y-106230261D01*
X183056498Y-106230264D01*
X182910827Y-106290602D01*
X182910814Y-106290609D01*
X182779711Y-106378210D01*
X182779707Y-106378213D01*
X182668213Y-106489707D01*
X182668210Y-106489711D01*
X182580609Y-106620814D01*
X182580606Y-106620820D01*
X182552137Y-106689550D01*
X182508295Y-106743953D01*
X182442001Y-106766017D01*
X182374302Y-106748737D01*
X182326692Y-106697600D01*
X182317003Y-106671046D01*
X182276873Y-106503889D01*
X182201927Y-106322952D01*
X182180466Y-106271140D01*
X182048839Y-106056346D01*
X182048838Y-106056343D01*
X181999286Y-105998325D01*
X181885224Y-105864776D01*
X181712257Y-105717048D01*
X181693656Y-105701161D01*
X181693653Y-105701160D01*
X181478859Y-105569533D01*
X181246110Y-105473126D01*
X181001151Y-105414317D01*
X180750000Y-105394551D01*
X180498848Y-105414317D01*
X180253889Y-105473126D01*
X180021140Y-105569533D01*
X179806346Y-105701160D01*
X179806343Y-105701161D01*
X179614776Y-105864776D01*
X179451161Y-106056343D01*
X179451160Y-106056346D01*
X179319533Y-106271141D01*
X179319532Y-106271143D01*
X179298073Y-106322952D01*
X179254233Y-106377356D01*
X179187939Y-106399421D01*
X179183512Y-106399500D01*
X177082412Y-106399500D01*
X177015373Y-106379815D01*
X177005097Y-106372445D01*
X177002263Y-106370185D01*
X177002262Y-106370184D01*
X176927093Y-106322952D01*
X176849523Y-106274211D01*
X176679254Y-106214631D01*
X176679249Y-106214630D01*
X176500004Y-106194435D01*
X176499996Y-106194435D01*
X176320750Y-106214630D01*
X176320745Y-106214631D01*
X176150476Y-106274211D01*
X175997737Y-106370184D01*
X175870182Y-106497739D01*
X175829493Y-106562496D01*
X175777158Y-106608787D01*
X175708105Y-106619434D01*
X175644257Y-106591059D01*
X175605885Y-106532669D01*
X175600500Y-106496523D01*
X175600500Y-106237744D01*
X175598494Y-106230259D01*
X175598493Y-106230256D01*
X175587820Y-106190424D01*
X175587820Y-106190423D01*
X175583748Y-106175226D01*
X175559577Y-106085017D01*
X175517759Y-106012585D01*
X175480524Y-105948091D01*
X175480521Y-105948087D01*
X175480520Y-105948085D01*
X175368716Y-105836281D01*
X175368715Y-105836280D01*
X175364385Y-105831950D01*
X175364374Y-105831940D01*
X174384018Y-104851584D01*
X174350533Y-104790261D01*
X174347699Y-104763903D01*
X174347699Y-104558129D01*
X174347698Y-104558123D01*
X174341291Y-104498516D01*
X174298144Y-104382833D01*
X174293160Y-104313141D01*
X174326645Y-104251818D01*
X174387969Y-104218334D01*
X174414326Y-104215500D01*
X175032060Y-104215500D01*
X175099099Y-104235185D01*
X175119741Y-104251819D01*
X175120184Y-104252262D01*
X175247738Y-104379816D01*
X175400478Y-104475789D01*
X175465431Y-104498517D01*
X175570745Y-104535368D01*
X175570750Y-104535369D01*
X175749996Y-104555565D01*
X175750000Y-104555565D01*
X175750004Y-104555565D01*
X175929249Y-104535369D01*
X175929252Y-104535368D01*
X175929255Y-104535368D01*
X176099522Y-104475789D01*
X176252262Y-104379816D01*
X176379816Y-104252262D01*
X176475789Y-104099522D01*
X176535368Y-103929255D01*
X176535369Y-103929250D01*
X176555947Y-103746616D01*
X176583013Y-103682202D01*
X176640608Y-103642647D01*
X176679167Y-103636500D01*
X179167331Y-103636500D01*
X179167347Y-103636501D01*
X179174943Y-103636501D01*
X179333054Y-103636501D01*
X179333057Y-103636501D01*
X179485785Y-103595577D01*
X179535904Y-103566639D01*
X179622716Y-103516520D01*
X179712419Y-103426816D01*
X179773740Y-103393333D01*
X179800099Y-103390499D01*
X181647871Y-103390499D01*
X181647872Y-103390499D01*
X181707483Y-103384091D01*
X181842331Y-103333796D01*
X181957546Y-103247546D01*
X182043796Y-103132331D01*
X182094091Y-102997483D01*
X182100500Y-102937873D01*
X182100499Y-102233571D01*
X182120183Y-102166535D01*
X182172987Y-102120780D01*
X182242146Y-102110836D01*
X182305702Y-102139861D01*
X182327601Y-102164683D01*
X182418210Y-102300288D01*
X182418213Y-102300292D01*
X182529707Y-102411786D01*
X182529711Y-102411789D01*
X182660814Y-102499390D01*
X182660827Y-102499397D01*
X182796228Y-102555481D01*
X182806503Y-102559737D01*
X182961153Y-102590499D01*
X182961156Y-102590500D01*
X182961158Y-102590500D01*
X183118844Y-102590500D01*
X183118845Y-102590499D01*
X183273497Y-102559737D01*
X183419179Y-102499394D01*
X183550289Y-102411789D01*
X183661789Y-102300289D01*
X183749394Y-102169179D01*
X183809737Y-102023497D01*
X183840500Y-101868842D01*
X183840500Y-101711158D01*
X183840500Y-101711155D01*
X183840499Y-101711153D01*
X183812801Y-101571908D01*
X183809737Y-101556503D01*
X183751256Y-101415316D01*
X183749397Y-101410827D01*
X183749390Y-101410814D01*
X183661789Y-101279711D01*
X183661786Y-101279707D01*
X183550292Y-101168213D01*
X183550288Y-101168210D01*
X183419185Y-101080609D01*
X183419172Y-101080602D01*
X183273501Y-101020264D01*
X183273489Y-101020261D01*
X183118845Y-100989500D01*
X183118842Y-100989500D01*
X182961158Y-100989500D01*
X182961155Y-100989500D01*
X182806510Y-101020261D01*
X182806498Y-101020264D01*
X182660827Y-101080602D01*
X182660814Y-101080609D01*
X182529711Y-101168210D01*
X182529707Y-101168213D01*
X182418213Y-101279707D01*
X182418210Y-101279711D01*
X182327601Y-101415316D01*
X182273988Y-101460121D01*
X182204663Y-101468828D01*
X182141636Y-101438673D01*
X182104917Y-101379230D01*
X182100499Y-101346425D01*
X182100499Y-100642129D01*
X182100498Y-100642123D01*
X182100497Y-100642116D01*
X182094091Y-100582517D01*
X182043796Y-100447669D01*
X182043795Y-100447668D01*
X182043793Y-100447664D01*
X181957547Y-100332455D01*
X181880894Y-100275072D01*
X181839024Y-100219138D01*
X181834040Y-100149446D01*
X181849476Y-100111021D01*
X181930466Y-99978859D01*
X182026873Y-99746111D01*
X182067003Y-99578954D01*
X182101792Y-99518365D01*
X182163818Y-99486200D01*
X182233387Y-99492676D01*
X182288411Y-99535735D01*
X182302137Y-99560450D01*
X182330604Y-99629175D01*
X182330609Y-99629185D01*
X182418210Y-99760288D01*
X182418213Y-99760292D01*
X182529707Y-99871786D01*
X182529711Y-99871789D01*
X182660814Y-99959390D01*
X182660827Y-99959397D01*
X182722031Y-99984748D01*
X182806503Y-100019737D01*
X182959710Y-100050212D01*
X182961153Y-100050499D01*
X182961156Y-100050500D01*
X182961158Y-100050500D01*
X183118844Y-100050500D01*
X183118845Y-100050499D01*
X183273497Y-100019737D01*
X183419179Y-99959394D01*
X183550289Y-99871789D01*
X183661789Y-99760289D01*
X183749394Y-99629179D01*
X183809737Y-99483497D01*
X183840500Y-99328842D01*
X183840500Y-99171158D01*
X183840500Y-99171155D01*
X183840499Y-99171153D01*
X183809738Y-99016510D01*
X183809737Y-99016503D01*
X183781197Y-98947600D01*
X183749397Y-98870827D01*
X183749390Y-98870814D01*
X183661789Y-98739711D01*
X183661786Y-98739707D01*
X183550292Y-98628213D01*
X183550288Y-98628210D01*
X183419185Y-98540609D01*
X183419172Y-98540602D01*
X183273501Y-98480264D01*
X183273489Y-98480261D01*
X183118845Y-98449500D01*
X183118842Y-98449500D01*
X182961158Y-98449500D01*
X182961155Y-98449500D01*
X182806510Y-98480261D01*
X182806498Y-98480264D01*
X182660827Y-98540602D01*
X182660814Y-98540609D01*
X182529711Y-98628210D01*
X182529707Y-98628213D01*
X182418213Y-98739707D01*
X182418210Y-98739711D01*
X182330609Y-98870814D01*
X182330606Y-98870820D01*
X182302137Y-98939550D01*
X182258295Y-98993953D01*
X182192001Y-99016017D01*
X182124302Y-98998737D01*
X182076692Y-98947600D01*
X182067003Y-98921046D01*
X182026873Y-98753889D01*
X181938527Y-98540602D01*
X181930466Y-98521140D01*
X181798839Y-98306346D01*
X181798838Y-98306343D01*
X181635224Y-98114776D01*
X181587819Y-98074289D01*
X181549627Y-98015784D01*
X181549128Y-97945916D01*
X181586482Y-97886870D01*
X181587756Y-97885764D01*
X181635224Y-97845224D01*
X181798836Y-97653659D01*
X181930466Y-97438859D01*
X182026873Y-97206111D01*
X182067003Y-97038954D01*
X182101792Y-96978365D01*
X182163818Y-96946200D01*
X182233387Y-96952676D01*
X182288411Y-96995735D01*
X182302137Y-97020450D01*
X182330604Y-97089175D01*
X182330609Y-97089185D01*
X182418210Y-97220288D01*
X182418213Y-97220292D01*
X182529707Y-97331786D01*
X182529711Y-97331789D01*
X182660814Y-97419390D01*
X182660827Y-97419397D01*
X182806498Y-97479735D01*
X182806503Y-97479737D01*
X182961153Y-97510499D01*
X182961156Y-97510500D01*
X182961158Y-97510500D01*
X183118844Y-97510500D01*
X183118845Y-97510499D01*
X183273497Y-97479737D01*
X183419179Y-97419394D01*
X183550289Y-97331789D01*
X183661789Y-97220289D01*
X183749394Y-97089179D01*
X183809737Y-96943497D01*
X183840500Y-96788842D01*
X183840500Y-96631158D01*
X183840500Y-96631155D01*
X183840499Y-96631153D01*
X183809738Y-96476510D01*
X183809737Y-96476503D01*
X183781197Y-96407600D01*
X183749397Y-96330827D01*
X183749390Y-96330814D01*
X183661789Y-96199711D01*
X183661786Y-96199707D01*
X183550292Y-96088213D01*
X183550288Y-96088210D01*
X183419185Y-96000609D01*
X183419172Y-96000602D01*
X183273501Y-95940264D01*
X183273489Y-95940261D01*
X183118845Y-95909500D01*
X183118842Y-95909500D01*
X182961158Y-95909500D01*
X182961155Y-95909500D01*
X182806510Y-95940261D01*
X182806498Y-95940264D01*
X182660827Y-96000602D01*
X182660814Y-96000609D01*
X182529711Y-96088210D01*
X182529707Y-96088213D01*
X182418213Y-96199707D01*
X182418210Y-96199711D01*
X182330609Y-96330814D01*
X182330606Y-96330820D01*
X182302137Y-96399550D01*
X182258295Y-96453953D01*
X182192001Y-96476017D01*
X182124302Y-96458737D01*
X182076692Y-96407600D01*
X182067003Y-96381046D01*
X182026873Y-96213889D01*
X181951927Y-96032952D01*
X181930466Y-95981140D01*
X181798839Y-95766346D01*
X181798838Y-95766343D01*
X181721801Y-95676145D01*
X181635224Y-95574776D01*
X181508571Y-95466604D01*
X181443656Y-95411161D01*
X181443653Y-95411160D01*
X181228859Y-95279533D01*
X180996110Y-95183126D01*
X180751151Y-95124317D01*
X180500000Y-95104551D01*
X180248848Y-95124317D01*
X180003889Y-95183126D01*
X179771140Y-95279533D01*
X179556346Y-95411160D01*
X179556343Y-95411161D01*
X179364776Y-95574776D01*
X179201161Y-95766343D01*
X179201160Y-95766346D01*
X179069533Y-95981141D01*
X179069532Y-95981143D01*
X179048073Y-96032952D01*
X179004233Y-96087356D01*
X178937939Y-96109421D01*
X178933512Y-96109500D01*
X173768573Y-96109500D01*
X173701534Y-96089815D01*
X173663579Y-96051472D01*
X173629816Y-95997738D01*
X173502262Y-95870184D01*
X173349523Y-95774211D01*
X173179254Y-95714631D01*
X173179249Y-95714630D01*
X173000004Y-95694435D01*
X172999996Y-95694435D01*
X172820750Y-95714630D01*
X172820745Y-95714631D01*
X172650476Y-95774211D01*
X172497737Y-95870184D01*
X172427661Y-95940261D01*
X172370184Y-95997738D01*
X172348058Y-96032952D01*
X172274211Y-96150476D01*
X172214631Y-96320745D01*
X172214630Y-96320750D01*
X172194435Y-96499996D01*
X172194435Y-96500003D01*
X172214630Y-96679249D01*
X172214631Y-96679254D01*
X172274211Y-96849523D01*
X172356655Y-96980731D01*
X172370184Y-97002262D01*
X172497738Y-97129816D01*
X172588080Y-97186582D01*
X172641729Y-97220292D01*
X172650478Y-97225789D01*
X172765149Y-97265914D01*
X172820745Y-97285368D01*
X172820750Y-97285369D01*
X172999997Y-97305565D01*
X173000000Y-97305565D01*
X173055897Y-97299266D01*
X173101875Y-97302711D01*
X173130943Y-97310501D01*
X173130944Y-97310501D01*
X173296653Y-97310501D01*
X173296669Y-97310500D01*
X178933512Y-97310500D01*
X179000551Y-97330185D01*
X179046306Y-97382989D01*
X179048073Y-97387048D01*
X179069532Y-97438856D01*
X179069533Y-97438858D01*
X179201160Y-97653653D01*
X179201161Y-97653656D01*
X179201164Y-97653659D01*
X179364776Y-97845224D01*
X179412178Y-97885709D01*
X179412179Y-97885710D01*
X179450372Y-97944217D01*
X179450870Y-98014085D01*
X179413516Y-98073131D01*
X179412179Y-98074290D01*
X179364776Y-98114776D01*
X179201161Y-98306343D01*
X179201160Y-98306346D01*
X179069533Y-98521141D01*
X179069532Y-98521143D01*
X179048073Y-98572952D01*
X179004233Y-98627356D01*
X178937939Y-98649421D01*
X178933512Y-98649500D01*
X172124301Y-98649500D01*
X172057262Y-98629815D01*
X172011507Y-98577011D01*
X172001563Y-98507853D01*
X172011919Y-98473096D01*
X172020317Y-98455085D01*
X172020320Y-98455079D01*
X172080349Y-98231050D01*
X172100563Y-98000000D01*
X172080349Y-97768950D01*
X172020320Y-97544921D01*
X171922301Y-97334719D01*
X171922299Y-97334716D01*
X171922298Y-97334714D01*
X171789273Y-97144735D01*
X171789268Y-97144729D01*
X171625269Y-96980730D01*
X171435274Y-96847693D01*
X171432493Y-96846088D01*
X171431513Y-96845060D01*
X171430847Y-96844594D01*
X171430940Y-96844459D01*
X171384281Y-96795518D01*
X171370500Y-96738705D01*
X171370500Y-95781139D01*
X171390185Y-95714100D01*
X171428529Y-95676145D01*
X171502262Y-95629816D01*
X171629816Y-95502262D01*
X171725789Y-95349522D01*
X171785368Y-95179255D01*
X171788558Y-95150943D01*
X171805565Y-95000003D01*
X171805565Y-94999996D01*
X171785369Y-94820750D01*
X171785368Y-94820745D01*
X171725788Y-94650476D01*
X171686582Y-94588080D01*
X171629816Y-94497738D01*
X171502262Y-94370184D01*
X171384766Y-94296356D01*
X171349523Y-94274211D01*
X171179254Y-94214631D01*
X171179249Y-94214630D01*
X171000004Y-94194435D01*
X170999996Y-94194435D01*
X170820750Y-94214630D01*
X170820745Y-94214631D01*
X170650476Y-94274211D01*
X170497737Y-94370184D01*
X170370184Y-94497737D01*
X170274211Y-94650476D01*
X170214631Y-94820745D01*
X170214630Y-94820750D01*
X170197804Y-94970095D01*
X170194435Y-95000000D01*
X170195497Y-95009427D01*
X170196399Y-95017433D01*
X170192953Y-95063406D01*
X170169499Y-95150941D01*
X170169499Y-95319046D01*
X170169500Y-95319059D01*
X170169500Y-96738706D01*
X170149815Y-96805745D01*
X170109120Y-96844548D01*
X170109153Y-96844594D01*
X170108851Y-96844804D01*
X170107502Y-96846092D01*
X170104718Y-96847699D01*
X169914735Y-96980726D01*
X169914729Y-96980731D01*
X169750731Y-97144729D01*
X169750726Y-97144735D01*
X169617701Y-97334714D01*
X169617698Y-97334720D01*
X169612381Y-97346123D01*
X169566207Y-97398562D01*
X169499013Y-97417712D01*
X169432133Y-97397495D01*
X169387619Y-97346123D01*
X169382301Y-97334720D01*
X169382298Y-97334714D01*
X169249273Y-97144735D01*
X169249268Y-97144729D01*
X169085269Y-96980730D01*
X169035955Y-96946200D01*
X168895282Y-96847699D01*
X168685079Y-96749680D01*
X168685076Y-96749679D01*
X168685074Y-96749678D01*
X168461051Y-96689651D01*
X168461044Y-96689650D01*
X168230002Y-96669437D01*
X168229998Y-96669437D01*
X167998955Y-96689650D01*
X167998948Y-96689651D01*
X167774917Y-96749681D01*
X167564718Y-96847699D01*
X167564714Y-96847701D01*
X167374735Y-96980726D01*
X167374729Y-96980731D01*
X167210731Y-97144729D01*
X167210726Y-97144735D01*
X167077701Y-97334714D01*
X167077699Y-97334718D01*
X166979681Y-97544917D01*
X166919651Y-97768948D01*
X166919650Y-97768955D01*
X166899437Y-97999998D01*
X166899437Y-98000001D01*
X166919650Y-98231044D01*
X166919652Y-98231055D01*
X166949739Y-98343343D01*
X166948076Y-98413193D01*
X166917649Y-98463114D01*
X166892587Y-98488178D01*
X166831265Y-98521665D01*
X166804902Y-98524500D01*
X162163319Y-98524500D01*
X162096280Y-98504815D01*
X162050525Y-98452011D01*
X162040581Y-98382853D01*
X162043544Y-98368406D01*
X162060174Y-98306343D01*
X162080349Y-98231050D01*
X162100563Y-98000000D01*
X162080349Y-97768950D01*
X162020320Y-97544921D01*
X161922301Y-97334719D01*
X161922299Y-97334716D01*
X161922298Y-97334714D01*
X161789273Y-97144735D01*
X161789268Y-97144729D01*
X161625269Y-96980730D01*
X161435274Y-96847693D01*
X161432493Y-96846088D01*
X161431513Y-96845060D01*
X161430847Y-96844594D01*
X161430940Y-96844459D01*
X161384281Y-96795518D01*
X161370500Y-96738705D01*
X161370500Y-95359060D01*
X161370501Y-95359047D01*
X161370501Y-95190944D01*
X161370501Y-95190943D01*
X161329577Y-95038216D01*
X161318027Y-95018212D01*
X161302195Y-94970095D01*
X161285369Y-94820749D01*
X161285368Y-94820745D01*
X161225788Y-94650476D01*
X161186582Y-94588080D01*
X161129816Y-94497738D01*
X161002262Y-94370184D01*
X160884766Y-94296356D01*
X160849523Y-94274211D01*
X160679254Y-94214631D01*
X160679249Y-94214630D01*
X160500004Y-94194435D01*
X160499996Y-94194435D01*
X160320750Y-94214630D01*
X160320745Y-94214631D01*
X160150477Y-94274211D01*
X160145471Y-94277357D01*
X160078234Y-94296356D01*
X160011399Y-94275987D01*
X159966185Y-94222719D01*
X159955500Y-94172362D01*
X159955500Y-92269060D01*
X159955501Y-92269047D01*
X159955501Y-92100944D01*
X159940064Y-92043334D01*
X159914577Y-91948216D01*
X159874160Y-91878211D01*
X159835524Y-91811290D01*
X159835518Y-91811282D01*
X157176109Y-89151873D01*
X157142624Y-89090550D01*
X157147608Y-89020858D01*
X157189480Y-88964925D01*
X157226896Y-88945808D01*
X157314606Y-88918478D01*
X157460185Y-88830472D01*
X157540657Y-88750000D01*
X159275001Y-88750000D01*
X159275001Y-88798322D01*
X159285144Y-88897607D01*
X159338452Y-89058481D01*
X159338457Y-89058492D01*
X159427424Y-89202728D01*
X159427427Y-89202732D01*
X159547267Y-89322572D01*
X159547271Y-89322575D01*
X159691507Y-89411542D01*
X159691518Y-89411547D01*
X159852393Y-89464855D01*
X159951683Y-89474999D01*
X159975000Y-89474998D01*
X159975000Y-88750000D01*
X159275001Y-88750000D01*
X157540657Y-88750000D01*
X157580472Y-88710185D01*
X157668478Y-88564606D01*
X157719086Y-88402196D01*
X157725500Y-88331616D01*
X157725500Y-88175097D01*
X157745185Y-88108058D01*
X157761819Y-88087416D01*
X158479175Y-87370060D01*
X159220304Y-86628930D01*
X159281625Y-86595447D01*
X159351317Y-86600431D01*
X159407250Y-86642303D01*
X159427757Y-86684518D01*
X159431772Y-86699500D01*
X159440423Y-86731785D01*
X159463145Y-86771141D01*
X159464918Y-86774211D01*
X159508399Y-86849523D01*
X159519479Y-86868714D01*
X159519481Y-86868717D01*
X159638349Y-86987585D01*
X159638355Y-86987590D01*
X159970476Y-87319711D01*
X160003961Y-87381034D01*
X159998977Y-87450726D01*
X159957105Y-87506659D01*
X159895399Y-87530750D01*
X159852392Y-87535144D01*
X159691518Y-87588452D01*
X159691507Y-87588457D01*
X159547271Y-87677424D01*
X159547267Y-87677427D01*
X159427427Y-87797267D01*
X159427424Y-87797271D01*
X159338457Y-87941507D01*
X159338452Y-87941518D01*
X159285144Y-88102393D01*
X159275000Y-88201677D01*
X159275000Y-88250000D01*
X160351000Y-88250000D01*
X160418039Y-88269685D01*
X160463794Y-88322489D01*
X160475000Y-88374000D01*
X160475000Y-89474999D01*
X160498308Y-89474999D01*
X160498322Y-89474998D01*
X160597607Y-89464855D01*
X160758481Y-89411547D01*
X160758492Y-89411542D01*
X160902731Y-89322573D01*
X160911959Y-89313345D01*
X160973279Y-89279856D01*
X161042971Y-89284835D01*
X161087327Y-89313339D01*
X161096955Y-89322967D01*
X161096959Y-89322970D01*
X161241294Y-89411998D01*
X161241297Y-89411999D01*
X161241303Y-89412003D01*
X161402292Y-89465349D01*
X161501655Y-89475500D01*
X161849901Y-89475499D01*
X161916940Y-89495183D01*
X161937582Y-89511818D01*
X162406284Y-89980520D01*
X162406286Y-89980521D01*
X162406290Y-89980524D01*
X162543209Y-90059573D01*
X162543216Y-90059577D01*
X162695943Y-90100501D01*
X162695945Y-90100501D01*
X162861654Y-90100501D01*
X162861670Y-90100500D01*
X163108285Y-90100500D01*
X163175324Y-90120185D01*
X163214402Y-90160350D01*
X163244530Y-90210188D01*
X163364811Y-90330469D01*
X163364813Y-90330470D01*
X163364815Y-90330472D01*
X163510394Y-90418478D01*
X163672804Y-90469086D01*
X163743384Y-90475500D01*
X163743387Y-90475500D01*
X164256613Y-90475500D01*
X164256616Y-90475500D01*
X164327196Y-90469086D01*
X164489606Y-90418478D01*
X164635185Y-90330472D01*
X164684744Y-90280913D01*
X164737319Y-90228339D01*
X164798642Y-90194854D01*
X164868334Y-90199838D01*
X164912681Y-90228339D01*
X165014811Y-90330469D01*
X165014813Y-90330470D01*
X165014815Y-90330472D01*
X165160394Y-90418478D01*
X165322804Y-90469086D01*
X165393384Y-90475500D01*
X165393387Y-90475500D01*
X165906613Y-90475500D01*
X165906616Y-90475500D01*
X165977196Y-90469086D01*
X166139606Y-90418478D01*
X166285185Y-90330472D01*
X166405472Y-90210185D01*
X166493478Y-90064606D01*
X166544086Y-89902196D01*
X166550500Y-89831616D01*
X166550500Y-89168384D01*
X166544086Y-89097804D01*
X166538433Y-89079666D01*
X166537282Y-89009808D01*
X166569137Y-88955097D01*
X166673417Y-88850818D01*
X166734740Y-88817334D01*
X166761097Y-88814500D01*
X167528300Y-88814500D01*
X167595339Y-88834185D01*
X167641094Y-88886989D01*
X167652300Y-88938500D01*
X167652300Y-89231869D01*
X167652301Y-89231876D01*
X167658708Y-89291483D01*
X167709002Y-89426328D01*
X167709006Y-89426335D01*
X167795252Y-89541544D01*
X167795255Y-89541547D01*
X167910464Y-89627793D01*
X167910471Y-89627797D01*
X168045317Y-89678091D01*
X168045316Y-89678091D01*
X168052244Y-89678835D01*
X168104927Y-89684500D01*
X169016702Y-89684499D01*
X169083741Y-89704183D01*
X169104383Y-89720818D01*
X169787939Y-90404374D01*
X169787949Y-90404385D01*
X169792279Y-90408715D01*
X169792280Y-90408716D01*
X169904084Y-90520520D01*
X169904086Y-90520521D01*
X169904090Y-90520524D01*
X169963485Y-90554815D01*
X170041016Y-90599577D01*
X170152819Y-90629534D01*
X170193742Y-90640500D01*
X170193743Y-90640500D01*
X178775501Y-90640500D01*
X178842540Y-90660185D01*
X178888295Y-90712989D01*
X178899501Y-90764500D01*
X178899501Y-91187876D01*
X178905908Y-91247483D01*
X178956202Y-91382328D01*
X178956206Y-91382335D01*
X179042452Y-91497544D01*
X179042455Y-91497547D01*
X179157664Y-91583793D01*
X179157671Y-91583797D01*
X179292517Y-91634091D01*
X179292516Y-91634091D01*
X179299444Y-91634835D01*
X179352127Y-91640500D01*
X181647872Y-91640499D01*
X181707483Y-91634091D01*
X181842331Y-91583796D01*
X181957546Y-91497546D01*
X182043796Y-91382331D01*
X182094091Y-91247483D01*
X182100500Y-91187873D01*
X182100499Y-90483571D01*
X182120183Y-90416535D01*
X182172987Y-90370780D01*
X182242146Y-90360836D01*
X182305702Y-90389861D01*
X182327601Y-90414683D01*
X182418210Y-90550288D01*
X182418213Y-90550292D01*
X182529707Y-90661786D01*
X182529711Y-90661789D01*
X182660814Y-90749390D01*
X182660827Y-90749397D01*
X182806498Y-90809735D01*
X182806503Y-90809737D01*
X182961153Y-90840499D01*
X182961156Y-90840500D01*
X182961158Y-90840500D01*
X183118844Y-90840500D01*
X183118845Y-90840499D01*
X183273497Y-90809737D01*
X183419179Y-90749394D01*
X183550289Y-90661789D01*
X183661789Y-90550289D01*
X183749394Y-90419179D01*
X183809737Y-90273497D01*
X183840500Y-90118842D01*
X183840500Y-89961158D01*
X183840500Y-89961155D01*
X183840499Y-89961153D01*
X183809737Y-89806503D01*
X183776598Y-89726498D01*
X183749397Y-89660827D01*
X183749390Y-89660814D01*
X183661789Y-89529711D01*
X183661786Y-89529707D01*
X183550292Y-89418213D01*
X183550288Y-89418210D01*
X183419185Y-89330609D01*
X183419172Y-89330602D01*
X183273501Y-89270264D01*
X183273489Y-89270261D01*
X183118845Y-89239500D01*
X183118842Y-89239500D01*
X182961158Y-89239500D01*
X182961155Y-89239500D01*
X182806510Y-89270261D01*
X182806498Y-89270264D01*
X182660827Y-89330602D01*
X182660814Y-89330609D01*
X182529711Y-89418210D01*
X182529707Y-89418213D01*
X182418213Y-89529707D01*
X182418210Y-89529711D01*
X182327601Y-89665316D01*
X182273988Y-89710121D01*
X182204663Y-89718828D01*
X182141636Y-89688673D01*
X182104917Y-89629230D01*
X182100499Y-89596425D01*
X182100499Y-88892129D01*
X182100498Y-88892123D01*
X182100497Y-88892116D01*
X182094091Y-88832517D01*
X182093328Y-88830472D01*
X182043797Y-88697671D01*
X182043793Y-88697664D01*
X181957547Y-88582455D01*
X181951768Y-88578129D01*
X181894649Y-88535369D01*
X181880894Y-88525072D01*
X181839024Y-88469138D01*
X181834040Y-88399446D01*
X181849476Y-88361021D01*
X181930466Y-88228859D01*
X182026873Y-87996111D01*
X182067003Y-87828954D01*
X182101792Y-87768365D01*
X182163818Y-87736200D01*
X182233387Y-87742676D01*
X182288411Y-87785735D01*
X182302137Y-87810450D01*
X182330604Y-87879175D01*
X182330609Y-87879185D01*
X182418210Y-88010288D01*
X182418213Y-88010292D01*
X182529707Y-88121786D01*
X182529711Y-88121789D01*
X182660814Y-88209390D01*
X182660827Y-88209397D01*
X182758853Y-88250000D01*
X182806503Y-88269737D01*
X182961153Y-88300499D01*
X182961156Y-88300500D01*
X182961158Y-88300500D01*
X183118844Y-88300500D01*
X183118845Y-88300499D01*
X183273497Y-88269737D01*
X183419179Y-88209394D01*
X183550289Y-88121789D01*
X183661789Y-88010289D01*
X183749394Y-87879179D01*
X183809737Y-87733497D01*
X183840500Y-87578842D01*
X183840500Y-87421158D01*
X183840500Y-87421155D01*
X183840499Y-87421153D01*
X183815618Y-87296071D01*
X183809737Y-87266503D01*
X183781197Y-87197600D01*
X183749397Y-87120827D01*
X183749390Y-87120814D01*
X183661789Y-86989711D01*
X183661786Y-86989707D01*
X183550292Y-86878213D01*
X183550288Y-86878210D01*
X183419185Y-86790609D01*
X183419172Y-86790602D01*
X183273501Y-86730264D01*
X183273489Y-86730261D01*
X183118845Y-86699500D01*
X183118842Y-86699500D01*
X182961158Y-86699500D01*
X182961155Y-86699500D01*
X182806510Y-86730261D01*
X182806498Y-86730264D01*
X182660827Y-86790602D01*
X182660814Y-86790609D01*
X182529711Y-86878210D01*
X182529707Y-86878213D01*
X182418213Y-86989707D01*
X182418210Y-86989711D01*
X182330609Y-87120814D01*
X182330606Y-87120820D01*
X182302137Y-87189550D01*
X182258295Y-87243953D01*
X182192001Y-87266017D01*
X182124302Y-87248737D01*
X182076692Y-87197600D01*
X182067003Y-87171046D01*
X182026873Y-87003889D01*
X182005410Y-86952073D01*
X181997942Y-86882607D01*
X182029216Y-86820128D01*
X182032263Y-86816970D01*
X182258506Y-86590728D01*
X182258511Y-86590724D01*
X182268714Y-86580520D01*
X182268716Y-86580520D01*
X182380520Y-86468716D01*
X182391478Y-86449736D01*
X182440520Y-86364793D01*
X182440523Y-86364784D01*
X182440529Y-86364776D01*
X182459577Y-86331785D01*
X182500501Y-86179057D01*
X182500501Y-86020943D01*
X182500501Y-86013348D01*
X182500500Y-86013330D01*
X182500500Y-85788566D01*
X182520185Y-85721527D01*
X182572989Y-85675772D01*
X182642147Y-85665828D01*
X182671952Y-85674005D01*
X182806498Y-85729735D01*
X182806503Y-85729737D01*
X182932050Y-85754710D01*
X182961153Y-85760499D01*
X182961156Y-85760500D01*
X182961158Y-85760500D01*
X183118844Y-85760500D01*
X183118845Y-85760499D01*
X183273497Y-85729737D01*
X183408047Y-85674005D01*
X183419172Y-85669397D01*
X183419172Y-85669396D01*
X183419179Y-85669394D01*
X183550289Y-85581789D01*
X183661789Y-85470289D01*
X183749394Y-85339179D01*
X183754358Y-85327196D01*
X183784178Y-85255203D01*
X183809737Y-85193497D01*
X183840500Y-85038842D01*
X183840500Y-84881158D01*
X183840500Y-84881155D01*
X183840499Y-84881153D01*
X183839914Y-84878210D01*
X183809737Y-84726503D01*
X183798552Y-84699500D01*
X183749397Y-84580827D01*
X183749390Y-84580814D01*
X183661789Y-84449711D01*
X183661786Y-84449707D01*
X183550292Y-84338213D01*
X183550288Y-84338210D01*
X183419185Y-84250609D01*
X183419172Y-84250602D01*
X183273501Y-84190264D01*
X183273489Y-84190261D01*
X183118845Y-84159500D01*
X183118842Y-84159500D01*
X182961158Y-84159500D01*
X182961155Y-84159500D01*
X182806510Y-84190261D01*
X182806498Y-84190264D01*
X182660827Y-84250602D01*
X182660810Y-84250612D01*
X182657252Y-84252989D01*
X182590573Y-84273861D01*
X182523194Y-84255371D01*
X182476509Y-84203388D01*
X182468597Y-84181979D01*
X182459577Y-84148317D01*
X182448457Y-84129057D01*
X182380524Y-84011391D01*
X182380518Y-84011383D01*
X181708307Y-83339172D01*
X181007488Y-82638354D01*
X181007487Y-82638352D01*
X180888616Y-82519481D01*
X180888615Y-82519480D01*
X180789752Y-82462402D01*
X180789751Y-82462401D01*
X180751682Y-82440422D01*
X180695780Y-82425443D01*
X180598956Y-82399499D01*
X180440842Y-82399499D01*
X180433246Y-82399499D01*
X180433230Y-82399500D01*
X171153740Y-82399500D01*
X171112819Y-82410464D01*
X171112819Y-82410465D01*
X171075551Y-82420451D01*
X171001014Y-82440423D01*
X171001009Y-82440426D01*
X170864090Y-82519475D01*
X170864082Y-82519481D01*
X170752278Y-82631286D01*
X169104382Y-84279181D01*
X169043059Y-84312666D01*
X169016701Y-84315500D01*
X168104929Y-84315500D01*
X168104923Y-84315501D01*
X168045316Y-84321908D01*
X167910471Y-84372202D01*
X167910464Y-84372206D01*
X167795255Y-84458452D01*
X167795252Y-84458455D01*
X167709006Y-84573664D01*
X167709004Y-84573669D01*
X167659103Y-84707461D01*
X167658709Y-84708517D01*
X167652300Y-84768127D01*
X167652300Y-84768134D01*
X167652300Y-84768135D01*
X167652300Y-85421870D01*
X167652301Y-85421876D01*
X167658708Y-85481483D01*
X167709002Y-85616328D01*
X167709003Y-85616330D01*
X167738779Y-85656105D01*
X167763196Y-85721569D01*
X167748345Y-85789842D01*
X167738780Y-85804725D01*
X167709448Y-85843907D01*
X167709445Y-85843913D01*
X167659203Y-85978620D01*
X167659201Y-85978627D01*
X167652800Y-86038155D01*
X167652800Y-86115000D01*
X170622800Y-86115000D01*
X170622800Y-86038172D01*
X170622799Y-86038155D01*
X170616398Y-85978627D01*
X170616396Y-85978620D01*
X170566154Y-85843913D01*
X170566152Y-85843910D01*
X170536820Y-85804727D01*
X170512403Y-85739262D01*
X170527255Y-85670989D01*
X170536815Y-85656112D01*
X170566596Y-85616331D01*
X170616891Y-85481483D01*
X170623300Y-85421873D01*
X170623299Y-84768128D01*
X170616891Y-84708517D01*
X170616497Y-84707461D01*
X170578625Y-84605921D01*
X170573641Y-84536230D01*
X170607124Y-84474909D01*
X171445216Y-83636819D01*
X171506539Y-83603334D01*
X171532897Y-83600500D01*
X172344103Y-83600500D01*
X172411142Y-83620185D01*
X172456897Y-83672989D01*
X172466841Y-83742147D01*
X172437816Y-83805703D01*
X172431784Y-83812181D01*
X172096682Y-84147282D01*
X172096680Y-84147284D01*
X172076934Y-84181488D01*
X172065574Y-84201164D01*
X172017624Y-84284215D01*
X171976700Y-84436943D01*
X171976700Y-84436945D01*
X171976700Y-84605046D01*
X171976701Y-84605059D01*
X171976701Y-85699330D01*
X171976700Y-85699348D01*
X171976700Y-85865054D01*
X171976699Y-85865054D01*
X172017624Y-86017785D01*
X172029394Y-86038172D01*
X172041753Y-86059577D01*
X172094233Y-86150476D01*
X172096680Y-86154714D01*
X172096682Y-86154717D01*
X172185784Y-86243819D01*
X172219269Y-86305142D01*
X172214285Y-86374834D01*
X172172413Y-86430767D01*
X172106949Y-86455184D01*
X172098103Y-86455500D01*
X167029793Y-86455500D01*
X166962754Y-86435815D01*
X166942112Y-86419181D01*
X165000096Y-84477165D01*
X164966611Y-84415842D01*
X164964419Y-84376881D01*
X164974999Y-84273322D01*
X164975000Y-84273309D01*
X164975000Y-84250000D01*
X164791896Y-84250000D01*
X164729896Y-84233387D01*
X164704485Y-84218716D01*
X164704484Y-84218715D01*
X164655479Y-84190422D01*
X164593642Y-84173853D01*
X164502753Y-84149499D01*
X164344639Y-84149499D01*
X164337043Y-84149499D01*
X164337027Y-84149500D01*
X163874000Y-84149500D01*
X163806961Y-84129815D01*
X163761206Y-84077011D01*
X163750000Y-84025500D01*
X163750000Y-83050000D01*
X164250000Y-83050000D01*
X164250000Y-83750000D01*
X164974999Y-83750000D01*
X164974999Y-83726692D01*
X164974998Y-83726677D01*
X164964855Y-83627392D01*
X164911547Y-83466518D01*
X164911542Y-83466507D01*
X164822575Y-83322271D01*
X164822572Y-83322267D01*
X164702732Y-83202427D01*
X164702728Y-83202424D01*
X164558492Y-83113457D01*
X164558481Y-83113452D01*
X164397606Y-83060144D01*
X164298322Y-83050000D01*
X164250000Y-83050000D01*
X163750000Y-83050000D01*
X163749999Y-83049999D01*
X163701693Y-83050000D01*
X163701675Y-83050001D01*
X163602392Y-83060144D01*
X163441518Y-83113452D01*
X163441509Y-83113456D01*
X163389596Y-83145477D01*
X163322204Y-83163917D01*
X163255540Y-83142994D01*
X163210771Y-83089352D01*
X163200500Y-83039938D01*
X163200500Y-82922416D01*
X163200500Y-82922414D01*
X163181231Y-82850500D01*
X163159577Y-82769686D01*
X163113814Y-82690423D01*
X163080520Y-82632755D01*
X162968716Y-82520951D01*
X162968715Y-82520950D01*
X162964385Y-82516620D01*
X162964374Y-82516610D01*
X162861181Y-82413417D01*
X162827696Y-82352094D01*
X162832680Y-82282402D01*
X162861181Y-82238055D01*
X162908975Y-82190261D01*
X162980520Y-82118716D01*
X163059577Y-81981784D01*
X163100500Y-81829057D01*
X163100500Y-81224500D01*
X163120185Y-81157461D01*
X163172989Y-81111706D01*
X163224500Y-81100500D01*
X164183331Y-81100500D01*
X164183347Y-81100501D01*
X164190943Y-81100501D01*
X164349054Y-81100501D01*
X164349057Y-81100501D01*
X164501785Y-81059577D01*
X164551904Y-81030639D01*
X164638716Y-80980520D01*
X164750520Y-80868716D01*
X164750520Y-80868714D01*
X164760728Y-80858507D01*
X164760730Y-80858504D01*
X166306882Y-79312351D01*
X166368203Y-79278868D01*
X166426654Y-79280258D01*
X166538950Y-79310349D01*
X166686297Y-79323240D01*
X166769998Y-79330563D01*
X166770000Y-79330563D01*
X166770002Y-79330563D01*
X166827762Y-79325509D01*
X167001050Y-79310349D01*
X167225079Y-79250320D01*
X167435282Y-79152301D01*
X167625269Y-79019270D01*
X167789270Y-78855269D01*
X167922301Y-78665282D01*
X168020320Y-78455079D01*
X168080349Y-78231050D01*
X168100563Y-78000000D01*
X168080349Y-77768950D01*
X168050259Y-77656654D01*
X168051922Y-77586805D01*
X168082351Y-77536882D01*
X170147819Y-75471415D01*
X170209142Y-75437930D01*
X170278834Y-75442914D01*
X170334767Y-75484786D01*
X170359184Y-75550250D01*
X170359500Y-75559096D01*
X170359500Y-76738706D01*
X170339815Y-76805745D01*
X170299120Y-76844548D01*
X170299153Y-76844594D01*
X170298851Y-76844804D01*
X170297502Y-76846092D01*
X170294718Y-76847699D01*
X170104735Y-76980726D01*
X170104729Y-76980731D01*
X169940731Y-77144729D01*
X169940726Y-77144735D01*
X169807701Y-77334714D01*
X169807699Y-77334718D01*
X169709681Y-77544917D01*
X169649651Y-77768948D01*
X169649650Y-77768955D01*
X169629437Y-77999998D01*
X169629437Y-78000001D01*
X169649650Y-78231044D01*
X169649651Y-78231051D01*
X169709678Y-78455074D01*
X169709679Y-78455076D01*
X169709680Y-78455079D01*
X169807699Y-78665282D01*
X169940730Y-78855269D01*
X170104731Y-79019270D01*
X170294718Y-79152301D01*
X170294729Y-79152306D01*
X170297496Y-79153904D01*
X170298476Y-79154932D01*
X170299153Y-79155406D01*
X170299057Y-79155541D01*
X170345713Y-79204470D01*
X170359500Y-79261294D01*
X170359500Y-80479016D01*
X170340494Y-80544988D01*
X170274211Y-80650477D01*
X170274209Y-80650481D01*
X170214633Y-80820737D01*
X170214630Y-80820750D01*
X170194435Y-80999996D01*
X170194435Y-81000003D01*
X170214630Y-81179249D01*
X170214631Y-81179254D01*
X170274211Y-81349523D01*
X170281941Y-81361825D01*
X170370184Y-81502262D01*
X170497738Y-81629816D01*
X170524555Y-81646666D01*
X170640244Y-81719359D01*
X170650478Y-81725789D01*
X170775337Y-81769479D01*
X170820745Y-81785368D01*
X170820750Y-81785369D01*
X170999996Y-81805565D01*
X171000000Y-81805565D01*
X171000004Y-81805565D01*
X171179249Y-81785369D01*
X171179252Y-81785368D01*
X171179255Y-81785368D01*
X171349522Y-81725789D01*
X171502262Y-81629816D01*
X171629816Y-81502262D01*
X171725789Y-81349522D01*
X171785368Y-81179255D01*
X171787824Y-81157461D01*
X171805565Y-81000003D01*
X171805565Y-80999996D01*
X171785369Y-80820750D01*
X171785368Y-80820745D01*
X171785365Y-80820737D01*
X171725789Y-80650478D01*
X171629816Y-80497738D01*
X171596819Y-80464741D01*
X171563334Y-80403418D01*
X171560500Y-80377060D01*
X171560500Y-79261294D01*
X171580185Y-79194255D01*
X171620879Y-79155452D01*
X171620847Y-79155406D01*
X171621154Y-79155190D01*
X171622504Y-79153904D01*
X171625265Y-79152308D01*
X171625282Y-79152301D01*
X171815269Y-79019270D01*
X171979270Y-78855269D01*
X172112301Y-78665282D01*
X172117618Y-78653878D01*
X172163790Y-78601440D01*
X172230984Y-78582288D01*
X172297865Y-78602504D01*
X172342381Y-78653878D01*
X172347699Y-78665282D01*
X172480730Y-78855269D01*
X172644731Y-79019270D01*
X172834718Y-79152301D01*
X172834729Y-79152306D01*
X172837496Y-79153904D01*
X172838476Y-79154932D01*
X172839153Y-79155406D01*
X172839057Y-79155541D01*
X172885713Y-79204470D01*
X172899500Y-79261294D01*
X172899500Y-80417587D01*
X172879815Y-80484626D01*
X172872450Y-80494896D01*
X172870186Y-80497734D01*
X172774211Y-80650476D01*
X172714631Y-80820745D01*
X172714630Y-80820750D01*
X172694435Y-80999996D01*
X172694435Y-81000003D01*
X172714630Y-81179249D01*
X172714631Y-81179254D01*
X172774211Y-81349523D01*
X172781941Y-81361825D01*
X172870184Y-81502262D01*
X172997738Y-81629816D01*
X173024555Y-81646666D01*
X173140244Y-81719359D01*
X173150478Y-81725789D01*
X173275337Y-81769479D01*
X173320745Y-81785368D01*
X173320750Y-81785369D01*
X173499996Y-81805565D01*
X173500000Y-81805565D01*
X173500004Y-81805565D01*
X173679249Y-81785369D01*
X173679252Y-81785368D01*
X173679255Y-81785368D01*
X173849522Y-81725789D01*
X174002262Y-81629816D01*
X174129816Y-81502262D01*
X174225789Y-81349522D01*
X174285368Y-81179255D01*
X174287824Y-81157461D01*
X174305565Y-81000003D01*
X174305565Y-80999996D01*
X174285369Y-80820750D01*
X174285368Y-80820745D01*
X174285365Y-80820737D01*
X174225789Y-80650478D01*
X174129816Y-80497738D01*
X174129814Y-80497736D01*
X174129813Y-80497734D01*
X174127550Y-80494896D01*
X174126659Y-80492715D01*
X174126111Y-80491842D01*
X174126264Y-80491745D01*
X174101144Y-80430209D01*
X174100500Y-80417587D01*
X174100500Y-79261294D01*
X174120185Y-79194255D01*
X174160879Y-79155452D01*
X174160847Y-79155406D01*
X174161154Y-79155190D01*
X174162504Y-79153904D01*
X174165265Y-79152308D01*
X174165282Y-79152301D01*
X174355269Y-79019270D01*
X174519270Y-78855269D01*
X174652301Y-78665282D01*
X174657618Y-78653878D01*
X174703790Y-78601440D01*
X174770984Y-78582288D01*
X174837865Y-78602504D01*
X174882381Y-78653878D01*
X174887699Y-78665282D01*
X175020730Y-78855269D01*
X175184731Y-79019270D01*
X175374718Y-79152301D01*
X175584921Y-79250320D01*
X175808950Y-79310349D01*
X175956297Y-79323240D01*
X176039998Y-79330563D01*
X176040000Y-79330563D01*
X176040002Y-79330563D01*
X176097762Y-79325509D01*
X176271050Y-79310349D01*
X176495079Y-79250320D01*
X176705282Y-79152301D01*
X176895269Y-79019270D01*
X177059270Y-78855269D01*
X177192301Y-78665282D01*
X177290320Y-78455079D01*
X177350349Y-78231050D01*
X177370563Y-78000000D01*
X177350349Y-77768950D01*
X177290320Y-77544921D01*
X177192301Y-77334719D01*
X177192299Y-77334716D01*
X177192298Y-77334714D01*
X177059273Y-77144735D01*
X177059268Y-77144729D01*
X176895269Y-76980730D01*
X176705274Y-76847693D01*
X176702493Y-76846088D01*
X176701513Y-76845060D01*
X176700847Y-76844594D01*
X176700940Y-76844459D01*
X176654281Y-76795518D01*
X176640500Y-76738705D01*
X176640500Y-75520982D01*
X176659507Y-75455009D01*
X176725788Y-75349524D01*
X176785368Y-75179254D01*
X176785369Y-75179249D01*
X176805565Y-75000003D01*
X176805565Y-74999996D01*
X176785369Y-74820750D01*
X176785368Y-74820745D01*
X176725788Y-74650476D01*
X176629815Y-74497737D01*
X176502262Y-74370184D01*
X176349523Y-74274211D01*
X176179254Y-74214631D01*
X176179249Y-74214630D01*
X176000004Y-74194435D01*
X175999996Y-74194435D01*
X175820750Y-74214630D01*
X175820745Y-74214631D01*
X175650476Y-74274211D01*
X175497737Y-74370184D01*
X175370184Y-74497737D01*
X175274211Y-74650476D01*
X175214631Y-74820745D01*
X175214630Y-74820750D01*
X175194435Y-74999996D01*
X175194435Y-75000003D01*
X175214630Y-75179249D01*
X175214631Y-75179254D01*
X175274211Y-75349523D01*
X175370184Y-75502262D01*
X175403181Y-75535259D01*
X175436666Y-75596582D01*
X175439500Y-75622940D01*
X175439500Y-76738706D01*
X175419815Y-76805745D01*
X175379120Y-76844548D01*
X175379153Y-76844594D01*
X175378851Y-76844804D01*
X175377502Y-76846092D01*
X175374718Y-76847699D01*
X175184735Y-76980726D01*
X175184729Y-76980731D01*
X175020731Y-77144729D01*
X175020726Y-77144735D01*
X174887701Y-77334714D01*
X174887698Y-77334720D01*
X174882381Y-77346123D01*
X174836207Y-77398562D01*
X174769013Y-77417712D01*
X174702133Y-77397495D01*
X174657619Y-77346123D01*
X174652301Y-77334720D01*
X174652298Y-77334714D01*
X174519273Y-77144735D01*
X174519268Y-77144729D01*
X174355269Y-76980730D01*
X174275817Y-76925097D01*
X174165282Y-76847699D01*
X174165279Y-76847698D01*
X174165277Y-76847696D01*
X174162499Y-76846092D01*
X174161520Y-76845065D01*
X174160847Y-76844594D01*
X174160941Y-76844458D01*
X174114284Y-76795524D01*
X174100501Y-76738706D01*
X174100501Y-76572416D01*
X174100501Y-76572414D01*
X174059577Y-76419686D01*
X174030639Y-76369566D01*
X173980520Y-76282755D01*
X173868716Y-76170951D01*
X173868715Y-76170950D01*
X173864385Y-76166620D01*
X173864374Y-76166610D01*
X171736119Y-74038355D01*
X171736117Y-74038352D01*
X171617246Y-73919481D01*
X171617245Y-73919480D01*
X171530433Y-73869360D01*
X171530433Y-73869359D01*
X171530429Y-73869358D01*
X171480314Y-73840423D01*
X171327586Y-73799499D01*
X171169472Y-73799499D01*
X171161876Y-73799499D01*
X171161860Y-73799500D01*
X170456669Y-73799500D01*
X170456653Y-73799499D01*
X170449057Y-73799499D01*
X170290943Y-73799499D01*
X170183587Y-73828265D01*
X170138210Y-73840424D01*
X170138209Y-73840425D01*
X170088096Y-73869359D01*
X170088095Y-73869360D01*
X170044689Y-73894420D01*
X170001285Y-73919479D01*
X170001282Y-73919481D01*
X169889478Y-74031286D01*
X167233118Y-76687645D01*
X167171795Y-76721130D01*
X167113345Y-76719739D01*
X167001058Y-76689653D01*
X167001055Y-76689652D01*
X167001050Y-76689651D01*
X167001047Y-76689650D01*
X167001044Y-76689650D01*
X166770002Y-76669437D01*
X166769998Y-76669437D01*
X166538955Y-76689650D01*
X166538948Y-76689651D01*
X166314917Y-76749681D01*
X166104718Y-76847699D01*
X166104714Y-76847701D01*
X165914735Y-76980726D01*
X165914729Y-76980731D01*
X165750731Y-77144729D01*
X165750726Y-77144735D01*
X165617701Y-77334714D01*
X165617698Y-77334720D01*
X165612381Y-77346123D01*
X165566207Y-77398562D01*
X165499013Y-77417712D01*
X165432133Y-77397495D01*
X165387619Y-77346123D01*
X165382301Y-77334720D01*
X165382298Y-77334714D01*
X165249273Y-77144735D01*
X165249268Y-77144729D01*
X165085269Y-76980730D01*
X165005817Y-76925097D01*
X164895282Y-76847699D01*
X164685079Y-76749680D01*
X164685076Y-76749679D01*
X164685074Y-76749678D01*
X164461051Y-76689651D01*
X164461044Y-76689650D01*
X164230002Y-76669437D01*
X164229998Y-76669437D01*
X163998955Y-76689650D01*
X163998948Y-76689651D01*
X163774917Y-76749681D01*
X163564718Y-76847699D01*
X163564714Y-76847701D01*
X163374735Y-76980726D01*
X163374729Y-76980731D01*
X163210731Y-77144729D01*
X163210726Y-77144735D01*
X163077701Y-77334714D01*
X163077699Y-77334718D01*
X162979681Y-77544917D01*
X162919651Y-77768948D01*
X162919650Y-77768955D01*
X162899437Y-77999998D01*
X162899437Y-78000001D01*
X162919650Y-78231044D01*
X162919651Y-78231051D01*
X162979678Y-78455074D01*
X162979679Y-78455076D01*
X162979680Y-78455079D01*
X163077699Y-78665282D01*
X163210730Y-78855269D01*
X163374731Y-79019270D01*
X163564718Y-79152301D01*
X163774921Y-79250320D01*
X163998950Y-79310349D01*
X164146297Y-79323240D01*
X164229998Y-79330563D01*
X164229999Y-79330563D01*
X164229999Y-79330562D01*
X164230000Y-79330563D01*
X164285347Y-79325720D01*
X164353844Y-79339486D01*
X164404028Y-79388100D01*
X164419962Y-79456129D01*
X164396588Y-79521972D01*
X164383835Y-79536929D01*
X164297801Y-79622964D01*
X164057582Y-79863182D01*
X163996261Y-79896666D01*
X163969903Y-79899500D01*
X163082412Y-79899500D01*
X163015373Y-79879815D01*
X163005097Y-79872445D01*
X163002263Y-79870185D01*
X163002262Y-79870184D01*
X162945496Y-79834515D01*
X162849523Y-79774211D01*
X162679254Y-79714631D01*
X162679249Y-79714630D01*
X162500004Y-79694435D01*
X162499996Y-79694435D01*
X162320750Y-79714630D01*
X162320745Y-79714631D01*
X162150476Y-79774211D01*
X161997737Y-79870184D01*
X161870184Y-79997737D01*
X161774211Y-80150476D01*
X161714631Y-80320745D01*
X161714630Y-80320750D01*
X161694435Y-80499996D01*
X161694435Y-80500003D01*
X161714630Y-80679249D01*
X161714631Y-80679254D01*
X161774211Y-80849523D01*
X161786271Y-80868716D01*
X161868760Y-80999996D01*
X161870185Y-81002263D01*
X161872445Y-81005097D01*
X161873334Y-81007275D01*
X161873889Y-81008158D01*
X161873734Y-81008255D01*
X161898855Y-81069783D01*
X161899500Y-81082412D01*
X161899500Y-81275500D01*
X161879815Y-81342539D01*
X161827011Y-81388294D01*
X161775500Y-81399500D01*
X160920940Y-81399500D01*
X160880019Y-81410464D01*
X160880019Y-81410465D01*
X160842751Y-81420451D01*
X160768214Y-81440423D01*
X160768209Y-81440426D01*
X160631290Y-81519475D01*
X160631282Y-81519481D01*
X160537583Y-81613181D01*
X160476260Y-81646666D01*
X160449902Y-81649500D01*
X155579057Y-81649500D01*
X155420942Y-81649500D01*
X155268215Y-81690423D01*
X155268214Y-81690423D01*
X155268212Y-81690424D01*
X155268209Y-81690425D01*
X155218096Y-81719359D01*
X155218095Y-81719360D01*
X155206960Y-81725789D01*
X155131285Y-81769479D01*
X155131282Y-81769481D01*
X155019478Y-81881286D01*
X154437582Y-82463181D01*
X154376259Y-82496666D01*
X154349901Y-82499500D01*
X153777129Y-82499500D01*
X153777123Y-82499501D01*
X153717516Y-82505908D01*
X153582671Y-82556202D01*
X153582664Y-82556206D01*
X153467455Y-82642452D01*
X153467452Y-82642455D01*
X153381206Y-82757664D01*
X153381202Y-82757671D01*
X153330910Y-82892513D01*
X153330909Y-82892517D01*
X153324500Y-82952127D01*
X153324500Y-82952134D01*
X153324500Y-82952135D01*
X153324500Y-83647870D01*
X153324501Y-83647876D01*
X153330908Y-83707483D01*
X153381202Y-83842328D01*
X153381206Y-83842335D01*
X153467452Y-83957544D01*
X153467455Y-83957547D01*
X153582664Y-84043793D01*
X153582671Y-84043797D01*
X153717517Y-84094091D01*
X153717516Y-84094091D01*
X153724444Y-84094835D01*
X153777127Y-84100500D01*
X155122872Y-84100499D01*
X155182483Y-84094091D01*
X155249603Y-84069057D01*
X155317329Y-84043797D01*
X155317329Y-84043796D01*
X155317331Y-84043796D01*
X155342795Y-84024733D01*
X155408258Y-84000316D01*
X155417106Y-84000000D01*
X156300000Y-84000000D01*
X156300000Y-83450000D01*
X156800000Y-83450000D01*
X156800000Y-84000000D01*
X157675000Y-84000000D01*
X157675000Y-83902172D01*
X157674999Y-83902155D01*
X157668598Y-83842627D01*
X157668596Y-83842620D01*
X157618354Y-83707913D01*
X157618350Y-83707906D01*
X157532190Y-83592812D01*
X157532187Y-83592809D01*
X157417093Y-83506649D01*
X157417086Y-83506645D01*
X157282379Y-83456403D01*
X157282372Y-83456401D01*
X157222844Y-83450000D01*
X156800000Y-83450000D01*
X156300000Y-83450000D01*
X155877155Y-83450000D01*
X155817627Y-83456401D01*
X155817619Y-83456403D01*
X155742832Y-83484297D01*
X155673140Y-83489281D01*
X155611817Y-83455795D01*
X155578333Y-83394472D01*
X155575499Y-83368120D01*
X155575499Y-83075096D01*
X155595184Y-83008058D01*
X155611812Y-82987421D01*
X155712417Y-82886817D01*
X155773740Y-82853334D01*
X155800097Y-82850500D01*
X158916086Y-82850500D01*
X158983125Y-82870185D01*
X159028880Y-82922989D01*
X159038824Y-82992147D01*
X159034473Y-83011380D01*
X159030914Y-83022804D01*
X159024867Y-83089352D01*
X159024500Y-83093386D01*
X159024500Y-83360096D01*
X159004815Y-83427135D01*
X158952011Y-83472890D01*
X158932596Y-83479870D01*
X158893220Y-83490421D01*
X158893209Y-83490426D01*
X158756290Y-83569475D01*
X158756282Y-83569481D01*
X157838063Y-84487701D01*
X157776740Y-84521186D01*
X157707048Y-84516202D01*
X157681838Y-84500000D01*
X156800000Y-84500000D01*
X156800000Y-85050000D01*
X156976402Y-85050000D01*
X157043441Y-85069685D01*
X157089196Y-85122489D01*
X157099140Y-85191647D01*
X157070115Y-85255203D01*
X157064083Y-85261681D01*
X155475136Y-86850628D01*
X155413813Y-86884113D01*
X155344121Y-86879129D01*
X155288188Y-86837257D01*
X155263771Y-86771793D01*
X155270414Y-86721991D01*
X155285367Y-86679259D01*
X155285369Y-86679249D01*
X155305565Y-86500003D01*
X155305565Y-86499996D01*
X155285369Y-86320750D01*
X155285368Y-86320745D01*
X155267520Y-86269738D01*
X155225789Y-86150478D01*
X155218979Y-86139640D01*
X155199976Y-86072404D01*
X155220341Y-86005568D01*
X155273608Y-85960352D01*
X155280638Y-85957482D01*
X155317326Y-85943798D01*
X155317326Y-85943797D01*
X155317331Y-85943796D01*
X155432546Y-85857546D01*
X155518796Y-85742331D01*
X155569091Y-85607483D01*
X155575500Y-85547873D01*
X155575499Y-85131882D01*
X155595183Y-85064845D01*
X155647987Y-85019090D01*
X155717146Y-85009146D01*
X155742833Y-85015702D01*
X155817623Y-85043597D01*
X155817627Y-85043598D01*
X155877155Y-85049999D01*
X155877172Y-85050000D01*
X156300000Y-85050000D01*
X156300000Y-84500000D01*
X155417107Y-84500000D01*
X155350068Y-84480315D01*
X155342796Y-84475267D01*
X155317331Y-84456204D01*
X155317328Y-84456202D01*
X155182482Y-84405908D01*
X155182483Y-84405908D01*
X155122883Y-84399501D01*
X155122881Y-84399500D01*
X155122873Y-84399500D01*
X155122864Y-84399500D01*
X153777129Y-84399500D01*
X153777123Y-84399501D01*
X153717516Y-84405908D01*
X153582671Y-84456202D01*
X153582664Y-84456206D01*
X153467457Y-84542451D01*
X153467451Y-84542457D01*
X153461948Y-84549809D01*
X153406015Y-84591681D01*
X153362680Y-84599500D01*
X151809098Y-84599500D01*
X151742059Y-84579815D01*
X151696304Y-84527011D01*
X151686360Y-84457853D01*
X151715385Y-84394297D01*
X151721417Y-84387819D01*
X151732355Y-84376881D01*
X151750520Y-84358716D01*
X151829577Y-84221784D01*
X151870500Y-84069057D01*
X151870500Y-79730352D01*
X151890185Y-79663313D01*
X151942989Y-79617558D01*
X152012147Y-79607614D01*
X152056499Y-79622964D01*
X152113095Y-79655639D01*
X152113097Y-79655641D01*
X152163213Y-79684576D01*
X152163215Y-79684577D01*
X152315942Y-79725500D01*
X152315943Y-79725500D01*
X156788331Y-79725500D01*
X156788347Y-79725501D01*
X156795943Y-79725501D01*
X156954054Y-79725501D01*
X156954057Y-79725501D01*
X157106785Y-79684577D01*
X157156904Y-79655639D01*
X157243716Y-79605520D01*
X157355520Y-79493716D01*
X157355520Y-79493714D01*
X157365728Y-79483507D01*
X157365730Y-79483504D01*
X157536882Y-79312351D01*
X157598203Y-79278868D01*
X157656654Y-79280258D01*
X157768950Y-79310349D01*
X157916297Y-79323240D01*
X157999998Y-79330563D01*
X158000000Y-79330563D01*
X158000002Y-79330563D01*
X158057762Y-79325509D01*
X158231050Y-79310349D01*
X158455079Y-79250320D01*
X158665282Y-79152301D01*
X158855269Y-79019270D01*
X159019270Y-78855269D01*
X159152301Y-78665282D01*
X159157618Y-78653878D01*
X159203790Y-78601440D01*
X159270984Y-78582288D01*
X159337865Y-78602504D01*
X159382381Y-78653878D01*
X159387699Y-78665282D01*
X159520730Y-78855269D01*
X159684731Y-79019270D01*
X159874718Y-79152301D01*
X159874729Y-79152306D01*
X159877496Y-79153904D01*
X159878476Y-79154932D01*
X159879153Y-79155406D01*
X159879057Y-79155541D01*
X159925713Y-79204470D01*
X159939500Y-79261294D01*
X159939500Y-79767587D01*
X159919815Y-79834626D01*
X159912450Y-79844896D01*
X159910186Y-79847734D01*
X159814211Y-80000476D01*
X159754631Y-80170745D01*
X159754630Y-80170750D01*
X159734435Y-80349996D01*
X159734435Y-80350003D01*
X159754630Y-80529249D01*
X159754631Y-80529254D01*
X159814211Y-80699523D01*
X159890384Y-80820750D01*
X159910184Y-80852262D01*
X160037738Y-80979816D01*
X160094327Y-81015373D01*
X160180919Y-81069783D01*
X160190478Y-81075789D01*
X160261098Y-81100500D01*
X160360745Y-81135368D01*
X160360750Y-81135369D01*
X160539996Y-81155565D01*
X160540000Y-81155565D01*
X160540004Y-81155565D01*
X160719249Y-81135369D01*
X160719252Y-81135368D01*
X160719255Y-81135368D01*
X160889522Y-81075789D01*
X161042262Y-80979816D01*
X161169816Y-80852262D01*
X161265789Y-80699522D01*
X161325368Y-80529255D01*
X161325369Y-80529249D01*
X161345565Y-80350003D01*
X161345565Y-80349996D01*
X161325369Y-80170750D01*
X161325368Y-80170745D01*
X161265788Y-80000476D01*
X161202340Y-79899500D01*
X161169816Y-79847738D01*
X161169814Y-79847736D01*
X161169813Y-79847734D01*
X161167550Y-79844896D01*
X161166659Y-79842715D01*
X161166111Y-79841842D01*
X161166264Y-79841745D01*
X161141144Y-79780209D01*
X161140500Y-79767587D01*
X161140500Y-79261294D01*
X161160185Y-79194255D01*
X161200879Y-79155452D01*
X161200847Y-79155406D01*
X161201154Y-79155190D01*
X161202504Y-79153904D01*
X161205265Y-79152308D01*
X161205282Y-79152301D01*
X161395269Y-79019270D01*
X161559270Y-78855269D01*
X161692301Y-78665282D01*
X161790320Y-78455079D01*
X161850349Y-78231050D01*
X161870563Y-78000000D01*
X161850349Y-77768950D01*
X161790320Y-77544921D01*
X161692301Y-77334719D01*
X161692299Y-77334716D01*
X161692298Y-77334714D01*
X161559273Y-77144735D01*
X161559268Y-77144729D01*
X161395269Y-76980730D01*
X161205274Y-76847693D01*
X161202493Y-76846088D01*
X161201513Y-76845060D01*
X161200847Y-76844594D01*
X161200940Y-76844459D01*
X161154281Y-76795518D01*
X161140500Y-76738705D01*
X161140500Y-75520982D01*
X161159507Y-75455009D01*
X161225788Y-75349524D01*
X161285368Y-75179254D01*
X161285369Y-75179249D01*
X161305565Y-75000003D01*
X161305565Y-74999996D01*
X161285369Y-74820750D01*
X161285368Y-74820745D01*
X161225788Y-74650476D01*
X161129815Y-74497737D01*
X161002262Y-74370184D01*
X160849523Y-74274211D01*
X160679254Y-74214631D01*
X160679249Y-74214630D01*
X160500004Y-74194435D01*
X160499996Y-74194435D01*
X160320750Y-74214630D01*
X160320745Y-74214631D01*
X160150476Y-74274211D01*
X159997737Y-74370184D01*
X159870184Y-74497737D01*
X159774211Y-74650476D01*
X159714631Y-74820745D01*
X159714630Y-74820750D01*
X159694435Y-74999996D01*
X159694435Y-75000003D01*
X159714630Y-75179249D01*
X159714631Y-75179254D01*
X159774211Y-75349523D01*
X159870184Y-75502262D01*
X159903181Y-75535259D01*
X159936666Y-75596582D01*
X159939500Y-75622940D01*
X159939500Y-76738706D01*
X159919815Y-76805745D01*
X159879120Y-76844548D01*
X159879153Y-76844594D01*
X159878851Y-76844804D01*
X159877502Y-76846092D01*
X159874718Y-76847699D01*
X159684735Y-76980726D01*
X159684729Y-76980731D01*
X159520731Y-77144729D01*
X159520726Y-77144735D01*
X159387701Y-77334714D01*
X159387698Y-77334720D01*
X159382381Y-77346123D01*
X159336207Y-77398562D01*
X159269013Y-77417712D01*
X159202133Y-77397495D01*
X159157619Y-77346123D01*
X159152301Y-77334720D01*
X159152298Y-77334714D01*
X159019273Y-77144735D01*
X159019268Y-77144729D01*
X158855269Y-76980730D01*
X158775817Y-76925097D01*
X158665282Y-76847699D01*
X158455079Y-76749680D01*
X158455076Y-76749679D01*
X158455074Y-76749678D01*
X158231051Y-76689651D01*
X158231044Y-76689650D01*
X158000002Y-76669437D01*
X157999998Y-76669437D01*
X157768955Y-76689650D01*
X157768948Y-76689651D01*
X157544917Y-76749681D01*
X157334718Y-76847699D01*
X157334714Y-76847701D01*
X157144735Y-76980726D01*
X157144729Y-76980731D01*
X156980731Y-77144729D01*
X156980726Y-77144735D01*
X156847701Y-77334714D01*
X156847698Y-77334720D01*
X156842381Y-77346123D01*
X156796207Y-77398562D01*
X156729013Y-77417712D01*
X156662133Y-77397495D01*
X156617619Y-77346123D01*
X156612301Y-77334720D01*
X156612298Y-77334714D01*
X156479273Y-77144735D01*
X156479268Y-77144729D01*
X156315269Y-76980730D01*
X156125274Y-76847693D01*
X156122493Y-76846088D01*
X156121513Y-76845060D01*
X156120847Y-76844594D01*
X156120940Y-76844459D01*
X156074281Y-76795518D01*
X156060500Y-76738705D01*
X156060500Y-75622940D01*
X156080185Y-75555901D01*
X156096819Y-75535259D01*
X156111096Y-75520982D01*
X156129816Y-75502262D01*
X156225789Y-75349522D01*
X156285368Y-75179255D01*
X156305565Y-75000000D01*
X156285368Y-74820745D01*
X156225789Y-74650478D01*
X156129816Y-74497738D01*
X156002262Y-74370184D01*
X155849523Y-74274211D01*
X155679254Y-74214631D01*
X155679249Y-74214630D01*
X155500004Y-74194435D01*
X155499996Y-74194435D01*
X155320750Y-74214630D01*
X155320745Y-74214631D01*
X155150476Y-74274211D01*
X154997737Y-74370184D01*
X154870184Y-74497737D01*
X154774211Y-74650476D01*
X154714631Y-74820745D01*
X154714630Y-74820750D01*
X154694435Y-74999996D01*
X154694435Y-75000003D01*
X154714630Y-75179249D01*
X154714631Y-75179254D01*
X154774211Y-75349524D01*
X154840493Y-75455009D01*
X154859500Y-75520982D01*
X154859500Y-76738706D01*
X154839815Y-76805745D01*
X154799120Y-76844548D01*
X154799153Y-76844594D01*
X154798851Y-76844804D01*
X154797502Y-76846092D01*
X154794718Y-76847699D01*
X154604735Y-76980726D01*
X154604729Y-76980731D01*
X154440731Y-77144729D01*
X154440726Y-77144735D01*
X154307701Y-77334714D01*
X154307699Y-77334718D01*
X154209681Y-77544917D01*
X154149651Y-77768948D01*
X154149650Y-77768955D01*
X154129437Y-77999998D01*
X154129437Y-78000001D01*
X154149650Y-78231044D01*
X154149651Y-78231051D01*
X154186456Y-78368406D01*
X154184793Y-78438256D01*
X154145631Y-78496119D01*
X154081402Y-78523623D01*
X154066681Y-78524500D01*
X152695097Y-78524500D01*
X152628058Y-78504815D01*
X152607416Y-78488181D01*
X152582353Y-78463118D01*
X152548868Y-78401795D01*
X152550258Y-78343345D01*
X152580349Y-78231050D01*
X152600563Y-78000000D01*
X152580349Y-77768950D01*
X152520320Y-77544921D01*
X152422301Y-77334719D01*
X152422299Y-77334716D01*
X152422298Y-77334714D01*
X152289273Y-77144735D01*
X152289268Y-77144729D01*
X152125269Y-76980730D01*
X152045817Y-76925097D01*
X151935282Y-76847699D01*
X151725079Y-76749680D01*
X151725076Y-76749679D01*
X151725074Y-76749678D01*
X151501051Y-76689651D01*
X151501044Y-76689650D01*
X151270002Y-76669437D01*
X151269998Y-76669437D01*
X151038955Y-76689650D01*
X151038948Y-76689651D01*
X150814917Y-76749681D01*
X150604718Y-76847699D01*
X150604714Y-76847701D01*
X150414735Y-76980726D01*
X150414729Y-76980731D01*
X150250731Y-77144729D01*
X150250726Y-77144735D01*
X150117701Y-77334714D01*
X150117698Y-77334720D01*
X150112381Y-77346123D01*
X150066207Y-77398562D01*
X149999013Y-77417712D01*
X149932133Y-77397495D01*
X149887619Y-77346123D01*
X149882301Y-77334720D01*
X149882298Y-77334714D01*
X149749273Y-77144735D01*
X149749268Y-77144729D01*
X149585269Y-76980730D01*
X149505817Y-76925097D01*
X149395282Y-76847699D01*
X149185079Y-76749680D01*
X149185076Y-76749679D01*
X149185074Y-76749678D01*
X148961051Y-76689651D01*
X148961044Y-76689650D01*
X148730002Y-76669437D01*
X148729998Y-76669437D01*
X148498955Y-76689650D01*
X148498948Y-76689651D01*
X148274917Y-76749681D01*
X148064718Y-76847699D01*
X148064714Y-76847701D01*
X147874735Y-76980726D01*
X147874729Y-76980731D01*
X147710731Y-77144729D01*
X147710726Y-77144735D01*
X147577701Y-77334714D01*
X147577699Y-77334718D01*
X147479681Y-77544917D01*
X147419651Y-77768948D01*
X147419650Y-77768955D01*
X147399437Y-77999998D01*
X147399437Y-78000001D01*
X147419650Y-78231044D01*
X147419651Y-78231051D01*
X147479678Y-78455074D01*
X147479682Y-78455085D01*
X147489702Y-78476572D01*
X147500260Y-78545152D01*
X147499499Y-78550935D01*
X147499499Y-78719046D01*
X147499500Y-78719059D01*
X147499500Y-82131433D01*
X147479815Y-82198472D01*
X147427011Y-82244227D01*
X147357853Y-82254171D01*
X147328048Y-82245995D01*
X147289887Y-82230189D01*
X147193497Y-82190263D01*
X147193492Y-82190262D01*
X147193489Y-82190261D01*
X147038845Y-82159500D01*
X147038842Y-82159500D01*
X146881158Y-82159500D01*
X146881155Y-82159500D01*
X146726510Y-82190261D01*
X146726498Y-82190264D01*
X146580827Y-82250602D01*
X146580814Y-82250609D01*
X146449711Y-82338210D01*
X146449707Y-82338213D01*
X146338213Y-82449707D01*
X146338210Y-82449711D01*
X146250609Y-82580814D01*
X146250602Y-82580827D01*
X146190264Y-82726498D01*
X146190261Y-82726510D01*
X146159500Y-82881153D01*
X146159500Y-83038846D01*
X146190261Y-83193489D01*
X146190264Y-83193501D01*
X146250602Y-83339172D01*
X146250609Y-83339185D01*
X146338210Y-83470288D01*
X146338213Y-83470292D01*
X146449707Y-83581786D01*
X146449711Y-83581789D01*
X146580814Y-83669390D01*
X146580827Y-83669397D01*
X146726498Y-83729735D01*
X146726503Y-83729737D01*
X146868087Y-83757900D01*
X146881153Y-83760499D01*
X146881156Y-83760500D01*
X146881158Y-83760500D01*
X147038844Y-83760500D01*
X147038845Y-83760499D01*
X147193497Y-83729737D01*
X147270574Y-83697811D01*
X147328048Y-83674005D01*
X147397517Y-83666536D01*
X147459996Y-83697811D01*
X147495648Y-83757900D01*
X147499500Y-83788566D01*
X147499500Y-84671433D01*
X147479815Y-84738472D01*
X147427011Y-84784227D01*
X147357853Y-84794171D01*
X147328048Y-84785995D01*
X147284900Y-84768123D01*
X147193497Y-84730263D01*
X147193492Y-84730262D01*
X147193489Y-84730261D01*
X147038845Y-84699500D01*
X147038842Y-84699500D01*
X146881158Y-84699500D01*
X146881155Y-84699500D01*
X146726510Y-84730261D01*
X146726498Y-84730264D01*
X146580827Y-84790602D01*
X146580814Y-84790609D01*
X146449711Y-84878210D01*
X146449707Y-84878213D01*
X146338213Y-84989707D01*
X146338210Y-84989711D01*
X146250609Y-85120814D01*
X146250602Y-85120827D01*
X146190264Y-85266498D01*
X146190261Y-85266510D01*
X146159500Y-85421153D01*
X146159500Y-85578846D01*
X146190261Y-85733489D01*
X146190264Y-85733501D01*
X146250602Y-85879172D01*
X146250609Y-85879185D01*
X146338210Y-86010288D01*
X146338213Y-86010292D01*
X146449707Y-86121786D01*
X146449711Y-86121789D01*
X146580814Y-86209390D01*
X146580827Y-86209397D01*
X146718736Y-86266520D01*
X146726503Y-86269737D01*
X146868087Y-86297900D01*
X146881153Y-86300499D01*
X146881156Y-86300500D01*
X146881158Y-86300500D01*
X147038844Y-86300500D01*
X147038845Y-86300499D01*
X147193497Y-86269737D01*
X147270574Y-86237811D01*
X147328048Y-86214005D01*
X147397517Y-86206536D01*
X147459996Y-86237811D01*
X147495648Y-86297900D01*
X147499500Y-86328566D01*
X147499500Y-88473330D01*
X147499499Y-88473348D01*
X147499499Y-88639054D01*
X147499498Y-88639054D01*
X147540424Y-88791789D01*
X147540425Y-88791790D01*
X147562758Y-88830471D01*
X147562759Y-88830472D01*
X147619477Y-88928712D01*
X147619481Y-88928717D01*
X147738349Y-89047585D01*
X147738355Y-89047590D01*
X147863181Y-89172416D01*
X147896666Y-89233739D01*
X147899500Y-89260097D01*
X147899500Y-89516425D01*
X147879815Y-89583464D01*
X147827011Y-89629219D01*
X147757853Y-89639163D01*
X147694297Y-89610138D01*
X147672398Y-89585316D01*
X147581789Y-89449711D01*
X147581786Y-89449707D01*
X147470292Y-89338213D01*
X147470288Y-89338210D01*
X147339185Y-89250609D01*
X147339172Y-89250602D01*
X147193501Y-89190264D01*
X147193489Y-89190261D01*
X147038845Y-89159500D01*
X147038842Y-89159500D01*
X146881158Y-89159500D01*
X146881155Y-89159500D01*
X146726510Y-89190261D01*
X146726498Y-89190264D01*
X146580827Y-89250602D01*
X146580814Y-89250609D01*
X146449711Y-89338210D01*
X146449707Y-89338213D01*
X146338213Y-89449707D01*
X146338210Y-89449711D01*
X146250609Y-89580814D01*
X146250602Y-89580827D01*
X146190264Y-89726498D01*
X146190261Y-89726510D01*
X146159500Y-89881153D01*
X146159500Y-90038846D01*
X146190261Y-90193489D01*
X146190264Y-90193501D01*
X146250602Y-90339172D01*
X146250609Y-90339185D01*
X146338210Y-90470288D01*
X146338213Y-90470292D01*
X146449707Y-90581786D01*
X146449711Y-90581789D01*
X146580814Y-90669390D01*
X146580827Y-90669397D01*
X146686069Y-90712989D01*
X146726503Y-90729737D01*
X146881153Y-90760499D01*
X146881156Y-90760500D01*
X146881158Y-90760500D01*
X147038844Y-90760500D01*
X147038845Y-90760499D01*
X147193497Y-90729737D01*
X147339179Y-90669394D01*
X147470289Y-90581789D01*
X147581789Y-90470289D01*
X147669394Y-90339179D01*
X147669394Y-90339178D01*
X147672398Y-90334683D01*
X147726010Y-90289878D01*
X147795335Y-90281171D01*
X147858362Y-90311325D01*
X147895082Y-90370768D01*
X147899500Y-90403574D01*
X147899500Y-91107870D01*
X147899501Y-91107876D01*
X147905908Y-91167483D01*
X147956202Y-91302328D01*
X147956206Y-91302335D01*
X148042452Y-91417544D01*
X148042455Y-91417547D01*
X148119104Y-91474927D01*
X148160975Y-91530861D01*
X148165959Y-91600552D01*
X148150520Y-91638983D01*
X148069533Y-91771140D01*
X147973126Y-92003889D01*
X147932997Y-92171043D01*
X147898206Y-92231635D01*
X147836180Y-92263799D01*
X147766611Y-92257323D01*
X147711587Y-92214263D01*
X147697862Y-92189548D01*
X147669397Y-92120827D01*
X147669390Y-92120814D01*
X147581789Y-91989711D01*
X147581786Y-91989707D01*
X147470292Y-91878213D01*
X147470288Y-91878210D01*
X147339185Y-91790609D01*
X147339172Y-91790602D01*
X147193501Y-91730264D01*
X147193489Y-91730261D01*
X147038845Y-91699500D01*
X147038842Y-91699500D01*
X146881158Y-91699500D01*
X146881155Y-91699500D01*
X146726510Y-91730261D01*
X146726498Y-91730264D01*
X146580827Y-91790602D01*
X146580814Y-91790609D01*
X146449711Y-91878210D01*
X146449707Y-91878213D01*
X146338213Y-91989707D01*
X146338210Y-91989711D01*
X146250609Y-92120814D01*
X146250602Y-92120827D01*
X146190264Y-92266498D01*
X146190261Y-92266510D01*
X146159500Y-92421153D01*
X146159500Y-92578846D01*
X146190261Y-92733489D01*
X146190264Y-92733501D01*
X146250602Y-92879172D01*
X146250609Y-92879185D01*
X146338210Y-93010288D01*
X146338213Y-93010292D01*
X146449707Y-93121786D01*
X146449711Y-93121789D01*
X146580814Y-93209390D01*
X146580827Y-93209397D01*
X146726498Y-93269735D01*
X146726503Y-93269737D01*
X146881153Y-93300499D01*
X146881156Y-93300500D01*
X146881158Y-93300500D01*
X147038844Y-93300500D01*
X147038845Y-93300499D01*
X147193497Y-93269737D01*
X147339179Y-93209394D01*
X147470289Y-93121789D01*
X147581789Y-93010289D01*
X147669394Y-92879179D01*
X147669395Y-92879176D01*
X147669397Y-92879173D01*
X147697862Y-92810451D01*
X147741702Y-92756047D01*
X147807996Y-92733982D01*
X147875696Y-92751261D01*
X147923307Y-92802398D01*
X147932997Y-92828956D01*
X147973126Y-92996110D01*
X148069533Y-93228859D01*
X148201160Y-93443653D01*
X148201161Y-93443656D01*
X148215281Y-93460188D01*
X148364776Y-93635224D01*
X148460190Y-93716715D01*
X148556343Y-93798838D01*
X148556346Y-93798839D01*
X148771140Y-93930466D01*
X149003889Y-94026873D01*
X149248852Y-94085683D01*
X149500000Y-94105449D01*
X149751148Y-94085683D01*
X149996111Y-94026873D01*
X150228859Y-93930466D01*
X150443659Y-93798836D01*
X150635224Y-93635224D01*
X150777220Y-93468967D01*
X150835727Y-93430775D01*
X150871510Y-93425500D01*
X154583480Y-93425500D01*
X154650519Y-93445185D01*
X154671161Y-93461819D01*
X154789811Y-93580469D01*
X154789813Y-93580470D01*
X154789815Y-93580472D01*
X154839650Y-93610598D01*
X154886838Y-93662126D01*
X154899500Y-93716715D01*
X154899500Y-94167587D01*
X154879815Y-94234626D01*
X154872450Y-94244896D01*
X154870186Y-94247734D01*
X154774211Y-94400476D01*
X154714631Y-94570745D01*
X154714630Y-94570750D01*
X154694435Y-94749996D01*
X154694435Y-94750003D01*
X154714630Y-94929249D01*
X154714631Y-94929254D01*
X154774211Y-95099523D01*
X154865305Y-95244497D01*
X154870184Y-95252262D01*
X154997738Y-95379816D01*
X155150478Y-95475789D01*
X155320739Y-95535366D01*
X155320745Y-95535368D01*
X155320750Y-95535369D01*
X155499996Y-95555565D01*
X155500000Y-95555565D01*
X155500004Y-95555565D01*
X155679249Y-95535369D01*
X155679251Y-95535368D01*
X155679255Y-95535368D01*
X155679258Y-95535366D01*
X155679262Y-95535366D01*
X155837360Y-95480045D01*
X155907139Y-95476483D01*
X155967766Y-95511211D01*
X155999994Y-95573205D01*
X155993589Y-95642780D01*
X155965996Y-95684767D01*
X155881286Y-95769478D01*
X155769481Y-95881282D01*
X155769477Y-95881287D01*
X155723620Y-95960716D01*
X155723620Y-95960717D01*
X155690423Y-96018214D01*
X155690423Y-96018215D01*
X155649499Y-96170943D01*
X155649499Y-96170945D01*
X155649499Y-96339046D01*
X155649500Y-96339059D01*
X155649500Y-100199903D01*
X155629815Y-100266942D01*
X155613181Y-100287584D01*
X154037584Y-101863181D01*
X153976261Y-101896666D01*
X153949903Y-101899500D01*
X151224499Y-101899500D01*
X151157460Y-101879815D01*
X151111705Y-101827011D01*
X151100499Y-101775500D01*
X151100499Y-101352129D01*
X151100498Y-101352123D01*
X151100497Y-101352116D01*
X151095299Y-101303757D01*
X151094091Y-101292516D01*
X151043797Y-101157671D01*
X151043793Y-101157664D01*
X150957547Y-101042455D01*
X150957544Y-101042452D01*
X150842335Y-100956206D01*
X150842328Y-100956202D01*
X150707482Y-100905908D01*
X150707483Y-100905908D01*
X150647883Y-100899501D01*
X150647881Y-100899500D01*
X150647873Y-100899500D01*
X150647864Y-100899500D01*
X148352129Y-100899500D01*
X148352123Y-100899501D01*
X148292516Y-100905908D01*
X148157671Y-100956202D01*
X148157664Y-100956206D01*
X148042455Y-101042452D01*
X148042452Y-101042455D01*
X147956206Y-101157664D01*
X147956202Y-101157671D01*
X147905908Y-101292517D01*
X147903624Y-101313767D01*
X147899501Y-101352123D01*
X147899500Y-101352135D01*
X147899500Y-102056424D01*
X147879815Y-102123463D01*
X147827011Y-102169218D01*
X147757853Y-102179162D01*
X147694297Y-102150137D01*
X147672398Y-102125315D01*
X147581789Y-101989711D01*
X147581786Y-101989707D01*
X147470292Y-101878213D01*
X147470288Y-101878210D01*
X147339185Y-101790609D01*
X147339172Y-101790602D01*
X147193501Y-101730264D01*
X147193489Y-101730261D01*
X147038845Y-101699500D01*
X147038842Y-101699500D01*
X146881158Y-101699500D01*
X146881155Y-101699500D01*
X146726510Y-101730261D01*
X146726498Y-101730264D01*
X146580827Y-101790602D01*
X146580814Y-101790609D01*
X146449711Y-101878210D01*
X146449707Y-101878213D01*
X146338213Y-101989707D01*
X146338210Y-101989711D01*
X146250609Y-102120814D01*
X146250602Y-102120827D01*
X146190264Y-102266498D01*
X146190261Y-102266510D01*
X146159500Y-102421153D01*
X146159500Y-102578846D01*
X146190261Y-102733489D01*
X146190264Y-102733501D01*
X146250602Y-102879172D01*
X146250609Y-102879185D01*
X146338210Y-103010288D01*
X146338213Y-103010292D01*
X146449707Y-103121786D01*
X146449711Y-103121789D01*
X146580814Y-103209390D01*
X146580827Y-103209397D01*
X146719753Y-103266941D01*
X146726503Y-103269737D01*
X146881153Y-103300499D01*
X146881156Y-103300500D01*
X146881158Y-103300500D01*
X147038844Y-103300500D01*
X147038845Y-103300499D01*
X147193497Y-103269737D01*
X147339179Y-103209394D01*
X147470289Y-103121789D01*
X147581789Y-103010289D01*
X147632165Y-102934895D01*
X147672398Y-102874684D01*
X147726010Y-102829879D01*
X147795335Y-102821172D01*
X147858363Y-102851326D01*
X147895082Y-102910770D01*
X147899500Y-102943575D01*
X147899500Y-103199902D01*
X147879815Y-103266941D01*
X147863181Y-103287583D01*
X147619481Y-103531282D01*
X147619479Y-103531285D01*
X147583745Y-103593180D01*
X147583744Y-103593182D01*
X147540423Y-103668214D01*
X147531090Y-103703044D01*
X147499499Y-103820943D01*
X147499499Y-103820945D01*
X147499499Y-103989046D01*
X147499500Y-103989059D01*
X147499500Y-104211433D01*
X147479815Y-104278472D01*
X147427011Y-104324227D01*
X147357853Y-104334171D01*
X147328048Y-104325995D01*
X147289887Y-104310189D01*
X147193497Y-104270263D01*
X147193492Y-104270262D01*
X147193489Y-104270261D01*
X147038845Y-104239500D01*
X147038842Y-104239500D01*
X146881158Y-104239500D01*
X146881155Y-104239500D01*
X146726510Y-104270261D01*
X146726498Y-104270264D01*
X146580827Y-104330602D01*
X146580814Y-104330609D01*
X146449711Y-104418210D01*
X146449707Y-104418213D01*
X146338213Y-104529707D01*
X146338210Y-104529711D01*
X146250609Y-104660814D01*
X146250602Y-104660827D01*
X146190264Y-104806498D01*
X146190261Y-104806510D01*
X146159500Y-104961153D01*
X146159500Y-105118846D01*
X145500500Y-105118846D01*
X145500500Y-64348846D01*
X146159500Y-64348846D01*
X146190261Y-64503489D01*
X146190264Y-64503501D01*
X146250602Y-64649172D01*
X146250609Y-64649185D01*
X146338210Y-64780288D01*
X146338213Y-64780292D01*
X146449707Y-64891786D01*
X146449711Y-64891789D01*
X146580814Y-64979390D01*
X146580827Y-64979397D01*
X146726498Y-65039735D01*
X146726503Y-65039737D01*
X146853870Y-65065072D01*
X146881153Y-65070499D01*
X146881156Y-65070500D01*
X146881158Y-65070500D01*
X147038844Y-65070500D01*
X147038845Y-65070499D01*
X147193497Y-65039737D01*
X147339179Y-64979394D01*
X147470289Y-64891789D01*
X147581789Y-64780289D01*
X147669394Y-64649179D01*
X147669395Y-64649176D01*
X147669397Y-64649173D01*
X147697862Y-64580451D01*
X147741702Y-64526047D01*
X147807996Y-64503982D01*
X147875696Y-64521261D01*
X147923307Y-64572398D01*
X147932997Y-64598956D01*
X147973126Y-64766110D01*
X148069533Y-64998859D01*
X148201160Y-65213653D01*
X148201161Y-65213656D01*
X148227020Y-65243933D01*
X148364776Y-65405224D01*
X148505016Y-65525000D01*
X148556343Y-65568838D01*
X148556346Y-65568839D01*
X148771140Y-65700466D01*
X148961947Y-65779500D01*
X149003889Y-65796873D01*
X149248852Y-65855683D01*
X149500000Y-65875449D01*
X149751148Y-65855683D01*
X149996111Y-65796873D01*
X150228859Y-65700466D01*
X150443659Y-65568836D01*
X150635224Y-65405224D01*
X150798836Y-65213659D01*
X150930466Y-64998859D01*
X150951927Y-64947048D01*
X150995767Y-64892644D01*
X151062061Y-64870579D01*
X151066488Y-64870500D01*
X154493331Y-64870500D01*
X154493347Y-64870501D01*
X154500943Y-64870501D01*
X154659054Y-64870501D01*
X154659057Y-64870501D01*
X154811785Y-64829577D01*
X154861904Y-64800639D01*
X154919979Y-64767111D01*
X154981977Y-64750499D01*
X155572871Y-64750499D01*
X155572872Y-64750499D01*
X155632483Y-64744091D01*
X155767331Y-64693796D01*
X155882546Y-64607546D01*
X155888052Y-64600191D01*
X155943985Y-64558319D01*
X155987320Y-64550500D01*
X156038331Y-64550500D01*
X156038347Y-64550501D01*
X156045943Y-64550501D01*
X156204054Y-64550501D01*
X156204057Y-64550501D01*
X156356785Y-64509577D01*
X156406904Y-64480639D01*
X156493716Y-64430520D01*
X156605520Y-64318716D01*
X156605520Y-64318714D01*
X156615728Y-64308507D01*
X156615732Y-64308502D01*
X156637418Y-64286817D01*
X156698742Y-64253333D01*
X156725097Y-64250500D01*
X158583480Y-64250500D01*
X158650519Y-64270185D01*
X158671161Y-64286819D01*
X158789810Y-64405468D01*
X158789814Y-64405471D01*
X158789815Y-64405472D01*
X158837054Y-64434029D01*
X158884241Y-64485555D01*
X158896080Y-64554415D01*
X158868812Y-64618743D01*
X158860585Y-64627826D01*
X157625232Y-65863181D01*
X157563909Y-65896666D01*
X157537551Y-65899500D01*
X157216715Y-65899500D01*
X157149676Y-65879815D01*
X157110598Y-65839650D01*
X157080472Y-65789815D01*
X157080470Y-65789813D01*
X157080469Y-65789811D01*
X156960188Y-65669530D01*
X156814606Y-65581522D01*
X156686319Y-65541547D01*
X156652196Y-65530914D01*
X156652194Y-65530913D01*
X156652192Y-65530913D01*
X156602778Y-65526423D01*
X156581616Y-65524500D01*
X156068384Y-65524500D01*
X156049145Y-65526248D01*
X155997807Y-65530913D01*
X155835393Y-65581522D01*
X155689811Y-65669530D01*
X155689810Y-65669531D01*
X155587681Y-65771661D01*
X155526358Y-65805146D01*
X155456666Y-65800162D01*
X155412319Y-65771661D01*
X155310188Y-65669530D01*
X155164606Y-65581522D01*
X155036319Y-65541547D01*
X155002196Y-65530914D01*
X155002194Y-65530913D01*
X155002192Y-65530913D01*
X154952778Y-65526423D01*
X154931616Y-65524500D01*
X154418384Y-65524500D01*
X154399145Y-65526248D01*
X154347807Y-65530913D01*
X154185393Y-65581522D01*
X154039811Y-65669530D01*
X153919530Y-65789811D01*
X153831522Y-65935393D01*
X153780913Y-66097807D01*
X153774500Y-66168386D01*
X153774500Y-66831613D01*
X153780913Y-66902192D01*
X153780913Y-66902194D01*
X153780914Y-66902196D01*
X153831522Y-67064606D01*
X153919528Y-67210185D01*
X154038182Y-67328839D01*
X154071666Y-67390160D01*
X154074500Y-67416519D01*
X154074500Y-67524902D01*
X154054815Y-67591941D01*
X154038180Y-67612584D01*
X153981464Y-67669299D01*
X153920141Y-67702783D01*
X153907668Y-67704837D01*
X153820750Y-67714630D01*
X153650478Y-67774210D01*
X153497737Y-67870184D01*
X153370184Y-67997737D01*
X153274211Y-68150476D01*
X153214631Y-68320745D01*
X153214630Y-68320750D01*
X153194435Y-68499996D01*
X153194435Y-68500003D01*
X153214630Y-68679249D01*
X153214631Y-68679254D01*
X153274211Y-68849523D01*
X153316109Y-68916202D01*
X153370184Y-69002262D01*
X153497738Y-69129816D01*
X153650478Y-69225789D01*
X153820745Y-69285368D01*
X153820750Y-69285369D01*
X153999996Y-69305565D01*
X154000000Y-69305565D01*
X154000004Y-69305565D01*
X154179249Y-69285369D01*
X154179252Y-69285368D01*
X154179255Y-69285368D01*
X154349522Y-69225789D01*
X154502262Y-69129816D01*
X154629816Y-69002262D01*
X154725789Y-68849522D01*
X154785368Y-68679255D01*
X154795161Y-68592330D01*
X154822226Y-68527920D01*
X154830700Y-68518534D01*
X154980520Y-68368716D01*
X154980520Y-68368714D01*
X154990725Y-68358510D01*
X154990729Y-68358505D01*
X155033506Y-68315728D01*
X155033511Y-68315724D01*
X155037417Y-68311819D01*
X155043658Y-68308410D01*
X155065728Y-68292504D01*
X155065734Y-68292501D01*
X155067248Y-68295529D01*
X155098740Y-68278334D01*
X155125098Y-68275500D01*
X158644903Y-68275500D01*
X158711942Y-68295185D01*
X158732584Y-68311819D01*
X159883835Y-69463070D01*
X159917320Y-69524393D01*
X159912336Y-69594085D01*
X159870464Y-69650018D01*
X159805000Y-69674435D01*
X159785347Y-69674279D01*
X159730002Y-69669437D01*
X159729998Y-69669437D01*
X159498955Y-69689650D01*
X159498948Y-69689651D01*
X159274917Y-69749681D01*
X159064718Y-69847699D01*
X159064714Y-69847701D01*
X158874735Y-69980726D01*
X158874729Y-69980731D01*
X158710731Y-70144729D01*
X158710726Y-70144735D01*
X158577701Y-70334714D01*
X158577699Y-70334718D01*
X158479681Y-70544917D01*
X158419651Y-70768948D01*
X158419650Y-70768955D01*
X158399437Y-70999998D01*
X158399437Y-71000001D01*
X158419650Y-71231044D01*
X158419652Y-71231055D01*
X158449739Y-71343343D01*
X158448076Y-71413193D01*
X158417645Y-71463117D01*
X157692584Y-72188181D01*
X157631261Y-72221666D01*
X157604903Y-72224500D01*
X155416520Y-72224500D01*
X155349481Y-72204815D01*
X155328839Y-72188181D01*
X155228339Y-72087681D01*
X155194854Y-72026358D01*
X155199838Y-71956666D01*
X155228339Y-71912319D01*
X155330468Y-71810189D01*
X155330469Y-71810188D01*
X155330472Y-71810185D01*
X155418478Y-71664606D01*
X155469086Y-71502196D01*
X155475500Y-71431616D01*
X155475500Y-70918384D01*
X155469086Y-70847804D01*
X155418478Y-70685394D01*
X155330472Y-70539815D01*
X155330470Y-70539813D01*
X155330469Y-70539811D01*
X155210188Y-70419530D01*
X155146713Y-70381158D01*
X155064606Y-70331522D01*
X154902196Y-70280914D01*
X154902194Y-70280913D01*
X154902192Y-70280913D01*
X154852778Y-70276423D01*
X154831616Y-70274500D01*
X154831613Y-70274500D01*
X154500097Y-70274500D01*
X154433058Y-70254815D01*
X154412416Y-70238181D01*
X154272590Y-70098355D01*
X154272588Y-70098352D01*
X154153717Y-69979481D01*
X154153716Y-69979480D01*
X154066904Y-69929360D01*
X154066904Y-69929359D01*
X154066900Y-69929358D01*
X154016785Y-69900423D01*
X153864057Y-69859499D01*
X153705943Y-69859499D01*
X153698347Y-69859499D01*
X153698331Y-69859500D01*
X151264499Y-69859500D01*
X151197460Y-69839815D01*
X151151705Y-69787011D01*
X151140499Y-69735500D01*
X151140499Y-69312129D01*
X151140498Y-69312123D01*
X151140497Y-69312116D01*
X151134091Y-69252517D01*
X151083796Y-69117669D01*
X151083795Y-69117668D01*
X151083793Y-69117664D01*
X150997547Y-69002455D01*
X150997544Y-69002452D01*
X150882335Y-68916206D01*
X150882328Y-68916202D01*
X150740215Y-68863198D01*
X150740932Y-68861273D01*
X150689483Y-68831971D01*
X150657102Y-68770058D01*
X150663334Y-68700467D01*
X150691038Y-68658196D01*
X151518536Y-67830698D01*
X151579857Y-67797215D01*
X151592310Y-67795163D01*
X151679255Y-67785368D01*
X151849522Y-67725789D01*
X152002262Y-67629816D01*
X152129816Y-67502262D01*
X152225789Y-67349522D01*
X152285368Y-67179255D01*
X152294545Y-67097807D01*
X152305565Y-67000003D01*
X152305565Y-66999996D01*
X152285369Y-66820750D01*
X152285368Y-66820745D01*
X152233026Y-66671161D01*
X152225789Y-66650478D01*
X152129816Y-66497738D01*
X152002262Y-66370184D01*
X151910847Y-66312744D01*
X151849523Y-66274211D01*
X151679254Y-66214631D01*
X151679249Y-66214630D01*
X151500004Y-66194435D01*
X151499996Y-66194435D01*
X151320750Y-66214630D01*
X151320745Y-66214631D01*
X151150476Y-66274211D01*
X150997737Y-66370184D01*
X150870184Y-66497737D01*
X150774210Y-66650478D01*
X150714630Y-66820750D01*
X150704837Y-66907667D01*
X150677770Y-66972081D01*
X150669298Y-66981464D01*
X149171286Y-68479478D01*
X149059481Y-68591282D01*
X149059479Y-68591285D01*
X149009361Y-68678094D01*
X149009359Y-68678096D01*
X148980425Y-68728209D01*
X148980421Y-68728218D01*
X148969870Y-68767595D01*
X148933505Y-68827255D01*
X148870657Y-68857783D01*
X148850096Y-68859500D01*
X148392129Y-68859500D01*
X148392123Y-68859501D01*
X148332516Y-68865908D01*
X148197671Y-68916202D01*
X148197664Y-68916206D01*
X148082455Y-69002452D01*
X148082452Y-69002455D01*
X147996206Y-69117664D01*
X147996202Y-69117671D01*
X147945908Y-69252517D01*
X147939501Y-69312116D01*
X147939501Y-69312123D01*
X147939500Y-69312135D01*
X147939500Y-70016425D01*
X147919815Y-70083464D01*
X147867011Y-70129219D01*
X147797853Y-70139163D01*
X147734297Y-70110138D01*
X147712398Y-70085316D01*
X147621789Y-69949711D01*
X147621786Y-69949707D01*
X147510292Y-69838213D01*
X147510288Y-69838210D01*
X147379185Y-69750609D01*
X147379172Y-69750602D01*
X147233501Y-69690264D01*
X147233489Y-69690261D01*
X147078845Y-69659500D01*
X147078842Y-69659500D01*
X146921158Y-69659500D01*
X146921155Y-69659500D01*
X146766510Y-69690261D01*
X146766498Y-69690264D01*
X146620827Y-69750602D01*
X146620814Y-69750609D01*
X146489711Y-69838210D01*
X146489707Y-69838213D01*
X146378213Y-69949707D01*
X146378210Y-69949711D01*
X146290609Y-70080814D01*
X146290602Y-70080827D01*
X146230264Y-70226498D01*
X146230261Y-70226510D01*
X146199500Y-70381153D01*
X146199500Y-70538846D01*
X146230261Y-70693489D01*
X146230264Y-70693501D01*
X146290602Y-70839172D01*
X146290609Y-70839185D01*
X146378210Y-70970288D01*
X146378213Y-70970292D01*
X146489707Y-71081786D01*
X146489711Y-71081789D01*
X146620814Y-71169390D01*
X146620827Y-71169397D01*
X146766498Y-71229735D01*
X146766503Y-71229737D01*
X146921153Y-71260499D01*
X146921156Y-71260500D01*
X146921158Y-71260500D01*
X147078844Y-71260500D01*
X147078845Y-71260499D01*
X147233497Y-71229737D01*
X147379179Y-71169394D01*
X147510289Y-71081789D01*
X147621789Y-70970289D01*
X147709394Y-70839179D01*
X147709394Y-70839178D01*
X147712398Y-70834683D01*
X147766010Y-70789878D01*
X147835335Y-70781171D01*
X147898362Y-70811325D01*
X147935082Y-70870768D01*
X147939500Y-70903574D01*
X147939500Y-71607870D01*
X147939501Y-71607876D01*
X147945908Y-71667483D01*
X147996202Y-71802328D01*
X147996206Y-71802335D01*
X148082452Y-71917544D01*
X148082455Y-71917547D01*
X148159104Y-71974927D01*
X148200975Y-72030861D01*
X148205959Y-72100552D01*
X148190520Y-72138983D01*
X148109533Y-72271140D01*
X148013126Y-72503889D01*
X147972997Y-72671043D01*
X147938206Y-72731635D01*
X147876180Y-72763799D01*
X147806611Y-72757323D01*
X147751587Y-72714263D01*
X147737862Y-72689548D01*
X147709397Y-72620827D01*
X147709390Y-72620814D01*
X147621789Y-72489711D01*
X147621786Y-72489707D01*
X147510292Y-72378213D01*
X147510288Y-72378210D01*
X147379185Y-72290609D01*
X147379172Y-72290602D01*
X147233501Y-72230264D01*
X147233489Y-72230261D01*
X147078845Y-72199500D01*
X147078842Y-72199500D01*
X146921158Y-72199500D01*
X146921155Y-72199500D01*
X146766510Y-72230261D01*
X146766498Y-72230264D01*
X146620827Y-72290602D01*
X146620814Y-72290609D01*
X146489711Y-72378210D01*
X146489707Y-72378213D01*
X146378213Y-72489707D01*
X146378210Y-72489711D01*
X146290609Y-72620814D01*
X146290602Y-72620827D01*
X146230264Y-72766498D01*
X146230261Y-72766510D01*
X146199500Y-72921153D01*
X146199500Y-73078846D01*
X146230261Y-73233489D01*
X146230264Y-73233501D01*
X146290602Y-73379172D01*
X146290609Y-73379185D01*
X146378210Y-73510288D01*
X146378213Y-73510292D01*
X146489707Y-73621786D01*
X146489711Y-73621789D01*
X146620814Y-73709390D01*
X146620827Y-73709397D01*
X146766498Y-73769735D01*
X146766503Y-73769737D01*
X146916126Y-73799499D01*
X146921153Y-73800499D01*
X146921156Y-73800500D01*
X146921158Y-73800500D01*
X147078844Y-73800500D01*
X147078845Y-73800499D01*
X147233497Y-73769737D01*
X147379179Y-73709394D01*
X147510289Y-73621789D01*
X147621789Y-73510289D01*
X147709394Y-73379179D01*
X147709395Y-73379176D01*
X147709397Y-73379173D01*
X147737862Y-73310451D01*
X147781702Y-73256047D01*
X147847996Y-73233982D01*
X147915696Y-73251261D01*
X147963307Y-73302398D01*
X147972997Y-73328956D01*
X148013126Y-73496110D01*
X148109533Y-73728859D01*
X148241160Y-73943653D01*
X148241161Y-73943656D01*
X148241164Y-73943659D01*
X148404776Y-74135224D01*
X148497750Y-74214631D01*
X148596343Y-74298838D01*
X148596346Y-74298839D01*
X148811140Y-74430466D01*
X149043889Y-74526873D01*
X149288852Y-74585683D01*
X149540000Y-74605449D01*
X149791148Y-74585683D01*
X150036111Y-74526873D01*
X150268859Y-74430466D01*
X150483659Y-74298836D01*
X150675224Y-74135224D01*
X150838836Y-73943659D01*
X150970466Y-73728859D01*
X150991927Y-73677048D01*
X151035767Y-73622644D01*
X151102061Y-73600579D01*
X151106488Y-73600500D01*
X153788377Y-73600500D01*
X153852527Y-73618383D01*
X153935394Y-73668478D01*
X154097804Y-73719086D01*
X154168384Y-73725500D01*
X154168387Y-73725500D01*
X154831613Y-73725500D01*
X154831616Y-73725500D01*
X154902196Y-73719086D01*
X155064606Y-73668478D01*
X155210185Y-73580472D01*
X155210189Y-73580468D01*
X155328839Y-73461819D01*
X155390162Y-73428334D01*
X155416520Y-73425500D01*
X157818331Y-73425500D01*
X157818347Y-73425501D01*
X157825943Y-73425501D01*
X157984054Y-73425501D01*
X157984057Y-73425501D01*
X158136785Y-73384577D01*
X158186904Y-73355639D01*
X158273716Y-73305520D01*
X158385520Y-73193716D01*
X158385520Y-73193714D01*
X158395728Y-73183507D01*
X158395729Y-73183504D01*
X159266883Y-72312351D01*
X159328204Y-72278868D01*
X159386654Y-72280258D01*
X159498950Y-72310349D01*
X159643005Y-72322952D01*
X159729998Y-72330563D01*
X159730000Y-72330563D01*
X159730002Y-72330563D01*
X159787762Y-72325509D01*
X159961050Y-72310349D01*
X160185079Y-72250320D01*
X160395282Y-72152301D01*
X160585269Y-72019270D01*
X160749270Y-71855269D01*
X160882301Y-71665282D01*
X160887618Y-71653878D01*
X160933790Y-71601440D01*
X161000984Y-71582288D01*
X161067865Y-71602504D01*
X161112381Y-71653878D01*
X161117699Y-71665282D01*
X161250730Y-71855269D01*
X161414731Y-72019270D01*
X161604718Y-72152301D01*
X161814921Y-72250320D01*
X162038950Y-72310349D01*
X162183005Y-72322952D01*
X162269998Y-72330563D01*
X162270000Y-72330563D01*
X162270002Y-72330563D01*
X162327762Y-72325509D01*
X162501050Y-72310349D01*
X162725079Y-72250320D01*
X162935282Y-72152301D01*
X163125269Y-72019270D01*
X163289270Y-71855269D01*
X163422301Y-71665282D01*
X163422308Y-71665265D01*
X163423904Y-71662504D01*
X163424932Y-71661523D01*
X163425406Y-71660847D01*
X163425541Y-71660942D01*
X163474470Y-71614287D01*
X163531294Y-71600500D01*
X173417588Y-71600500D01*
X173484627Y-71620185D01*
X173494903Y-71627555D01*
X173497736Y-71629814D01*
X173497738Y-71629816D01*
X173650478Y-71725789D01*
X173820745Y-71785368D01*
X173820750Y-71785369D01*
X173999996Y-71805565D01*
X174000000Y-71805565D01*
X174000004Y-71805565D01*
X174179249Y-71785369D01*
X174179252Y-71785368D01*
X174179255Y-71785368D01*
X174349522Y-71725789D01*
X174502262Y-71629816D01*
X174629816Y-71502262D01*
X174725789Y-71349522D01*
X174785368Y-71179255D01*
X174790581Y-71132989D01*
X174805565Y-71000003D01*
X174805565Y-70999996D01*
X174785369Y-70820750D01*
X174785368Y-70820745D01*
X174740839Y-70693489D01*
X174725789Y-70650478D01*
X174629816Y-70497738D01*
X174502262Y-70370184D01*
X174349523Y-70274211D01*
X174179254Y-70214631D01*
X174179249Y-70214630D01*
X174000004Y-70194435D01*
X173999996Y-70194435D01*
X173820750Y-70214630D01*
X173820745Y-70214631D01*
X173650476Y-70274211D01*
X173497736Y-70370185D01*
X173494903Y-70372445D01*
X173492724Y-70373334D01*
X173491842Y-70373889D01*
X173491744Y-70373734D01*
X173430217Y-70398855D01*
X173417588Y-70399500D01*
X163531294Y-70399500D01*
X163464255Y-70379815D01*
X163425451Y-70339120D01*
X163425406Y-70339153D01*
X163425195Y-70338851D01*
X163423908Y-70337502D01*
X163422300Y-70334718D01*
X163384625Y-70280913D01*
X163338215Y-70214632D01*
X163289273Y-70144735D01*
X163289268Y-70144729D01*
X163125269Y-69980730D01*
X163123482Y-69979479D01*
X162935282Y-69847699D01*
X162725079Y-69749680D01*
X162725076Y-69749679D01*
X162725074Y-69749678D01*
X162501051Y-69689651D01*
X162501044Y-69689650D01*
X162270002Y-69669437D01*
X162269998Y-69669437D01*
X162038955Y-69689650D01*
X162038944Y-69689652D01*
X161926655Y-69719740D01*
X161856805Y-69718077D01*
X161806881Y-69687646D01*
X159432590Y-67313355D01*
X159432588Y-67313352D01*
X159313717Y-67194481D01*
X159313716Y-67194480D01*
X159226904Y-67144360D01*
X159226904Y-67144359D01*
X159226900Y-67144358D01*
X159176785Y-67115423D01*
X159024057Y-67074499D01*
X158865943Y-67074499D01*
X158858347Y-67074499D01*
X158858331Y-67074500D01*
X158411746Y-67074500D01*
X158344707Y-67054815D01*
X158298952Y-67002011D01*
X158289008Y-66932853D01*
X158307667Y-66891993D01*
X158305149Y-66890734D01*
X158305152Y-66890728D01*
X158313596Y-66879012D01*
X158318033Y-66869297D01*
X158324065Y-66862819D01*
X158328372Y-66858511D01*
X158328375Y-66858506D01*
X158436881Y-66750000D01*
X159775001Y-66750000D01*
X159775001Y-66798322D01*
X159785144Y-66897607D01*
X159838452Y-67058481D01*
X159838457Y-67058492D01*
X159927424Y-67202728D01*
X159927427Y-67202732D01*
X160047267Y-67322572D01*
X160047271Y-67322575D01*
X160191507Y-67411542D01*
X160191518Y-67411547D01*
X160352393Y-67464855D01*
X160451683Y-67474999D01*
X160475000Y-67474998D01*
X160475000Y-66750000D01*
X159775001Y-66750000D01*
X158436881Y-66750000D01*
X158936881Y-66250000D01*
X159775000Y-66250000D01*
X160475000Y-66250000D01*
X160475000Y-65524999D01*
X160451693Y-65525000D01*
X160451674Y-65525001D01*
X160352392Y-65535144D01*
X160191518Y-65588452D01*
X160191507Y-65588457D01*
X160047271Y-65677424D01*
X160047267Y-65677427D01*
X159927427Y-65797267D01*
X159927424Y-65797271D01*
X159838457Y-65941507D01*
X159838452Y-65941518D01*
X159785144Y-66102393D01*
X159775000Y-66201677D01*
X159775000Y-66250000D01*
X158936881Y-66250000D01*
X160412322Y-64774560D01*
X160473641Y-64741078D01*
X160543333Y-64746062D01*
X160587680Y-64774563D01*
X161130318Y-65317201D01*
X161163803Y-65378524D01*
X161158819Y-65448216D01*
X161116947Y-65504149D01*
X161051483Y-65528566D01*
X161030036Y-65528240D01*
X160998327Y-65525000D01*
X160975000Y-65525000D01*
X160975000Y-67474999D01*
X160998308Y-67474999D01*
X160998322Y-67474998D01*
X161097607Y-67464855D01*
X161258481Y-67411547D01*
X161258492Y-67411542D01*
X161402731Y-67322573D01*
X161411959Y-67313345D01*
X161473279Y-67279856D01*
X161542971Y-67284835D01*
X161587327Y-67313339D01*
X161596955Y-67322967D01*
X161596959Y-67322970D01*
X161741294Y-67411998D01*
X161741297Y-67411999D01*
X161741303Y-67412003D01*
X161902292Y-67465349D01*
X162001655Y-67475500D01*
X162548344Y-67475499D01*
X162548352Y-67475498D01*
X162548355Y-67475498D01*
X162602760Y-67469940D01*
X162647708Y-67465349D01*
X162808697Y-67412003D01*
X162953044Y-67322968D01*
X162963202Y-67312808D01*
X163024522Y-67279321D01*
X163094214Y-67284300D01*
X163138569Y-67312804D01*
X163238181Y-67412416D01*
X163271666Y-67473739D01*
X163274500Y-67500097D01*
X163274500Y-67831613D01*
X163280913Y-67902192D01*
X163280913Y-67902194D01*
X163280914Y-67902196D01*
X163331522Y-68064606D01*
X163401581Y-68180498D01*
X163419530Y-68210188D01*
X163539811Y-68330469D01*
X163539813Y-68330470D01*
X163539815Y-68330472D01*
X163685394Y-68418478D01*
X163847804Y-68469086D01*
X163918384Y-68475500D01*
X163918387Y-68475500D01*
X164431613Y-68475500D01*
X164431616Y-68475500D01*
X164502196Y-68469086D01*
X164664606Y-68418478D01*
X164810185Y-68330472D01*
X164848156Y-68292501D01*
X164912319Y-68228339D01*
X164973642Y-68194854D01*
X165043334Y-68199838D01*
X165087681Y-68228339D01*
X165189811Y-68330469D01*
X165189813Y-68330470D01*
X165189815Y-68330472D01*
X165335394Y-68418478D01*
X165497804Y-68469086D01*
X165568384Y-68475500D01*
X165568387Y-68475500D01*
X166081613Y-68475500D01*
X166081616Y-68475500D01*
X166152196Y-68469086D01*
X166314606Y-68418478D01*
X166460185Y-68330472D01*
X166580472Y-68210185D01*
X166668478Y-68064606D01*
X166719086Y-67902196D01*
X166725500Y-67831616D01*
X166725500Y-67168384D01*
X166719086Y-67097804D01*
X166668478Y-66935394D01*
X166580472Y-66789815D01*
X166580470Y-66789813D01*
X166580469Y-66789811D01*
X166461819Y-66671161D01*
X166428334Y-66609838D01*
X166425500Y-66583480D01*
X166425500Y-66312744D01*
X166445185Y-66245705D01*
X166461814Y-66225067D01*
X167451158Y-65235723D01*
X167512479Y-65202240D01*
X167582170Y-65207224D01*
X167638104Y-65249096D01*
X167654742Y-65284683D01*
X167655998Y-65284215D01*
X167709002Y-65426328D01*
X167709006Y-65426335D01*
X167795252Y-65541544D01*
X167795255Y-65541547D01*
X167910464Y-65627793D01*
X167910471Y-65627797D01*
X168045317Y-65678091D01*
X168045316Y-65678091D01*
X168052244Y-65678835D01*
X168104927Y-65684500D01*
X169016702Y-65684499D01*
X169083741Y-65704183D01*
X169104382Y-65720817D01*
X170444084Y-67060520D01*
X170444086Y-67060521D01*
X170444090Y-67060524D01*
X170581009Y-67139573D01*
X170581016Y-67139577D01*
X170733743Y-67180501D01*
X170733745Y-67180501D01*
X170899454Y-67180501D01*
X170899470Y-67180500D01*
X178235501Y-67180500D01*
X178302540Y-67200185D01*
X178348295Y-67252989D01*
X178359501Y-67304500D01*
X178359501Y-67727876D01*
X178365908Y-67787483D01*
X178416202Y-67922328D01*
X178416206Y-67922335D01*
X178502452Y-68037544D01*
X178502455Y-68037547D01*
X178617664Y-68123793D01*
X178617671Y-68123797D01*
X178752517Y-68174091D01*
X178752516Y-68174091D01*
X178759444Y-68174835D01*
X178812127Y-68180500D01*
X181107872Y-68180499D01*
X181167483Y-68174091D01*
X181302331Y-68123796D01*
X181417546Y-68037546D01*
X181503796Y-67922331D01*
X181554091Y-67787483D01*
X181560500Y-67727873D01*
X181560499Y-67023571D01*
X181580183Y-66956535D01*
X181632987Y-66910780D01*
X181702146Y-66900836D01*
X181765702Y-66929861D01*
X181787601Y-66954683D01*
X181878210Y-67090288D01*
X181878213Y-67090292D01*
X181989707Y-67201786D01*
X181989711Y-67201789D01*
X182120814Y-67289390D01*
X182120827Y-67289397D01*
X182265984Y-67349522D01*
X182266503Y-67349737D01*
X182421153Y-67380499D01*
X182421156Y-67380500D01*
X182421158Y-67380500D01*
X182578844Y-67380500D01*
X182578845Y-67380499D01*
X182733497Y-67349737D01*
X182879179Y-67289394D01*
X183010289Y-67201789D01*
X183121789Y-67090289D01*
X183209394Y-66959179D01*
X183269737Y-66813497D01*
X183300500Y-66658842D01*
X183300500Y-66501158D01*
X183300500Y-66501155D01*
X183300499Y-66501153D01*
X183269738Y-66346510D01*
X183269737Y-66346503D01*
X183239793Y-66274211D01*
X183209397Y-66200827D01*
X183209390Y-66200814D01*
X183121789Y-66069711D01*
X183121786Y-66069707D01*
X183010291Y-65958212D01*
X183010288Y-65958210D01*
X182879185Y-65870609D01*
X182879172Y-65870602D01*
X182733501Y-65810264D01*
X182733489Y-65810261D01*
X182578845Y-65779500D01*
X182578842Y-65779500D01*
X182421158Y-65779500D01*
X182421155Y-65779500D01*
X182266510Y-65810261D01*
X182266498Y-65810264D01*
X182120827Y-65870602D01*
X182120814Y-65870609D01*
X181989711Y-65958210D01*
X181989709Y-65958212D01*
X181878213Y-66069707D01*
X181878210Y-66069711D01*
X181787601Y-66205316D01*
X181733988Y-66250121D01*
X181664663Y-66258828D01*
X181601636Y-66228673D01*
X181564917Y-66169230D01*
X181560499Y-66136425D01*
X181560499Y-65432129D01*
X181560498Y-65432123D01*
X181560497Y-65432116D01*
X181554091Y-65372517D01*
X181534690Y-65320501D01*
X181503797Y-65237671D01*
X181503793Y-65237664D01*
X181417547Y-65122455D01*
X181340894Y-65065072D01*
X181299024Y-65009138D01*
X181294040Y-64939446D01*
X181309476Y-64901021D01*
X181390466Y-64768859D01*
X181486873Y-64536111D01*
X181527003Y-64368954D01*
X181561792Y-64308365D01*
X181623818Y-64276200D01*
X181693387Y-64282676D01*
X181748411Y-64325735D01*
X181762137Y-64350450D01*
X181790604Y-64419175D01*
X181790609Y-64419185D01*
X181878210Y-64550288D01*
X181878213Y-64550292D01*
X181989707Y-64661786D01*
X181989711Y-64661789D01*
X182120814Y-64749390D01*
X182120827Y-64749397D01*
X182266498Y-64809735D01*
X182266503Y-64809737D01*
X182366240Y-64829576D01*
X182421153Y-64840499D01*
X182421156Y-64840500D01*
X182421158Y-64840500D01*
X182578844Y-64840500D01*
X182578845Y-64840499D01*
X182733497Y-64809737D01*
X182879179Y-64749394D01*
X183010289Y-64661789D01*
X183121789Y-64550289D01*
X183209394Y-64419179D01*
X183269737Y-64273497D01*
X183300500Y-64118842D01*
X183300500Y-63961158D01*
X183300500Y-63961155D01*
X183300499Y-63961153D01*
X183286509Y-63890821D01*
X183269737Y-63806503D01*
X183241197Y-63737600D01*
X183209397Y-63660827D01*
X183209390Y-63660814D01*
X183121789Y-63529711D01*
X183121786Y-63529707D01*
X183010292Y-63418213D01*
X183010288Y-63418210D01*
X182879185Y-63330609D01*
X182879172Y-63330602D01*
X182733501Y-63270264D01*
X182733489Y-63270261D01*
X182578845Y-63239500D01*
X182578842Y-63239500D01*
X182421158Y-63239500D01*
X182421155Y-63239500D01*
X182266510Y-63270261D01*
X182266498Y-63270264D01*
X182120827Y-63330602D01*
X182120814Y-63330609D01*
X181989711Y-63418210D01*
X181989707Y-63418213D01*
X181878213Y-63529707D01*
X181878210Y-63529711D01*
X181790609Y-63660814D01*
X181790606Y-63660820D01*
X181762137Y-63729550D01*
X181718295Y-63783953D01*
X181652001Y-63806017D01*
X181584302Y-63788737D01*
X181536692Y-63737600D01*
X181527003Y-63711046D01*
X181486873Y-63543889D01*
X181465410Y-63492073D01*
X181457942Y-63422607D01*
X181489216Y-63360128D01*
X181492263Y-63356970D01*
X181718506Y-63130728D01*
X181718511Y-63130724D01*
X181728714Y-63120520D01*
X181728716Y-63120520D01*
X181840520Y-63008716D01*
X181879861Y-62940575D01*
X181906700Y-62894089D01*
X181906701Y-62894087D01*
X181916060Y-62877876D01*
X181919577Y-62871785D01*
X181960501Y-62719057D01*
X181960501Y-62560943D01*
X181960501Y-62553348D01*
X181960500Y-62553330D01*
X181960500Y-62328566D01*
X181980185Y-62261527D01*
X182032989Y-62215772D01*
X182102147Y-62205828D01*
X182131952Y-62214005D01*
X182246682Y-62261527D01*
X182266503Y-62269737D01*
X182421153Y-62300499D01*
X182421156Y-62300500D01*
X182421158Y-62300500D01*
X182578844Y-62300500D01*
X182578845Y-62300499D01*
X182733497Y-62269737D01*
X182879179Y-62209394D01*
X183010289Y-62121789D01*
X183121789Y-62010289D01*
X183209394Y-61879179D01*
X183269737Y-61733497D01*
X183300500Y-61578842D01*
X183300500Y-61421158D01*
X183300500Y-61421155D01*
X183300499Y-61421153D01*
X183294790Y-61392452D01*
X183269737Y-61266503D01*
X183265349Y-61255909D01*
X183209397Y-61120827D01*
X183209390Y-61120814D01*
X183121789Y-60989711D01*
X183121786Y-60989707D01*
X183010292Y-60878213D01*
X183010288Y-60878210D01*
X182879185Y-60790609D01*
X182879172Y-60790602D01*
X182733501Y-60730264D01*
X182733489Y-60730261D01*
X182578845Y-60699500D01*
X182578842Y-60699500D01*
X182421158Y-60699500D01*
X182421155Y-60699500D01*
X182266510Y-60730261D01*
X182266507Y-60730262D01*
X182266506Y-60730262D01*
X182266503Y-60730263D01*
X182189431Y-60762187D01*
X182131952Y-60785995D01*
X182062482Y-60793463D01*
X182000003Y-60762187D01*
X181964351Y-60702098D01*
X181960500Y-60671433D01*
X181960500Y-60280945D01*
X181960500Y-60280943D01*
X181958227Y-60272461D01*
X181958227Y-60272453D01*
X181958225Y-60272454D01*
X181937599Y-60195477D01*
X181937599Y-60195476D01*
X181919577Y-60128216D01*
X181919576Y-60128213D01*
X181840524Y-59991290D01*
X181840521Y-59991286D01*
X181840520Y-59991284D01*
X181728716Y-59879480D01*
X181728715Y-59879479D01*
X181724385Y-59875149D01*
X181724374Y-59875139D01*
X180830700Y-58981465D01*
X180797215Y-58920142D01*
X180795163Y-58907686D01*
X180785368Y-58820745D01*
X180725789Y-58650478D01*
X180629816Y-58497738D01*
X180502262Y-58370184D01*
X180349523Y-58274211D01*
X180179254Y-58214631D01*
X180179249Y-58214630D01*
X180000004Y-58194435D01*
X179999996Y-58194435D01*
X179820750Y-58214630D01*
X179820745Y-58214631D01*
X179650476Y-58274211D01*
X179497737Y-58370184D01*
X179370184Y-58497737D01*
X179274211Y-58650476D01*
X179214631Y-58820745D01*
X179214630Y-58820750D01*
X179194435Y-58999996D01*
X179194435Y-59000003D01*
X179214630Y-59179249D01*
X179214631Y-59179254D01*
X179274211Y-59349523D01*
X179276597Y-59353320D01*
X179370184Y-59502262D01*
X179497738Y-59629816D01*
X179537299Y-59654674D01*
X179634198Y-59715560D01*
X179680489Y-59767895D01*
X179691137Y-59836949D01*
X179662762Y-59900797D01*
X179604372Y-59939169D01*
X179597173Y-59941128D01*
X179463889Y-59973126D01*
X179231140Y-60069533D01*
X179016346Y-60201160D01*
X179016343Y-60201161D01*
X178824776Y-60364776D01*
X178751106Y-60451032D01*
X178692599Y-60489225D01*
X178656816Y-60494500D01*
X175292154Y-60494500D01*
X175225115Y-60474815D01*
X175205666Y-60459142D01*
X175089535Y-60372206D01*
X175089528Y-60372202D01*
X174954682Y-60321908D01*
X174954683Y-60321908D01*
X174895083Y-60315501D01*
X174895081Y-60315500D01*
X174895073Y-60315500D01*
X174895065Y-60315500D01*
X173301701Y-60315500D01*
X173234662Y-60295815D01*
X173188907Y-60243011D01*
X173177701Y-60191500D01*
X173177701Y-59109141D01*
X173197386Y-59042102D01*
X173250190Y-58996347D01*
X173319348Y-58986403D01*
X173382904Y-59015428D01*
X173389382Y-59021460D01*
X173497738Y-59129816D01*
X173650478Y-59225789D01*
X173680457Y-59236279D01*
X173820745Y-59285368D01*
X173820750Y-59285369D01*
X173999996Y-59305565D01*
X174000000Y-59305565D01*
X174000004Y-59305565D01*
X174179249Y-59285369D01*
X174179252Y-59285368D01*
X174179255Y-59285368D01*
X174349522Y-59225789D01*
X174502262Y-59129816D01*
X174629816Y-59002262D01*
X174725789Y-58849522D01*
X174785368Y-58679255D01*
X174785369Y-58679249D01*
X174805565Y-58500003D01*
X174805565Y-58499996D01*
X174785369Y-58320750D01*
X174785368Y-58320745D01*
X174725788Y-58150476D01*
X174640501Y-58014743D01*
X174629816Y-57997738D01*
X174502262Y-57870184D01*
X174370552Y-57787425D01*
X174349521Y-57774210D01*
X174179249Y-57714630D01*
X174092330Y-57704837D01*
X174027916Y-57677770D01*
X174018533Y-57669298D01*
X173214020Y-56864784D01*
X173180535Y-56803461D01*
X173177701Y-56777103D01*
X173177701Y-56437687D01*
X173197386Y-56370648D01*
X173250190Y-56324893D01*
X173312505Y-56314159D01*
X173482876Y-56329064D01*
X173499999Y-56330563D01*
X173500000Y-56330563D01*
X173500002Y-56330563D01*
X173564809Y-56324893D01*
X173731050Y-56310349D01*
X173955079Y-56250320D01*
X174165282Y-56152301D01*
X174355269Y-56019270D01*
X174519270Y-55855269D01*
X174652301Y-55665282D01*
X174657618Y-55653878D01*
X174703790Y-55601440D01*
X174770984Y-55582288D01*
X174837865Y-55602504D01*
X174882381Y-55653878D01*
X174887699Y-55665282D01*
X175020730Y-55855269D01*
X175184731Y-56019270D01*
X175374718Y-56152301D01*
X175374729Y-56152306D01*
X175377496Y-56153904D01*
X175378476Y-56154932D01*
X175379153Y-56155406D01*
X175379057Y-56155541D01*
X175425713Y-56204470D01*
X175439500Y-56261294D01*
X175439500Y-57877060D01*
X175419815Y-57944099D01*
X175403181Y-57964741D01*
X175370184Y-57997737D01*
X175274211Y-58150476D01*
X175214631Y-58320745D01*
X175214630Y-58320750D01*
X175194435Y-58499996D01*
X175194435Y-58500003D01*
X175214630Y-58679249D01*
X175214631Y-58679254D01*
X175274211Y-58849523D01*
X175337838Y-58950784D01*
X175370184Y-59002262D01*
X175497738Y-59129816D01*
X175650478Y-59225789D01*
X175680457Y-59236279D01*
X175820745Y-59285368D01*
X175820750Y-59285369D01*
X175999996Y-59305565D01*
X176000000Y-59305565D01*
X176000004Y-59305565D01*
X176179249Y-59285369D01*
X176179252Y-59285368D01*
X176179255Y-59285368D01*
X176349522Y-59225789D01*
X176502262Y-59129816D01*
X176629816Y-59002262D01*
X176725789Y-58849522D01*
X176785368Y-58679255D01*
X176785369Y-58679249D01*
X176805565Y-58500003D01*
X176805565Y-58499996D01*
X176785369Y-58320750D01*
X176785366Y-58320737D01*
X176725790Y-58150481D01*
X176725789Y-58150478D01*
X176659507Y-58044990D01*
X176659506Y-58044988D01*
X176640500Y-57979016D01*
X176640500Y-56261294D01*
X176660185Y-56194255D01*
X176700879Y-56155452D01*
X176700847Y-56155406D01*
X176701154Y-56155190D01*
X176702504Y-56153904D01*
X176705265Y-56152308D01*
X176705282Y-56152301D01*
X176895269Y-56019270D01*
X177059270Y-55855269D01*
X177192301Y-55665282D01*
X177290320Y-55455079D01*
X177350349Y-55231050D01*
X177370563Y-55000000D01*
X177350349Y-54768950D01*
X177290320Y-54544921D01*
X177192301Y-54334719D01*
X177192299Y-54334716D01*
X177192298Y-54334714D01*
X177059273Y-54144735D01*
X177059268Y-54144729D01*
X176895269Y-53980730D01*
X176889189Y-53976473D01*
X176705282Y-53847699D01*
X176495079Y-53749680D01*
X176495076Y-53749679D01*
X176495074Y-53749678D01*
X176271051Y-53689651D01*
X176271044Y-53689650D01*
X176040002Y-53669437D01*
X176039998Y-53669437D01*
X175808955Y-53689650D01*
X175808948Y-53689651D01*
X175584917Y-53749681D01*
X175374718Y-53847699D01*
X175374714Y-53847701D01*
X175184735Y-53980726D01*
X175184729Y-53980731D01*
X175020731Y-54144729D01*
X175020726Y-54144735D01*
X174887701Y-54334714D01*
X174887698Y-54334720D01*
X174882381Y-54346123D01*
X174836207Y-54398562D01*
X174769013Y-54417712D01*
X174702133Y-54397495D01*
X174657619Y-54346123D01*
X174652301Y-54334720D01*
X174652298Y-54334714D01*
X174519273Y-54144735D01*
X174519268Y-54144729D01*
X174355269Y-53980730D01*
X174349189Y-53976473D01*
X174165282Y-53847699D01*
X173955079Y-53749680D01*
X173955076Y-53749679D01*
X173955074Y-53749678D01*
X173731051Y-53689651D01*
X173731044Y-53689650D01*
X173500002Y-53669437D01*
X173499998Y-53669437D01*
X173268955Y-53689650D01*
X173268948Y-53689651D01*
X173044917Y-53749681D01*
X172834720Y-53847698D01*
X172766781Y-53895269D01*
X172700575Y-53917596D01*
X172632808Y-53900584D01*
X172588271Y-53855691D01*
X172583657Y-53847699D01*
X172565520Y-53816284D01*
X172453716Y-53704480D01*
X172453715Y-53704479D01*
X172449385Y-53700149D01*
X172449374Y-53700139D01*
X172262590Y-53513355D01*
X172262588Y-53513352D01*
X172143717Y-53394481D01*
X172143716Y-53394480D01*
X172056904Y-53344360D01*
X172056904Y-53344359D01*
X172056900Y-53344358D01*
X172006785Y-53315423D01*
X171854057Y-53274499D01*
X171695943Y-53274499D01*
X171688347Y-53274499D01*
X171688331Y-53274500D01*
X159204057Y-53274500D01*
X159045942Y-53274500D01*
X158893215Y-53315423D01*
X158893214Y-53315423D01*
X158893212Y-53315424D01*
X158893209Y-53315425D01*
X158843096Y-53344359D01*
X158843095Y-53344360D01*
X158799689Y-53369420D01*
X158756285Y-53394479D01*
X158756282Y-53394481D01*
X158644478Y-53506286D01*
X158463118Y-53687645D01*
X158401795Y-53721130D01*
X158343345Y-53719739D01*
X158231058Y-53689653D01*
X158231055Y-53689652D01*
X158231050Y-53689651D01*
X158231047Y-53689650D01*
X158231044Y-53689650D01*
X158000002Y-53669437D01*
X157999998Y-53669437D01*
X157768955Y-53689650D01*
X157768944Y-53689652D01*
X157656655Y-53719740D01*
X157586805Y-53718077D01*
X157536881Y-53687646D01*
X157362590Y-53513355D01*
X157362588Y-53513352D01*
X157243717Y-53394481D01*
X157243716Y-53394480D01*
X157156904Y-53344360D01*
X157156904Y-53344359D01*
X157156900Y-53344358D01*
X157106785Y-53315423D01*
X156954057Y-53274499D01*
X156795943Y-53274499D01*
X156788347Y-53274499D01*
X156788331Y-53274500D01*
X150204057Y-53274500D01*
X150045942Y-53274500D01*
X149893215Y-53315423D01*
X149893214Y-53315423D01*
X149893212Y-53315424D01*
X149893209Y-53315425D01*
X149843096Y-53344359D01*
X149843095Y-53344360D01*
X149799689Y-53369420D01*
X149756285Y-53394479D01*
X149756282Y-53394481D01*
X149644478Y-53506286D01*
X149463118Y-53687645D01*
X149401795Y-53721130D01*
X149343345Y-53719739D01*
X149231058Y-53689653D01*
X149231055Y-53689652D01*
X149231050Y-53689651D01*
X149231047Y-53689650D01*
X149231044Y-53689650D01*
X149000002Y-53669437D01*
X148999998Y-53669437D01*
X148768955Y-53689650D01*
X148768948Y-53689651D01*
X148544917Y-53749681D01*
X148334718Y-53847699D01*
X148334714Y-53847701D01*
X148144735Y-53980726D01*
X148144729Y-53980731D01*
X147980731Y-54144729D01*
X147980726Y-54144735D01*
X147847701Y-54334714D01*
X147847699Y-54334718D01*
X147749681Y-54544917D01*
X147689651Y-54768948D01*
X147689650Y-54768955D01*
X147669437Y-54999998D01*
X147669437Y-55000001D01*
X147689650Y-55231044D01*
X147689651Y-55231051D01*
X147749678Y-55455074D01*
X147749679Y-55455076D01*
X147749680Y-55455079D01*
X147847699Y-55665282D01*
X147980730Y-55855269D01*
X148144731Y-56019270D01*
X148334718Y-56152301D01*
X148544921Y-56250320D01*
X148768950Y-56310349D01*
X148933985Y-56324787D01*
X148999998Y-56330563D01*
X149000000Y-56330563D01*
X149000002Y-56330563D01*
X149064809Y-56324893D01*
X149231050Y-56310349D01*
X149455079Y-56250320D01*
X149665282Y-56152301D01*
X149855269Y-56019270D01*
X150019270Y-55855269D01*
X150152301Y-55665282D01*
X150157618Y-55653878D01*
X150203790Y-55601440D01*
X150270984Y-55582288D01*
X150337865Y-55602504D01*
X150382381Y-55653878D01*
X150387699Y-55665282D01*
X150520730Y-55855269D01*
X150684731Y-56019270D01*
X150874718Y-56152301D01*
X150874729Y-56152306D01*
X150877496Y-56153904D01*
X150878476Y-56154932D01*
X150879153Y-56155406D01*
X150879057Y-56155541D01*
X150925713Y-56204470D01*
X150939500Y-56261294D01*
X150939500Y-57877060D01*
X150919815Y-57944099D01*
X150903181Y-57964741D01*
X150870184Y-57997737D01*
X150774211Y-58150476D01*
X150714631Y-58320745D01*
X150714630Y-58320750D01*
X150694435Y-58499996D01*
X150694435Y-58500003D01*
X150714630Y-58679249D01*
X150714631Y-58679254D01*
X150774211Y-58849523D01*
X150837838Y-58950784D01*
X150870184Y-59002262D01*
X150997738Y-59129816D01*
X151150478Y-59225789D01*
X151180457Y-59236279D01*
X151320745Y-59285368D01*
X151320750Y-59285369D01*
X151499996Y-59305565D01*
X151500000Y-59305565D01*
X151500004Y-59305565D01*
X151679249Y-59285369D01*
X151679252Y-59285368D01*
X151679255Y-59285368D01*
X151849522Y-59225789D01*
X152002262Y-59129816D01*
X152129816Y-59002262D01*
X152225789Y-58849522D01*
X152285368Y-58679255D01*
X152285369Y-58679249D01*
X152305565Y-58500003D01*
X152305565Y-58499996D01*
X152285369Y-58320750D01*
X152285366Y-58320737D01*
X152225790Y-58150481D01*
X152225789Y-58150478D01*
X152159507Y-58044990D01*
X152159506Y-58044988D01*
X152140500Y-57979016D01*
X152140500Y-56261294D01*
X152160185Y-56194255D01*
X152200879Y-56155452D01*
X152200847Y-56155406D01*
X152201154Y-56155190D01*
X152202504Y-56153904D01*
X152205265Y-56152308D01*
X152205282Y-56152301D01*
X152395269Y-56019270D01*
X152559270Y-55855269D01*
X152692301Y-55665282D01*
X152790320Y-55455079D01*
X152850349Y-55231050D01*
X152870563Y-55000000D01*
X152850349Y-54768950D01*
X152813544Y-54631593D01*
X152815207Y-54561744D01*
X152854369Y-54503881D01*
X152918598Y-54476377D01*
X152933319Y-54475500D01*
X154066681Y-54475500D01*
X154133720Y-54495185D01*
X154179475Y-54547989D01*
X154189419Y-54617147D01*
X154186456Y-54631594D01*
X154149651Y-54768948D01*
X154149650Y-54768955D01*
X154129437Y-54999998D01*
X154129437Y-55000001D01*
X154149650Y-55231044D01*
X154149651Y-55231051D01*
X154209678Y-55455074D01*
X154209679Y-55455076D01*
X154209680Y-55455079D01*
X154307699Y-55665282D01*
X154440730Y-55855269D01*
X154604731Y-56019270D01*
X154794718Y-56152301D01*
X154794729Y-56152306D01*
X154797496Y-56153904D01*
X154798476Y-56154932D01*
X154799153Y-56155406D01*
X154799057Y-56155541D01*
X154845713Y-56204470D01*
X154859500Y-56261294D01*
X154859500Y-57979016D01*
X154840494Y-58044988D01*
X154774211Y-58150477D01*
X154774209Y-58150481D01*
X154714633Y-58320737D01*
X154714630Y-58320750D01*
X154694435Y-58499996D01*
X154694435Y-58500003D01*
X154714630Y-58679249D01*
X154714631Y-58679254D01*
X154774211Y-58849523D01*
X154837838Y-58950784D01*
X154870184Y-59002262D01*
X154997738Y-59129816D01*
X155150478Y-59225789D01*
X155180457Y-59236279D01*
X155320745Y-59285368D01*
X155320750Y-59285369D01*
X155499996Y-59305565D01*
X155500000Y-59305565D01*
X155500004Y-59305565D01*
X155679249Y-59285369D01*
X155679252Y-59285368D01*
X155679255Y-59285368D01*
X155849522Y-59225789D01*
X156002262Y-59129816D01*
X156129816Y-59002262D01*
X156225789Y-58849522D01*
X156285368Y-58679255D01*
X156285369Y-58679249D01*
X156305565Y-58500003D01*
X156305565Y-58499996D01*
X156285369Y-58320750D01*
X156285368Y-58320745D01*
X156225788Y-58150476D01*
X156140501Y-58014743D01*
X156129816Y-57997738D01*
X156096819Y-57964741D01*
X156063334Y-57903418D01*
X156060500Y-57877060D01*
X156060500Y-56261294D01*
X156080185Y-56194255D01*
X156120879Y-56155452D01*
X156120847Y-56155406D01*
X156121154Y-56155190D01*
X156122504Y-56153904D01*
X156125265Y-56152308D01*
X156125282Y-56152301D01*
X156315269Y-56019270D01*
X156479270Y-55855269D01*
X156612301Y-55665282D01*
X156617618Y-55653878D01*
X156663790Y-55601440D01*
X156730984Y-55582288D01*
X156797865Y-55602504D01*
X156842381Y-55653878D01*
X156847699Y-55665282D01*
X156980730Y-55855269D01*
X157144731Y-56019270D01*
X157334718Y-56152301D01*
X157334729Y-56152306D01*
X157337496Y-56153904D01*
X157338476Y-56154932D01*
X157339153Y-56155406D01*
X157339057Y-56155541D01*
X157385713Y-56204470D01*
X157399500Y-56261294D01*
X157399500Y-57917587D01*
X157379815Y-57984626D01*
X157372450Y-57994896D01*
X157370186Y-57997734D01*
X157274211Y-58150476D01*
X157214631Y-58320745D01*
X157214630Y-58320750D01*
X157194435Y-58499996D01*
X157194435Y-58500003D01*
X157214630Y-58679249D01*
X157214631Y-58679254D01*
X157274211Y-58849523D01*
X157337838Y-58950784D01*
X157370184Y-59002262D01*
X157497738Y-59129816D01*
X157650478Y-59225789D01*
X157680457Y-59236279D01*
X157820745Y-59285368D01*
X157820750Y-59285369D01*
X157999996Y-59305565D01*
X158000000Y-59305565D01*
X158000004Y-59305565D01*
X158179249Y-59285369D01*
X158179252Y-59285368D01*
X158179255Y-59285368D01*
X158349522Y-59225789D01*
X158502262Y-59129816D01*
X158629816Y-59002262D01*
X158725789Y-58849522D01*
X158785368Y-58679255D01*
X158785369Y-58679249D01*
X158805565Y-58500003D01*
X158805565Y-58499996D01*
X158785369Y-58320750D01*
X158785368Y-58320745D01*
X158725788Y-58150476D01*
X158640501Y-58014743D01*
X158629816Y-57997738D01*
X158629814Y-57997736D01*
X158629813Y-57997734D01*
X158627550Y-57994896D01*
X158626659Y-57992715D01*
X158626111Y-57991842D01*
X158626264Y-57991745D01*
X158601144Y-57930209D01*
X158600500Y-57917587D01*
X158600500Y-56261294D01*
X158620185Y-56194255D01*
X158660879Y-56155452D01*
X158660847Y-56155406D01*
X158661154Y-56155190D01*
X158662504Y-56153904D01*
X158665265Y-56152308D01*
X158665282Y-56152301D01*
X158855269Y-56019270D01*
X159019270Y-55855269D01*
X159152301Y-55665282D01*
X159157618Y-55653878D01*
X159203790Y-55601440D01*
X159270984Y-55582288D01*
X159337865Y-55602504D01*
X159382381Y-55653878D01*
X159387699Y-55665282D01*
X159520730Y-55855269D01*
X159684731Y-56019270D01*
X159874718Y-56152301D01*
X159874729Y-56152306D01*
X159877496Y-56153904D01*
X159878476Y-56154932D01*
X159879153Y-56155406D01*
X159879057Y-56155541D01*
X159925713Y-56204470D01*
X159939500Y-56261294D01*
X159939500Y-57755332D01*
X159935275Y-57787425D01*
X159899499Y-57920943D01*
X159898438Y-57929003D01*
X159896232Y-57928712D01*
X159879814Y-57984628D01*
X159872445Y-57994903D01*
X159870184Y-57997737D01*
X159774211Y-58150476D01*
X159714631Y-58320745D01*
X159714630Y-58320750D01*
X159694435Y-58499996D01*
X159694435Y-58500003D01*
X159714630Y-58679249D01*
X159714631Y-58679254D01*
X159774211Y-58849523D01*
X159837838Y-58950784D01*
X159870184Y-59002262D01*
X159997738Y-59129816D01*
X160150478Y-59225789D01*
X160180457Y-59236279D01*
X160320745Y-59285368D01*
X160320750Y-59285369D01*
X160499996Y-59305565D01*
X160500000Y-59305565D01*
X160500004Y-59305565D01*
X160679249Y-59285369D01*
X160679252Y-59285368D01*
X160679255Y-59285368D01*
X160849522Y-59225789D01*
X161002262Y-59129816D01*
X161129816Y-59002262D01*
X161225789Y-58849522D01*
X161285368Y-58679255D01*
X161285369Y-58679249D01*
X161305565Y-58500003D01*
X161305565Y-58499996D01*
X161285369Y-58320750D01*
X161285368Y-58320745D01*
X161225788Y-58150476D01*
X161159507Y-58044990D01*
X161140501Y-57979018D01*
X161140501Y-57873347D01*
X161140500Y-57873329D01*
X161140500Y-56261294D01*
X161160185Y-56194255D01*
X161200879Y-56155452D01*
X161200847Y-56155406D01*
X161201154Y-56155190D01*
X161202504Y-56153904D01*
X161205265Y-56152308D01*
X161205282Y-56152301D01*
X161395269Y-56019270D01*
X161559270Y-55855269D01*
X161692301Y-55665282D01*
X161790320Y-55455079D01*
X161850349Y-55231050D01*
X161870563Y-55000000D01*
X161850349Y-54768950D01*
X161813544Y-54631593D01*
X161815207Y-54561744D01*
X161854369Y-54503881D01*
X161918598Y-54476377D01*
X161933319Y-54475500D01*
X169566681Y-54475500D01*
X169633720Y-54495185D01*
X169679475Y-54547989D01*
X169689419Y-54617147D01*
X169686456Y-54631594D01*
X169649651Y-54768948D01*
X169649650Y-54768955D01*
X169629437Y-54999998D01*
X169629437Y-55000001D01*
X169649650Y-55231044D01*
X169649651Y-55231051D01*
X169709678Y-55455074D01*
X169709679Y-55455076D01*
X169709680Y-55455079D01*
X169807699Y-55665282D01*
X169940730Y-55855269D01*
X170104731Y-56019270D01*
X170294718Y-56152301D01*
X170294729Y-56152306D01*
X170297496Y-56153904D01*
X170298476Y-56154932D01*
X170299153Y-56155406D01*
X170299057Y-56155541D01*
X170345713Y-56204470D01*
X170359500Y-56261294D01*
X170359500Y-57979016D01*
X170340494Y-58044988D01*
X170274211Y-58150477D01*
X170274209Y-58150481D01*
X170214633Y-58320737D01*
X170214630Y-58320750D01*
X170194435Y-58499996D01*
X170194435Y-58500003D01*
X170214630Y-58679249D01*
X170214631Y-58679254D01*
X170274211Y-58849523D01*
X170337838Y-58950784D01*
X170370184Y-59002262D01*
X170497738Y-59129816D01*
X170650478Y-59225789D01*
X170680457Y-59236279D01*
X170820745Y-59285368D01*
X170820750Y-59285369D01*
X170999996Y-59305565D01*
X171000000Y-59305565D01*
X171000004Y-59305565D01*
X171179249Y-59285369D01*
X171179251Y-59285368D01*
X171179255Y-59285368D01*
X171179258Y-59285366D01*
X171179262Y-59285366D01*
X171319545Y-59236279D01*
X171389324Y-59232717D01*
X171449951Y-59267445D01*
X171482179Y-59329439D01*
X171484500Y-59353320D01*
X171484500Y-62477129D01*
X171484499Y-62477147D01*
X171484499Y-62642853D01*
X171484498Y-62642853D01*
X171524943Y-62793796D01*
X171525423Y-62795584D01*
X171550798Y-62839534D01*
X171604479Y-62932513D01*
X171604481Y-62932516D01*
X171723349Y-63051384D01*
X171723355Y-63051389D01*
X172073785Y-63401819D01*
X172107270Y-63463142D01*
X172102286Y-63532834D01*
X172060414Y-63588767D01*
X171994950Y-63613184D01*
X171986104Y-63613500D01*
X170747299Y-63613500D01*
X170680260Y-63593815D01*
X170634505Y-63541011D01*
X170623299Y-63489500D01*
X170623299Y-63308129D01*
X170623298Y-63308123D01*
X170622517Y-63300861D01*
X170618099Y-63259757D01*
X170616891Y-63248516D01*
X170566597Y-63113671D01*
X170566595Y-63113668D01*
X170548173Y-63089060D01*
X170536820Y-63073894D01*
X170512403Y-63008430D01*
X170527254Y-62940157D01*
X170536821Y-62925271D01*
X170566151Y-62886091D01*
X170616397Y-62751376D01*
X170616398Y-62751372D01*
X170622799Y-62691844D01*
X170622800Y-62691827D01*
X170622800Y-62615000D01*
X167652800Y-62615000D01*
X167652800Y-62691844D01*
X167659201Y-62751372D01*
X167659203Y-62751379D01*
X167702389Y-62867167D01*
X167707373Y-62936859D01*
X167673888Y-62998182D01*
X167612565Y-63031666D01*
X167586207Y-63034500D01*
X166160099Y-63034500D01*
X166093060Y-63014815D01*
X166072418Y-62998181D01*
X166011818Y-62937581D01*
X165978333Y-62876258D01*
X165975499Y-62849900D01*
X165975499Y-62501662D01*
X165975498Y-62501644D01*
X165965349Y-62402292D01*
X165965348Y-62402289D01*
X165940919Y-62328566D01*
X165912003Y-62241303D01*
X165911999Y-62241297D01*
X165911998Y-62241294D01*
X165822970Y-62096959D01*
X165822967Y-62096955D01*
X165813339Y-62087327D01*
X165779854Y-62026004D01*
X165784838Y-61956312D01*
X165813345Y-61911959D01*
X165822573Y-61902731D01*
X165911542Y-61758492D01*
X165911547Y-61758481D01*
X165964855Y-61597606D01*
X165974999Y-61498322D01*
X165975000Y-61498309D01*
X165975000Y-61475000D01*
X164025001Y-61475000D01*
X164025001Y-61498322D01*
X164035144Y-61597607D01*
X164088452Y-61758481D01*
X164088457Y-61758492D01*
X164177424Y-61902728D01*
X164177427Y-61902732D01*
X164186660Y-61911965D01*
X164220145Y-61973288D01*
X164215161Y-62042980D01*
X164186663Y-62087324D01*
X164177033Y-62096953D01*
X164177029Y-62096959D01*
X164088001Y-62241294D01*
X164087996Y-62241305D01*
X164034651Y-62402290D01*
X164024500Y-62501647D01*
X164024500Y-63048337D01*
X164024501Y-63048355D01*
X164034650Y-63147707D01*
X164034651Y-63147710D01*
X164087996Y-63308694D01*
X164088001Y-63308705D01*
X164177029Y-63453040D01*
X164177032Y-63453044D01*
X164296956Y-63572968D01*
X164340597Y-63599886D01*
X164387321Y-63651832D01*
X164399500Y-63705424D01*
X164399500Y-63917587D01*
X164379815Y-63984626D01*
X164372450Y-63994896D01*
X164370186Y-63997734D01*
X164274211Y-64150476D01*
X164214631Y-64320745D01*
X164214630Y-64320750D01*
X164194435Y-64499996D01*
X164194435Y-64500003D01*
X164214630Y-64679249D01*
X164214631Y-64679254D01*
X164274211Y-64849523D01*
X164355815Y-64979394D01*
X164370184Y-65002262D01*
X164497738Y-65129816D01*
X164501418Y-65132128D01*
X164631163Y-65213653D01*
X164650478Y-65225789D01*
X164684435Y-65237671D01*
X164820745Y-65285368D01*
X164820750Y-65285369D01*
X164999996Y-65305565D01*
X165000000Y-65305565D01*
X165000004Y-65305565D01*
X165179249Y-65285369D01*
X165179252Y-65285368D01*
X165179255Y-65285368D01*
X165349522Y-65225789D01*
X165502262Y-65129816D01*
X165629816Y-65002262D01*
X165725789Y-64849522D01*
X165785368Y-64679255D01*
X165787336Y-64661789D01*
X165805565Y-64500003D01*
X165805565Y-64499995D01*
X165791300Y-64373384D01*
X165803355Y-64304562D01*
X165850704Y-64253183D01*
X165914520Y-64235501D01*
X165946654Y-64235501D01*
X165946670Y-64235500D01*
X166453551Y-64235500D01*
X166520590Y-64255185D01*
X166566345Y-64307989D01*
X166576289Y-64377147D01*
X166547264Y-64440703D01*
X166541234Y-64447178D01*
X165989556Y-64998856D01*
X165456286Y-65532126D01*
X165344481Y-65643930D01*
X165344479Y-65643933D01*
X165294361Y-65730742D01*
X165294359Y-65730744D01*
X165265425Y-65780857D01*
X165265424Y-65780858D01*
X165261027Y-65797267D01*
X165224499Y-65933591D01*
X165224499Y-65933593D01*
X165224499Y-66101694D01*
X165224500Y-66101707D01*
X165224500Y-66583480D01*
X165204815Y-66650519D01*
X165188181Y-66671161D01*
X165087681Y-66771661D01*
X165026358Y-66805146D01*
X164956666Y-66800162D01*
X164912319Y-66771661D01*
X164810188Y-66669530D01*
X164792511Y-66658844D01*
X164664606Y-66581522D01*
X164502196Y-66530914D01*
X164502194Y-66530913D01*
X164502192Y-66530913D01*
X164452778Y-66526423D01*
X164431616Y-66524500D01*
X164431613Y-66524500D01*
X164100097Y-66524500D01*
X164033058Y-66504815D01*
X164012416Y-66488181D01*
X163662590Y-66138355D01*
X163662588Y-66138352D01*
X163543717Y-66019481D01*
X163543716Y-66019480D01*
X163437594Y-65958211D01*
X163437593Y-65958210D01*
X163411562Y-65943181D01*
X163406785Y-65940423D01*
X163406784Y-65940422D01*
X163406783Y-65940422D01*
X163340042Y-65922539D01*
X163254057Y-65899499D01*
X163254054Y-65899499D01*
X163205424Y-65899499D01*
X163138385Y-65879814D01*
X163099887Y-65840598D01*
X163072968Y-65796956D01*
X162953044Y-65677032D01*
X162934399Y-65665531D01*
X162887677Y-65613582D01*
X162875500Y-65559995D01*
X162875500Y-65533593D01*
X162875500Y-65533591D01*
X162834577Y-65380864D01*
X162834577Y-65380863D01*
X162799726Y-65320500D01*
X162755520Y-65243932D01*
X162643716Y-65132128D01*
X162643715Y-65132127D01*
X162639385Y-65127797D01*
X162639374Y-65127787D01*
X161136819Y-63625232D01*
X161103334Y-63563909D01*
X161100500Y-63537551D01*
X161100500Y-63089060D01*
X161100501Y-63089047D01*
X161100501Y-62920944D01*
X161093305Y-62894089D01*
X161059577Y-62768216D01*
X161039948Y-62734217D01*
X160980524Y-62631290D01*
X160980518Y-62631282D01*
X160511819Y-62162583D01*
X160478334Y-62101260D01*
X160475500Y-62074902D01*
X160475500Y-61743386D01*
X160474602Y-61733501D01*
X160469086Y-61672804D01*
X160418478Y-61510394D01*
X160364963Y-61421870D01*
X167652300Y-61421870D01*
X167652301Y-61421876D01*
X167658708Y-61481483D01*
X167709002Y-61616328D01*
X167709003Y-61616330D01*
X167738779Y-61656105D01*
X167763196Y-61721569D01*
X167748345Y-61789842D01*
X167738780Y-61804725D01*
X167709448Y-61843907D01*
X167709445Y-61843913D01*
X167659203Y-61978620D01*
X167659201Y-61978627D01*
X167652800Y-62038155D01*
X167652800Y-62115000D01*
X170622800Y-62115000D01*
X170622800Y-62038172D01*
X170622799Y-62038155D01*
X170616398Y-61978627D01*
X170616396Y-61978620D01*
X170566154Y-61843913D01*
X170566152Y-61843910D01*
X170536820Y-61804727D01*
X170512403Y-61739262D01*
X170527255Y-61670989D01*
X170536815Y-61656112D01*
X170566596Y-61616331D01*
X170616891Y-61481483D01*
X170623300Y-61421873D01*
X170623299Y-60768128D01*
X170616891Y-60708517D01*
X170569751Y-60582129D01*
X170566597Y-60573671D01*
X170566593Y-60573664D01*
X170480347Y-60458455D01*
X170480344Y-60458452D01*
X170365135Y-60372206D01*
X170365128Y-60372202D01*
X170230282Y-60321908D01*
X170230283Y-60321908D01*
X170170683Y-60315501D01*
X170170681Y-60315500D01*
X170170673Y-60315500D01*
X170170665Y-60315500D01*
X169862300Y-60315500D01*
X169795261Y-60295815D01*
X169749506Y-60243011D01*
X169738300Y-60191500D01*
X169738300Y-59334834D01*
X169745259Y-59293879D01*
X169785367Y-59179257D01*
X169785368Y-59179255D01*
X169790938Y-59129816D01*
X169805565Y-59000003D01*
X169805565Y-58999996D01*
X169785369Y-58820750D01*
X169785368Y-58820745D01*
X169785367Y-58820743D01*
X169725789Y-58650478D01*
X169629816Y-58497738D01*
X169502262Y-58370184D01*
X169349523Y-58274211D01*
X169179254Y-58214631D01*
X169179249Y-58214630D01*
X169000004Y-58194435D01*
X168999996Y-58194435D01*
X168820750Y-58214630D01*
X168820745Y-58214631D01*
X168650476Y-58274211D01*
X168497737Y-58370184D01*
X168370184Y-58497737D01*
X168274211Y-58650476D01*
X168214631Y-58820745D01*
X168214630Y-58820750D01*
X168194435Y-58999996D01*
X168194435Y-59000003D01*
X168214630Y-59179249D01*
X168214631Y-59179254D01*
X168274211Y-59349523D01*
X168370184Y-59502262D01*
X168500981Y-59633059D01*
X168534466Y-59694382D01*
X168537300Y-59720740D01*
X168537300Y-60191500D01*
X168517615Y-60258539D01*
X168464811Y-60304294D01*
X168413300Y-60315500D01*
X168104930Y-60315500D01*
X168104923Y-60315501D01*
X168045316Y-60321908D01*
X167910471Y-60372202D01*
X167910464Y-60372206D01*
X167795255Y-60458452D01*
X167795252Y-60458455D01*
X167709006Y-60573664D01*
X167709002Y-60573671D01*
X167665053Y-60691507D01*
X167658709Y-60708517D01*
X167652300Y-60768127D01*
X167652300Y-60768134D01*
X167652300Y-60768135D01*
X167652300Y-61421870D01*
X160364963Y-61421870D01*
X160330472Y-61364815D01*
X160330470Y-61364813D01*
X160330469Y-61364811D01*
X160210188Y-61244530D01*
X160064606Y-61156522D01*
X160008744Y-61139115D01*
X159902196Y-61105914D01*
X159902194Y-61105913D01*
X159902192Y-61105913D01*
X159852778Y-61101423D01*
X159831616Y-61099500D01*
X159168384Y-61099500D01*
X159149145Y-61101248D01*
X159097807Y-61105913D01*
X158935393Y-61156522D01*
X158788650Y-61245232D01*
X158721095Y-61263068D01*
X158654621Y-61241550D01*
X158610334Y-61187510D01*
X158600500Y-61139115D01*
X158600500Y-61082412D01*
X158620185Y-61015373D01*
X158627555Y-61005097D01*
X158629810Y-61002267D01*
X158629816Y-61002262D01*
X158646946Y-60975000D01*
X164025000Y-60975000D01*
X164750000Y-60975000D01*
X164750000Y-60275000D01*
X165250000Y-60275000D01*
X165250000Y-60975000D01*
X165974999Y-60975000D01*
X165974999Y-60951692D01*
X165974998Y-60951677D01*
X165964855Y-60852392D01*
X165911547Y-60691518D01*
X165911542Y-60691507D01*
X165822575Y-60547271D01*
X165822572Y-60547267D01*
X165702732Y-60427427D01*
X165702728Y-60427424D01*
X165558492Y-60338457D01*
X165558481Y-60338452D01*
X165397606Y-60285144D01*
X165298322Y-60275000D01*
X165250000Y-60275000D01*
X164750000Y-60275000D01*
X164749999Y-60274999D01*
X164701693Y-60275000D01*
X164701675Y-60275001D01*
X164602392Y-60285144D01*
X164441518Y-60338452D01*
X164441507Y-60338457D01*
X164297271Y-60427424D01*
X164297267Y-60427427D01*
X164177427Y-60547267D01*
X164177424Y-60547271D01*
X164088457Y-60691507D01*
X164088452Y-60691518D01*
X164035144Y-60852393D01*
X164025000Y-60951677D01*
X164025000Y-60975000D01*
X158646946Y-60975000D01*
X158725789Y-60849522D01*
X158785368Y-60679255D01*
X158785369Y-60679249D01*
X158805565Y-60500003D01*
X158805565Y-60499996D01*
X158785369Y-60320750D01*
X158785368Y-60320745D01*
X158768470Y-60272453D01*
X158725789Y-60150478D01*
X158629816Y-59997738D01*
X158502262Y-59870184D01*
X158449369Y-59836949D01*
X158349523Y-59774211D01*
X158179254Y-59714631D01*
X158179249Y-59714630D01*
X158000004Y-59694435D01*
X157999996Y-59694435D01*
X157820750Y-59714630D01*
X157820745Y-59714631D01*
X157650476Y-59774211D01*
X157497737Y-59870184D01*
X157370187Y-59997735D01*
X157370184Y-59997737D01*
X157274211Y-60150476D01*
X157214631Y-60320745D01*
X157214630Y-60320750D01*
X157194435Y-60499996D01*
X157194435Y-60500003D01*
X157214630Y-60679249D01*
X157214631Y-60679254D01*
X157274211Y-60849523D01*
X157370185Y-61002263D01*
X157372445Y-61005097D01*
X157373334Y-61007275D01*
X157373889Y-61008158D01*
X157373734Y-61008255D01*
X157398855Y-61069783D01*
X157399500Y-61082412D01*
X157399500Y-62063330D01*
X157399499Y-62063348D01*
X157399499Y-62076000D01*
X157379814Y-62143039D01*
X157327010Y-62188794D01*
X157275499Y-62200000D01*
X157250000Y-62200000D01*
X157250000Y-62925500D01*
X157230315Y-62992539D01*
X157177511Y-63038294D01*
X157126000Y-63049500D01*
X156345943Y-63049500D01*
X156193213Y-63090423D01*
X156160937Y-63109059D01*
X156160936Y-63109059D01*
X156056287Y-63169477D01*
X156056282Y-63169481D01*
X156012083Y-63213681D01*
X155950760Y-63247166D01*
X155924402Y-63250000D01*
X155867107Y-63250000D01*
X155800068Y-63230315D01*
X155792796Y-63225267D01*
X155767331Y-63206204D01*
X155767328Y-63206202D01*
X155632482Y-63155908D01*
X155632483Y-63155908D01*
X155572883Y-63149501D01*
X155572881Y-63149500D01*
X155572873Y-63149500D01*
X155572864Y-63149500D01*
X154227129Y-63149500D01*
X154227123Y-63149501D01*
X154167516Y-63155908D01*
X154032671Y-63206202D01*
X154032664Y-63206206D01*
X153917455Y-63292452D01*
X153917452Y-63292455D01*
X153831206Y-63407664D01*
X153831202Y-63407671D01*
X153781422Y-63541141D01*
X153780909Y-63542517D01*
X153779162Y-63558757D01*
X153752426Y-63623306D01*
X153695033Y-63663154D01*
X153655874Y-63669500D01*
X151066488Y-63669500D01*
X150999449Y-63649815D01*
X150953694Y-63597011D01*
X150951927Y-63592952D01*
X150930467Y-63541143D01*
X150930466Y-63541141D01*
X150855134Y-63418211D01*
X150849478Y-63408982D01*
X150831234Y-63341538D01*
X150852350Y-63274935D01*
X150880891Y-63244929D01*
X150957546Y-63187546D01*
X151043796Y-63072331D01*
X151094091Y-62937483D01*
X151100500Y-62877873D01*
X151100500Y-62774500D01*
X151120185Y-62707461D01*
X151172989Y-62661706D01*
X151224500Y-62650500D01*
X153812680Y-62650500D01*
X153879719Y-62670185D01*
X153911948Y-62700191D01*
X153917454Y-62707546D01*
X153917457Y-62707548D01*
X154032664Y-62793793D01*
X154032671Y-62793797D01*
X154167517Y-62844091D01*
X154167516Y-62844091D01*
X154174444Y-62844835D01*
X154227127Y-62850500D01*
X155572872Y-62850499D01*
X155632483Y-62844091D01*
X155739745Y-62804085D01*
X155767329Y-62793797D01*
X155767329Y-62793796D01*
X155767331Y-62793796D01*
X155792795Y-62774733D01*
X155858258Y-62750316D01*
X155867106Y-62750000D01*
X156750000Y-62750000D01*
X156750000Y-62200000D01*
X156327155Y-62200000D01*
X156267627Y-62206401D01*
X156267619Y-62206403D01*
X156192832Y-62234297D01*
X156123140Y-62239281D01*
X156061817Y-62205795D01*
X156028333Y-62144472D01*
X156025499Y-62118120D01*
X156025499Y-61702128D01*
X156019091Y-61642517D01*
X156009324Y-61616331D01*
X155968797Y-61507671D01*
X155968793Y-61507664D01*
X155882547Y-61392455D01*
X155882544Y-61392452D01*
X155767335Y-61306206D01*
X155767328Y-61306202D01*
X155632482Y-61255908D01*
X155632483Y-61255908D01*
X155572883Y-61249501D01*
X155572881Y-61249500D01*
X155572873Y-61249500D01*
X155572864Y-61249500D01*
X155569548Y-61249322D01*
X155569640Y-61247603D01*
X155509061Y-61229815D01*
X155463306Y-61177011D01*
X155461536Y-61172946D01*
X155459576Y-61168213D01*
X155437407Y-61129816D01*
X155419904Y-61099500D01*
X155380520Y-61031284D01*
X155268716Y-60919480D01*
X155264385Y-60915149D01*
X155264374Y-60915139D01*
X154830700Y-60481465D01*
X154797215Y-60420142D01*
X154795163Y-60407686D01*
X154785368Y-60320745D01*
X154725789Y-60150478D01*
X154629816Y-59997738D01*
X154502262Y-59870184D01*
X154449369Y-59836949D01*
X154349523Y-59774211D01*
X154179254Y-59714631D01*
X154179249Y-59714630D01*
X154000004Y-59694435D01*
X153999996Y-59694435D01*
X153820750Y-59714630D01*
X153820745Y-59714631D01*
X153650476Y-59774211D01*
X153497737Y-59870184D01*
X153370187Y-59997735D01*
X153370184Y-59997737D01*
X153274211Y-60150476D01*
X153214631Y-60320745D01*
X153214630Y-60320750D01*
X153194435Y-60499996D01*
X153194435Y-60500003D01*
X153214630Y-60679249D01*
X153214631Y-60679254D01*
X153274211Y-60849523D01*
X153338399Y-60951677D01*
X153370184Y-61002262D01*
X153497738Y-61129816D01*
X153589557Y-61187510D01*
X153642070Y-61220506D01*
X153688361Y-61272841D01*
X153699009Y-61341895D01*
X153670634Y-61405743D01*
X153612244Y-61444115D01*
X153576098Y-61449500D01*
X151224499Y-61449500D01*
X151157460Y-61429815D01*
X151111705Y-61377011D01*
X151100499Y-61325500D01*
X151100499Y-60582129D01*
X151100498Y-60582123D01*
X151100497Y-60582116D01*
X151094091Y-60522517D01*
X151085691Y-60499996D01*
X151043797Y-60387671D01*
X151043793Y-60387664D01*
X150957546Y-60272454D01*
X150957544Y-60272452D01*
X150842335Y-60186206D01*
X150842328Y-60186202D01*
X150707482Y-60135908D01*
X150707483Y-60135908D01*
X150647883Y-60129501D01*
X150647881Y-60129500D01*
X150647873Y-60129500D01*
X150647864Y-60129500D01*
X148352129Y-60129500D01*
X148352123Y-60129501D01*
X148292516Y-60135908D01*
X148157671Y-60186202D01*
X148157664Y-60186206D01*
X148042455Y-60272452D01*
X148042454Y-60272454D01*
X147956206Y-60387664D01*
X147956202Y-60387671D01*
X147905908Y-60522517D01*
X147900410Y-60573664D01*
X147899501Y-60582123D01*
X147899500Y-60582135D01*
X147899500Y-61286425D01*
X147879815Y-61353464D01*
X147827011Y-61399219D01*
X147757853Y-61409163D01*
X147694297Y-61380138D01*
X147672398Y-61355316D01*
X147581789Y-61219711D01*
X147581786Y-61219707D01*
X147470292Y-61108213D01*
X147470288Y-61108210D01*
X147339185Y-61020609D01*
X147339172Y-61020602D01*
X147193501Y-60960264D01*
X147193489Y-60960261D01*
X147038845Y-60929500D01*
X147038842Y-60929500D01*
X146881158Y-60929500D01*
X146881155Y-60929500D01*
X146726510Y-60960261D01*
X146726498Y-60960264D01*
X146580827Y-61020602D01*
X146580814Y-61020609D01*
X146449711Y-61108210D01*
X146449707Y-61108213D01*
X146338213Y-61219707D01*
X146338210Y-61219711D01*
X146250609Y-61350814D01*
X146250602Y-61350827D01*
X146190264Y-61496498D01*
X146190261Y-61496510D01*
X146159500Y-61651153D01*
X146159500Y-61808846D01*
X146190261Y-61963489D01*
X146190264Y-61963501D01*
X146250602Y-62109172D01*
X146250609Y-62109185D01*
X146338210Y-62240288D01*
X146338213Y-62240292D01*
X146449707Y-62351786D01*
X146449711Y-62351789D01*
X146580814Y-62439390D01*
X146580827Y-62439397D01*
X146726498Y-62499735D01*
X146726503Y-62499737D01*
X146881153Y-62530499D01*
X146881156Y-62530500D01*
X146881158Y-62530500D01*
X147038844Y-62530500D01*
X147038845Y-62530499D01*
X147193497Y-62499737D01*
X147339179Y-62439394D01*
X147470289Y-62351789D01*
X147581789Y-62240289D01*
X147669394Y-62109179D01*
X147669394Y-62109178D01*
X147672398Y-62104683D01*
X147726010Y-62059878D01*
X147795335Y-62051171D01*
X147858362Y-62081325D01*
X147895082Y-62140768D01*
X147899500Y-62173574D01*
X147899500Y-62877870D01*
X147899501Y-62877876D01*
X147905908Y-62937483D01*
X147956202Y-63072328D01*
X147956206Y-63072335D01*
X148042452Y-63187544D01*
X148042455Y-63187547D01*
X148119104Y-63244927D01*
X148160975Y-63300861D01*
X148165959Y-63370552D01*
X148150520Y-63408983D01*
X148069533Y-63541140D01*
X147973126Y-63773889D01*
X147932997Y-63941043D01*
X147898206Y-64001635D01*
X147836180Y-64033799D01*
X147766611Y-64027323D01*
X147711587Y-63984263D01*
X147697862Y-63959548D01*
X147669397Y-63890827D01*
X147669390Y-63890814D01*
X147581789Y-63759711D01*
X147581786Y-63759707D01*
X147470292Y-63648213D01*
X147470288Y-63648210D01*
X147339185Y-63560609D01*
X147339172Y-63560602D01*
X147193501Y-63500264D01*
X147193489Y-63500261D01*
X147038845Y-63469500D01*
X147038842Y-63469500D01*
X146881158Y-63469500D01*
X146881155Y-63469500D01*
X146726510Y-63500261D01*
X146726498Y-63500264D01*
X146580827Y-63560602D01*
X146580814Y-63560609D01*
X146449711Y-63648210D01*
X146449707Y-63648213D01*
X146338213Y-63759707D01*
X146338210Y-63759711D01*
X146250609Y-63890814D01*
X146250602Y-63890827D01*
X146190264Y-64036498D01*
X146190261Y-64036510D01*
X146159500Y-64191153D01*
X146159500Y-64348846D01*
X145500500Y-64348846D01*
X145500500Y-52624500D01*
X145520185Y-52557461D01*
X145572989Y-52511706D01*
X145624500Y-52500500D01*
X184625500Y-52500500D01*
X184692539Y-52520185D01*
G37*
%TD.AperFunction*%
%TD*%
M02*
