%TF.GenerationSoftware,KiCad,Pcbnew,8.0.1*%
%TF.CreationDate,2024-09-29T19:32:40+02:00*%
%TF.ProjectId,CANPCB_TESTBENCH,43414e50-4342-45f5-9445-535442454e43,rev?*%
%TF.SameCoordinates,Original*%
%TF.FileFunction,Copper,L2,Bot*%
%TF.FilePolarity,Positive*%
%FSLAX46Y46*%
G04 Gerber Fmt 4.6, Leading zero omitted, Abs format (unit mm)*
G04 Created by KiCad (PCBNEW 8.0.1) date 2024-09-29 19:32:40*
%MOMM*%
%LPD*%
G01*
G04 APERTURE LIST*
%TA.AperFunction,ComponentPad*%
%ADD10C,1.650000*%
%TD*%
%TA.AperFunction,ComponentPad*%
%ADD11R,2.200000X2.200000*%
%TD*%
%TA.AperFunction,ComponentPad*%
%ADD12C,2.200000*%
%TD*%
%TA.AperFunction,ViaPad*%
%ADD13C,0.600000*%
%TD*%
%TA.AperFunction,Conductor*%
%ADD14C,0.200000*%
%TD*%
G04 APERTURE END LIST*
D10*
%TO.P,JP10,1,A*%
%TO.N,Net-(IC1-IO_2)*%
X149000000Y-55000000D03*
%TO.P,JP10,2,B*%
%TO.N,Net-(J4-Pin_1)*%
X151540000Y-55000000D03*
%TD*%
%TO.P,JP9,1,A*%
%TO.N,CAN_L_MIDDLE1*%
X160540000Y-55000000D03*
%TO.P,JP9,2,C*%
%TO.N,Net-(IC1-IO_2)*%
X158000000Y-55000000D03*
%TO.P,JP9,3,B*%
%TO.N,CAN_L_NO_MIDDLE*%
X155460000Y-55000000D03*
%TD*%
%TO.P,JP8,1,A*%
%TO.N,Net-(IC2-IO_2)*%
X158230000Y-98000000D03*
%TO.P,JP8,2,B*%
%TO.N,CAN_L_MIDDLE1*%
X160770000Y-98000000D03*
%TD*%
%TO.P,JP7,1,A*%
%TO.N,Net-(IC2-IO_1)*%
X168230000Y-98000000D03*
%TO.P,JP7,2,B*%
%TO.N,CAN_H_MIDDLE1*%
X170770000Y-98000000D03*
%TD*%
%TO.P,JP6,1,A*%
%TO.N,Net-(IC1-IO_1)*%
X162270000Y-71000000D03*
%TO.P,JP6,2,B*%
%TO.N,Net-(J4-Pin_2)*%
X159730000Y-71000000D03*
%TD*%
%TO.P,JP5,1,A*%
%TO.N,CAN_H_MIDDLE1*%
X170960000Y-55000000D03*
%TO.P,JP5,2,C*%
%TO.N,Net-(IC1-IO_1)*%
X173500000Y-55000000D03*
%TO.P,JP5,3,B*%
%TO.N,CAN_H_NO_MIDDLE*%
X176040000Y-55000000D03*
%TD*%
%TO.P,JP4,1,A*%
%TO.N,Net-(IC3-IO_2)*%
X151270000Y-78000000D03*
%TO.P,JP4,2,B*%
%TO.N,Net-(J5-Pin_1)*%
X148730000Y-78000000D03*
%TD*%
%TO.P,JP3,1,A*%
%TO.N,Net-(IC3-IO_1)*%
X166770000Y-78000000D03*
%TO.P,JP3,2,B*%
%TO.N,Net-(J5-Pin_2)*%
X164230000Y-78000000D03*
%TD*%
%TO.P,JP2,1,A*%
%TO.N,CAN_H_MIDDLE1*%
X170960000Y-78000000D03*
%TO.P,JP2,2,C*%
%TO.N,Net-(IC3-IO_1)*%
X173500000Y-78000000D03*
%TO.P,JP2,3,B*%
%TO.N,CAN_H_NO_MIDDLE*%
X176040000Y-78000000D03*
%TD*%
%TO.P,JP1,1,A*%
%TO.N,CAN_L_MIDDLE1*%
X160540000Y-78000000D03*
%TO.P,JP1,2,C*%
%TO.N,Net-(IC3-IO_2)*%
X158000000Y-78000000D03*
%TO.P,JP1,3,B*%
%TO.N,CAN_L_NO_MIDDLE*%
X155460000Y-78000000D03*
%TD*%
D11*
%TO.P,J9,1,Pin_1*%
%TO.N,Net-(IC3-IO_1)*%
X149500000Y-82960000D03*
D12*
%TO.P,J9,2,Pin_2*%
%TO.N,Net-(IC3-IO_2)*%
X149500000Y-85500000D03*
%TD*%
D11*
%TO.P,J8,1,Pin_1*%
%TO.N,Net-(J8-Pin_1)*%
X180500000Y-101790000D03*
D12*
%TO.P,J8,2,Pin_2*%
%TO.N,Net-(J8-Pin_2)*%
X180500000Y-99250000D03*
%TO.P,J8,3,Pin_3*%
%TO.N,Net-(J8-Pin_3)*%
X180500000Y-96710000D03*
%TD*%
D11*
%TO.P,J7,1,Pin_1*%
%TO.N,Net-(IC2-IO_1)*%
X149500000Y-102500000D03*
D12*
%TO.P,J7,2,Pin_2*%
%TO.N,Net-(IC2-IO_2)*%
X149500000Y-105040000D03*
%TD*%
D11*
%TO.P,J6,1,Pin_1*%
%TO.N,Net-(J6-Pin_1)*%
X180500000Y-90040000D03*
D12*
%TO.P,J6,2,Pin_2*%
%TO.N,Net-(J6-Pin_2)*%
X180500000Y-87500000D03*
%TO.P,J6,3,Pin_3*%
%TO.N,Net-(J6-Pin_3)*%
X180500000Y-84960000D03*
%TD*%
D11*
%TO.P,J5,1,Pin_1*%
%TO.N,Net-(J5-Pin_1)*%
X149500000Y-89960000D03*
D12*
%TO.P,J5,2,Pin_2*%
%TO.N,Net-(J5-Pin_2)*%
X149500000Y-92500000D03*
%TD*%
D11*
%TO.P,J4,1,Pin_1*%
%TO.N,Net-(J4-Pin_1)*%
X149540000Y-70460000D03*
D12*
%TO.P,J4,2,Pin_2*%
%TO.N,Net-(J4-Pin_2)*%
X149540000Y-73000000D03*
%TD*%
D11*
%TO.P,J3,1,Pin_1*%
%TO.N,GND*%
X180750000Y-109540000D03*
D12*
%TO.P,J3,2,Pin_2*%
%TO.N,+5V*%
X180750000Y-107000000D03*
%TD*%
D11*
%TO.P,J2,1,Pin_1*%
%TO.N,Net-(IC1-IO_1)*%
X149500000Y-61730000D03*
D12*
%TO.P,J2,2,Pin_2*%
%TO.N,Net-(IC1-IO_2)*%
X149500000Y-64270000D03*
%TD*%
D11*
%TO.P,J1,1,Pin_1*%
%TO.N,Net-(J1-Pin_1)*%
X179960000Y-66580000D03*
D12*
%TO.P,J1,2,Pin_2*%
%TO.N,Net-(J1-Pin_2)*%
X179960000Y-64040000D03*
%TO.P,J1,3,Pin_3*%
%TO.N,Net-(J1-Pin_3)*%
X179960000Y-61500000D03*
%TD*%
D13*
%TO.N,Net-(IC2-IO_2)*%
X176500000Y-87750000D03*
%TO.N,Net-(IC3-IO_1)*%
X175750000Y-103750000D03*
%TO.N,Net-(J8-Pin_3)*%
X173000000Y-101000000D03*
X173000000Y-96500000D03*
%TO.N,Net-(IC3-IO_2)*%
X175000000Y-109500000D03*
X154500000Y-86500000D03*
%TO.N,+5V*%
X164750000Y-106750000D03*
X176500000Y-107000000D03*
%TO.N,Net-(J5-Pin_2)*%
X155500000Y-94750000D03*
%TO.N,Net-(IC3-IO_1)*%
X162500000Y-80500000D03*
%TO.N,Net-(IC2-IO_1)*%
X162000000Y-83250000D03*
X173750000Y-83750000D03*
%TO.N,Net-(IC3-IO_1)*%
X173500000Y-81000000D03*
%TO.N,+5V*%
X164000000Y-87500000D03*
%TO.N,Net-(IC3-IO_1)*%
X149500000Y-80500000D03*
%TO.N,Net-(IC1-IO_2)*%
X158000000Y-60500000D03*
%TO.N,Net-(IC1-IO_1)*%
X174000000Y-71000000D03*
X174000000Y-58500000D03*
%TO.N,Net-(IC1-IO_2)*%
X158000000Y-58500000D03*
%TO.N,Net-(J1-Pin_2)*%
X180000000Y-59000000D03*
X169000000Y-59000000D03*
%TO.N,Net-(IC1-IO_1)*%
X154000000Y-60500000D03*
X154000000Y-68500000D03*
%TO.N,+5V*%
X165000000Y-64500000D03*
%TO.N,Net-(J4-Pin_1)*%
X151500000Y-67000000D03*
X151500000Y-58500000D03*
%TO.N,CAN_L_MIDDLE1*%
X160540000Y-80350000D03*
%TO.N,CAN_H_MIDDLE1*%
X171000000Y-81000000D03*
X171000000Y-95000000D03*
%TO.N,CAN_L_MIDDLE1*%
X160500000Y-95000000D03*
%TO.N,CAN_H_MIDDLE1*%
X171000000Y-58500000D03*
%TO.N,CAN_H_NO_MIDDLE*%
X176000000Y-58500000D03*
X176000000Y-75000000D03*
%TO.N,CAN_H_MIDDLE1*%
X171000000Y-75000000D03*
%TO.N,CAN_L_MIDDLE1*%
X160500000Y-75000000D03*
%TO.N,CAN_L_NO_MIDDLE*%
X155500000Y-75000000D03*
%TO.N,CAN_L_MIDDLE1*%
X160500000Y-58500000D03*
%TO.N,CAN_L_NO_MIDDLE*%
X155500000Y-58500000D03*
%TD*%
D14*
%TO.N,CAN_L_MIDDLE1*%
X160500000Y-80390000D02*
X160500000Y-95000000D01*
X160540000Y-80350000D02*
X160500000Y-80390000D01*
%TO.N,Net-(IC3-IO_1)*%
X150250000Y-79750000D02*
X149500000Y-80500000D01*
X161614315Y-79750000D02*
X150250000Y-79750000D01*
X162364315Y-80500000D02*
X161614315Y-79750000D01*
X162500000Y-80500000D02*
X162364315Y-80500000D01*
%TO.N,+5V*%
X156000000Y-96000000D02*
X155750000Y-96250000D01*
X160914214Y-96000000D02*
X156000000Y-96000000D01*
X164000000Y-87500000D02*
X164000000Y-92914215D01*
X164000000Y-92914215D02*
X160914214Y-96000000D01*
%TO.N,Net-(IC2-IO_2)*%
X160480000Y-100250000D02*
X158230000Y-98000000D01*
X164000000Y-96750000D02*
X164000000Y-100250000D01*
X164000000Y-100250000D02*
X160480000Y-100250000D01*
X164000000Y-96750000D02*
X170098529Y-96750000D01*
%TO.N,CAN_L_MIDDLE1*%
X157500000Y-72000000D02*
X160500000Y-75000000D01*
X157500000Y-68500000D02*
X157500000Y-72000000D01*
X160500000Y-65500000D02*
X157500000Y-68500000D01*
X160500000Y-58500000D02*
X160500000Y-65500000D01*
%TO.N,Net-(IC2-IO_1)*%
X164850000Y-80400000D02*
X162000000Y-83250000D01*
X171248529Y-80400000D02*
X164850000Y-80400000D01*
X173750000Y-82901471D02*
X171248529Y-80400000D01*
X173750000Y-83750000D02*
X173750000Y-82901471D01*
%TO.N,Net-(IC2-IO_2)*%
X176500000Y-83151471D02*
X176500000Y-87750000D01*
X173748529Y-80400000D02*
X176500000Y-83151471D01*
X172900000Y-80751471D02*
X173251471Y-80400000D01*
X172900000Y-81248529D02*
X172900000Y-80751471D01*
X175350000Y-91498529D02*
X175350000Y-83698529D01*
X175350000Y-83698529D02*
X172900000Y-81248529D01*
X170098529Y-96750000D02*
X175350000Y-91498529D01*
X173251471Y-80400000D02*
X173748529Y-80400000D01*
%TO.N,Net-(IC3-IO_1)*%
X175750000Y-103750000D02*
X175750000Y-83250000D01*
X175750000Y-83250000D02*
X173500000Y-81000000D01*
%TO.N,Net-(J8-Pin_3)*%
X173000000Y-101000000D02*
X173000000Y-96500000D01*
%TO.N,Net-(IC3-IO_2)*%
X154750000Y-109500000D02*
X154500000Y-109750000D01*
X175000000Y-109500000D02*
X154750000Y-109500000D01*
X154500000Y-86500000D02*
X154500000Y-109750000D01*
%TO.N,+5V*%
X165000000Y-107000000D02*
X164750000Y-106750000D01*
X176500000Y-107000000D02*
X165000000Y-107000000D01*
%TO.N,Net-(J5-Pin_2)*%
X156350000Y-95600000D02*
X155500000Y-94750000D01*
X160748529Y-95600000D02*
X156350000Y-95600000D01*
X161100000Y-95248529D02*
X160748529Y-95600000D01*
X163100000Y-81250000D02*
X161100000Y-83250000D01*
X163100000Y-80251471D02*
X163100000Y-81250000D01*
X161100000Y-83250000D02*
X161100000Y-95248529D01*
X162748529Y-79900000D02*
X163100000Y-80251471D01*
X162330000Y-79900000D02*
X162748529Y-79900000D01*
X164230000Y-78000000D02*
X162330000Y-79900000D01*
%TO.N,Net-(IC1-IO_2)*%
X158000000Y-58500000D02*
X158000000Y-60500000D01*
%TO.N,Net-(IC1-IO_1)*%
X174000000Y-58500000D02*
X174000000Y-71000000D01*
%TO.N,Net-(J1-Pin_2)*%
X178900000Y-57900000D02*
X180000000Y-59000000D01*
X170100000Y-57900000D02*
X178900000Y-57900000D01*
X169000000Y-59000000D02*
X170100000Y-57900000D01*
%TO.N,Net-(IC1-IO_1)*%
X154000000Y-60500000D02*
X154000000Y-68500000D01*
%TO.N,Net-(J4-Pin_1)*%
X151500000Y-58500000D02*
X151500000Y-67000000D01*
%TO.N,CAN_H_MIDDLE1*%
X171000000Y-81000000D02*
X171000000Y-95000000D01*
%TO.N,CAN_L_NO_MIDDLE*%
X155500000Y-58500000D02*
X155500000Y-75000000D01*
%TO.N,CAN_H_MIDDLE1*%
X171000000Y-58500000D02*
X171000000Y-75000000D01*
%TO.N,CAN_H_NO_MIDDLE*%
X176000000Y-58500000D02*
X176000000Y-75000000D01*
%TD*%
%TA.AperFunction,Conductor*%
%TO.N,+5V*%
G36*
X184692539Y-52520185D02*
G01*
X184738294Y-52572989D01*
X184749500Y-52624500D01*
X184749500Y-112125500D01*
X184729815Y-112192539D01*
X184677011Y-112238294D01*
X184625500Y-112249500D01*
X145624500Y-112249500D01*
X145557461Y-112229815D01*
X145511706Y-112177011D01*
X145500500Y-112125500D01*
X145500500Y-105118846D01*
X146159500Y-105118846D01*
X146190261Y-105273489D01*
X146190264Y-105273501D01*
X146250602Y-105419172D01*
X146250609Y-105419185D01*
X146338210Y-105550288D01*
X146338213Y-105550292D01*
X146449707Y-105661786D01*
X146449711Y-105661789D01*
X146580814Y-105749390D01*
X146580827Y-105749397D01*
X146726498Y-105809735D01*
X146726503Y-105809737D01*
X146881153Y-105840499D01*
X146881156Y-105840500D01*
X146881158Y-105840500D01*
X147038844Y-105840500D01*
X147038845Y-105840499D01*
X147193497Y-105809737D01*
X147339179Y-105749394D01*
X147470289Y-105661789D01*
X147581789Y-105550289D01*
X147669394Y-105419179D01*
X147669395Y-105419176D01*
X147669397Y-105419173D01*
X147697862Y-105350451D01*
X147741702Y-105296047D01*
X147807996Y-105273982D01*
X147875696Y-105291261D01*
X147923307Y-105342398D01*
X147932997Y-105368956D01*
X147973126Y-105536110D01*
X148069533Y-105768859D01*
X148201160Y-105983653D01*
X148201161Y-105983656D01*
X148201164Y-105983659D01*
X148364776Y-106175224D01*
X148513066Y-106301875D01*
X148556343Y-106338838D01*
X148556346Y-106338839D01*
X148771140Y-106470466D01*
X148987030Y-106559890D01*
X149003889Y-106566873D01*
X149248852Y-106625683D01*
X149500000Y-106645449D01*
X149751148Y-106625683D01*
X149996111Y-106566873D01*
X150228859Y-106470466D01*
X150443659Y-106338836D01*
X150635224Y-106175224D01*
X150798836Y-105983659D01*
X150930466Y-105768859D01*
X151026873Y-105536111D01*
X151085683Y-105291148D01*
X151105449Y-105040000D01*
X151085683Y-104788852D01*
X151026873Y-104543889D01*
X150930466Y-104311141D01*
X150930466Y-104311140D01*
X150849479Y-104178983D01*
X150831234Y-104111538D01*
X150852350Y-104044935D01*
X150880891Y-104014929D01*
X150957546Y-103957546D01*
X151043796Y-103842331D01*
X151094091Y-103707483D01*
X151100500Y-103647873D01*
X151100499Y-101352128D01*
X151094091Y-101292517D01*
X151089313Y-101279707D01*
X151043797Y-101157671D01*
X151043793Y-101157664D01*
X150957547Y-101042455D01*
X150957544Y-101042452D01*
X150842335Y-100956206D01*
X150842328Y-100956202D01*
X150707482Y-100905908D01*
X150707483Y-100905908D01*
X150647883Y-100899501D01*
X150647881Y-100899500D01*
X150647873Y-100899500D01*
X150647864Y-100899500D01*
X148352129Y-100899500D01*
X148352123Y-100899501D01*
X148292516Y-100905908D01*
X148157671Y-100956202D01*
X148157664Y-100956206D01*
X148042455Y-101042452D01*
X148042452Y-101042455D01*
X147956206Y-101157664D01*
X147956202Y-101157671D01*
X147905908Y-101292517D01*
X147900113Y-101346425D01*
X147899501Y-101352123D01*
X147899500Y-101352135D01*
X147899500Y-102056425D01*
X147879815Y-102123464D01*
X147827011Y-102169219D01*
X147757853Y-102179163D01*
X147694297Y-102150138D01*
X147672398Y-102125316D01*
X147581789Y-101989711D01*
X147581786Y-101989707D01*
X147470292Y-101878213D01*
X147470288Y-101878210D01*
X147339185Y-101790609D01*
X147339172Y-101790602D01*
X147193501Y-101730264D01*
X147193489Y-101730261D01*
X147038845Y-101699500D01*
X147038842Y-101699500D01*
X146881158Y-101699500D01*
X146881155Y-101699500D01*
X146726510Y-101730261D01*
X146726498Y-101730264D01*
X146580827Y-101790602D01*
X146580814Y-101790609D01*
X146449711Y-101878210D01*
X146449707Y-101878213D01*
X146338213Y-101989707D01*
X146338210Y-101989711D01*
X146250609Y-102120814D01*
X146250602Y-102120827D01*
X146190264Y-102266498D01*
X146190261Y-102266510D01*
X146159500Y-102421153D01*
X146159500Y-102578846D01*
X146190261Y-102733489D01*
X146190264Y-102733501D01*
X146250602Y-102879172D01*
X146250609Y-102879185D01*
X146338210Y-103010288D01*
X146338213Y-103010292D01*
X146449707Y-103121786D01*
X146449711Y-103121789D01*
X146580814Y-103209390D01*
X146580827Y-103209397D01*
X146673392Y-103247738D01*
X146726503Y-103269737D01*
X146881153Y-103300499D01*
X146881156Y-103300500D01*
X146881158Y-103300500D01*
X147038844Y-103300500D01*
X147038845Y-103300499D01*
X147193497Y-103269737D01*
X147339179Y-103209394D01*
X147470289Y-103121789D01*
X147581789Y-103010289D01*
X147669394Y-102879179D01*
X147669394Y-102879178D01*
X147672398Y-102874683D01*
X147726010Y-102829878D01*
X147795335Y-102821171D01*
X147858362Y-102851325D01*
X147895082Y-102910768D01*
X147899500Y-102943574D01*
X147899500Y-103647870D01*
X147899501Y-103647876D01*
X147905908Y-103707483D01*
X147956202Y-103842328D01*
X147956206Y-103842335D01*
X148042452Y-103957544D01*
X148042455Y-103957547D01*
X148119104Y-104014927D01*
X148160975Y-104070861D01*
X148165959Y-104140552D01*
X148150520Y-104178983D01*
X148069533Y-104311140D01*
X147973126Y-104543889D01*
X147932997Y-104711043D01*
X147898206Y-104771635D01*
X147836180Y-104803799D01*
X147766611Y-104797323D01*
X147711587Y-104754263D01*
X147697862Y-104729548D01*
X147669397Y-104660827D01*
X147669390Y-104660814D01*
X147581789Y-104529711D01*
X147581786Y-104529707D01*
X147470292Y-104418213D01*
X147470288Y-104418210D01*
X147339185Y-104330609D01*
X147339172Y-104330602D01*
X147193501Y-104270264D01*
X147193489Y-104270261D01*
X147038845Y-104239500D01*
X147038842Y-104239500D01*
X146881158Y-104239500D01*
X146881155Y-104239500D01*
X146726510Y-104270261D01*
X146726498Y-104270264D01*
X146580827Y-104330602D01*
X146580814Y-104330609D01*
X146449711Y-104418210D01*
X146449707Y-104418213D01*
X146338213Y-104529707D01*
X146338210Y-104529711D01*
X146250609Y-104660814D01*
X146250602Y-104660827D01*
X146190264Y-104806498D01*
X146190261Y-104806510D01*
X146159500Y-104961153D01*
X146159500Y-105118846D01*
X145500500Y-105118846D01*
X145500500Y-92578846D01*
X146159500Y-92578846D01*
X146190261Y-92733489D01*
X146190264Y-92733501D01*
X146250602Y-92879172D01*
X146250609Y-92879185D01*
X146338210Y-93010288D01*
X146338213Y-93010292D01*
X146449707Y-93121786D01*
X146449711Y-93121789D01*
X146580814Y-93209390D01*
X146580827Y-93209397D01*
X146726498Y-93269735D01*
X146726503Y-93269737D01*
X146881153Y-93300499D01*
X146881156Y-93300500D01*
X146881158Y-93300500D01*
X147038844Y-93300500D01*
X147038845Y-93300499D01*
X147193497Y-93269737D01*
X147339179Y-93209394D01*
X147470289Y-93121789D01*
X147581789Y-93010289D01*
X147669394Y-92879179D01*
X147669395Y-92879176D01*
X147669397Y-92879173D01*
X147697862Y-92810451D01*
X147741702Y-92756047D01*
X147807996Y-92733982D01*
X147875696Y-92751261D01*
X147923307Y-92802398D01*
X147932997Y-92828956D01*
X147973126Y-92996110D01*
X148069533Y-93228859D01*
X148201160Y-93443653D01*
X148201161Y-93443656D01*
X148201164Y-93443659D01*
X148364776Y-93635224D01*
X148513066Y-93761875D01*
X148556343Y-93798838D01*
X148556346Y-93798839D01*
X148771140Y-93930466D01*
X148908928Y-93987539D01*
X149003889Y-94026873D01*
X149248852Y-94085683D01*
X149500000Y-94105449D01*
X149751148Y-94085683D01*
X149996111Y-94026873D01*
X150228859Y-93930466D01*
X150443659Y-93798836D01*
X150635224Y-93635224D01*
X150798836Y-93443659D01*
X150930466Y-93228859D01*
X151026873Y-92996111D01*
X151085683Y-92751148D01*
X151105449Y-92500000D01*
X151085683Y-92248852D01*
X151026873Y-92003889D01*
X150930466Y-91771141D01*
X150930466Y-91771140D01*
X150850408Y-91640499D01*
X150849478Y-91638982D01*
X150831234Y-91571538D01*
X150852350Y-91504935D01*
X150880891Y-91474929D01*
X150957546Y-91417546D01*
X151043796Y-91302331D01*
X151094091Y-91167483D01*
X151100500Y-91107873D01*
X151100499Y-88812128D01*
X151094091Y-88752517D01*
X151043796Y-88617669D01*
X151043795Y-88617668D01*
X151043793Y-88617664D01*
X150957547Y-88502455D01*
X150957544Y-88502452D01*
X150842335Y-88416206D01*
X150842328Y-88416202D01*
X150707482Y-88365908D01*
X150707483Y-88365908D01*
X150647883Y-88359501D01*
X150647881Y-88359500D01*
X150647873Y-88359500D01*
X150647864Y-88359500D01*
X148352129Y-88359500D01*
X148352123Y-88359501D01*
X148292516Y-88365908D01*
X148157671Y-88416202D01*
X148157664Y-88416206D01*
X148042455Y-88502452D01*
X148042452Y-88502455D01*
X147956206Y-88617664D01*
X147956202Y-88617671D01*
X147905908Y-88752517D01*
X147899501Y-88812116D01*
X147899501Y-88812123D01*
X147899500Y-88812135D01*
X147899500Y-89516425D01*
X147879815Y-89583464D01*
X147827011Y-89629219D01*
X147757853Y-89639163D01*
X147694297Y-89610138D01*
X147672398Y-89585316D01*
X147581789Y-89449711D01*
X147581786Y-89449707D01*
X147470292Y-89338213D01*
X147470288Y-89338210D01*
X147339185Y-89250609D01*
X147339172Y-89250602D01*
X147193501Y-89190264D01*
X147193489Y-89190261D01*
X147038845Y-89159500D01*
X147038842Y-89159500D01*
X146881158Y-89159500D01*
X146881155Y-89159500D01*
X146726510Y-89190261D01*
X146726498Y-89190264D01*
X146580827Y-89250602D01*
X146580814Y-89250609D01*
X146449711Y-89338210D01*
X146449707Y-89338213D01*
X146338213Y-89449707D01*
X146338210Y-89449711D01*
X146250609Y-89580814D01*
X146250602Y-89580827D01*
X146190264Y-89726498D01*
X146190261Y-89726510D01*
X146159500Y-89881153D01*
X146159500Y-90038846D01*
X146190261Y-90193489D01*
X146190264Y-90193501D01*
X146250602Y-90339172D01*
X146250609Y-90339185D01*
X146338210Y-90470288D01*
X146338213Y-90470292D01*
X146449707Y-90581786D01*
X146449711Y-90581789D01*
X146580814Y-90669390D01*
X146580827Y-90669397D01*
X146726498Y-90729735D01*
X146726503Y-90729737D01*
X146881153Y-90760499D01*
X146881156Y-90760500D01*
X146881158Y-90760500D01*
X147038844Y-90760500D01*
X147038845Y-90760499D01*
X147193497Y-90729737D01*
X147339179Y-90669394D01*
X147470289Y-90581789D01*
X147581789Y-90470289D01*
X147669394Y-90339179D01*
X147669394Y-90339178D01*
X147672398Y-90334683D01*
X147726010Y-90289878D01*
X147795335Y-90281171D01*
X147858362Y-90311325D01*
X147895082Y-90370768D01*
X147899500Y-90403574D01*
X147899500Y-91107870D01*
X147899501Y-91107876D01*
X147905908Y-91167483D01*
X147956202Y-91302328D01*
X147956206Y-91302335D01*
X148042452Y-91417544D01*
X148042455Y-91417547D01*
X148119104Y-91474927D01*
X148160975Y-91530861D01*
X148165959Y-91600552D01*
X148150520Y-91638983D01*
X148069533Y-91771140D01*
X147973126Y-92003889D01*
X147932997Y-92171043D01*
X147898206Y-92231635D01*
X147836180Y-92263799D01*
X147766611Y-92257323D01*
X147711587Y-92214263D01*
X147697862Y-92189548D01*
X147669397Y-92120827D01*
X147669390Y-92120814D01*
X147581789Y-91989711D01*
X147581786Y-91989707D01*
X147470292Y-91878213D01*
X147470288Y-91878210D01*
X147339185Y-91790609D01*
X147339172Y-91790602D01*
X147193501Y-91730264D01*
X147193489Y-91730261D01*
X147038845Y-91699500D01*
X147038842Y-91699500D01*
X146881158Y-91699500D01*
X146881155Y-91699500D01*
X146726510Y-91730261D01*
X146726498Y-91730264D01*
X146580827Y-91790602D01*
X146580814Y-91790609D01*
X146449711Y-91878210D01*
X146449707Y-91878213D01*
X146338213Y-91989707D01*
X146338210Y-91989711D01*
X146250609Y-92120814D01*
X146250602Y-92120827D01*
X146190264Y-92266498D01*
X146190261Y-92266510D01*
X146159500Y-92421153D01*
X146159500Y-92578846D01*
X145500500Y-92578846D01*
X145500500Y-85578846D01*
X146159500Y-85578846D01*
X146190261Y-85733489D01*
X146190264Y-85733501D01*
X146250602Y-85879172D01*
X146250609Y-85879185D01*
X146338210Y-86010288D01*
X146338213Y-86010292D01*
X146449707Y-86121786D01*
X146449711Y-86121789D01*
X146580814Y-86209390D01*
X146580827Y-86209397D01*
X146726498Y-86269735D01*
X146726503Y-86269737D01*
X146881153Y-86300499D01*
X146881156Y-86300500D01*
X146881158Y-86300500D01*
X147038844Y-86300500D01*
X147038845Y-86300499D01*
X147193497Y-86269737D01*
X147339179Y-86209394D01*
X147470289Y-86121789D01*
X147581789Y-86010289D01*
X147669394Y-85879179D01*
X147669395Y-85879176D01*
X147669397Y-85879173D01*
X147697862Y-85810451D01*
X147741702Y-85756047D01*
X147807996Y-85733982D01*
X147875696Y-85751261D01*
X147923307Y-85802398D01*
X147932997Y-85828956D01*
X147973126Y-85996110D01*
X148069533Y-86228859D01*
X148201160Y-86443653D01*
X148201161Y-86443656D01*
X148201164Y-86443659D01*
X148364776Y-86635224D01*
X148476054Y-86730264D01*
X148556343Y-86798838D01*
X148556346Y-86798839D01*
X148771140Y-86930466D01*
X148944475Y-87002263D01*
X149003889Y-87026873D01*
X149248852Y-87085683D01*
X149500000Y-87105449D01*
X149751148Y-87085683D01*
X149996111Y-87026873D01*
X150228859Y-86930466D01*
X150443659Y-86798836D01*
X150635224Y-86635224D01*
X150798836Y-86443659D01*
X150930466Y-86228859D01*
X151026873Y-85996111D01*
X151085683Y-85751148D01*
X151105449Y-85500000D01*
X151085683Y-85248852D01*
X151026873Y-85003889D01*
X151008694Y-84960000D01*
X150930466Y-84771140D01*
X150849479Y-84638983D01*
X150831234Y-84571538D01*
X150852350Y-84504935D01*
X150880891Y-84474929D01*
X150957546Y-84417546D01*
X151043796Y-84302331D01*
X151094091Y-84167483D01*
X151100500Y-84107873D01*
X151100499Y-81812128D01*
X151094091Y-81752517D01*
X151043796Y-81617669D01*
X151043795Y-81617668D01*
X151043793Y-81617664D01*
X150957547Y-81502455D01*
X150957544Y-81502452D01*
X150842335Y-81416206D01*
X150842328Y-81416202D01*
X150707482Y-81365908D01*
X150707483Y-81365908D01*
X150647883Y-81359501D01*
X150647881Y-81359500D01*
X150647873Y-81359500D01*
X150647865Y-81359500D01*
X150067135Y-81359500D01*
X150000096Y-81339815D01*
X149954341Y-81287011D01*
X149944397Y-81217853D01*
X149973422Y-81154297D01*
X149996852Y-81134204D01*
X149996816Y-81134159D01*
X149998087Y-81133144D01*
X150001166Y-81130505D01*
X150001598Y-81130232D01*
X150002262Y-81129816D01*
X150129816Y-81002262D01*
X150225789Y-80849522D01*
X150285368Y-80679255D01*
X150295161Y-80592329D01*
X150322226Y-80527918D01*
X150330679Y-80518554D01*
X150462417Y-80386817D01*
X150523740Y-80353334D01*
X150550097Y-80350500D01*
X159623678Y-80350500D01*
X159690717Y-80370185D01*
X159736472Y-80422989D01*
X159746898Y-80460617D01*
X159754630Y-80529249D01*
X159814211Y-80699523D01*
X159880493Y-80805009D01*
X159899500Y-80870982D01*
X159899500Y-94417587D01*
X159879815Y-94484626D01*
X159872450Y-94494896D01*
X159870186Y-94497734D01*
X159774210Y-94650478D01*
X159714630Y-94820750D01*
X159706898Y-94889383D01*
X159679832Y-94953797D01*
X159622237Y-94993352D01*
X159583678Y-94999500D01*
X156650098Y-94999500D01*
X156583059Y-94979815D01*
X156562417Y-94963181D01*
X156330700Y-94731465D01*
X156297215Y-94670142D01*
X156295163Y-94657686D01*
X156285368Y-94570745D01*
X156225789Y-94400478D01*
X156129816Y-94247738D01*
X156002262Y-94120184D01*
X155983312Y-94108277D01*
X155849523Y-94024211D01*
X155679254Y-93964631D01*
X155679249Y-93964630D01*
X155500004Y-93944435D01*
X155499996Y-93944435D01*
X155320750Y-93964630D01*
X155320739Y-93964633D01*
X155265453Y-93983978D01*
X155195674Y-93987539D01*
X155135047Y-93952809D01*
X155102821Y-93890816D01*
X155100500Y-93866936D01*
X155100500Y-87082412D01*
X155120185Y-87015373D01*
X155127555Y-87005097D01*
X155129810Y-87002267D01*
X155129816Y-87002262D01*
X155225789Y-86849522D01*
X155285368Y-86679255D01*
X155290329Y-86635223D01*
X155305565Y-86500003D01*
X155305565Y-86499996D01*
X155285369Y-86320750D01*
X155285368Y-86320745D01*
X155267520Y-86269738D01*
X155225789Y-86150478D01*
X155207762Y-86121789D01*
X155137702Y-86010289D01*
X155129816Y-85997738D01*
X155002262Y-85870184D01*
X154849523Y-85774211D01*
X154679254Y-85714631D01*
X154679249Y-85714630D01*
X154500004Y-85694435D01*
X154499996Y-85694435D01*
X154320750Y-85714630D01*
X154320745Y-85714631D01*
X154150476Y-85774211D01*
X153997737Y-85870184D01*
X153870184Y-85997737D01*
X153774211Y-86150476D01*
X153714631Y-86320745D01*
X153714630Y-86320750D01*
X153694435Y-86499996D01*
X153694435Y-86500003D01*
X153714630Y-86679249D01*
X153714631Y-86679254D01*
X153774211Y-86849523D01*
X153870185Y-87002263D01*
X153872445Y-87005097D01*
X153873334Y-87007275D01*
X153873889Y-87008158D01*
X153873734Y-87008255D01*
X153898855Y-87069783D01*
X153899500Y-87082412D01*
X153899500Y-109663330D01*
X153899499Y-109663348D01*
X153899499Y-109829054D01*
X153899498Y-109829054D01*
X153923649Y-109919185D01*
X153940423Y-109981785D01*
X153952246Y-110002262D01*
X153979974Y-110050288D01*
X154019479Y-110118715D01*
X154131284Y-110230520D01*
X154218095Y-110280639D01*
X154218097Y-110280641D01*
X154256151Y-110302611D01*
X154268215Y-110309577D01*
X154420943Y-110350501D01*
X154420946Y-110350501D01*
X154579054Y-110350501D01*
X154579057Y-110350501D01*
X154731785Y-110309577D01*
X154781904Y-110280639D01*
X154868716Y-110230520D01*
X154962418Y-110136817D01*
X155023739Y-110103334D01*
X155050098Y-110100500D01*
X174417588Y-110100500D01*
X174484627Y-110120185D01*
X174494903Y-110127555D01*
X174497736Y-110129814D01*
X174497738Y-110129816D01*
X174650478Y-110225789D01*
X174717946Y-110249397D01*
X174820745Y-110285368D01*
X174820750Y-110285369D01*
X174999996Y-110305565D01*
X175000000Y-110305565D01*
X175000004Y-110305565D01*
X175179249Y-110285369D01*
X175179252Y-110285368D01*
X175179255Y-110285368D01*
X175349522Y-110225789D01*
X175502262Y-110129816D01*
X175629816Y-110002262D01*
X175725789Y-109849522D01*
X175785368Y-109679255D01*
X175786305Y-109670939D01*
X175805565Y-109500003D01*
X175805565Y-109499996D01*
X175785369Y-109320750D01*
X175785368Y-109320745D01*
X175780387Y-109306510D01*
X175725789Y-109150478D01*
X175629816Y-108997738D01*
X175502262Y-108870184D01*
X175433553Y-108827011D01*
X175349523Y-108774211D01*
X175179254Y-108714631D01*
X175179249Y-108714630D01*
X175000004Y-108694435D01*
X174999996Y-108694435D01*
X174820750Y-108714630D01*
X174820745Y-108714631D01*
X174650476Y-108774211D01*
X174497736Y-108870185D01*
X174494903Y-108872445D01*
X174492724Y-108873334D01*
X174491842Y-108873889D01*
X174491744Y-108873734D01*
X174430217Y-108898855D01*
X174417588Y-108899500D01*
X155224500Y-108899500D01*
X155157461Y-108879815D01*
X155111706Y-108827011D01*
X155100500Y-108775500D01*
X155100500Y-107000000D01*
X179145052Y-107000000D01*
X179164812Y-107251072D01*
X179223603Y-107495956D01*
X179319980Y-107728631D01*
X179400922Y-107860715D01*
X179419167Y-107928161D01*
X179398051Y-107994763D01*
X179369507Y-108024771D01*
X179292452Y-108082455D01*
X179206206Y-108197664D01*
X179206202Y-108197671D01*
X179155908Y-108332517D01*
X179149501Y-108392116D01*
X179149501Y-108392123D01*
X179149500Y-108392135D01*
X179149500Y-110687870D01*
X179149501Y-110687876D01*
X179155908Y-110747483D01*
X179206202Y-110882328D01*
X179206206Y-110882335D01*
X179292452Y-110997544D01*
X179292455Y-110997547D01*
X179407664Y-111083793D01*
X179407671Y-111083797D01*
X179542517Y-111134091D01*
X179542516Y-111134091D01*
X179549444Y-111134835D01*
X179602127Y-111140500D01*
X181897872Y-111140499D01*
X181957483Y-111134091D01*
X182092331Y-111083796D01*
X182207546Y-110997546D01*
X182293796Y-110882331D01*
X182344091Y-110747483D01*
X182350500Y-110687873D01*
X182350499Y-109983571D01*
X182370183Y-109916535D01*
X182422987Y-109870780D01*
X182492146Y-109860836D01*
X182555702Y-109889861D01*
X182577601Y-109914683D01*
X182668210Y-110050288D01*
X182668213Y-110050292D01*
X182779707Y-110161786D01*
X182779711Y-110161789D01*
X182910814Y-110249390D01*
X182910827Y-110249397D01*
X183046431Y-110305565D01*
X183056503Y-110309737D01*
X183211153Y-110340499D01*
X183211156Y-110340500D01*
X183211158Y-110340500D01*
X183368844Y-110340500D01*
X183368845Y-110340499D01*
X183523497Y-110309737D01*
X183669179Y-110249394D01*
X183800289Y-110161789D01*
X183911789Y-110050289D01*
X183999394Y-109919179D01*
X184059737Y-109773497D01*
X184090500Y-109618842D01*
X184090500Y-109461158D01*
X184090500Y-109461155D01*
X184090499Y-109461153D01*
X184059738Y-109306510D01*
X184059737Y-109306503D01*
X184001256Y-109165316D01*
X183999397Y-109160827D01*
X183999390Y-109160814D01*
X183911789Y-109029711D01*
X183911786Y-109029707D01*
X183800292Y-108918213D01*
X183800288Y-108918210D01*
X183669185Y-108830609D01*
X183669172Y-108830602D01*
X183523501Y-108770264D01*
X183523489Y-108770261D01*
X183368845Y-108739500D01*
X183368842Y-108739500D01*
X183211158Y-108739500D01*
X183211155Y-108739500D01*
X183056510Y-108770261D01*
X183056498Y-108770264D01*
X182910827Y-108830602D01*
X182910814Y-108830609D01*
X182779711Y-108918210D01*
X182779707Y-108918213D01*
X182668213Y-109029707D01*
X182668210Y-109029711D01*
X182577601Y-109165316D01*
X182523988Y-109210121D01*
X182454663Y-109218828D01*
X182391636Y-109188673D01*
X182354917Y-109129230D01*
X182350499Y-109096425D01*
X182350499Y-108392129D01*
X182350498Y-108392123D01*
X182350497Y-108392116D01*
X182344091Y-108332517D01*
X182293796Y-108197669D01*
X182293795Y-108197668D01*
X182293793Y-108197664D01*
X182207547Y-108082455D01*
X182130492Y-108024771D01*
X182088622Y-107968837D01*
X182083638Y-107899145D01*
X182099077Y-107860714D01*
X182180020Y-107728627D01*
X182276396Y-107495955D01*
X182316677Y-107328171D01*
X182351467Y-107267579D01*
X182413493Y-107235414D01*
X182483062Y-107241890D01*
X182538086Y-107284949D01*
X182551812Y-107309665D01*
X182580602Y-107379172D01*
X182580609Y-107379185D01*
X182668210Y-107510288D01*
X182668213Y-107510292D01*
X182779707Y-107621786D01*
X182779711Y-107621789D01*
X182910814Y-107709390D01*
X182910827Y-107709397D01*
X183056498Y-107769735D01*
X183056503Y-107769737D01*
X183211153Y-107800499D01*
X183211156Y-107800500D01*
X183211158Y-107800500D01*
X183368844Y-107800500D01*
X183368845Y-107800499D01*
X183523497Y-107769737D01*
X183669179Y-107709394D01*
X183800289Y-107621789D01*
X183911789Y-107510289D01*
X183999394Y-107379179D01*
X184059737Y-107233497D01*
X184090500Y-107078842D01*
X184090500Y-106921158D01*
X184090500Y-106921155D01*
X184090499Y-106921153D01*
X184063955Y-106787708D01*
X184059737Y-106766503D01*
X184050722Y-106744738D01*
X183999397Y-106620827D01*
X183999390Y-106620814D01*
X183911789Y-106489711D01*
X183911786Y-106489707D01*
X183800292Y-106378213D01*
X183800288Y-106378210D01*
X183669185Y-106290609D01*
X183669172Y-106290602D01*
X183523501Y-106230264D01*
X183523489Y-106230261D01*
X183368845Y-106199500D01*
X183368842Y-106199500D01*
X183211158Y-106199500D01*
X183211155Y-106199500D01*
X183056510Y-106230261D01*
X183056498Y-106230264D01*
X182910827Y-106290602D01*
X182910814Y-106290609D01*
X182779711Y-106378210D01*
X182779707Y-106378213D01*
X182668213Y-106489707D01*
X182668210Y-106489711D01*
X182580609Y-106620814D01*
X182580604Y-106620824D01*
X182551812Y-106690335D01*
X182507971Y-106744738D01*
X182441677Y-106766803D01*
X182373977Y-106749524D01*
X182326367Y-106698386D01*
X182316677Y-106671828D01*
X182276396Y-106504044D01*
X182180019Y-106271368D01*
X182048429Y-106056634D01*
X182047733Y-106055819D01*
X182047732Y-106055819D01*
X181273787Y-106829763D01*
X181262518Y-106787708D01*
X181190110Y-106662292D01*
X181087708Y-106559890D01*
X180962292Y-106487482D01*
X180920234Y-106476212D01*
X181694179Y-105702266D01*
X181693362Y-105701568D01*
X181478631Y-105569980D01*
X181245956Y-105473603D01*
X181001072Y-105414812D01*
X180750000Y-105395052D01*
X180498927Y-105414812D01*
X180254043Y-105473603D01*
X180021368Y-105569980D01*
X179806637Y-105701567D01*
X179805819Y-105702266D01*
X180579765Y-106476212D01*
X180537708Y-106487482D01*
X180412292Y-106559890D01*
X180309890Y-106662292D01*
X180237482Y-106787708D01*
X180226212Y-106829765D01*
X179452266Y-106055819D01*
X179451567Y-106056637D01*
X179319980Y-106271368D01*
X179223603Y-106504043D01*
X179164812Y-106748927D01*
X179145052Y-107000000D01*
X155100500Y-107000000D01*
X155100500Y-101000003D01*
X172194435Y-101000003D01*
X172214630Y-101179249D01*
X172214631Y-101179254D01*
X172274211Y-101349523D01*
X172315552Y-101415316D01*
X172370184Y-101502262D01*
X172497738Y-101629816D01*
X172650478Y-101725789D01*
X172820745Y-101785368D01*
X172820750Y-101785369D01*
X172999996Y-101805565D01*
X173000000Y-101805565D01*
X173000004Y-101805565D01*
X173179249Y-101785369D01*
X173179252Y-101785368D01*
X173179255Y-101785368D01*
X173349522Y-101725789D01*
X173502262Y-101629816D01*
X173629816Y-101502262D01*
X173725789Y-101349522D01*
X173785368Y-101179255D01*
X173786612Y-101168213D01*
X173805565Y-101000003D01*
X173805565Y-100999996D01*
X173785369Y-100820750D01*
X173785368Y-100820745D01*
X173725788Y-100650476D01*
X173629813Y-100497734D01*
X173627550Y-100494896D01*
X173626659Y-100492715D01*
X173626111Y-100491842D01*
X173626264Y-100491745D01*
X173601144Y-100430209D01*
X173600500Y-100417587D01*
X173600500Y-97082412D01*
X173620185Y-97015373D01*
X173627555Y-97005097D01*
X173629810Y-97002267D01*
X173629816Y-97002262D01*
X173725789Y-96849522D01*
X173785368Y-96679255D01*
X173786305Y-96670943D01*
X173805565Y-96500003D01*
X173805565Y-96499996D01*
X173785369Y-96320750D01*
X173785368Y-96320745D01*
X173728973Y-96159577D01*
X173725789Y-96150478D01*
X173725174Y-96149500D01*
X173681830Y-96080518D01*
X173629816Y-95997738D01*
X173502262Y-95870184D01*
X173349523Y-95774211D01*
X173179254Y-95714631D01*
X173179249Y-95714630D01*
X173000004Y-95694435D01*
X172999996Y-95694435D01*
X172820750Y-95714630D01*
X172820745Y-95714631D01*
X172650476Y-95774211D01*
X172497737Y-95870184D01*
X172427661Y-95940261D01*
X172370184Y-95997738D01*
X172334516Y-96054503D01*
X172274211Y-96150476D01*
X172214631Y-96320745D01*
X172214630Y-96320750D01*
X172194435Y-96499996D01*
X172194435Y-96500003D01*
X172214630Y-96679249D01*
X172214631Y-96679254D01*
X172274211Y-96849523D01*
X172370185Y-97002263D01*
X172372445Y-97005097D01*
X172373334Y-97007275D01*
X172373889Y-97008158D01*
X172373734Y-97008255D01*
X172398855Y-97069783D01*
X172399500Y-97082412D01*
X172399500Y-100417587D01*
X172379815Y-100484626D01*
X172372450Y-100494896D01*
X172370186Y-100497734D01*
X172274211Y-100650476D01*
X172214631Y-100820745D01*
X172214630Y-100820750D01*
X172194435Y-100999996D01*
X172194435Y-101000003D01*
X155100500Y-101000003D01*
X155100500Y-95633062D01*
X155120185Y-95566023D01*
X155172989Y-95520268D01*
X155242147Y-95510324D01*
X155265450Y-95516019D01*
X155320745Y-95535368D01*
X155407669Y-95545161D01*
X155472080Y-95572226D01*
X155481464Y-95580699D01*
X155981284Y-96080520D01*
X155981286Y-96080521D01*
X155981290Y-96080524D01*
X156095853Y-96146666D01*
X156118216Y-96159577D01*
X156270943Y-96200501D01*
X156270945Y-96200501D01*
X156436654Y-96200501D01*
X156436670Y-96200500D01*
X160661860Y-96200500D01*
X160661876Y-96200501D01*
X160669472Y-96200501D01*
X160827583Y-96200501D01*
X160827586Y-96200501D01*
X160980314Y-96159577D01*
X161030433Y-96130639D01*
X161117245Y-96080520D01*
X161229049Y-95968716D01*
X161229049Y-95968714D01*
X161239257Y-95958507D01*
X161239259Y-95958504D01*
X161468713Y-95729050D01*
X161468716Y-95729049D01*
X161580520Y-95617245D01*
X161630639Y-95530433D01*
X161659577Y-95480314D01*
X161700500Y-95327586D01*
X161700500Y-95169472D01*
X161700500Y-84160576D01*
X161720185Y-84093537D01*
X161772989Y-84047782D01*
X161838383Y-84037356D01*
X161999996Y-84055565D01*
X162000000Y-84055565D01*
X162000004Y-84055565D01*
X162179249Y-84035369D01*
X162179252Y-84035368D01*
X162179255Y-84035368D01*
X162349522Y-83975789D01*
X162502262Y-83879816D01*
X162629816Y-83752262D01*
X162725789Y-83599522D01*
X162785368Y-83429255D01*
X162795161Y-83342329D01*
X162822226Y-83277918D01*
X162830690Y-83268543D01*
X165062417Y-81036819D01*
X165123740Y-81003334D01*
X165150098Y-81000500D01*
X170083678Y-81000500D01*
X170150717Y-81020185D01*
X170196472Y-81072989D01*
X170206898Y-81110617D01*
X170214630Y-81179249D01*
X170274210Y-81349521D01*
X170370185Y-81502263D01*
X170372445Y-81505097D01*
X170373334Y-81507275D01*
X170373889Y-81508158D01*
X170373734Y-81508255D01*
X170398855Y-81569783D01*
X170399500Y-81582412D01*
X170399500Y-94417587D01*
X170379815Y-94484626D01*
X170372450Y-94494896D01*
X170370186Y-94497734D01*
X170274211Y-94650476D01*
X170214631Y-94820745D01*
X170214630Y-94820750D01*
X170194435Y-94999996D01*
X170194435Y-95000003D01*
X170214630Y-95179249D01*
X170214631Y-95179254D01*
X170274211Y-95349523D01*
X170366520Y-95496431D01*
X170385520Y-95563668D01*
X170365152Y-95630503D01*
X170349208Y-95650084D01*
X170270244Y-95729049D01*
X169886111Y-96113182D01*
X169824790Y-96146666D01*
X169798432Y-96149500D01*
X163920943Y-96149500D01*
X163768216Y-96190423D01*
X163768209Y-96190426D01*
X163631290Y-96269475D01*
X163631282Y-96269481D01*
X163519481Y-96381282D01*
X163519475Y-96381290D01*
X163440426Y-96518209D01*
X163440423Y-96518216D01*
X163399500Y-96670943D01*
X163399500Y-99525500D01*
X163379815Y-99592539D01*
X163327011Y-99638294D01*
X163275500Y-99649500D01*
X160780098Y-99649500D01*
X160713059Y-99629815D01*
X160692417Y-99613181D01*
X160616166Y-99536930D01*
X160582681Y-99475607D01*
X160587665Y-99405915D01*
X160629537Y-99349982D01*
X160695001Y-99325565D01*
X160714654Y-99325721D01*
X160769998Y-99330563D01*
X160770000Y-99330563D01*
X160770002Y-99330563D01*
X160827762Y-99325509D01*
X161001050Y-99310349D01*
X161225079Y-99250320D01*
X161435282Y-99152301D01*
X161625269Y-99019270D01*
X161789270Y-98855269D01*
X161922301Y-98665282D01*
X162020320Y-98455079D01*
X162080349Y-98231050D01*
X162100563Y-98000000D01*
X162080349Y-97768950D01*
X162020320Y-97544921D01*
X161922301Y-97334719D01*
X161922299Y-97334716D01*
X161922298Y-97334714D01*
X161789273Y-97144735D01*
X161789268Y-97144729D01*
X161625269Y-96980730D01*
X161575955Y-96946200D01*
X161435282Y-96847699D01*
X161225079Y-96749680D01*
X161225076Y-96749679D01*
X161225074Y-96749678D01*
X161001051Y-96689651D01*
X161001044Y-96689650D01*
X160770002Y-96669437D01*
X160769998Y-96669437D01*
X160538955Y-96689650D01*
X160538948Y-96689651D01*
X160314917Y-96749681D01*
X160104718Y-96847699D01*
X160104714Y-96847701D01*
X159914735Y-96980726D01*
X159914729Y-96980731D01*
X159750731Y-97144729D01*
X159750726Y-97144735D01*
X159617701Y-97334714D01*
X159617698Y-97334720D01*
X159612381Y-97346123D01*
X159566207Y-97398562D01*
X159499013Y-97417712D01*
X159432133Y-97397495D01*
X159387619Y-97346123D01*
X159382301Y-97334720D01*
X159382298Y-97334714D01*
X159249273Y-97144735D01*
X159249268Y-97144729D01*
X159085269Y-96980730D01*
X159035955Y-96946200D01*
X158895282Y-96847699D01*
X158685079Y-96749680D01*
X158685076Y-96749679D01*
X158685074Y-96749678D01*
X158461051Y-96689651D01*
X158461044Y-96689650D01*
X158230002Y-96669437D01*
X158229998Y-96669437D01*
X157998955Y-96689650D01*
X157998948Y-96689651D01*
X157774917Y-96749681D01*
X157564718Y-96847699D01*
X157564714Y-96847701D01*
X157374735Y-96980726D01*
X157374729Y-96980731D01*
X157210731Y-97144729D01*
X157210726Y-97144735D01*
X157077701Y-97334714D01*
X157077699Y-97334718D01*
X156979681Y-97544917D01*
X156919651Y-97768948D01*
X156919650Y-97768955D01*
X156899437Y-97999998D01*
X156899437Y-98000001D01*
X156919650Y-98231044D01*
X156919651Y-98231051D01*
X156979678Y-98455074D01*
X156979679Y-98455076D01*
X156979680Y-98455079D01*
X157077699Y-98665282D01*
X157210730Y-98855269D01*
X157374731Y-99019270D01*
X157564718Y-99152301D01*
X157774921Y-99250320D01*
X157998950Y-99310349D01*
X158163985Y-99324787D01*
X158229998Y-99330563D01*
X158230000Y-99330563D01*
X158230002Y-99330563D01*
X158287762Y-99325509D01*
X158461050Y-99310349D01*
X158573345Y-99280259D01*
X158643193Y-99281922D01*
X158693117Y-99312352D01*
X160111284Y-100730520D01*
X160111286Y-100730521D01*
X160111290Y-100730524D01*
X160248209Y-100809573D01*
X160248216Y-100809577D01*
X160400943Y-100850501D01*
X160400945Y-100850501D01*
X160566654Y-100850501D01*
X160566670Y-100850500D01*
X164079055Y-100850500D01*
X164079057Y-100850500D01*
X164231784Y-100809577D01*
X164368716Y-100730520D01*
X164480520Y-100618716D01*
X164559577Y-100481784D01*
X164600500Y-100329057D01*
X164600500Y-97474500D01*
X164620185Y-97407461D01*
X164672989Y-97361706D01*
X164724500Y-97350500D01*
X166875699Y-97350500D01*
X166942738Y-97370185D01*
X166988493Y-97422989D01*
X166998437Y-97492147D01*
X166988081Y-97526904D01*
X166979682Y-97544914D01*
X166919651Y-97768948D01*
X166919650Y-97768955D01*
X166899437Y-97999998D01*
X166899437Y-98000001D01*
X166919650Y-98231044D01*
X166919651Y-98231051D01*
X166979678Y-98455074D01*
X166979679Y-98455076D01*
X166979680Y-98455079D01*
X167077699Y-98665282D01*
X167210730Y-98855269D01*
X167374731Y-99019270D01*
X167564718Y-99152301D01*
X167774921Y-99250320D01*
X167998950Y-99310349D01*
X168163985Y-99324787D01*
X168229998Y-99330563D01*
X168230000Y-99330563D01*
X168230002Y-99330563D01*
X168287762Y-99325509D01*
X168461050Y-99310349D01*
X168685079Y-99250320D01*
X168895282Y-99152301D01*
X169085269Y-99019270D01*
X169249270Y-98855269D01*
X169382301Y-98665282D01*
X169387618Y-98653878D01*
X169433790Y-98601440D01*
X169500984Y-98582288D01*
X169567865Y-98602504D01*
X169612381Y-98653878D01*
X169617699Y-98665282D01*
X169750730Y-98855269D01*
X169914731Y-99019270D01*
X170104718Y-99152301D01*
X170314921Y-99250320D01*
X170538950Y-99310349D01*
X170703985Y-99324787D01*
X170769998Y-99330563D01*
X170770000Y-99330563D01*
X170770002Y-99330563D01*
X170827762Y-99325509D01*
X171001050Y-99310349D01*
X171225079Y-99250320D01*
X171435282Y-99152301D01*
X171625269Y-99019270D01*
X171789270Y-98855269D01*
X171922301Y-98665282D01*
X172020320Y-98455079D01*
X172080349Y-98231050D01*
X172100563Y-98000000D01*
X172080349Y-97768950D01*
X172020320Y-97544921D01*
X171922301Y-97334719D01*
X171922299Y-97334716D01*
X171922298Y-97334714D01*
X171789273Y-97144735D01*
X171789268Y-97144729D01*
X171625269Y-96980730D01*
X171575955Y-96946200D01*
X171435282Y-96847699D01*
X171309067Y-96788844D01*
X171225080Y-96749680D01*
X171214067Y-96746729D01*
X171154409Y-96710360D01*
X171123884Y-96647511D01*
X171132183Y-96578136D01*
X171158484Y-96539278D01*
X174937821Y-92759942D01*
X174999142Y-92726459D01*
X175068834Y-92731443D01*
X175124767Y-92773315D01*
X175149184Y-92838779D01*
X175149500Y-92847625D01*
X175149500Y-103167587D01*
X175129815Y-103234626D01*
X175122450Y-103244896D01*
X175120186Y-103247734D01*
X175024211Y-103400476D01*
X174964631Y-103570745D01*
X174964630Y-103570750D01*
X174944435Y-103749996D01*
X174944435Y-103750003D01*
X174964630Y-103929249D01*
X174964631Y-103929254D01*
X175024211Y-104099523D01*
X175112165Y-104239500D01*
X175120184Y-104252262D01*
X175247738Y-104379816D01*
X175400478Y-104475789D01*
X175554567Y-104529707D01*
X175570745Y-104535368D01*
X175570750Y-104535369D01*
X175749996Y-104555565D01*
X175750000Y-104555565D01*
X175750004Y-104555565D01*
X175929249Y-104535369D01*
X175929252Y-104535368D01*
X175929255Y-104535368D01*
X176099522Y-104475789D01*
X176252262Y-104379816D01*
X176379816Y-104252262D01*
X176475789Y-104099522D01*
X176535368Y-103929255D01*
X176535369Y-103929249D01*
X176555565Y-103750003D01*
X176555565Y-103749996D01*
X176535369Y-103570750D01*
X176535368Y-103570745D01*
X176475788Y-103400476D01*
X176442645Y-103347730D01*
X176379816Y-103247738D01*
X176379814Y-103247736D01*
X176379813Y-103247734D01*
X176377550Y-103244896D01*
X176376659Y-103242715D01*
X176376111Y-103241842D01*
X176376264Y-103241745D01*
X176351144Y-103180209D01*
X176350500Y-103167587D01*
X176350500Y-99250000D01*
X178894551Y-99250000D01*
X178914317Y-99501151D01*
X178973126Y-99746110D01*
X179069533Y-99978859D01*
X179150520Y-100111016D01*
X179168765Y-100178462D01*
X179147649Y-100245064D01*
X179119105Y-100275072D01*
X179042452Y-100332455D01*
X178956206Y-100447664D01*
X178956202Y-100447671D01*
X178905908Y-100582517D01*
X178899501Y-100642116D01*
X178899501Y-100642123D01*
X178899500Y-100642135D01*
X178899500Y-102937870D01*
X178899501Y-102937876D01*
X178905908Y-102997483D01*
X178956202Y-103132328D01*
X178956206Y-103132335D01*
X179042452Y-103247544D01*
X179042455Y-103247547D01*
X179157664Y-103333793D01*
X179157671Y-103333797D01*
X179292517Y-103384091D01*
X179292516Y-103384091D01*
X179299444Y-103384835D01*
X179352127Y-103390500D01*
X181647872Y-103390499D01*
X181707483Y-103384091D01*
X181842331Y-103333796D01*
X181957546Y-103247546D01*
X182043796Y-103132331D01*
X182094091Y-102997483D01*
X182100500Y-102937873D01*
X182100499Y-102233571D01*
X182120183Y-102166535D01*
X182172987Y-102120780D01*
X182242146Y-102110836D01*
X182305702Y-102139861D01*
X182327601Y-102164683D01*
X182418210Y-102300288D01*
X182418213Y-102300292D01*
X182529707Y-102411786D01*
X182529711Y-102411789D01*
X182660814Y-102499390D01*
X182660827Y-102499397D01*
X182806498Y-102559735D01*
X182806503Y-102559737D01*
X182961153Y-102590499D01*
X182961156Y-102590500D01*
X182961158Y-102590500D01*
X183118844Y-102590500D01*
X183118845Y-102590499D01*
X183273497Y-102559737D01*
X183419179Y-102499394D01*
X183550289Y-102411789D01*
X183661789Y-102300289D01*
X183749394Y-102169179D01*
X183809737Y-102023497D01*
X183840500Y-101868842D01*
X183840500Y-101711158D01*
X183840500Y-101711155D01*
X183840499Y-101711153D01*
X183809738Y-101556510D01*
X183809737Y-101556503D01*
X183751256Y-101415316D01*
X183749397Y-101410827D01*
X183749390Y-101410814D01*
X183661789Y-101279711D01*
X183661786Y-101279707D01*
X183550292Y-101168213D01*
X183550288Y-101168210D01*
X183419185Y-101080609D01*
X183419172Y-101080602D01*
X183273501Y-101020264D01*
X183273489Y-101020261D01*
X183118845Y-100989500D01*
X183118842Y-100989500D01*
X182961158Y-100989500D01*
X182961155Y-100989500D01*
X182806510Y-101020261D01*
X182806498Y-101020264D01*
X182660827Y-101080602D01*
X182660814Y-101080609D01*
X182529711Y-101168210D01*
X182529707Y-101168213D01*
X182418213Y-101279707D01*
X182418210Y-101279711D01*
X182327601Y-101415316D01*
X182273988Y-101460121D01*
X182204663Y-101468828D01*
X182141636Y-101438673D01*
X182104917Y-101379230D01*
X182100499Y-101346425D01*
X182100499Y-100642129D01*
X182100498Y-100642123D01*
X182100497Y-100642116D01*
X182094091Y-100582517D01*
X182060271Y-100491842D01*
X182043797Y-100447671D01*
X182043793Y-100447664D01*
X181957547Y-100332455D01*
X181953005Y-100329055D01*
X181880894Y-100275072D01*
X181839024Y-100219138D01*
X181834040Y-100149446D01*
X181849476Y-100111021D01*
X181930466Y-99978859D01*
X182026873Y-99746111D01*
X182067003Y-99578954D01*
X182101792Y-99518365D01*
X182163818Y-99486200D01*
X182233387Y-99492676D01*
X182288411Y-99535735D01*
X182302137Y-99560450D01*
X182330604Y-99629175D01*
X182330609Y-99629185D01*
X182418210Y-99760288D01*
X182418213Y-99760292D01*
X182529707Y-99871786D01*
X182529711Y-99871789D01*
X182660814Y-99959390D01*
X182660827Y-99959397D01*
X182806498Y-100019735D01*
X182806503Y-100019737D01*
X182961153Y-100050499D01*
X182961156Y-100050500D01*
X182961158Y-100050500D01*
X183118844Y-100050500D01*
X183118845Y-100050499D01*
X183273497Y-100019737D01*
X183419179Y-99959394D01*
X183550289Y-99871789D01*
X183661789Y-99760289D01*
X183749394Y-99629179D01*
X183809737Y-99483497D01*
X183840500Y-99328842D01*
X183840500Y-99171158D01*
X183840500Y-99171155D01*
X183840499Y-99171153D01*
X183809738Y-99016510D01*
X183809737Y-99016503D01*
X183781197Y-98947600D01*
X183749397Y-98870827D01*
X183749390Y-98870814D01*
X183661789Y-98739711D01*
X183661786Y-98739707D01*
X183550292Y-98628213D01*
X183550288Y-98628210D01*
X183419185Y-98540609D01*
X183419172Y-98540602D01*
X183273501Y-98480264D01*
X183273489Y-98480261D01*
X183118845Y-98449500D01*
X183118842Y-98449500D01*
X182961158Y-98449500D01*
X182961155Y-98449500D01*
X182806510Y-98480261D01*
X182806498Y-98480264D01*
X182660827Y-98540602D01*
X182660814Y-98540609D01*
X182529711Y-98628210D01*
X182529707Y-98628213D01*
X182418213Y-98739707D01*
X182418210Y-98739711D01*
X182330609Y-98870814D01*
X182330606Y-98870820D01*
X182302137Y-98939550D01*
X182258295Y-98993953D01*
X182192001Y-99016017D01*
X182124302Y-98998737D01*
X182076692Y-98947600D01*
X182067003Y-98921046D01*
X182026873Y-98753889D01*
X181930466Y-98521141D01*
X181930466Y-98521140D01*
X181798839Y-98306346D01*
X181798838Y-98306343D01*
X181635224Y-98114776D01*
X181587819Y-98074289D01*
X181549627Y-98015784D01*
X181549128Y-97945916D01*
X181586482Y-97886870D01*
X181587756Y-97885764D01*
X181635224Y-97845224D01*
X181798836Y-97653659D01*
X181930466Y-97438859D01*
X182026873Y-97206111D01*
X182067003Y-97038954D01*
X182101792Y-96978365D01*
X182163818Y-96946200D01*
X182233387Y-96952676D01*
X182288411Y-96995735D01*
X182302137Y-97020450D01*
X182330604Y-97089175D01*
X182330609Y-97089185D01*
X182418210Y-97220288D01*
X182418213Y-97220292D01*
X182529707Y-97331786D01*
X182529711Y-97331789D01*
X182660814Y-97419390D01*
X182660827Y-97419397D01*
X182806498Y-97479735D01*
X182806503Y-97479737D01*
X182961153Y-97510499D01*
X182961156Y-97510500D01*
X182961158Y-97510500D01*
X183118844Y-97510500D01*
X183118845Y-97510499D01*
X183273497Y-97479737D01*
X183419179Y-97419394D01*
X183550289Y-97331789D01*
X183661789Y-97220289D01*
X183749394Y-97089179D01*
X183809737Y-96943497D01*
X183840500Y-96788842D01*
X183840500Y-96631158D01*
X183840500Y-96631155D01*
X183840499Y-96631153D01*
X183809738Y-96476510D01*
X183809737Y-96476503D01*
X183781197Y-96407600D01*
X183749397Y-96330827D01*
X183749390Y-96330814D01*
X183661789Y-96199711D01*
X183661786Y-96199707D01*
X183550292Y-96088213D01*
X183550288Y-96088210D01*
X183419185Y-96000609D01*
X183419172Y-96000602D01*
X183273501Y-95940264D01*
X183273489Y-95940261D01*
X183118845Y-95909500D01*
X183118842Y-95909500D01*
X182961158Y-95909500D01*
X182961155Y-95909500D01*
X182806510Y-95940261D01*
X182806498Y-95940264D01*
X182660827Y-96000602D01*
X182660814Y-96000609D01*
X182529711Y-96088210D01*
X182529707Y-96088213D01*
X182418213Y-96199707D01*
X182418210Y-96199711D01*
X182330609Y-96330814D01*
X182330606Y-96330820D01*
X182302137Y-96399550D01*
X182258295Y-96453953D01*
X182192001Y-96476017D01*
X182124302Y-96458737D01*
X182076692Y-96407600D01*
X182067003Y-96381046D01*
X182026873Y-96213889D01*
X181930466Y-95981141D01*
X181930466Y-95981140D01*
X181798839Y-95766346D01*
X181798838Y-95766343D01*
X181699543Y-95650084D01*
X181635224Y-95574776D01*
X181482556Y-95444385D01*
X181443656Y-95411161D01*
X181443653Y-95411160D01*
X181228859Y-95279533D01*
X180996110Y-95183126D01*
X180751151Y-95124317D01*
X180500000Y-95104551D01*
X180248848Y-95124317D01*
X180003889Y-95183126D01*
X179771140Y-95279533D01*
X179556346Y-95411160D01*
X179556343Y-95411161D01*
X179364776Y-95574776D01*
X179201161Y-95766343D01*
X179201160Y-95766346D01*
X179069533Y-95981140D01*
X178973126Y-96213889D01*
X178914317Y-96458848D01*
X178894551Y-96710000D01*
X178914317Y-96961151D01*
X178973126Y-97206110D01*
X179069533Y-97438859D01*
X179201160Y-97653653D01*
X179201161Y-97653656D01*
X179201164Y-97653659D01*
X179364776Y-97845224D01*
X179412178Y-97885709D01*
X179412179Y-97885710D01*
X179450372Y-97944217D01*
X179450870Y-98014085D01*
X179413516Y-98073131D01*
X179412179Y-98074290D01*
X179364776Y-98114776D01*
X179201161Y-98306343D01*
X179201160Y-98306346D01*
X179069533Y-98521140D01*
X178973126Y-98753889D01*
X178914317Y-98998848D01*
X178894551Y-99250000D01*
X176350500Y-99250000D01*
X176350500Y-88677476D01*
X176370185Y-88610437D01*
X176422989Y-88564682D01*
X176488385Y-88554256D01*
X176500000Y-88555565D01*
X176500001Y-88555564D01*
X176500002Y-88555565D01*
X176500004Y-88555565D01*
X176679249Y-88535369D01*
X176679252Y-88535368D01*
X176679255Y-88535368D01*
X176849522Y-88475789D01*
X177002262Y-88379816D01*
X177129816Y-88252262D01*
X177225789Y-88099522D01*
X177285368Y-87929255D01*
X177285369Y-87929249D01*
X177305565Y-87750003D01*
X177305565Y-87749996D01*
X177285369Y-87570750D01*
X177285368Y-87570745D01*
X177260613Y-87500000D01*
X178894551Y-87500000D01*
X178914317Y-87751151D01*
X178973126Y-87996110D01*
X179069533Y-88228859D01*
X179150520Y-88361016D01*
X179168765Y-88428462D01*
X179147649Y-88495064D01*
X179119105Y-88525072D01*
X179042452Y-88582455D01*
X178956206Y-88697664D01*
X178956202Y-88697671D01*
X178905908Y-88832517D01*
X178899501Y-88892116D01*
X178899501Y-88892123D01*
X178899500Y-88892135D01*
X178899500Y-91187870D01*
X178899501Y-91187876D01*
X178905908Y-91247483D01*
X178956202Y-91382328D01*
X178956206Y-91382335D01*
X179042452Y-91497544D01*
X179042455Y-91497547D01*
X179157664Y-91583793D01*
X179157671Y-91583797D01*
X179292517Y-91634091D01*
X179292516Y-91634091D01*
X179299444Y-91634835D01*
X179352127Y-91640500D01*
X181647872Y-91640499D01*
X181707483Y-91634091D01*
X181842331Y-91583796D01*
X181957546Y-91497546D01*
X182043796Y-91382331D01*
X182094091Y-91247483D01*
X182100500Y-91187873D01*
X182100499Y-90483571D01*
X182120183Y-90416535D01*
X182172987Y-90370780D01*
X182242146Y-90360836D01*
X182305702Y-90389861D01*
X182327601Y-90414683D01*
X182418210Y-90550288D01*
X182418213Y-90550292D01*
X182529707Y-90661786D01*
X182529711Y-90661789D01*
X182660814Y-90749390D01*
X182660827Y-90749397D01*
X182806498Y-90809735D01*
X182806503Y-90809737D01*
X182961153Y-90840499D01*
X182961156Y-90840500D01*
X182961158Y-90840500D01*
X183118844Y-90840500D01*
X183118845Y-90840499D01*
X183273497Y-90809737D01*
X183419179Y-90749394D01*
X183550289Y-90661789D01*
X183661789Y-90550289D01*
X183749394Y-90419179D01*
X183809737Y-90273497D01*
X183840500Y-90118842D01*
X183840500Y-89961158D01*
X183840500Y-89961155D01*
X183840499Y-89961153D01*
X183809738Y-89806510D01*
X183809737Y-89806503D01*
X183751256Y-89665316D01*
X183749397Y-89660827D01*
X183749390Y-89660814D01*
X183661789Y-89529711D01*
X183661786Y-89529707D01*
X183550292Y-89418213D01*
X183550288Y-89418210D01*
X183419185Y-89330609D01*
X183419172Y-89330602D01*
X183273501Y-89270264D01*
X183273489Y-89270261D01*
X183118845Y-89239500D01*
X183118842Y-89239500D01*
X182961158Y-89239500D01*
X182961155Y-89239500D01*
X182806510Y-89270261D01*
X182806498Y-89270264D01*
X182660827Y-89330602D01*
X182660814Y-89330609D01*
X182529711Y-89418210D01*
X182529707Y-89418213D01*
X182418213Y-89529707D01*
X182418210Y-89529711D01*
X182327601Y-89665316D01*
X182273988Y-89710121D01*
X182204663Y-89718828D01*
X182141636Y-89688673D01*
X182104917Y-89629230D01*
X182100499Y-89596425D01*
X182100499Y-88892129D01*
X182100498Y-88892123D01*
X182100497Y-88892116D01*
X182094091Y-88832517D01*
X182086486Y-88812128D01*
X182043797Y-88697671D01*
X182043793Y-88697664D01*
X181957547Y-88582455D01*
X181880894Y-88525072D01*
X181839024Y-88469138D01*
X181834040Y-88399446D01*
X181849476Y-88361021D01*
X181930466Y-88228859D01*
X182026873Y-87996111D01*
X182067003Y-87828954D01*
X182101792Y-87768365D01*
X182163818Y-87736200D01*
X182233387Y-87742676D01*
X182288411Y-87785735D01*
X182302137Y-87810450D01*
X182330604Y-87879175D01*
X182330609Y-87879185D01*
X182418210Y-88010288D01*
X182418213Y-88010292D01*
X182529707Y-88121786D01*
X182529711Y-88121789D01*
X182660814Y-88209390D01*
X182660827Y-88209397D01*
X182764314Y-88252262D01*
X182806503Y-88269737D01*
X182961153Y-88300499D01*
X182961156Y-88300500D01*
X182961158Y-88300500D01*
X183118844Y-88300500D01*
X183118845Y-88300499D01*
X183273497Y-88269737D01*
X183419179Y-88209394D01*
X183550289Y-88121789D01*
X183661789Y-88010289D01*
X183749394Y-87879179D01*
X183809737Y-87733497D01*
X183840500Y-87578842D01*
X183840500Y-87421158D01*
X183840500Y-87421155D01*
X183840499Y-87421153D01*
X183809738Y-87266510D01*
X183809737Y-87266503D01*
X183799482Y-87241745D01*
X183749397Y-87120827D01*
X183749390Y-87120814D01*
X183661789Y-86989711D01*
X183661786Y-86989707D01*
X183550292Y-86878213D01*
X183550288Y-86878210D01*
X183419185Y-86790609D01*
X183419172Y-86790602D01*
X183273501Y-86730264D01*
X183273489Y-86730261D01*
X183118845Y-86699500D01*
X183118842Y-86699500D01*
X182961158Y-86699500D01*
X182961155Y-86699500D01*
X182806510Y-86730261D01*
X182806498Y-86730264D01*
X182660827Y-86790602D01*
X182660814Y-86790609D01*
X182529711Y-86878210D01*
X182529707Y-86878213D01*
X182418213Y-86989707D01*
X182418210Y-86989711D01*
X182330609Y-87120814D01*
X182330606Y-87120820D01*
X182302137Y-87189550D01*
X182258295Y-87243953D01*
X182192001Y-87266017D01*
X182124302Y-87248737D01*
X182076692Y-87197600D01*
X182067003Y-87171046D01*
X182026873Y-87003889D01*
X181941939Y-86798839D01*
X181930466Y-86771140D01*
X181798839Y-86556346D01*
X181798838Y-86556343D01*
X181635224Y-86364776D01*
X181587819Y-86324289D01*
X181549627Y-86265784D01*
X181549128Y-86195916D01*
X181586482Y-86136870D01*
X181587756Y-86135764D01*
X181635224Y-86095224D01*
X181798836Y-85903659D01*
X181930466Y-85688859D01*
X182026873Y-85456111D01*
X182067003Y-85288954D01*
X182101792Y-85228365D01*
X182163818Y-85196200D01*
X182233387Y-85202676D01*
X182288411Y-85245735D01*
X182302137Y-85270450D01*
X182330604Y-85339175D01*
X182330609Y-85339185D01*
X182418210Y-85470288D01*
X182418213Y-85470292D01*
X182529707Y-85581786D01*
X182529711Y-85581789D01*
X182660814Y-85669390D01*
X182660827Y-85669397D01*
X182770036Y-85714632D01*
X182806503Y-85729737D01*
X182961153Y-85760499D01*
X182961156Y-85760500D01*
X182961158Y-85760500D01*
X183118844Y-85760500D01*
X183118845Y-85760499D01*
X183273497Y-85729737D01*
X183419179Y-85669394D01*
X183550289Y-85581789D01*
X183661789Y-85470289D01*
X183749394Y-85339179D01*
X183809737Y-85193497D01*
X183840500Y-85038842D01*
X183840500Y-84881158D01*
X183840500Y-84881155D01*
X183840499Y-84881153D01*
X183839914Y-84878210D01*
X183809737Y-84726503D01*
X183781197Y-84657600D01*
X183749397Y-84580827D01*
X183749390Y-84580814D01*
X183661789Y-84449711D01*
X183661786Y-84449707D01*
X183550292Y-84338213D01*
X183550288Y-84338210D01*
X183419185Y-84250609D01*
X183419172Y-84250602D01*
X183273501Y-84190264D01*
X183273489Y-84190261D01*
X183118845Y-84159500D01*
X183118842Y-84159500D01*
X182961158Y-84159500D01*
X182961155Y-84159500D01*
X182806510Y-84190261D01*
X182806498Y-84190264D01*
X182660827Y-84250602D01*
X182660814Y-84250609D01*
X182529711Y-84338210D01*
X182529707Y-84338213D01*
X182418213Y-84449707D01*
X182418210Y-84449711D01*
X182330609Y-84580814D01*
X182330606Y-84580820D01*
X182302137Y-84649550D01*
X182258295Y-84703953D01*
X182192001Y-84726017D01*
X182124302Y-84708737D01*
X182076692Y-84657600D01*
X182067003Y-84631046D01*
X182026873Y-84463889D01*
X181974815Y-84338210D01*
X181930466Y-84231140D01*
X181798839Y-84016346D01*
X181798838Y-84016343D01*
X181741648Y-83949383D01*
X181635224Y-83824776D01*
X181453299Y-83669397D01*
X181443656Y-83661161D01*
X181443653Y-83661160D01*
X181228859Y-83529533D01*
X180996110Y-83433126D01*
X180751151Y-83374317D01*
X180500000Y-83354551D01*
X180248848Y-83374317D01*
X180003889Y-83433126D01*
X179771140Y-83529533D01*
X179556346Y-83661160D01*
X179556343Y-83661161D01*
X179364776Y-83824776D01*
X179201161Y-84016343D01*
X179201160Y-84016346D01*
X179069533Y-84231140D01*
X178973126Y-84463889D01*
X178914317Y-84708848D01*
X178894551Y-84960000D01*
X178914317Y-85211151D01*
X178973126Y-85456110D01*
X179069533Y-85688859D01*
X179201160Y-85903653D01*
X179201161Y-85903656D01*
X179201164Y-85903659D01*
X179364776Y-86095224D01*
X179395876Y-86121786D01*
X179412179Y-86135710D01*
X179450372Y-86194217D01*
X179450870Y-86264085D01*
X179413516Y-86323131D01*
X179412179Y-86324290D01*
X179364776Y-86364776D01*
X179201161Y-86556343D01*
X179201160Y-86556346D01*
X179069533Y-86771140D01*
X178973126Y-87003889D01*
X178914317Y-87248848D01*
X178894551Y-87500000D01*
X177260613Y-87500000D01*
X177225788Y-87400476D01*
X177141611Y-87266510D01*
X177129816Y-87247738D01*
X177129814Y-87247736D01*
X177129813Y-87247734D01*
X177127550Y-87244896D01*
X177126659Y-87242715D01*
X177126111Y-87241842D01*
X177126264Y-87241745D01*
X177101144Y-87180209D01*
X177100500Y-87167587D01*
X177100500Y-83240531D01*
X177100501Y-83240518D01*
X177100501Y-83072415D01*
X177059576Y-82919685D01*
X177059573Y-82919680D01*
X176980524Y-82782761D01*
X176980518Y-82782753D01*
X174236119Y-80038355D01*
X174236117Y-80038352D01*
X174117246Y-79919481D01*
X174117245Y-79919480D01*
X174030433Y-79869360D01*
X174030433Y-79869359D01*
X174030429Y-79869358D01*
X173980314Y-79840423D01*
X173827586Y-79799499D01*
X173669472Y-79799499D01*
X173661876Y-79799499D01*
X173661860Y-79799500D01*
X173330528Y-79799500D01*
X173172414Y-79799500D01*
X173019686Y-79840423D01*
X173019685Y-79840423D01*
X173019683Y-79840424D01*
X173019680Y-79840425D01*
X172969567Y-79869359D01*
X172969566Y-79869360D01*
X172926160Y-79894420D01*
X172882756Y-79919479D01*
X172882753Y-79919481D01*
X172419479Y-80382755D01*
X172409003Y-80400902D01*
X172396252Y-80422989D01*
X172392749Y-80429056D01*
X172392746Y-80429060D01*
X172376209Y-80457701D01*
X172325641Y-80505915D01*
X172257033Y-80519136D01*
X172192169Y-80493166D01*
X172181143Y-80483379D01*
X171736119Y-80038355D01*
X171736117Y-80038352D01*
X171617246Y-79919481D01*
X171617245Y-79919480D01*
X171530433Y-79869360D01*
X171530433Y-79869359D01*
X171530429Y-79869358D01*
X171480314Y-79840423D01*
X171327586Y-79799499D01*
X171169472Y-79799499D01*
X171161876Y-79799499D01*
X171161860Y-79799500D01*
X164936670Y-79799500D01*
X164936654Y-79799499D01*
X164929058Y-79799499D01*
X164770943Y-79799499D01*
X164694579Y-79819961D01*
X164618214Y-79840423D01*
X164618209Y-79840426D01*
X164481290Y-79919475D01*
X164481282Y-79919481D01*
X163912181Y-80488583D01*
X163850858Y-80522068D01*
X163781166Y-80517084D01*
X163725233Y-80475212D01*
X163700816Y-80409748D01*
X163700500Y-80400902D01*
X163700500Y-80172416D01*
X163700499Y-80172412D01*
X163686112Y-80118716D01*
X163659577Y-80019686D01*
X163613814Y-79940423D01*
X163580520Y-79882755D01*
X163476180Y-79778415D01*
X163442696Y-79717092D01*
X163447680Y-79647400D01*
X163476181Y-79603053D01*
X163766882Y-79312351D01*
X163828204Y-79278868D01*
X163886654Y-79280258D01*
X163998950Y-79310349D01*
X164163985Y-79324787D01*
X164229998Y-79330563D01*
X164230000Y-79330563D01*
X164230002Y-79330563D01*
X164287762Y-79325509D01*
X164461050Y-79310349D01*
X164685079Y-79250320D01*
X164895282Y-79152301D01*
X165085269Y-79019270D01*
X165249270Y-78855269D01*
X165382301Y-78665282D01*
X165387618Y-78653878D01*
X165433790Y-78601440D01*
X165500984Y-78582288D01*
X165567865Y-78602504D01*
X165612381Y-78653878D01*
X165617699Y-78665282D01*
X165750730Y-78855269D01*
X165914731Y-79019270D01*
X166104718Y-79152301D01*
X166314921Y-79250320D01*
X166538950Y-79310349D01*
X166703985Y-79324787D01*
X166769998Y-79330563D01*
X166770000Y-79330563D01*
X166770002Y-79330563D01*
X166827762Y-79325509D01*
X167001050Y-79310349D01*
X167225079Y-79250320D01*
X167435282Y-79152301D01*
X167625269Y-79019270D01*
X167789270Y-78855269D01*
X167922301Y-78665282D01*
X168020320Y-78455079D01*
X168080349Y-78231050D01*
X168100563Y-78000001D01*
X169629437Y-78000001D01*
X169649650Y-78231044D01*
X169649651Y-78231051D01*
X169709678Y-78455074D01*
X169709679Y-78455076D01*
X169709680Y-78455079D01*
X169807699Y-78665282D01*
X169940730Y-78855269D01*
X170104731Y-79019270D01*
X170294718Y-79152301D01*
X170504921Y-79250320D01*
X170728950Y-79310349D01*
X170893985Y-79324787D01*
X170959998Y-79330563D01*
X170960000Y-79330563D01*
X170960002Y-79330563D01*
X171017762Y-79325509D01*
X171191050Y-79310349D01*
X171415079Y-79250320D01*
X171625282Y-79152301D01*
X171815269Y-79019270D01*
X171979270Y-78855269D01*
X172112301Y-78665282D01*
X172117618Y-78653878D01*
X172163790Y-78601440D01*
X172230984Y-78582288D01*
X172297865Y-78602504D01*
X172342381Y-78653878D01*
X172347699Y-78665282D01*
X172480730Y-78855269D01*
X172644731Y-79019270D01*
X172834718Y-79152301D01*
X173044921Y-79250320D01*
X173268950Y-79310349D01*
X173433985Y-79324787D01*
X173499998Y-79330563D01*
X173500000Y-79330563D01*
X173500002Y-79330563D01*
X173557762Y-79325509D01*
X173731050Y-79310349D01*
X173955079Y-79250320D01*
X174165282Y-79152301D01*
X174355269Y-79019270D01*
X174519270Y-78855269D01*
X174652301Y-78665282D01*
X174657618Y-78653878D01*
X174703790Y-78601440D01*
X174770984Y-78582288D01*
X174837865Y-78602504D01*
X174882381Y-78653878D01*
X174887699Y-78665282D01*
X175020730Y-78855269D01*
X175184731Y-79019270D01*
X175374718Y-79152301D01*
X175584921Y-79250320D01*
X175808950Y-79310349D01*
X175973985Y-79324787D01*
X176039998Y-79330563D01*
X176040000Y-79330563D01*
X176040002Y-79330563D01*
X176097762Y-79325509D01*
X176271050Y-79310349D01*
X176495079Y-79250320D01*
X176705282Y-79152301D01*
X176895269Y-79019270D01*
X177059270Y-78855269D01*
X177192301Y-78665282D01*
X177290320Y-78455079D01*
X177350349Y-78231050D01*
X177370563Y-78000000D01*
X177350349Y-77768950D01*
X177290320Y-77544921D01*
X177192301Y-77334719D01*
X177192299Y-77334716D01*
X177192298Y-77334714D01*
X177059273Y-77144735D01*
X177059268Y-77144729D01*
X176895269Y-76980730D01*
X176895263Y-76980726D01*
X176705282Y-76847699D01*
X176495079Y-76749680D01*
X176495076Y-76749679D01*
X176495074Y-76749678D01*
X176271051Y-76689651D01*
X176271044Y-76689650D01*
X176040002Y-76669437D01*
X176039998Y-76669437D01*
X175808955Y-76689650D01*
X175808948Y-76689651D01*
X175584917Y-76749681D01*
X175374718Y-76847699D01*
X175374714Y-76847701D01*
X175184735Y-76980726D01*
X175184729Y-76980731D01*
X175020731Y-77144729D01*
X175020726Y-77144735D01*
X174887701Y-77334714D01*
X174887698Y-77334720D01*
X174882381Y-77346123D01*
X174836207Y-77398562D01*
X174769013Y-77417712D01*
X174702133Y-77397495D01*
X174657619Y-77346123D01*
X174652301Y-77334720D01*
X174652298Y-77334714D01*
X174519273Y-77144735D01*
X174519268Y-77144729D01*
X174355269Y-76980730D01*
X174355263Y-76980726D01*
X174165282Y-76847699D01*
X173955079Y-76749680D01*
X173955076Y-76749679D01*
X173955074Y-76749678D01*
X173731051Y-76689651D01*
X173731044Y-76689650D01*
X173500002Y-76669437D01*
X173499998Y-76669437D01*
X173268955Y-76689650D01*
X173268948Y-76689651D01*
X173044917Y-76749681D01*
X172834718Y-76847699D01*
X172834714Y-76847701D01*
X172644735Y-76980726D01*
X172644729Y-76980731D01*
X172480731Y-77144729D01*
X172480726Y-77144735D01*
X172347701Y-77334714D01*
X172347698Y-77334720D01*
X172342381Y-77346123D01*
X172296207Y-77398562D01*
X172229013Y-77417712D01*
X172162133Y-77397495D01*
X172117619Y-77346123D01*
X172112301Y-77334720D01*
X172112298Y-77334714D01*
X171979273Y-77144735D01*
X171979268Y-77144729D01*
X171815269Y-76980730D01*
X171815263Y-76980726D01*
X171625282Y-76847699D01*
X171415079Y-76749680D01*
X171415076Y-76749679D01*
X171415074Y-76749678D01*
X171191051Y-76689651D01*
X171191044Y-76689650D01*
X170960002Y-76669437D01*
X170959998Y-76669437D01*
X170728955Y-76689650D01*
X170728948Y-76689651D01*
X170504917Y-76749681D01*
X170294718Y-76847699D01*
X170294714Y-76847701D01*
X170104735Y-76980726D01*
X170104729Y-76980731D01*
X169940731Y-77144729D01*
X169940726Y-77144735D01*
X169807701Y-77334714D01*
X169807699Y-77334718D01*
X169709681Y-77544917D01*
X169649651Y-77768948D01*
X169649650Y-77768955D01*
X169629437Y-77999998D01*
X169629437Y-78000001D01*
X168100563Y-78000001D01*
X168100563Y-78000000D01*
X168080349Y-77768950D01*
X168020320Y-77544921D01*
X167922301Y-77334719D01*
X167922299Y-77334716D01*
X167922298Y-77334714D01*
X167789273Y-77144735D01*
X167789268Y-77144729D01*
X167625269Y-76980730D01*
X167625263Y-76980726D01*
X167435282Y-76847699D01*
X167225079Y-76749680D01*
X167225076Y-76749679D01*
X167225074Y-76749678D01*
X167001051Y-76689651D01*
X167001044Y-76689650D01*
X166770002Y-76669437D01*
X166769998Y-76669437D01*
X166538955Y-76689650D01*
X166538948Y-76689651D01*
X166314917Y-76749681D01*
X166104718Y-76847699D01*
X166104714Y-76847701D01*
X165914735Y-76980726D01*
X165914729Y-76980731D01*
X165750731Y-77144729D01*
X165750726Y-77144735D01*
X165617701Y-77334714D01*
X165617698Y-77334720D01*
X165612381Y-77346123D01*
X165566207Y-77398562D01*
X165499013Y-77417712D01*
X165432133Y-77397495D01*
X165387619Y-77346123D01*
X165382301Y-77334720D01*
X165382298Y-77334714D01*
X165249273Y-77144735D01*
X165249268Y-77144729D01*
X165085269Y-76980730D01*
X165085263Y-76980726D01*
X164895282Y-76847699D01*
X164685079Y-76749680D01*
X164685076Y-76749679D01*
X164685074Y-76749678D01*
X164461051Y-76689651D01*
X164461044Y-76689650D01*
X164230002Y-76669437D01*
X164229998Y-76669437D01*
X163998955Y-76689650D01*
X163998948Y-76689651D01*
X163774917Y-76749681D01*
X163564718Y-76847699D01*
X163564714Y-76847701D01*
X163374735Y-76980726D01*
X163374729Y-76980731D01*
X163210731Y-77144729D01*
X163210726Y-77144735D01*
X163077701Y-77334714D01*
X163077699Y-77334718D01*
X162979681Y-77544917D01*
X162919651Y-77768948D01*
X162919650Y-77768955D01*
X162899437Y-77999998D01*
X162899437Y-78000001D01*
X162919650Y-78231044D01*
X162919652Y-78231055D01*
X162949739Y-78343343D01*
X162948076Y-78413193D01*
X162917645Y-78463117D01*
X162131619Y-79249143D01*
X162070296Y-79282628D01*
X162000604Y-79277644D01*
X161981938Y-79268849D01*
X161896218Y-79219359D01*
X161896218Y-79219358D01*
X161896216Y-79219358D01*
X161846100Y-79190423D01*
X161693372Y-79149499D01*
X161564402Y-79149499D01*
X161497363Y-79129814D01*
X161451608Y-79077010D01*
X161441664Y-79007852D01*
X161470689Y-78944296D01*
X161476721Y-78937818D01*
X161559270Y-78855269D01*
X161692301Y-78665282D01*
X161790320Y-78455079D01*
X161850349Y-78231050D01*
X161870563Y-78000000D01*
X161850349Y-77768950D01*
X161790320Y-77544921D01*
X161692301Y-77334719D01*
X161692299Y-77334716D01*
X161692298Y-77334714D01*
X161559273Y-77144735D01*
X161559268Y-77144729D01*
X161395269Y-76980730D01*
X161395263Y-76980726D01*
X161205282Y-76847699D01*
X160995079Y-76749680D01*
X160995076Y-76749679D01*
X160995074Y-76749678D01*
X160771051Y-76689651D01*
X160771044Y-76689650D01*
X160540002Y-76669437D01*
X160539998Y-76669437D01*
X160308955Y-76689650D01*
X160308948Y-76689651D01*
X160084917Y-76749681D01*
X159874718Y-76847699D01*
X159874714Y-76847701D01*
X159684735Y-76980726D01*
X159684729Y-76980731D01*
X159520731Y-77144729D01*
X159520726Y-77144735D01*
X159387701Y-77334714D01*
X159387698Y-77334720D01*
X159382381Y-77346123D01*
X159336207Y-77398562D01*
X159269013Y-77417712D01*
X159202133Y-77397495D01*
X159157619Y-77346123D01*
X159152301Y-77334720D01*
X159152298Y-77334714D01*
X159019273Y-77144735D01*
X159019268Y-77144729D01*
X158855269Y-76980730D01*
X158855263Y-76980726D01*
X158665282Y-76847699D01*
X158455079Y-76749680D01*
X158455076Y-76749679D01*
X158455074Y-76749678D01*
X158231051Y-76689651D01*
X158231044Y-76689650D01*
X158000002Y-76669437D01*
X157999998Y-76669437D01*
X157768955Y-76689650D01*
X157768948Y-76689651D01*
X157544917Y-76749681D01*
X157334718Y-76847699D01*
X157334714Y-76847701D01*
X157144735Y-76980726D01*
X157144729Y-76980731D01*
X156980731Y-77144729D01*
X156980726Y-77144735D01*
X156847701Y-77334714D01*
X156847698Y-77334720D01*
X156842381Y-77346123D01*
X156796207Y-77398562D01*
X156729013Y-77417712D01*
X156662133Y-77397495D01*
X156617619Y-77346123D01*
X156612301Y-77334720D01*
X156612298Y-77334714D01*
X156479273Y-77144735D01*
X156479268Y-77144729D01*
X156315269Y-76980730D01*
X156315263Y-76980726D01*
X156125282Y-76847699D01*
X155915079Y-76749680D01*
X155915076Y-76749679D01*
X155915074Y-76749678D01*
X155691051Y-76689651D01*
X155691044Y-76689650D01*
X155460002Y-76669437D01*
X155459998Y-76669437D01*
X155228955Y-76689650D01*
X155228948Y-76689651D01*
X155004917Y-76749681D01*
X154794718Y-76847699D01*
X154794714Y-76847701D01*
X154604735Y-76980726D01*
X154604729Y-76980731D01*
X154440731Y-77144729D01*
X154440726Y-77144735D01*
X154307701Y-77334714D01*
X154307699Y-77334718D01*
X154209681Y-77544917D01*
X154149651Y-77768948D01*
X154149650Y-77768955D01*
X154129437Y-77999998D01*
X154129437Y-78000001D01*
X154149650Y-78231044D01*
X154149651Y-78231051D01*
X154209678Y-78455074D01*
X154209679Y-78455076D01*
X154209680Y-78455079D01*
X154307699Y-78665282D01*
X154440730Y-78855269D01*
X154523280Y-78937819D01*
X154556765Y-78999142D01*
X154551781Y-79068834D01*
X154509909Y-79124767D01*
X154444445Y-79149184D01*
X154435599Y-79149500D01*
X152294401Y-79149500D01*
X152227362Y-79129815D01*
X152181607Y-79077011D01*
X152171663Y-79007853D01*
X152200688Y-78944297D01*
X152206720Y-78937819D01*
X152206721Y-78937818D01*
X152289270Y-78855269D01*
X152422301Y-78665282D01*
X152520320Y-78455079D01*
X152580349Y-78231050D01*
X152600563Y-78000000D01*
X152580349Y-77768950D01*
X152520320Y-77544921D01*
X152422301Y-77334719D01*
X152422299Y-77334716D01*
X152422298Y-77334714D01*
X152289273Y-77144735D01*
X152289268Y-77144729D01*
X152125269Y-76980730D01*
X152125263Y-76980726D01*
X151935282Y-76847699D01*
X151725079Y-76749680D01*
X151725076Y-76749679D01*
X151725074Y-76749678D01*
X151501051Y-76689651D01*
X151501044Y-76689650D01*
X151270002Y-76669437D01*
X151269998Y-76669437D01*
X151038955Y-76689650D01*
X151038948Y-76689651D01*
X150814917Y-76749681D01*
X150604718Y-76847699D01*
X150604714Y-76847701D01*
X150414735Y-76980726D01*
X150414729Y-76980731D01*
X150250731Y-77144729D01*
X150250726Y-77144735D01*
X150117701Y-77334714D01*
X150117698Y-77334720D01*
X150112381Y-77346123D01*
X150066207Y-77398562D01*
X149999013Y-77417712D01*
X149932133Y-77397495D01*
X149887619Y-77346123D01*
X149882301Y-77334720D01*
X149882298Y-77334714D01*
X149749273Y-77144735D01*
X149749268Y-77144729D01*
X149585269Y-76980730D01*
X149585263Y-76980726D01*
X149395282Y-76847699D01*
X149185079Y-76749680D01*
X149185076Y-76749679D01*
X149185074Y-76749678D01*
X148961051Y-76689651D01*
X148961044Y-76689650D01*
X148730002Y-76669437D01*
X148729998Y-76669437D01*
X148498955Y-76689650D01*
X148498948Y-76689651D01*
X148274917Y-76749681D01*
X148064718Y-76847699D01*
X148064714Y-76847701D01*
X147874735Y-76980726D01*
X147874729Y-76980731D01*
X147710731Y-77144729D01*
X147710726Y-77144735D01*
X147577701Y-77334714D01*
X147577699Y-77334718D01*
X147479681Y-77544917D01*
X147419651Y-77768948D01*
X147419650Y-77768955D01*
X147399437Y-77999998D01*
X147399437Y-78000001D01*
X147419650Y-78231044D01*
X147419651Y-78231051D01*
X147479678Y-78455074D01*
X147479679Y-78455076D01*
X147479680Y-78455079D01*
X147577699Y-78665282D01*
X147710730Y-78855269D01*
X147874731Y-79019270D01*
X148064718Y-79152301D01*
X148274921Y-79250320D01*
X148498950Y-79310349D01*
X148663985Y-79324787D01*
X148729998Y-79330563D01*
X148730000Y-79330563D01*
X148730002Y-79330563D01*
X148787762Y-79325509D01*
X148961050Y-79310349D01*
X149185079Y-79250320D01*
X149395282Y-79152301D01*
X149585269Y-79019270D01*
X149749270Y-78855269D01*
X149882301Y-78665282D01*
X149887618Y-78653878D01*
X149933790Y-78601440D01*
X150000984Y-78582288D01*
X150067865Y-78602504D01*
X150112381Y-78653878D01*
X150117699Y-78665282D01*
X150250730Y-78855269D01*
X150333280Y-78937819D01*
X150366765Y-78999142D01*
X150361781Y-79068834D01*
X150319909Y-79124767D01*
X150254445Y-79149184D01*
X150245599Y-79149500D01*
X150170943Y-79149500D01*
X150018215Y-79190423D01*
X150018214Y-79190423D01*
X150018212Y-79190424D01*
X150018209Y-79190425D01*
X149968096Y-79219359D01*
X149968095Y-79219360D01*
X149924689Y-79244420D01*
X149881285Y-79269479D01*
X149881282Y-79269481D01*
X149769478Y-79381286D01*
X149481465Y-79669298D01*
X149420142Y-79702783D01*
X149407668Y-79704837D01*
X149320750Y-79714630D01*
X149150478Y-79774210D01*
X148997737Y-79870184D01*
X148870184Y-79997737D01*
X148774211Y-80150476D01*
X148714631Y-80320745D01*
X148714630Y-80320750D01*
X148694435Y-80499996D01*
X148694435Y-80500003D01*
X148714630Y-80679249D01*
X148714631Y-80679254D01*
X148774211Y-80849523D01*
X148870184Y-81002262D01*
X148997737Y-81129815D01*
X148997741Y-81129818D01*
X148998834Y-81130505D01*
X148999389Y-81131132D01*
X149003184Y-81134159D01*
X149002654Y-81134823D01*
X149045127Y-81182838D01*
X149055777Y-81251891D01*
X149027403Y-81315740D01*
X148969015Y-81354114D01*
X148932865Y-81359500D01*
X148352129Y-81359500D01*
X148352123Y-81359501D01*
X148292516Y-81365908D01*
X148157671Y-81416202D01*
X148157664Y-81416206D01*
X148042455Y-81502452D01*
X148042452Y-81502455D01*
X147956206Y-81617664D01*
X147956202Y-81617671D01*
X147905908Y-81752517D01*
X147903187Y-81777830D01*
X147899501Y-81812123D01*
X147899500Y-81812135D01*
X147899500Y-82516425D01*
X147879815Y-82583464D01*
X147827011Y-82629219D01*
X147757853Y-82639163D01*
X147694297Y-82610138D01*
X147672398Y-82585316D01*
X147581789Y-82449711D01*
X147581786Y-82449707D01*
X147470292Y-82338213D01*
X147470288Y-82338210D01*
X147339185Y-82250609D01*
X147339172Y-82250602D01*
X147193501Y-82190264D01*
X147193489Y-82190261D01*
X147038845Y-82159500D01*
X147038842Y-82159500D01*
X146881158Y-82159500D01*
X146881155Y-82159500D01*
X146726510Y-82190261D01*
X146726498Y-82190264D01*
X146580827Y-82250602D01*
X146580814Y-82250609D01*
X146449711Y-82338210D01*
X146449707Y-82338213D01*
X146338213Y-82449707D01*
X146338210Y-82449711D01*
X146250609Y-82580814D01*
X146250602Y-82580827D01*
X146190264Y-82726498D01*
X146190261Y-82726510D01*
X146159500Y-82881153D01*
X146159500Y-83038846D01*
X146190261Y-83193489D01*
X146190264Y-83193501D01*
X146250602Y-83339172D01*
X146250609Y-83339185D01*
X146338210Y-83470288D01*
X146338213Y-83470292D01*
X146449707Y-83581786D01*
X146449711Y-83581789D01*
X146580814Y-83669390D01*
X146580827Y-83669397D01*
X146726498Y-83729735D01*
X146726503Y-83729737D01*
X146843408Y-83752991D01*
X146881153Y-83760499D01*
X146881156Y-83760500D01*
X146881158Y-83760500D01*
X147038844Y-83760500D01*
X147038845Y-83760499D01*
X147193497Y-83729737D01*
X147339179Y-83669394D01*
X147470289Y-83581789D01*
X147581789Y-83470289D01*
X147669394Y-83339179D01*
X147669394Y-83339178D01*
X147672398Y-83334683D01*
X147726010Y-83289878D01*
X147795335Y-83281171D01*
X147858362Y-83311325D01*
X147895082Y-83370768D01*
X147899500Y-83403574D01*
X147899500Y-84107870D01*
X147899501Y-84107876D01*
X147905908Y-84167483D01*
X147956202Y-84302328D01*
X147956206Y-84302335D01*
X148042452Y-84417544D01*
X148042455Y-84417547D01*
X148119104Y-84474927D01*
X148160975Y-84530861D01*
X148165959Y-84600552D01*
X148150520Y-84638983D01*
X148069533Y-84771140D01*
X147973126Y-85003889D01*
X147932997Y-85171043D01*
X147898206Y-85231635D01*
X147836180Y-85263799D01*
X147766611Y-85257323D01*
X147711587Y-85214263D01*
X147697862Y-85189548D01*
X147669397Y-85120827D01*
X147669390Y-85120814D01*
X147581789Y-84989711D01*
X147581786Y-84989707D01*
X147470292Y-84878213D01*
X147470288Y-84878210D01*
X147339185Y-84790609D01*
X147339172Y-84790602D01*
X147193501Y-84730264D01*
X147193489Y-84730261D01*
X147038845Y-84699500D01*
X147038842Y-84699500D01*
X146881158Y-84699500D01*
X146881155Y-84699500D01*
X146726510Y-84730261D01*
X146726498Y-84730264D01*
X146580827Y-84790602D01*
X146580814Y-84790609D01*
X146449711Y-84878210D01*
X146449707Y-84878213D01*
X146338213Y-84989707D01*
X146338210Y-84989711D01*
X146250609Y-85120814D01*
X146250602Y-85120827D01*
X146190264Y-85266498D01*
X146190261Y-85266510D01*
X146159500Y-85421153D01*
X146159500Y-85578846D01*
X145500500Y-85578846D01*
X145500500Y-73078846D01*
X146199500Y-73078846D01*
X146230261Y-73233489D01*
X146230264Y-73233501D01*
X146290602Y-73379172D01*
X146290609Y-73379185D01*
X146378210Y-73510288D01*
X146378213Y-73510292D01*
X146489707Y-73621786D01*
X146489711Y-73621789D01*
X146620814Y-73709390D01*
X146620827Y-73709397D01*
X146766498Y-73769735D01*
X146766503Y-73769737D01*
X146921153Y-73800499D01*
X146921156Y-73800500D01*
X146921158Y-73800500D01*
X147078844Y-73800500D01*
X147078845Y-73800499D01*
X147233497Y-73769737D01*
X147379179Y-73709394D01*
X147510289Y-73621789D01*
X147621789Y-73510289D01*
X147709394Y-73379179D01*
X147709395Y-73379176D01*
X147709397Y-73379173D01*
X147737862Y-73310451D01*
X147781702Y-73256047D01*
X147847996Y-73233982D01*
X147915696Y-73251261D01*
X147963307Y-73302398D01*
X147972997Y-73328956D01*
X148013126Y-73496110D01*
X148109533Y-73728859D01*
X148241160Y-73943653D01*
X148241161Y-73943656D01*
X148241164Y-73943659D01*
X148404776Y-74135224D01*
X148497751Y-74214632D01*
X148596343Y-74298838D01*
X148596346Y-74298839D01*
X148811140Y-74430466D01*
X149043889Y-74526873D01*
X149288852Y-74585683D01*
X149540000Y-74605449D01*
X149791148Y-74585683D01*
X150036111Y-74526873D01*
X150268859Y-74430466D01*
X150483659Y-74298836D01*
X150675224Y-74135224D01*
X150838836Y-73943659D01*
X150970466Y-73728859D01*
X151066873Y-73496111D01*
X151125683Y-73251148D01*
X151145449Y-73000000D01*
X151125683Y-72748852D01*
X151066873Y-72503889D01*
X151010882Y-72368714D01*
X150970466Y-72271140D01*
X150911792Y-72175395D01*
X150889478Y-72138982D01*
X150871234Y-72071538D01*
X150892350Y-72004935D01*
X150920891Y-71974929D01*
X150997546Y-71917546D01*
X151083796Y-71802331D01*
X151134091Y-71667483D01*
X151140500Y-71607873D01*
X151140499Y-69312128D01*
X151134091Y-69252517D01*
X151083796Y-69117669D01*
X151083795Y-69117668D01*
X151083793Y-69117664D01*
X150997547Y-69002455D01*
X150997544Y-69002452D01*
X150882335Y-68916206D01*
X150882328Y-68916202D01*
X150747482Y-68865908D01*
X150747483Y-68865908D01*
X150687883Y-68859501D01*
X150687881Y-68859500D01*
X150687873Y-68859500D01*
X150687864Y-68859500D01*
X148392129Y-68859500D01*
X148392123Y-68859501D01*
X148332516Y-68865908D01*
X148197671Y-68916202D01*
X148197664Y-68916206D01*
X148082455Y-69002452D01*
X148082452Y-69002455D01*
X147996206Y-69117664D01*
X147996202Y-69117671D01*
X147945908Y-69252517D01*
X147939501Y-69312116D01*
X147939501Y-69312123D01*
X147939500Y-69312135D01*
X147939500Y-70016425D01*
X147919815Y-70083464D01*
X147867011Y-70129219D01*
X147797853Y-70139163D01*
X147734297Y-70110138D01*
X147712398Y-70085316D01*
X147621789Y-69949711D01*
X147621786Y-69949707D01*
X147510292Y-69838213D01*
X147510288Y-69838210D01*
X147379185Y-69750609D01*
X147379172Y-69750602D01*
X147233501Y-69690264D01*
X147233489Y-69690261D01*
X147078845Y-69659500D01*
X147078842Y-69659500D01*
X146921158Y-69659500D01*
X146921155Y-69659500D01*
X146766510Y-69690261D01*
X146766498Y-69690264D01*
X146620827Y-69750602D01*
X146620814Y-69750609D01*
X146489711Y-69838210D01*
X146489707Y-69838213D01*
X146378213Y-69949707D01*
X146378210Y-69949711D01*
X146290609Y-70080814D01*
X146290602Y-70080827D01*
X146230264Y-70226498D01*
X146230261Y-70226510D01*
X146199500Y-70381153D01*
X146199500Y-70538846D01*
X146230261Y-70693489D01*
X146230264Y-70693501D01*
X146290602Y-70839172D01*
X146290609Y-70839185D01*
X146378210Y-70970288D01*
X146378213Y-70970292D01*
X146489707Y-71081786D01*
X146489711Y-71081789D01*
X146620814Y-71169390D01*
X146620827Y-71169397D01*
X146766498Y-71229735D01*
X146766503Y-71229737D01*
X146921153Y-71260499D01*
X146921156Y-71260500D01*
X146921158Y-71260500D01*
X147078844Y-71260500D01*
X147078845Y-71260499D01*
X147233497Y-71229737D01*
X147379179Y-71169394D01*
X147510289Y-71081789D01*
X147621789Y-70970289D01*
X147709394Y-70839179D01*
X147709394Y-70839178D01*
X147712398Y-70834683D01*
X147766010Y-70789878D01*
X147835335Y-70781171D01*
X147898362Y-70811325D01*
X147935082Y-70870768D01*
X147939500Y-70903574D01*
X147939500Y-71607870D01*
X147939501Y-71607876D01*
X147945908Y-71667483D01*
X147996202Y-71802328D01*
X147996206Y-71802335D01*
X148082452Y-71917544D01*
X148082455Y-71917547D01*
X148159104Y-71974927D01*
X148200975Y-72030861D01*
X148205959Y-72100552D01*
X148190520Y-72138983D01*
X148109533Y-72271140D01*
X148013126Y-72503889D01*
X147972997Y-72671043D01*
X147938206Y-72731635D01*
X147876180Y-72763799D01*
X147806611Y-72757323D01*
X147751587Y-72714263D01*
X147737862Y-72689548D01*
X147709397Y-72620827D01*
X147709390Y-72620814D01*
X147621789Y-72489711D01*
X147621786Y-72489707D01*
X147510292Y-72378213D01*
X147510288Y-72378210D01*
X147379185Y-72290609D01*
X147379172Y-72290602D01*
X147233501Y-72230264D01*
X147233489Y-72230261D01*
X147078845Y-72199500D01*
X147078842Y-72199500D01*
X146921158Y-72199500D01*
X146921155Y-72199500D01*
X146766510Y-72230261D01*
X146766498Y-72230264D01*
X146620827Y-72290602D01*
X146620814Y-72290609D01*
X146489711Y-72378210D01*
X146489707Y-72378213D01*
X146378213Y-72489707D01*
X146378210Y-72489711D01*
X146290609Y-72620814D01*
X146290602Y-72620827D01*
X146230264Y-72766498D01*
X146230261Y-72766510D01*
X146199500Y-72921153D01*
X146199500Y-73078846D01*
X145500500Y-73078846D01*
X145500500Y-68500003D01*
X153194435Y-68500003D01*
X153214630Y-68679249D01*
X153214631Y-68679254D01*
X153274211Y-68849523D01*
X153316109Y-68916202D01*
X153370184Y-69002262D01*
X153497738Y-69129816D01*
X153650478Y-69225789D01*
X153820745Y-69285368D01*
X153820750Y-69285369D01*
X153999996Y-69305565D01*
X154000000Y-69305565D01*
X154000004Y-69305565D01*
X154179249Y-69285369D01*
X154179252Y-69285368D01*
X154179255Y-69285368D01*
X154349522Y-69225789D01*
X154502262Y-69129816D01*
X154629816Y-69002262D01*
X154670506Y-68937503D01*
X154722841Y-68891213D01*
X154791894Y-68880565D01*
X154855743Y-68908940D01*
X154894115Y-68967330D01*
X154899500Y-69003476D01*
X154899500Y-74417587D01*
X154879815Y-74484626D01*
X154872450Y-74494896D01*
X154870186Y-74497734D01*
X154774211Y-74650476D01*
X154714631Y-74820745D01*
X154714630Y-74820750D01*
X154694435Y-74999996D01*
X154694435Y-75000003D01*
X154714630Y-75179249D01*
X154714631Y-75179254D01*
X154774211Y-75349523D01*
X154870184Y-75502262D01*
X154997738Y-75629816D01*
X155150478Y-75725789D01*
X155320745Y-75785368D01*
X155320750Y-75785369D01*
X155499996Y-75805565D01*
X155500000Y-75805565D01*
X155500004Y-75805565D01*
X155679249Y-75785369D01*
X155679252Y-75785368D01*
X155679255Y-75785368D01*
X155849522Y-75725789D01*
X156002262Y-75629816D01*
X156129816Y-75502262D01*
X156225789Y-75349522D01*
X156285368Y-75179255D01*
X156295162Y-75092331D01*
X156305565Y-75000003D01*
X156305565Y-74999996D01*
X156285369Y-74820750D01*
X156285368Y-74820745D01*
X156225788Y-74650476D01*
X156185075Y-74585682D01*
X156129816Y-74497738D01*
X156129814Y-74497736D01*
X156129813Y-74497734D01*
X156127550Y-74494896D01*
X156126659Y-74492715D01*
X156126111Y-74491842D01*
X156126264Y-74491745D01*
X156101144Y-74430209D01*
X156100500Y-74417587D01*
X156100500Y-72079054D01*
X156899498Y-72079054D01*
X156915556Y-72138983D01*
X156940423Y-72231785D01*
X156951124Y-72250320D01*
X156969358Y-72281900D01*
X156969359Y-72281904D01*
X156969360Y-72281904D01*
X157019479Y-72368714D01*
X157019481Y-72368717D01*
X157138349Y-72487585D01*
X157138355Y-72487590D01*
X159669298Y-75018534D01*
X159702783Y-75079857D01*
X159704837Y-75092331D01*
X159714630Y-75179249D01*
X159774210Y-75349521D01*
X159870184Y-75502262D01*
X159997738Y-75629816D01*
X160150478Y-75725789D01*
X160320745Y-75785368D01*
X160320750Y-75785369D01*
X160499996Y-75805565D01*
X160500000Y-75805565D01*
X160500004Y-75805565D01*
X160679249Y-75785369D01*
X160679252Y-75785368D01*
X160679255Y-75785368D01*
X160849522Y-75725789D01*
X161002262Y-75629816D01*
X161129816Y-75502262D01*
X161225789Y-75349522D01*
X161285368Y-75179255D01*
X161295162Y-75092331D01*
X161305565Y-75000003D01*
X161305565Y-74999996D01*
X161285369Y-74820750D01*
X161285368Y-74820745D01*
X161225788Y-74650476D01*
X161129815Y-74497737D01*
X161002262Y-74370184D01*
X160849521Y-74274210D01*
X160679249Y-74214630D01*
X160592331Y-74204837D01*
X160527917Y-74177770D01*
X160518534Y-74169298D01*
X158136819Y-71787583D01*
X158103334Y-71726260D01*
X158100500Y-71699902D01*
X158100500Y-71000001D01*
X158399437Y-71000001D01*
X158419650Y-71231044D01*
X158419651Y-71231051D01*
X158479678Y-71455074D01*
X158479679Y-71455076D01*
X158479680Y-71455079D01*
X158577699Y-71665282D01*
X158710730Y-71855269D01*
X158874731Y-72019270D01*
X159064718Y-72152301D01*
X159274921Y-72250320D01*
X159498950Y-72310349D01*
X159663985Y-72324787D01*
X159729998Y-72330563D01*
X159730000Y-72330563D01*
X159730002Y-72330563D01*
X159787762Y-72325509D01*
X159961050Y-72310349D01*
X160185079Y-72250320D01*
X160395282Y-72152301D01*
X160585269Y-72019270D01*
X160749270Y-71855269D01*
X160882301Y-71665282D01*
X160887618Y-71653878D01*
X160933790Y-71601440D01*
X161000984Y-71582288D01*
X161067865Y-71602504D01*
X161112381Y-71653878D01*
X161117699Y-71665282D01*
X161250730Y-71855269D01*
X161414731Y-72019270D01*
X161604718Y-72152301D01*
X161814921Y-72250320D01*
X162038950Y-72310349D01*
X162203985Y-72324787D01*
X162269998Y-72330563D01*
X162270000Y-72330563D01*
X162270002Y-72330563D01*
X162327762Y-72325509D01*
X162501050Y-72310349D01*
X162725079Y-72250320D01*
X162935282Y-72152301D01*
X163125269Y-72019270D01*
X163289270Y-71855269D01*
X163422301Y-71665282D01*
X163520320Y-71455079D01*
X163580349Y-71231050D01*
X163600563Y-71000000D01*
X163580349Y-70768950D01*
X163520320Y-70544921D01*
X163422301Y-70334719D01*
X163422299Y-70334716D01*
X163422298Y-70334714D01*
X163289273Y-70144735D01*
X163289268Y-70144729D01*
X163125269Y-69980730D01*
X163125263Y-69980726D01*
X162935282Y-69847699D01*
X162725079Y-69749680D01*
X162725076Y-69749679D01*
X162725074Y-69749678D01*
X162501051Y-69689651D01*
X162501044Y-69689650D01*
X162270002Y-69669437D01*
X162269998Y-69669437D01*
X162038955Y-69689650D01*
X162038948Y-69689651D01*
X161814917Y-69749681D01*
X161604718Y-69847699D01*
X161604714Y-69847701D01*
X161414735Y-69980726D01*
X161414729Y-69980731D01*
X161250731Y-70144729D01*
X161250726Y-70144735D01*
X161117701Y-70334714D01*
X161117698Y-70334720D01*
X161112381Y-70346123D01*
X161066207Y-70398562D01*
X160999013Y-70417712D01*
X160932133Y-70397495D01*
X160887619Y-70346123D01*
X160882301Y-70334720D01*
X160882298Y-70334714D01*
X160749273Y-70144735D01*
X160749268Y-70144729D01*
X160585269Y-69980730D01*
X160585263Y-69980726D01*
X160395282Y-69847699D01*
X160185079Y-69749680D01*
X160185076Y-69749679D01*
X160185074Y-69749678D01*
X159961051Y-69689651D01*
X159961044Y-69689650D01*
X159730002Y-69669437D01*
X159729998Y-69669437D01*
X159498955Y-69689650D01*
X159498948Y-69689651D01*
X159274917Y-69749681D01*
X159064718Y-69847699D01*
X159064714Y-69847701D01*
X158874735Y-69980726D01*
X158874729Y-69980731D01*
X158710731Y-70144729D01*
X158710726Y-70144735D01*
X158577701Y-70334714D01*
X158577699Y-70334718D01*
X158479681Y-70544917D01*
X158419651Y-70768948D01*
X158419650Y-70768955D01*
X158399437Y-70999998D01*
X158399437Y-71000001D01*
X158100500Y-71000001D01*
X158100500Y-68800097D01*
X158120185Y-68733058D01*
X158136819Y-68712416D01*
X159499713Y-67349522D01*
X160980520Y-65868716D01*
X161059577Y-65731784D01*
X161100501Y-65579057D01*
X161100501Y-65420942D01*
X161100501Y-65413347D01*
X161100500Y-65413329D01*
X161100500Y-59082412D01*
X161120185Y-59015373D01*
X161127555Y-59005097D01*
X161129810Y-59002267D01*
X161129816Y-59002262D01*
X161131235Y-59000003D01*
X168194435Y-59000003D01*
X168214630Y-59179249D01*
X168214631Y-59179254D01*
X168274211Y-59349523D01*
X168370184Y-59502262D01*
X168497738Y-59629816D01*
X168588080Y-59686582D01*
X168634198Y-59715560D01*
X168650478Y-59725789D01*
X168660958Y-59729456D01*
X168820745Y-59785368D01*
X168820750Y-59785369D01*
X168999996Y-59805565D01*
X169000000Y-59805565D01*
X169000004Y-59805565D01*
X169179249Y-59785369D01*
X169179252Y-59785368D01*
X169179255Y-59785368D01*
X169349522Y-59725789D01*
X169502262Y-59629816D01*
X169629816Y-59502262D01*
X169725789Y-59349522D01*
X169785368Y-59179255D01*
X169795161Y-59092329D01*
X169822226Y-59027918D01*
X169830690Y-59018543D01*
X170063515Y-58785718D01*
X170124836Y-58752235D01*
X170194528Y-58757219D01*
X170250461Y-58799091D01*
X170268236Y-58832447D01*
X170274210Y-58849521D01*
X170322197Y-58925892D01*
X170368760Y-58999996D01*
X170370185Y-59002263D01*
X170372445Y-59005097D01*
X170373334Y-59007275D01*
X170373889Y-59008158D01*
X170373734Y-59008255D01*
X170398855Y-59069783D01*
X170399500Y-59082412D01*
X170399500Y-74417587D01*
X170379815Y-74484626D01*
X170372450Y-74494896D01*
X170370186Y-74497734D01*
X170274211Y-74650476D01*
X170214631Y-74820745D01*
X170214630Y-74820750D01*
X170194435Y-74999996D01*
X170194435Y-75000003D01*
X170214630Y-75179249D01*
X170214631Y-75179254D01*
X170274211Y-75349523D01*
X170370184Y-75502262D01*
X170497738Y-75629816D01*
X170650478Y-75725789D01*
X170820745Y-75785368D01*
X170820750Y-75785369D01*
X170999996Y-75805565D01*
X171000000Y-75805565D01*
X171000004Y-75805565D01*
X171179249Y-75785369D01*
X171179252Y-75785368D01*
X171179255Y-75785368D01*
X171349522Y-75725789D01*
X171502262Y-75629816D01*
X171629816Y-75502262D01*
X171725789Y-75349522D01*
X171785368Y-75179255D01*
X171795162Y-75092331D01*
X171805565Y-75000003D01*
X171805565Y-74999996D01*
X171785369Y-74820750D01*
X171785368Y-74820745D01*
X171725788Y-74650476D01*
X171685075Y-74585682D01*
X171629816Y-74497738D01*
X171629814Y-74497736D01*
X171629813Y-74497734D01*
X171627550Y-74494896D01*
X171626659Y-74492715D01*
X171626111Y-74491842D01*
X171626264Y-74491745D01*
X171601144Y-74430209D01*
X171600500Y-74417587D01*
X171600500Y-59082412D01*
X171620185Y-59015373D01*
X171627555Y-59005097D01*
X171629810Y-59002267D01*
X171629816Y-59002262D01*
X171725789Y-58849522D01*
X171785368Y-58679255D01*
X171788611Y-58650478D01*
X171793102Y-58610617D01*
X171820168Y-58546203D01*
X171877763Y-58506648D01*
X171916322Y-58500500D01*
X173083678Y-58500500D01*
X173150717Y-58520185D01*
X173196472Y-58572989D01*
X173206898Y-58610617D01*
X173214630Y-58679249D01*
X173274210Y-58849521D01*
X173322197Y-58925892D01*
X173368760Y-58999996D01*
X173370185Y-59002263D01*
X173372445Y-59005097D01*
X173373334Y-59007275D01*
X173373889Y-59008158D01*
X173373734Y-59008255D01*
X173398855Y-59069783D01*
X173399500Y-59082412D01*
X173399500Y-70417587D01*
X173379815Y-70484626D01*
X173372450Y-70494896D01*
X173370186Y-70497734D01*
X173274211Y-70650476D01*
X173214631Y-70820745D01*
X173214630Y-70820750D01*
X173194435Y-70999996D01*
X173194435Y-71000003D01*
X173214630Y-71179249D01*
X173214631Y-71179254D01*
X173274211Y-71349523D01*
X173370184Y-71502262D01*
X173497738Y-71629816D01*
X173650478Y-71725789D01*
X173820745Y-71785368D01*
X173820750Y-71785369D01*
X173999996Y-71805565D01*
X174000000Y-71805565D01*
X174000004Y-71805565D01*
X174179249Y-71785369D01*
X174179252Y-71785368D01*
X174179255Y-71785368D01*
X174349522Y-71725789D01*
X174502262Y-71629816D01*
X174629816Y-71502262D01*
X174725789Y-71349522D01*
X174785368Y-71179255D01*
X174805565Y-71000000D01*
X174802217Y-70970289D01*
X174785369Y-70820750D01*
X174785368Y-70820745D01*
X174725788Y-70650476D01*
X174659463Y-70544921D01*
X174629816Y-70497738D01*
X174629814Y-70497736D01*
X174629813Y-70497734D01*
X174627550Y-70494896D01*
X174626659Y-70492715D01*
X174626111Y-70491842D01*
X174626264Y-70491745D01*
X174601144Y-70430209D01*
X174600500Y-70417587D01*
X174600500Y-59082412D01*
X174620185Y-59015373D01*
X174627555Y-59005097D01*
X174629810Y-59002267D01*
X174629816Y-59002262D01*
X174725789Y-58849522D01*
X174785368Y-58679255D01*
X174788611Y-58650478D01*
X174793102Y-58610617D01*
X174820168Y-58546203D01*
X174877763Y-58506648D01*
X174916322Y-58500500D01*
X175083678Y-58500500D01*
X175150717Y-58520185D01*
X175196472Y-58572989D01*
X175206898Y-58610617D01*
X175214630Y-58679249D01*
X175274210Y-58849521D01*
X175322197Y-58925892D01*
X175368760Y-58999996D01*
X175370185Y-59002263D01*
X175372445Y-59005097D01*
X175373334Y-59007275D01*
X175373889Y-59008158D01*
X175373734Y-59008255D01*
X175398855Y-59069783D01*
X175399500Y-59082412D01*
X175399500Y-74417587D01*
X175379815Y-74484626D01*
X175372450Y-74494896D01*
X175370186Y-74497734D01*
X175274211Y-74650476D01*
X175214631Y-74820745D01*
X175214630Y-74820750D01*
X175194435Y-74999996D01*
X175194435Y-75000003D01*
X175214630Y-75179249D01*
X175214631Y-75179254D01*
X175274211Y-75349523D01*
X175370184Y-75502262D01*
X175497738Y-75629816D01*
X175650478Y-75725789D01*
X175820745Y-75785368D01*
X175820750Y-75785369D01*
X175999996Y-75805565D01*
X176000000Y-75805565D01*
X176000004Y-75805565D01*
X176179249Y-75785369D01*
X176179252Y-75785368D01*
X176179255Y-75785368D01*
X176349522Y-75725789D01*
X176502262Y-75629816D01*
X176629816Y-75502262D01*
X176725789Y-75349522D01*
X176785368Y-75179255D01*
X176795162Y-75092331D01*
X176805565Y-75000003D01*
X176805565Y-74999996D01*
X176785369Y-74820750D01*
X176785368Y-74820745D01*
X176725788Y-74650476D01*
X176685075Y-74585682D01*
X176629816Y-74497738D01*
X176629814Y-74497736D01*
X176629813Y-74497734D01*
X176627550Y-74494896D01*
X176626659Y-74492715D01*
X176626111Y-74491842D01*
X176626264Y-74491745D01*
X176601144Y-74430209D01*
X176600500Y-74417587D01*
X176600500Y-59082412D01*
X176620185Y-59015373D01*
X176627555Y-59005097D01*
X176629810Y-59002267D01*
X176629816Y-59002262D01*
X176725789Y-58849522D01*
X176785368Y-58679255D01*
X176788611Y-58650478D01*
X176793102Y-58610617D01*
X176820168Y-58546203D01*
X176877763Y-58506648D01*
X176916322Y-58500500D01*
X178599903Y-58500500D01*
X178666942Y-58520185D01*
X178687584Y-58536819D01*
X179169298Y-59018533D01*
X179202783Y-59079856D01*
X179204837Y-59092330D01*
X179214630Y-59179249D01*
X179274210Y-59349521D01*
X179370184Y-59502262D01*
X179497738Y-59629816D01*
X179562427Y-59670463D01*
X179634198Y-59715560D01*
X179680489Y-59767895D01*
X179691137Y-59836949D01*
X179662762Y-59900797D01*
X179604372Y-59939169D01*
X179597173Y-59941128D01*
X179463889Y-59973126D01*
X179231140Y-60069533D01*
X179016346Y-60201160D01*
X179016343Y-60201161D01*
X178824776Y-60364776D01*
X178661161Y-60556343D01*
X178661160Y-60556346D01*
X178529533Y-60771140D01*
X178433126Y-61003889D01*
X178374317Y-61248848D01*
X178354551Y-61500000D01*
X178374317Y-61751151D01*
X178433126Y-61996110D01*
X178529533Y-62228859D01*
X178661160Y-62443653D01*
X178661161Y-62443656D01*
X178661164Y-62443659D01*
X178824776Y-62635224D01*
X178872178Y-62675709D01*
X178872179Y-62675710D01*
X178910372Y-62734217D01*
X178910870Y-62804085D01*
X178873516Y-62863131D01*
X178872186Y-62864283D01*
X178856272Y-62877876D01*
X178824776Y-62904776D01*
X178661161Y-63096343D01*
X178661160Y-63096346D01*
X178529533Y-63311140D01*
X178433126Y-63543889D01*
X178374317Y-63788848D01*
X178354551Y-64040000D01*
X178374317Y-64291151D01*
X178433126Y-64536110D01*
X178529533Y-64768859D01*
X178610520Y-64901016D01*
X178628765Y-64968462D01*
X178607649Y-65035064D01*
X178579105Y-65065072D01*
X178502452Y-65122455D01*
X178416206Y-65237664D01*
X178416202Y-65237671D01*
X178365908Y-65372517D01*
X178359523Y-65431912D01*
X178359501Y-65432123D01*
X178359500Y-65432135D01*
X178359500Y-67727870D01*
X178359501Y-67727876D01*
X178365908Y-67787483D01*
X178416202Y-67922328D01*
X178416206Y-67922335D01*
X178502452Y-68037544D01*
X178502455Y-68037547D01*
X178617664Y-68123793D01*
X178617671Y-68123797D01*
X178752517Y-68174091D01*
X178752516Y-68174091D01*
X178759444Y-68174835D01*
X178812127Y-68180500D01*
X181107872Y-68180499D01*
X181167483Y-68174091D01*
X181302331Y-68123796D01*
X181417546Y-68037546D01*
X181503796Y-67922331D01*
X181554091Y-67787483D01*
X181560500Y-67727873D01*
X181560499Y-67023571D01*
X181580183Y-66956535D01*
X181632987Y-66910780D01*
X181702146Y-66900836D01*
X181765702Y-66929861D01*
X181787601Y-66954683D01*
X181878210Y-67090288D01*
X181878213Y-67090292D01*
X181989707Y-67201786D01*
X181989711Y-67201789D01*
X182120814Y-67289390D01*
X182120827Y-67289397D01*
X182265984Y-67349522D01*
X182266503Y-67349737D01*
X182421153Y-67380499D01*
X182421156Y-67380500D01*
X182421158Y-67380500D01*
X182578844Y-67380500D01*
X182578845Y-67380499D01*
X182733497Y-67349737D01*
X182879179Y-67289394D01*
X183010289Y-67201789D01*
X183121789Y-67090289D01*
X183209394Y-66959179D01*
X183269737Y-66813497D01*
X183300500Y-66658842D01*
X183300500Y-66501158D01*
X183300500Y-66501155D01*
X183300499Y-66501153D01*
X183286387Y-66430209D01*
X183269737Y-66346503D01*
X183211256Y-66205316D01*
X183209397Y-66200827D01*
X183209390Y-66200814D01*
X183121789Y-66069711D01*
X183121786Y-66069707D01*
X183010292Y-65958213D01*
X183010288Y-65958210D01*
X182879185Y-65870609D01*
X182879172Y-65870602D01*
X182733501Y-65810264D01*
X182733489Y-65810261D01*
X182578845Y-65779500D01*
X182578842Y-65779500D01*
X182421158Y-65779500D01*
X182421155Y-65779500D01*
X182266510Y-65810261D01*
X182266498Y-65810264D01*
X182120827Y-65870602D01*
X182120814Y-65870609D01*
X181989711Y-65958210D01*
X181989707Y-65958213D01*
X181878213Y-66069707D01*
X181878210Y-66069711D01*
X181787601Y-66205316D01*
X181733988Y-66250121D01*
X181664663Y-66258828D01*
X181601636Y-66228673D01*
X181564917Y-66169230D01*
X181560499Y-66136425D01*
X181560499Y-65432129D01*
X181560498Y-65432123D01*
X181560497Y-65432116D01*
X181554091Y-65372517D01*
X181545708Y-65350042D01*
X181503797Y-65237671D01*
X181503793Y-65237664D01*
X181417547Y-65122455D01*
X181340894Y-65065072D01*
X181299024Y-65009138D01*
X181294040Y-64939446D01*
X181309476Y-64901021D01*
X181390466Y-64768859D01*
X181486873Y-64536111D01*
X181527003Y-64368954D01*
X181561792Y-64308365D01*
X181623818Y-64276200D01*
X181693387Y-64282676D01*
X181748411Y-64325735D01*
X181762137Y-64350450D01*
X181790604Y-64419175D01*
X181790609Y-64419185D01*
X181878210Y-64550288D01*
X181878213Y-64550292D01*
X181989707Y-64661786D01*
X181989711Y-64661789D01*
X182120814Y-64749390D01*
X182120827Y-64749397D01*
X182266498Y-64809735D01*
X182266503Y-64809737D01*
X182421153Y-64840499D01*
X182421156Y-64840500D01*
X182421158Y-64840500D01*
X182578844Y-64840500D01*
X182578845Y-64840499D01*
X182733497Y-64809737D01*
X182879179Y-64749394D01*
X183010289Y-64661789D01*
X183121789Y-64550289D01*
X183209394Y-64419179D01*
X183269737Y-64273497D01*
X183300500Y-64118842D01*
X183300500Y-63961158D01*
X183300500Y-63961155D01*
X183300499Y-63961153D01*
X183286509Y-63890821D01*
X183269737Y-63806503D01*
X183241197Y-63737600D01*
X183209397Y-63660827D01*
X183209390Y-63660814D01*
X183121789Y-63529711D01*
X183121786Y-63529707D01*
X183010292Y-63418213D01*
X183010288Y-63418210D01*
X182879185Y-63330609D01*
X182879172Y-63330602D01*
X182733501Y-63270264D01*
X182733489Y-63270261D01*
X182578845Y-63239500D01*
X182578842Y-63239500D01*
X182421158Y-63239500D01*
X182421155Y-63239500D01*
X182266510Y-63270261D01*
X182266498Y-63270264D01*
X182120827Y-63330602D01*
X182120814Y-63330609D01*
X181989711Y-63418210D01*
X181989707Y-63418213D01*
X181878213Y-63529707D01*
X181878210Y-63529711D01*
X181790609Y-63660814D01*
X181790606Y-63660820D01*
X181762137Y-63729550D01*
X181718295Y-63783953D01*
X181652001Y-63806017D01*
X181584302Y-63788737D01*
X181536692Y-63737600D01*
X181527003Y-63711046D01*
X181486873Y-63543889D01*
X181390466Y-63311141D01*
X181390466Y-63311140D01*
X181258839Y-63096346D01*
X181258838Y-63096343D01*
X181095224Y-62904776D01*
X181047819Y-62864289D01*
X181009627Y-62805784D01*
X181009128Y-62735916D01*
X181046482Y-62676870D01*
X181047756Y-62675764D01*
X181095224Y-62635224D01*
X181258836Y-62443659D01*
X181390466Y-62228859D01*
X181486873Y-61996111D01*
X181527003Y-61828954D01*
X181561792Y-61768365D01*
X181623818Y-61736200D01*
X181693387Y-61742676D01*
X181748411Y-61785735D01*
X181762137Y-61810450D01*
X181790604Y-61879175D01*
X181790609Y-61879185D01*
X181878210Y-62010288D01*
X181878213Y-62010292D01*
X181989707Y-62121786D01*
X181989711Y-62121789D01*
X182120814Y-62209390D01*
X182120827Y-62209397D01*
X182266498Y-62269735D01*
X182266503Y-62269737D01*
X182421153Y-62300499D01*
X182421156Y-62300500D01*
X182421158Y-62300500D01*
X182578844Y-62300500D01*
X182578845Y-62300499D01*
X182733497Y-62269737D01*
X182879179Y-62209394D01*
X183010289Y-62121789D01*
X183121789Y-62010289D01*
X183209394Y-61879179D01*
X183269737Y-61733497D01*
X183300500Y-61578842D01*
X183300500Y-61421158D01*
X183300500Y-61421155D01*
X183300499Y-61421153D01*
X183296136Y-61399219D01*
X183269737Y-61266503D01*
X183252873Y-61225789D01*
X183209397Y-61120827D01*
X183209390Y-61120814D01*
X183121789Y-60989711D01*
X183121786Y-60989707D01*
X183010292Y-60878213D01*
X183010288Y-60878210D01*
X182879185Y-60790609D01*
X182879172Y-60790602D01*
X182733501Y-60730264D01*
X182733489Y-60730261D01*
X182578845Y-60699500D01*
X182578842Y-60699500D01*
X182421158Y-60699500D01*
X182421155Y-60699500D01*
X182266510Y-60730261D01*
X182266498Y-60730264D01*
X182120827Y-60790602D01*
X182120814Y-60790609D01*
X181989711Y-60878210D01*
X181989707Y-60878213D01*
X181878213Y-60989707D01*
X181878210Y-60989711D01*
X181790609Y-61120814D01*
X181790606Y-61120820D01*
X181762137Y-61189550D01*
X181718295Y-61243953D01*
X181652001Y-61266017D01*
X181584302Y-61248737D01*
X181536692Y-61197600D01*
X181527003Y-61171046D01*
X181486873Y-61003889D01*
X181390466Y-60771141D01*
X181390466Y-60771140D01*
X181258839Y-60556346D01*
X181258838Y-60556343D01*
X181210713Y-60499996D01*
X181095224Y-60364776D01*
X180936251Y-60229000D01*
X180903656Y-60201161D01*
X180903653Y-60201160D01*
X180688859Y-60069533D01*
X180456111Y-59973127D01*
X180380709Y-59955024D01*
X180320117Y-59920233D01*
X180287954Y-59858206D01*
X180294430Y-59788637D01*
X180337490Y-59733614D01*
X180343685Y-59729456D01*
X180349519Y-59725789D01*
X180349522Y-59725789D01*
X180502262Y-59629816D01*
X180629816Y-59502262D01*
X180725789Y-59349522D01*
X180785368Y-59179255D01*
X180795162Y-59092330D01*
X180805565Y-59000003D01*
X180805565Y-58999996D01*
X180785369Y-58820750D01*
X180785368Y-58820745D01*
X180761395Y-58752235D01*
X180725789Y-58650478D01*
X180629816Y-58497738D01*
X180502262Y-58370184D01*
X180349521Y-58274210D01*
X180179249Y-58214630D01*
X180092330Y-58204837D01*
X180027916Y-58177770D01*
X180018533Y-58169298D01*
X179387590Y-57538355D01*
X179387588Y-57538352D01*
X179268717Y-57419481D01*
X179268716Y-57419480D01*
X179181904Y-57369360D01*
X179181904Y-57369359D01*
X179181900Y-57369358D01*
X179131785Y-57340423D01*
X178979057Y-57299499D01*
X178820943Y-57299499D01*
X178813347Y-57299499D01*
X178813331Y-57299500D01*
X170186669Y-57299500D01*
X170186653Y-57299499D01*
X170179057Y-57299499D01*
X170020943Y-57299499D01*
X169913587Y-57328265D01*
X169868210Y-57340424D01*
X169868209Y-57340425D01*
X169818096Y-57369359D01*
X169818095Y-57369360D01*
X169774689Y-57394420D01*
X169731285Y-57419479D01*
X169731282Y-57419481D01*
X169619478Y-57531286D01*
X168981465Y-58169298D01*
X168920142Y-58202783D01*
X168907668Y-58204837D01*
X168820750Y-58214630D01*
X168650478Y-58274210D01*
X168497737Y-58370184D01*
X168370184Y-58497737D01*
X168274211Y-58650476D01*
X168214631Y-58820745D01*
X168214630Y-58820750D01*
X168194435Y-58999996D01*
X168194435Y-59000003D01*
X161131235Y-59000003D01*
X161225789Y-58849522D01*
X161285368Y-58679255D01*
X161285369Y-58679249D01*
X161305565Y-58500003D01*
X161305565Y-58499996D01*
X161285369Y-58320750D01*
X161285368Y-58320745D01*
X161225788Y-58150476D01*
X161129815Y-57997737D01*
X161002262Y-57870184D01*
X160849523Y-57774211D01*
X160679254Y-57714631D01*
X160679249Y-57714630D01*
X160500004Y-57694435D01*
X160499996Y-57694435D01*
X160320750Y-57714630D01*
X160320745Y-57714631D01*
X160150476Y-57774211D01*
X159997737Y-57870184D01*
X159870184Y-57997737D01*
X159774211Y-58150476D01*
X159714631Y-58320745D01*
X159714630Y-58320750D01*
X159694435Y-58499996D01*
X159694435Y-58500003D01*
X159714630Y-58679249D01*
X159714631Y-58679254D01*
X159774211Y-58849523D01*
X159834515Y-58945496D01*
X159868760Y-58999996D01*
X159870185Y-59002263D01*
X159872445Y-59005097D01*
X159873334Y-59007275D01*
X159873889Y-59008158D01*
X159873734Y-59008255D01*
X159898855Y-59069783D01*
X159899500Y-59082412D01*
X159899500Y-65199902D01*
X159879815Y-65266941D01*
X159863181Y-65287583D01*
X157019481Y-68131282D01*
X157019479Y-68131285D01*
X157008398Y-68150478D01*
X156991067Y-68180498D01*
X156969361Y-68218094D01*
X156969359Y-68218096D01*
X156940425Y-68268209D01*
X156940424Y-68268210D01*
X156940423Y-68268215D01*
X156899499Y-68420943D01*
X156899499Y-68420945D01*
X156899499Y-68589046D01*
X156899500Y-68589059D01*
X156899500Y-71913330D01*
X156899499Y-71913348D01*
X156899499Y-72079054D01*
X156899498Y-72079054D01*
X156100500Y-72079054D01*
X156100500Y-60500003D01*
X157194435Y-60500003D01*
X157214630Y-60679249D01*
X157214631Y-60679254D01*
X157274211Y-60849523D01*
X157329494Y-60937504D01*
X157370184Y-61002262D01*
X157497738Y-61129816D01*
X157563349Y-61171042D01*
X157640798Y-61219707D01*
X157650478Y-61225789D01*
X157765443Y-61266017D01*
X157820745Y-61285368D01*
X157820750Y-61285369D01*
X157999996Y-61305565D01*
X158000000Y-61305565D01*
X158000004Y-61305565D01*
X158179249Y-61285369D01*
X158179252Y-61285368D01*
X158179255Y-61285368D01*
X158349522Y-61225789D01*
X158502262Y-61129816D01*
X158629816Y-61002262D01*
X158725789Y-60849522D01*
X158785368Y-60679255D01*
X158796313Y-60582116D01*
X158805565Y-60500003D01*
X158805565Y-60499996D01*
X158785369Y-60320750D01*
X158785368Y-60320745D01*
X158768470Y-60272454D01*
X158725789Y-60150478D01*
X158720290Y-60141727D01*
X158649417Y-60028933D01*
X158629816Y-59997738D01*
X158629814Y-59997736D01*
X158629813Y-59997734D01*
X158627550Y-59994896D01*
X158626659Y-59992715D01*
X158626111Y-59991842D01*
X158626264Y-59991745D01*
X158601144Y-59930209D01*
X158600500Y-59917587D01*
X158600500Y-59082412D01*
X158620185Y-59015373D01*
X158627555Y-59005097D01*
X158629810Y-59002267D01*
X158629816Y-59002262D01*
X158725789Y-58849522D01*
X158785368Y-58679255D01*
X158785369Y-58679249D01*
X158805565Y-58500003D01*
X158805565Y-58499996D01*
X158785369Y-58320750D01*
X158785368Y-58320745D01*
X158725788Y-58150476D01*
X158629815Y-57997737D01*
X158502262Y-57870184D01*
X158349523Y-57774211D01*
X158179254Y-57714631D01*
X158179249Y-57714630D01*
X158000004Y-57694435D01*
X157999996Y-57694435D01*
X157820750Y-57714630D01*
X157820745Y-57714631D01*
X157650476Y-57774211D01*
X157497737Y-57870184D01*
X157370184Y-57997737D01*
X157274211Y-58150476D01*
X157214631Y-58320745D01*
X157214630Y-58320750D01*
X157194435Y-58499996D01*
X157194435Y-58500003D01*
X157214630Y-58679249D01*
X157214631Y-58679254D01*
X157274211Y-58849523D01*
X157334515Y-58945496D01*
X157368760Y-58999996D01*
X157370185Y-59002263D01*
X157372445Y-59005097D01*
X157373334Y-59007275D01*
X157373889Y-59008158D01*
X157373734Y-59008255D01*
X157398855Y-59069783D01*
X157399500Y-59082412D01*
X157399500Y-59917587D01*
X157379815Y-59984626D01*
X157372450Y-59994896D01*
X157370186Y-59997734D01*
X157274211Y-60150476D01*
X157214631Y-60320745D01*
X157214630Y-60320750D01*
X157194435Y-60499996D01*
X157194435Y-60500003D01*
X156100500Y-60500003D01*
X156100500Y-59082412D01*
X156120185Y-59015373D01*
X156127555Y-59005097D01*
X156129810Y-59002267D01*
X156129816Y-59002262D01*
X156225789Y-58849522D01*
X156285368Y-58679255D01*
X156285369Y-58679249D01*
X156305565Y-58500003D01*
X156305565Y-58499996D01*
X156285369Y-58320750D01*
X156285368Y-58320745D01*
X156225788Y-58150476D01*
X156129815Y-57997737D01*
X156002262Y-57870184D01*
X155849523Y-57774211D01*
X155679254Y-57714631D01*
X155679249Y-57714630D01*
X155500004Y-57694435D01*
X155499996Y-57694435D01*
X155320750Y-57714630D01*
X155320745Y-57714631D01*
X155150476Y-57774211D01*
X154997737Y-57870184D01*
X154870184Y-57997737D01*
X154774211Y-58150476D01*
X154714631Y-58320745D01*
X154714630Y-58320750D01*
X154694435Y-58499996D01*
X154694435Y-58500003D01*
X154714630Y-58679249D01*
X154714631Y-58679254D01*
X154774211Y-58849523D01*
X154834515Y-58945496D01*
X154868760Y-58999996D01*
X154870185Y-59002263D01*
X154872445Y-59005097D01*
X154873334Y-59007275D01*
X154873889Y-59008158D01*
X154873734Y-59008255D01*
X154898855Y-59069783D01*
X154899500Y-59082412D01*
X154899500Y-59996523D01*
X154879815Y-60063562D01*
X154827011Y-60109317D01*
X154757853Y-60119261D01*
X154694297Y-60090236D01*
X154670507Y-60062496D01*
X154629817Y-59997739D01*
X154502262Y-59870184D01*
X154349523Y-59774211D01*
X154179254Y-59714631D01*
X154179249Y-59714630D01*
X154000004Y-59694435D01*
X153999996Y-59694435D01*
X153820750Y-59714630D01*
X153820745Y-59714631D01*
X153650476Y-59774211D01*
X153497737Y-59870184D01*
X153370184Y-59997737D01*
X153274211Y-60150476D01*
X153214631Y-60320745D01*
X153214630Y-60320750D01*
X153194435Y-60499996D01*
X153194435Y-60500003D01*
X153214630Y-60679249D01*
X153214631Y-60679254D01*
X153274211Y-60849523D01*
X153370185Y-61002263D01*
X153372445Y-61005097D01*
X153373334Y-61007275D01*
X153373889Y-61008158D01*
X153373734Y-61008255D01*
X153398855Y-61069783D01*
X153399500Y-61082412D01*
X153399500Y-67917587D01*
X153379815Y-67984626D01*
X153372450Y-67994896D01*
X153370186Y-67997734D01*
X153274211Y-68150476D01*
X153214631Y-68320745D01*
X153214630Y-68320750D01*
X153194435Y-68499996D01*
X153194435Y-68500003D01*
X145500500Y-68500003D01*
X145500500Y-64348846D01*
X146159500Y-64348846D01*
X146190261Y-64503489D01*
X146190264Y-64503501D01*
X146250602Y-64649172D01*
X146250609Y-64649185D01*
X146338210Y-64780288D01*
X146338213Y-64780292D01*
X146449707Y-64891786D01*
X146449711Y-64891789D01*
X146580814Y-64979390D01*
X146580827Y-64979397D01*
X146726498Y-65039735D01*
X146726503Y-65039737D01*
X146853870Y-65065072D01*
X146881153Y-65070499D01*
X146881156Y-65070500D01*
X146881158Y-65070500D01*
X147038844Y-65070500D01*
X147038845Y-65070499D01*
X147193497Y-65039737D01*
X147339179Y-64979394D01*
X147470289Y-64891789D01*
X147581789Y-64780289D01*
X147669394Y-64649179D01*
X147669395Y-64649176D01*
X147669397Y-64649173D01*
X147697862Y-64580451D01*
X147741702Y-64526047D01*
X147807996Y-64503982D01*
X147875696Y-64521261D01*
X147923307Y-64572398D01*
X147932997Y-64598956D01*
X147973126Y-64766110D01*
X148069533Y-64998859D01*
X148201160Y-65213653D01*
X148201161Y-65213656D01*
X148201164Y-65213659D01*
X148364776Y-65405224D01*
X148513066Y-65531875D01*
X148556343Y-65568838D01*
X148556346Y-65568839D01*
X148771140Y-65700466D01*
X148961947Y-65779500D01*
X149003889Y-65796873D01*
X149248852Y-65855683D01*
X149500000Y-65875449D01*
X149751148Y-65855683D01*
X149996111Y-65796873D01*
X150228859Y-65700466D01*
X150443659Y-65568836D01*
X150635224Y-65405224D01*
X150681211Y-65351379D01*
X150739716Y-65313188D01*
X150809584Y-65312688D01*
X150868630Y-65350042D01*
X150898109Y-65413388D01*
X150899500Y-65431912D01*
X150899500Y-66417587D01*
X150879815Y-66484626D01*
X150872450Y-66494896D01*
X150870186Y-66497734D01*
X150774211Y-66650476D01*
X150714631Y-66820745D01*
X150714630Y-66820750D01*
X150694435Y-66999996D01*
X150694435Y-67000003D01*
X150714630Y-67179249D01*
X150714631Y-67179254D01*
X150774211Y-67349523D01*
X150870184Y-67502262D01*
X150997738Y-67629816D01*
X151150478Y-67725789D01*
X151320745Y-67785368D01*
X151320750Y-67785369D01*
X151499996Y-67805565D01*
X151500000Y-67805565D01*
X151500004Y-67805565D01*
X151679249Y-67785369D01*
X151679252Y-67785368D01*
X151679255Y-67785368D01*
X151849522Y-67725789D01*
X152002262Y-67629816D01*
X152129816Y-67502262D01*
X152225789Y-67349522D01*
X152285368Y-67179255D01*
X152305565Y-67000000D01*
X152300966Y-66959185D01*
X152285369Y-66820750D01*
X152285368Y-66820745D01*
X152228716Y-66658844D01*
X152225789Y-66650478D01*
X152129816Y-66497738D01*
X152129814Y-66497736D01*
X152129813Y-66497734D01*
X152127550Y-66494896D01*
X152126659Y-66492715D01*
X152126111Y-66491842D01*
X152126264Y-66491745D01*
X152101144Y-66430209D01*
X152100500Y-66417587D01*
X152100500Y-59082412D01*
X152120185Y-59015373D01*
X152127555Y-59005097D01*
X152129810Y-59002267D01*
X152129816Y-59002262D01*
X152225789Y-58849522D01*
X152285368Y-58679255D01*
X152285369Y-58679249D01*
X152305565Y-58500003D01*
X152305565Y-58499996D01*
X152285369Y-58320750D01*
X152285368Y-58320745D01*
X152225788Y-58150476D01*
X152129815Y-57997737D01*
X152002262Y-57870184D01*
X151849523Y-57774211D01*
X151679254Y-57714631D01*
X151679249Y-57714630D01*
X151500004Y-57694435D01*
X151499996Y-57694435D01*
X151320750Y-57714630D01*
X151320745Y-57714631D01*
X151150476Y-57774211D01*
X150997737Y-57870184D01*
X150870184Y-57997737D01*
X150774211Y-58150476D01*
X150714631Y-58320745D01*
X150714630Y-58320750D01*
X150694435Y-58499996D01*
X150694435Y-58500003D01*
X150714630Y-58679249D01*
X150714631Y-58679254D01*
X150774211Y-58849523D01*
X150834515Y-58945496D01*
X150868760Y-58999996D01*
X150870185Y-59002263D01*
X150872445Y-59005097D01*
X150873334Y-59007275D01*
X150873889Y-59008158D01*
X150873734Y-59008255D01*
X150898855Y-59069783D01*
X150899500Y-59082412D01*
X150899500Y-60028933D01*
X150879815Y-60095972D01*
X150827011Y-60141727D01*
X150757853Y-60151671D01*
X150732168Y-60145115D01*
X150707485Y-60135909D01*
X150707483Y-60135908D01*
X150647883Y-60129501D01*
X150647881Y-60129500D01*
X150647873Y-60129500D01*
X150647864Y-60129500D01*
X148352129Y-60129500D01*
X148352123Y-60129501D01*
X148292516Y-60135908D01*
X148157671Y-60186202D01*
X148157664Y-60186206D01*
X148042455Y-60272452D01*
X148042452Y-60272455D01*
X147956206Y-60387664D01*
X147956202Y-60387671D01*
X147905908Y-60522517D01*
X147899501Y-60582116D01*
X147899500Y-60582135D01*
X147899500Y-61286425D01*
X147879815Y-61353464D01*
X147827011Y-61399219D01*
X147757853Y-61409163D01*
X147694297Y-61380138D01*
X147672398Y-61355316D01*
X147581789Y-61219711D01*
X147581786Y-61219707D01*
X147470292Y-61108213D01*
X147470288Y-61108210D01*
X147339185Y-61020609D01*
X147339172Y-61020602D01*
X147193501Y-60960264D01*
X147193489Y-60960261D01*
X147038845Y-60929500D01*
X147038842Y-60929500D01*
X146881158Y-60929500D01*
X146881155Y-60929500D01*
X146726510Y-60960261D01*
X146726498Y-60960264D01*
X146580827Y-61020602D01*
X146580814Y-61020609D01*
X146449711Y-61108210D01*
X146449707Y-61108213D01*
X146338213Y-61219707D01*
X146338210Y-61219711D01*
X146250609Y-61350814D01*
X146250602Y-61350827D01*
X146190264Y-61496498D01*
X146190261Y-61496510D01*
X146159500Y-61651153D01*
X146159500Y-61808846D01*
X146190261Y-61963489D01*
X146190264Y-61963501D01*
X146250602Y-62109172D01*
X146250609Y-62109185D01*
X146338210Y-62240288D01*
X146338213Y-62240292D01*
X146449707Y-62351786D01*
X146449711Y-62351789D01*
X146580814Y-62439390D01*
X146580827Y-62439397D01*
X146726498Y-62499735D01*
X146726503Y-62499737D01*
X146881153Y-62530499D01*
X146881156Y-62530500D01*
X146881158Y-62530500D01*
X147038844Y-62530500D01*
X147038845Y-62530499D01*
X147193497Y-62499737D01*
X147339179Y-62439394D01*
X147470289Y-62351789D01*
X147581789Y-62240289D01*
X147669394Y-62109179D01*
X147669394Y-62109178D01*
X147672398Y-62104683D01*
X147726010Y-62059878D01*
X147795335Y-62051171D01*
X147858362Y-62081325D01*
X147895082Y-62140768D01*
X147899500Y-62173574D01*
X147899500Y-62877870D01*
X147899501Y-62877876D01*
X147905908Y-62937483D01*
X147956202Y-63072328D01*
X147956206Y-63072335D01*
X148042452Y-63187544D01*
X148042455Y-63187547D01*
X148119104Y-63244927D01*
X148160975Y-63300861D01*
X148165959Y-63370552D01*
X148150520Y-63408983D01*
X148069533Y-63541140D01*
X147973126Y-63773889D01*
X147932997Y-63941043D01*
X147898206Y-64001635D01*
X147836180Y-64033799D01*
X147766611Y-64027323D01*
X147711587Y-63984263D01*
X147697862Y-63959548D01*
X147669397Y-63890827D01*
X147669390Y-63890814D01*
X147581789Y-63759711D01*
X147581786Y-63759707D01*
X147470292Y-63648213D01*
X147470288Y-63648210D01*
X147339185Y-63560609D01*
X147339172Y-63560602D01*
X147193501Y-63500264D01*
X147193489Y-63500261D01*
X147038845Y-63469500D01*
X147038842Y-63469500D01*
X146881158Y-63469500D01*
X146881155Y-63469500D01*
X146726510Y-63500261D01*
X146726498Y-63500264D01*
X146580827Y-63560602D01*
X146580814Y-63560609D01*
X146449711Y-63648210D01*
X146449707Y-63648213D01*
X146338213Y-63759707D01*
X146338210Y-63759711D01*
X146250609Y-63890814D01*
X146250602Y-63890827D01*
X146190264Y-64036498D01*
X146190261Y-64036510D01*
X146159500Y-64191153D01*
X146159500Y-64348846D01*
X145500500Y-64348846D01*
X145500500Y-55000001D01*
X147669437Y-55000001D01*
X147689650Y-55231044D01*
X147689651Y-55231051D01*
X147749678Y-55455074D01*
X147749679Y-55455076D01*
X147749680Y-55455079D01*
X147847699Y-55665282D01*
X147980730Y-55855269D01*
X148144731Y-56019270D01*
X148334718Y-56152301D01*
X148544921Y-56250320D01*
X148768950Y-56310349D01*
X148933985Y-56324787D01*
X148999998Y-56330563D01*
X149000000Y-56330563D01*
X149000002Y-56330563D01*
X149057762Y-56325509D01*
X149231050Y-56310349D01*
X149455079Y-56250320D01*
X149665282Y-56152301D01*
X149855269Y-56019270D01*
X150019270Y-55855269D01*
X150152301Y-55665282D01*
X150157618Y-55653878D01*
X150203790Y-55601440D01*
X150270984Y-55582288D01*
X150337865Y-55602504D01*
X150382381Y-55653878D01*
X150387699Y-55665282D01*
X150520730Y-55855269D01*
X150684731Y-56019270D01*
X150874718Y-56152301D01*
X151084921Y-56250320D01*
X151308950Y-56310349D01*
X151473985Y-56324787D01*
X151539998Y-56330563D01*
X151540000Y-56330563D01*
X151540002Y-56330563D01*
X151597762Y-56325509D01*
X151771050Y-56310349D01*
X151995079Y-56250320D01*
X152205282Y-56152301D01*
X152395269Y-56019270D01*
X152559270Y-55855269D01*
X152692301Y-55665282D01*
X152790320Y-55455079D01*
X152850349Y-55231050D01*
X152870563Y-55000001D01*
X154129437Y-55000001D01*
X154149650Y-55231044D01*
X154149651Y-55231051D01*
X154209678Y-55455074D01*
X154209679Y-55455076D01*
X154209680Y-55455079D01*
X154307699Y-55665282D01*
X154440730Y-55855269D01*
X154604731Y-56019270D01*
X154794718Y-56152301D01*
X155004921Y-56250320D01*
X155228950Y-56310349D01*
X155393985Y-56324787D01*
X155459998Y-56330563D01*
X155460000Y-56330563D01*
X155460002Y-56330563D01*
X155517762Y-56325509D01*
X155691050Y-56310349D01*
X155915079Y-56250320D01*
X156125282Y-56152301D01*
X156315269Y-56019270D01*
X156479270Y-55855269D01*
X156612301Y-55665282D01*
X156617618Y-55653878D01*
X156663790Y-55601440D01*
X156730984Y-55582288D01*
X156797865Y-55602504D01*
X156842381Y-55653878D01*
X156847699Y-55665282D01*
X156980730Y-55855269D01*
X157144731Y-56019270D01*
X157334718Y-56152301D01*
X157544921Y-56250320D01*
X157768950Y-56310349D01*
X157933985Y-56324787D01*
X157999998Y-56330563D01*
X158000000Y-56330563D01*
X158000002Y-56330563D01*
X158057762Y-56325509D01*
X158231050Y-56310349D01*
X158455079Y-56250320D01*
X158665282Y-56152301D01*
X158855269Y-56019270D01*
X159019270Y-55855269D01*
X159152301Y-55665282D01*
X159157618Y-55653878D01*
X159203790Y-55601440D01*
X159270984Y-55582288D01*
X159337865Y-55602504D01*
X159382381Y-55653878D01*
X159387699Y-55665282D01*
X159520730Y-55855269D01*
X159684731Y-56019270D01*
X159874718Y-56152301D01*
X160084921Y-56250320D01*
X160308950Y-56310349D01*
X160473985Y-56324787D01*
X160539998Y-56330563D01*
X160540000Y-56330563D01*
X160540002Y-56330563D01*
X160597762Y-56325509D01*
X160771050Y-56310349D01*
X160995079Y-56250320D01*
X161205282Y-56152301D01*
X161395269Y-56019270D01*
X161559270Y-55855269D01*
X161692301Y-55665282D01*
X161790320Y-55455079D01*
X161850349Y-55231050D01*
X161870563Y-55000001D01*
X169629437Y-55000001D01*
X169649650Y-55231044D01*
X169649651Y-55231051D01*
X169709678Y-55455074D01*
X169709679Y-55455076D01*
X169709680Y-55455079D01*
X169807699Y-55665282D01*
X169940730Y-55855269D01*
X170104731Y-56019270D01*
X170294718Y-56152301D01*
X170504921Y-56250320D01*
X170728950Y-56310349D01*
X170893985Y-56324787D01*
X170959998Y-56330563D01*
X170960000Y-56330563D01*
X170960002Y-56330563D01*
X171017762Y-56325509D01*
X171191050Y-56310349D01*
X171415079Y-56250320D01*
X171625282Y-56152301D01*
X171815269Y-56019270D01*
X171979270Y-55855269D01*
X172112301Y-55665282D01*
X172117618Y-55653878D01*
X172163790Y-55601440D01*
X172230984Y-55582288D01*
X172297865Y-55602504D01*
X172342381Y-55653878D01*
X172347699Y-55665282D01*
X172480730Y-55855269D01*
X172644731Y-56019270D01*
X172834718Y-56152301D01*
X173044921Y-56250320D01*
X173268950Y-56310349D01*
X173433985Y-56324787D01*
X173499998Y-56330563D01*
X173500000Y-56330563D01*
X173500002Y-56330563D01*
X173557762Y-56325509D01*
X173731050Y-56310349D01*
X173955079Y-56250320D01*
X174165282Y-56152301D01*
X174355269Y-56019270D01*
X174519270Y-55855269D01*
X174652301Y-55665282D01*
X174657618Y-55653878D01*
X174703790Y-55601440D01*
X174770984Y-55582288D01*
X174837865Y-55602504D01*
X174882381Y-55653878D01*
X174887699Y-55665282D01*
X175020730Y-55855269D01*
X175184731Y-56019270D01*
X175374718Y-56152301D01*
X175584921Y-56250320D01*
X175808950Y-56310349D01*
X175973985Y-56324787D01*
X176039998Y-56330563D01*
X176040000Y-56330563D01*
X176040002Y-56330563D01*
X176097762Y-56325509D01*
X176271050Y-56310349D01*
X176495079Y-56250320D01*
X176705282Y-56152301D01*
X176895269Y-56019270D01*
X177059270Y-55855269D01*
X177192301Y-55665282D01*
X177290320Y-55455079D01*
X177350349Y-55231050D01*
X177370563Y-55000000D01*
X177350349Y-54768950D01*
X177290320Y-54544921D01*
X177192301Y-54334719D01*
X177192299Y-54334716D01*
X177192298Y-54334714D01*
X177059273Y-54144735D01*
X177059268Y-54144729D01*
X176895269Y-53980730D01*
X176895263Y-53980726D01*
X176705282Y-53847699D01*
X176495079Y-53749680D01*
X176495076Y-53749679D01*
X176495074Y-53749678D01*
X176271051Y-53689651D01*
X176271044Y-53689650D01*
X176040002Y-53669437D01*
X176039998Y-53669437D01*
X175808955Y-53689650D01*
X175808948Y-53689651D01*
X175584917Y-53749681D01*
X175374718Y-53847699D01*
X175374714Y-53847701D01*
X175184735Y-53980726D01*
X175184729Y-53980731D01*
X175020731Y-54144729D01*
X175020726Y-54144735D01*
X174887701Y-54334714D01*
X174887698Y-54334720D01*
X174882381Y-54346123D01*
X174836207Y-54398562D01*
X174769013Y-54417712D01*
X174702133Y-54397495D01*
X174657619Y-54346123D01*
X174652301Y-54334720D01*
X174652298Y-54334714D01*
X174519273Y-54144735D01*
X174519268Y-54144729D01*
X174355269Y-53980730D01*
X174355263Y-53980726D01*
X174165282Y-53847699D01*
X173955079Y-53749680D01*
X173955076Y-53749679D01*
X173955074Y-53749678D01*
X173731051Y-53689651D01*
X173731044Y-53689650D01*
X173500002Y-53669437D01*
X173499998Y-53669437D01*
X173268955Y-53689650D01*
X173268948Y-53689651D01*
X173044917Y-53749681D01*
X172834718Y-53847699D01*
X172834714Y-53847701D01*
X172644735Y-53980726D01*
X172644729Y-53980731D01*
X172480731Y-54144729D01*
X172480726Y-54144735D01*
X172347701Y-54334714D01*
X172347698Y-54334720D01*
X172342381Y-54346123D01*
X172296207Y-54398562D01*
X172229013Y-54417712D01*
X172162133Y-54397495D01*
X172117619Y-54346123D01*
X172112301Y-54334720D01*
X172112298Y-54334714D01*
X171979273Y-54144735D01*
X171979268Y-54144729D01*
X171815269Y-53980730D01*
X171815263Y-53980726D01*
X171625282Y-53847699D01*
X171415079Y-53749680D01*
X171415076Y-53749679D01*
X171415074Y-53749678D01*
X171191051Y-53689651D01*
X171191044Y-53689650D01*
X170960002Y-53669437D01*
X170959998Y-53669437D01*
X170728955Y-53689650D01*
X170728948Y-53689651D01*
X170504917Y-53749681D01*
X170294718Y-53847699D01*
X170294714Y-53847701D01*
X170104735Y-53980726D01*
X170104729Y-53980731D01*
X169940731Y-54144729D01*
X169940726Y-54144735D01*
X169807701Y-54334714D01*
X169807699Y-54334718D01*
X169709681Y-54544917D01*
X169649651Y-54768948D01*
X169649650Y-54768955D01*
X169629437Y-54999998D01*
X169629437Y-55000001D01*
X161870563Y-55000001D01*
X161870563Y-55000000D01*
X161850349Y-54768950D01*
X161790320Y-54544921D01*
X161692301Y-54334719D01*
X161692299Y-54334716D01*
X161692298Y-54334714D01*
X161559273Y-54144735D01*
X161559268Y-54144729D01*
X161395269Y-53980730D01*
X161395263Y-53980726D01*
X161205282Y-53847699D01*
X160995079Y-53749680D01*
X160995076Y-53749679D01*
X160995074Y-53749678D01*
X160771051Y-53689651D01*
X160771044Y-53689650D01*
X160540002Y-53669437D01*
X160539998Y-53669437D01*
X160308955Y-53689650D01*
X160308948Y-53689651D01*
X160084917Y-53749681D01*
X159874718Y-53847699D01*
X159874714Y-53847701D01*
X159684735Y-53980726D01*
X159684729Y-53980731D01*
X159520731Y-54144729D01*
X159520726Y-54144735D01*
X159387701Y-54334714D01*
X159387698Y-54334720D01*
X159382381Y-54346123D01*
X159336207Y-54398562D01*
X159269013Y-54417712D01*
X159202133Y-54397495D01*
X159157619Y-54346123D01*
X159152301Y-54334720D01*
X159152298Y-54334714D01*
X159019273Y-54144735D01*
X159019268Y-54144729D01*
X158855269Y-53980730D01*
X158855263Y-53980726D01*
X158665282Y-53847699D01*
X158455079Y-53749680D01*
X158455076Y-53749679D01*
X158455074Y-53749678D01*
X158231051Y-53689651D01*
X158231044Y-53689650D01*
X158000002Y-53669437D01*
X157999998Y-53669437D01*
X157768955Y-53689650D01*
X157768948Y-53689651D01*
X157544917Y-53749681D01*
X157334718Y-53847699D01*
X157334714Y-53847701D01*
X157144735Y-53980726D01*
X157144729Y-53980731D01*
X156980731Y-54144729D01*
X156980726Y-54144735D01*
X156847701Y-54334714D01*
X156847698Y-54334720D01*
X156842381Y-54346123D01*
X156796207Y-54398562D01*
X156729013Y-54417712D01*
X156662133Y-54397495D01*
X156617619Y-54346123D01*
X156612301Y-54334720D01*
X156612298Y-54334714D01*
X156479273Y-54144735D01*
X156479268Y-54144729D01*
X156315269Y-53980730D01*
X156315263Y-53980726D01*
X156125282Y-53847699D01*
X155915079Y-53749680D01*
X155915076Y-53749679D01*
X155915074Y-53749678D01*
X155691051Y-53689651D01*
X155691044Y-53689650D01*
X155460002Y-53669437D01*
X155459998Y-53669437D01*
X155228955Y-53689650D01*
X155228948Y-53689651D01*
X155004917Y-53749681D01*
X154794718Y-53847699D01*
X154794714Y-53847701D01*
X154604735Y-53980726D01*
X154604729Y-53980731D01*
X154440731Y-54144729D01*
X154440726Y-54144735D01*
X154307701Y-54334714D01*
X154307699Y-54334718D01*
X154209681Y-54544917D01*
X154149651Y-54768948D01*
X154149650Y-54768955D01*
X154129437Y-54999998D01*
X154129437Y-55000001D01*
X152870563Y-55000001D01*
X152870563Y-55000000D01*
X152850349Y-54768950D01*
X152790320Y-54544921D01*
X152692301Y-54334719D01*
X152692299Y-54334716D01*
X152692298Y-54334714D01*
X152559273Y-54144735D01*
X152559268Y-54144729D01*
X152395269Y-53980730D01*
X152395263Y-53980726D01*
X152205282Y-53847699D01*
X151995079Y-53749680D01*
X151995076Y-53749679D01*
X151995074Y-53749678D01*
X151771051Y-53689651D01*
X151771044Y-53689650D01*
X151540002Y-53669437D01*
X151539998Y-53669437D01*
X151308955Y-53689650D01*
X151308948Y-53689651D01*
X151084917Y-53749681D01*
X150874718Y-53847699D01*
X150874714Y-53847701D01*
X150684735Y-53980726D01*
X150684729Y-53980731D01*
X150520731Y-54144729D01*
X150520726Y-54144735D01*
X150387701Y-54334714D01*
X150387698Y-54334720D01*
X150382381Y-54346123D01*
X150336207Y-54398562D01*
X150269013Y-54417712D01*
X150202133Y-54397495D01*
X150157619Y-54346123D01*
X150152301Y-54334720D01*
X150152298Y-54334714D01*
X150019273Y-54144735D01*
X150019268Y-54144729D01*
X149855269Y-53980730D01*
X149855263Y-53980726D01*
X149665282Y-53847699D01*
X149455079Y-53749680D01*
X149455076Y-53749679D01*
X149455074Y-53749678D01*
X149231051Y-53689651D01*
X149231044Y-53689650D01*
X149000002Y-53669437D01*
X148999998Y-53669437D01*
X148768955Y-53689650D01*
X148768948Y-53689651D01*
X148544917Y-53749681D01*
X148334718Y-53847699D01*
X148334714Y-53847701D01*
X148144735Y-53980726D01*
X148144729Y-53980731D01*
X147980731Y-54144729D01*
X147980726Y-54144735D01*
X147847701Y-54334714D01*
X147847699Y-54334718D01*
X147749681Y-54544917D01*
X147689651Y-54768948D01*
X147689650Y-54768955D01*
X147669437Y-54999998D01*
X147669437Y-55000001D01*
X145500500Y-55000001D01*
X145500500Y-52624500D01*
X145520185Y-52557461D01*
X145572989Y-52511706D01*
X145624500Y-52500500D01*
X184625500Y-52500500D01*
X184692539Y-52520185D01*
G37*
%TD.AperFunction*%
%TD*%
M02*
